<?xml version="1.0" encoding="UTF-8"?><svg id="a" xmlns="http://www.w3.org/2000/svg" viewBox="0 0 1292.04446 843.269"><defs><style>.b,.c{fill:none;}.d{fill:#231f20;}.c{stroke:#2f2e71;stroke-linecap:round;stroke-linejoin:round;stroke-width:0px;}</style></defs><g><path class="d" d="M372.92228,739.38764c12.44066,.38123,27.08782-1.31479,41.13943,3.58037,13.23655,4.61128,21.81091,13.35383,23.47654,27.76229,1.70643,14.76259-3.37519,26.69838-15.54698,35.3059-15.33653,10.84542-33.14206,13.37629-51.21893,13.96645-20.48991,.66906-40.99475,.50852-60.27336-8.23436-23.09611-10.47399-26.07126-36.64866-5.52936-51.16787,3.65064-2.58028,3.26719-3.57696,.70942-6.50644-9.51135-10.89335-9.39501-30.53254,3.7979-39.79216,3.82002-2.68114,3.37283-4.72457,.61416-7.96132-19.27131-22.61149-9.9927-57.28959,18.0319-68.17787,22.66088-8.8044,45.41971-8.83805,68.21236-.83806,2.82746,.99241,4.47931,.86417,6.68147-1.08135,4.12661-3.64576,8.43808-7.12395,12.93705-10.29736,6.78606-4.78678,15.09666-4.37016,19.60414,.62124,4.81165,5.32823,4.93359,13.14193-2.17196,18.84491-9.50504,7.62875-10.97373,14.8159-7.80481,26.85489,5.42076,20.59338-8.50479,40.90983-30.33854,48.58935-18.55909,6.52777-37.51058,6.72787-56.53317,2.3146-3.91089-.90738-7.30892-1.6935-8.838,3.06811-1.37568,4.28372-.82087,8.2267,3.41461,10.77668,3.24655,1.95462,6.90878,2.36964,10.62695,2.37096,8.99893,.00321,17.99791,.00102,29.00925,.00102l-.00005,.00003Zm-8.93557-37.52046c3.64016-.40566,6.89714-.48047,10.01889-1.16834,11.1744-2.46232,18.46449-9.98563,19.36311-19.66489,.89686-9.66006-3.99089-18.98969-12.69042-22.48822-11.30529-4.54641-22.92827-4.89532-34.19227,.23194-13.54429,6.16525-17.61292,23.50622-7.96151,33.98331,6.91075,7.50199,16.30735,8.76214,25.46221,9.1062Zm-2.44901,64.2886l-.00027-.21693c-8.50874,0-17.02654,.23738-25.52315-.08453-5.54567-.21009-8.4769,2.68674-10.43825,7.17064-4.03898,9.23414,1.02111,17.54407,13.28064,20.00096,17.28004,3.46293,34.66181,3.38414,51.89859-1.00719,3.22442-.82142,5.93993-2.5172,8.47564-4.36374,6.69042-4.8721,5.77467-14.96566-1.58959-18.92525-3.27263-1.75952-6.85596-2.56329-10.5855-2.56947-8.50605-.01414-17.0121-.00447-25.51816-.00447l.00005-.00003Z"/><path class="d" d="M1189.53527,720.03749c-15.22091,.00052-30.445,.17009-45.66085-.10671-4.3515-.07917-4.60746,1.43871-4.02526,5.04746,2.71941,16.85472,18.26601,30.08005,39.00996,32.33991,15.72954,1.71359,30.27315-.76811,41.66733-13.28254,2.25811-2.47995,5.37601-4.40843,8.44143-5.87084,5.15036-2.45713,10.64375-3.32347,15.48335,.74991,5.00431,4.2121,5.7755,9.90106,3.77412,15.71999-4.14176,12.04222-13.02144,20.32174-24.21555,25.10185-32.06127,13.69072-63.24879,12.49666-91.98462-8.82107-13.90639-10.31655-21.1486-25.07291-24.46592-41.84722-4.69465-23.73813-2.32575-46.60474,11.60875-66.74463,17.836-25.77924,43.89678-33.63067,73.89606-29.83494,28.07785,3.55263,47.43789,18.66943,56.59285,45.77345,2.80012,8.2898,4.06248,17.03274,3.13987,25.8245-1.17374,11.1817-6.32476,15.80503-17.59903,15.91388-15.2197,.14698-30.44159,.03651-45.66272,.03706l.00022-.00005Zm-9.52469-26.86578c11.28943,0,22.59214-.3296,33.86246,.13504,5.89288,.24291,6.27513-1.88064,5.06405-6.7077-4.05183-16.14909-16.78985-26.39965-35.10692-27.85015-21.11873-1.67239-37.37963,8.25732-43.19433,26.37656-2.31652,7.21861-1.79702,8.01589,5.5069,8.03753,11.28921,.0334,22.57863,.00878,33.86784,.00873Z"/><path class="d" d="M854.20327,788.30188c-45.97315,.19357-78.26073-31.74252-78.69569-77.83885-.43034-45.62111,31.79531-78.60814,77.00364-78.82262,48.54014-.23028,81.14442,30.65643,81.32758,77.0435,.18876,47.80319-31.43009,79.41504-79.63554,79.61797Zm-.34216-30.6885c26.85996,.25758,45.47011-18.62681,46.19639-46.87731,.71628-27.85666-18.23252-48.22391-45.21964-48.60478-25.71027-.36285-45.03384,19.56599-45.55082,46.97764-.52247,27.70033,18.36495,48.25316,44.57408,48.50446Z"/><path class="d" d="M534.34737,788.23811c-15.05334-.31696-34.54525-4.4288-49.78955-19.9779-4.88198-4.9796-8.64403-10.80685-9.44157-17.99874-.60329-5.44157,1.00091-10.29796,5.78373-13.1724,4.57177-2.74752,9.66459-2.71398,14.48134-.19637,4.33536,2.26604,7.79422,5.66294,11.23606,9.0876,12.63535,12.57185,27.99088,16.11121,45.09248,12.99086,8.79172-1.60406,13.73388-6.77909,14.68943-14.33091,.92261-7.29124-3.00184-13.66722-11.06882-17.23032-9.35767-4.13317-19.59195-4.86546-29.44815-7.03396-11.3093-2.48824-22.44862-5.41722-31.55879-12.95116-20.6303-17.06074-19.13745-49.64014,3.0417-64.82258,17.45189-11.94651,37.09281-12.53374,57.08644-9.60009,13.66711,2.00537,26.29917,6.62263,36.1422,16.99546,3.57405,3.76655,6.01202,8.19001,7.29053,13.13663,1.4106,5.45781,.59934,10.51176-4.0414,14.40418-4.61021,3.86687-9.57784,3.64217-14.79617,1.48335-5.91023-2.4451-10.02619-7.29267-14.85502-11.14713-11.35608-9.06468-24.21127-10.64245-37.76232-7.6015-7.96684,1.78779-12.2262,7.28455-12.3784,13.81202-.16285,6.98891,3.92961,12.38852,11.72284,15.12788,13.31671,4.68102,27.54045,5.46923,41.03154,9.46545,7.8108,2.31364,15.17171,5.46798,21.16331,11.05109,21.87586,20.38469,14.90026,58.45924-13.01046,71.57377-11.06103,5.19719-22.80528,6.92379-40.61097,6.93477Z"/><path class="d" d="M107.0196,787.86835c-21.65652-.16946-42.14687-3.87968-57.73014-20.95443-3.65059-4-6.34513-8.48969-7.68908-13.68002-1.60601-6.20227-.88539-11.97787,4.84069-15.91929,5.1122-3.51882,12.92958-2.8049,18.0319,1.46463,4.05963,3.39699,7.94004,7.007,11.96096,10.45145,12.55085,10.75131,27.16391,12.72677,42.72676,9.42383,8.028-1.70385,12.72441-7.58048,13.06064-14.85944,.35896-7.77091-3.70396-14.58632-11.65471-16.78755-12.63228-3.49738-25.61885-5.70376-38.2861-9.08985-15.46572-4.13413-28.78612-11.58819-34.33217-27.87026-8.05589-23.6502,5.39924-47.98919,31.06262-54.98433,23.44997-6.39182,46.52367-4.93114,68.14445,7.39679,7.85176,4.47701,13.79872,10.77688,16.34013,19.61248,1.74837,6.07827,1.29382,12.1019-4.47317,16.03597-5.79109,3.95049-11.79521,2.96389-17.42559-.72923-5.96168-3.91049-10.58198-9.5017-16.92393-13.03315-10.64864-5.92958-21.73261-6.88919-33.2444-3.74585-6.52939,1.78288-10.99064,5.92151-11.34757,13.10758-.34606,6.96857,2.99327,11.73684,9.36344,14.63219,9.37272,4.2601,19.57592,4.8864,29.43684,6.99561,10.82444,2.31533,21.76528,4.52714,30.93167,11.10157,16.74329,12.00878,21.82952,34.7745,12.4545,53.74123-9.47747,19.17407-26.71738,25.38817-46.2721,27.64254-2.95446,.34063-5.98194,.04749-8.9757,.04749h.00005Z"/><path class="d" d="M659.41634,707.96008c-.00187-12.45021-.14802-24.90313,.08291-37.34908,.07379-3.97844-1.22426-5.14632-5.10665-5.05236-5.97304,.14463-12.00428,.08414-17.93087-.59133-7.8097-.89011-12.93184-7.01747-12.98894-14.59404-.0526-7.00773,5.53743-13.45433,13.08963-14.24139,5.93691-.61874,11.96947-.6872,17.94131-.47805,4.05699,.14208,5.13476-1.32306,4.98718-5.16123-.26552-6.90658-.15362-13.83181-.05392-20.74719,.13825-9.59214,6.36616-16.19841,15.65147-16.78008,8.67368-.54335,15.61786,5.38248,16.91624,14.62307,.38268,2.72389,.25541,5.51567,.45889,8.26918,.46998,6.35843-2.82263,14.69547,1.34164,18.56057,4.07917,3.78602,12.31372,.88764,18.71897,1.11999,7.36684,.26723,14.78475-.0711,22.09636,.67563,6.27545,.64093,10.35869,4.61082,11.73832,10.99594,1.36349,6.31062-.83136,11.41793-5.70028,15.24863-3.5735,2.81164-8.05908,3.1774-12.49128,3.18328-9.91671,.0132-19.83693,.15495-29.74859-.06624-4.15406-.09271-6.14072,.62268-6.08219,5.54848,.26563,22.36113-.03294,44.72852,.16845,67.091,.14363,15.95388,12.12101,22.88681,26.46476,15.47731,3.64279-1.88176,6.94562-4.41524,10.43391-6.60301,5.8494-3.66871,11.95004-4.11618,17.18813,.55942,5.2102,4.65078,5.66832,10.8987,2.87896,17.12315-4.30263,9.60117-12.20699,15.29338-21.76704,18.86911-18.81253,7.03662-37.03494,7.19002-53.32725-6.2088-10.38318-8.53924-14.62618-20.33365-14.90433-33.50569-.25311-11.98375-.05359-23.97708-.05556-35.96618l-.00022-.00008Z"/><path class="d" d="M1009.24254,650.11107c11.09078-13.75224,25.07832-19.7313,42.13083-18.35228,10.48113,.84759,19.75611,4.19529,26.60093,12.68709,4.90054,6.07971,6.84756,12.9988,5.51163,20.64727-1.04088,5.95776-3.71592,10.58141-10.1819,12.64286-7.34609,2.34205-13.03341,.0662-18.18102-4.85596-10.51121-10.05085-18.72776-12.17039-29.03516-6.85085-7.33851,3.78727-11.41351,10.4582-14.15379,17.98845-2.7114,7.45032-3.54847,15.21295-3.5488,23.09204-.00099,20.98696,.02767,41.97394-.01823,62.96079-.01449,6.66755-2.30455,12.25176-8.62042,15.3423-5.76561,2.82137-11.56395,2.77558-17.03505-.87446-5.52294-3.68438-7.33665-9.25105-7.34203-15.52895-.03415-39.43695-.05886-78.87396,.01197-118.31076,.01845-10.25191,5.658-17.00029,14.50781-17.90759,10.26876-1.05278,16.21984,3.7681,18.5021,14.96575,.11431,.56066,.3874,1.08892,.85124,2.3543h-.00011Z"/><path class="d" d="M245.38717,710.17701c.00258,20.06262,.18865,40.12757-.06814,60.18692-.15071,11.77843-8.90812,18.6295-20.24729,16.50276-7.07442-1.32687-12.56156-7.67236-12.59648-15.97974-.17163-40.81656-.21012-81.63488,.01043-122.45095,.05134-9.49625,7.30233-15.84743,16.52845-15.76421,9.69962,.08749,16.13825,6.21785,16.286,16.62701,.28803,20.28904,.08439,40.58508,.08697,60.87822h.00005Z"/><path class="d" d="M249.5453,594.57135c-.07072,11.15609-9.0815,19.93657-20.37159,19.85104-11.8298-.08962-20.68658-8.75676-20.76536-20.3208-.07769-11.39885,9.1934-20.47316,20.80555-20.36416,11.53738,.1083,20.40519,9.19532,20.3314,20.83393Z"/></g><g><path class="b" d="M509.20632,376.2672c-2.18018-2.77112-4.21777-5.68475-6.48047-8.37854-.75439-.89789-1.53345-1.77142-2.35107-2.60706-.87622-.89526-1.72217-1.81018-2.54028-2.74298-4.90967-5.59668-8.83008-11.83606-12.3855-18.33026-.59253-1.0824-1.1748-2.17181-1.75-3.26654-.32129-.61139-.66675-1.21118-1.01611-1.80969-1.04736-1.79541-2.12817-3.57825-2.68555-5.62207-.75098-2.75354-1.4939-5.51086-2.19678-8.27649-.70264-2.76562-1.36548-5.53949-1.95679-8.32617-.88696-4.18005-1.61304-8.38873-2.07153-12.64117-.15283-1.41748-.27588-2.83984-.36523-4.26764-.35107-5.60968-1.35254-11.10205-2.37866-16.5871-.4104-2.19403-.82446-4.38684-1.20288-6.58557-.18896-1.09937-.36914-2.2002-.53516-3.30334-1.29102-8.57886-2.87866-17.08832-3.44873-25.77258-.05518-.84009-.10156-1.6795-.1394-2.51837-.03784-.83881-.06665-1.67706-.08667-2.51483-.04004-1.67554-.04443-3.349-.01172-5.02112,.01636-.836,.04199-1.67169,.07666-2.50708,.06982-1.67078,.17725-3.34045,.32324-5.00952,.07324-.83453,.15576-1.66895,.24854-2.5033,.72192-6.5105,1.58008-13.00714,3.35303-19.33459,3.23877-11.5589,8.18359-22.4137,13.58545-33.09503,5.39136-10.66113,12.2168-20.33136,19.84082-29.47321,1.18457-1.42053,2.38965-2.82385,3.60059-4.22205,2.42236-2.79639,4.86914-5.57214,7.22607-8.42389,1.17871-1.42584,2.33496-2.87073,3.45435-4.34656,1.45508-1.91833,2.65845-3.95642,3.77368-6.71185-.10742,.03326-.20898,.06512-.31494,.0979-.5752,.17816-1.13379,.35138-1.66577,.5307-.62988,.2124-1.22949,.435-1.79858,.69006-.39697,.17798-.77344,.38031-1.14111,.59747-.68604,.40546-1.32617,.88373-1.90967,1.50146-4.45044,4.71259-8.85718,9.47028-13.30396,14.18774-4.44678,4.71753-8.93335,9.39484-13.54346,13.94678-10.73462,10.59912-17.37451,23.43567-22.05029,37.49756-3.29077,9.89667-5.16309,20.03284-5.82739,30.33392-.09497,1.47156-.16528,2.94653-.21143,4.42462-.05273,1.68927-.07397,3.38257-.06494,5.07971,.01587,2.93372,.13794,5.85962,.33545,8.77966,.4939,7.30017,1.45947,14.56396,2.41431,21.8233,.19092,1.45184,.38159,2.9035,.56763,4.35529,.97021,7.56134,2.08252,15.13904,2.74463,22.69794,.17896,2.04376,.37842,4.0799,.60425,6.10925,.45166,4.05872,1.00879,8.09045,1.71899,12.10242,.35498,2.00598,.74829,4.00702,1.18579,6.00409,2.81543,12.85175,7.1438,25.16687,12.85425,36.94843,.81592,1.68311,1.65991,3.35529,2.53174,5.0166,1.10132,2.09863,2.35156,4.09686,3.71802,6.01642,.45557,.63989,.92407,1.271,1.4043,1.89423,1.9209,2.49286,4.0293,4.85883,6.24878,7.14972,2.75854,2.84747,5.76953,5.31793,8.80322,7.79498,.83472,.68164,1.83325,1.17035,2.83105,1.64783,.33276,.15918,.66528,.31708,.9917,.48047,.28271,.14148,.58936,.20868,.88989,.18469,.30054-.02405,.59546-.1394,.85425-.36298,.58569-.50568,.34937-1.13983,.11084-1.70807-.23633-.56342-.48462-1.14954-.85742-1.6236Z"/><path class="b" d="M672.58816,426.52129c-13.98389,.77289-27.8916-.2373-41.7063-2.69476-27.23413-4.84448-51.70679-15.71063-72.96265-33.46826-1.31494-1.09857-2.6084-2.21375-3.88013-3.34515-2.5437-2.26288-5.00171-4.59082-7.3772-6.98151-1.18774-1.19537-2.35474-2.40637-3.50146-3.63269-11.18115-11.95691-20.43262-25.3728-28.09082-39.95752-1.76709-3.36572-3.44971-6.79364-5.05127-10.28021-4.25977-9.27301-7.47607-18.91046-10.30371-28.71405-.94263-3.26782-1.84204-6.55414-2.72266-9.85156,.28784,4.21497-.30933,8.42908-.0791,12.55377,.11841,2.11951,.57031,4.22009,1.11475,6.31567,.27222,1.04785,.56738,2.09436,.85547,3.14142,.28833,1.04706,.56934,2.0946,.81323,3.14441,.28784,1.23926,.61963,2.46307,.9834,3.6759,1.09155,3.63843,2.47266,7.17767,3.83008,10.73688,3.96851,10.40527,8.80493,20.2356,15.67065,29.14209,3.73486,4.84521,7.43408,9.69232,11.34033,14.37982,1.5625,1.875,3.1582,3.72449,4.80225,5.53809,.82227,.9068,1.65649,1.80463,2.50488,2.6922,7.99463,8.36432,16.91724,15.56073,26.32129,22.18231,3.21362,2.26276,5.96143,5.20001,9.54297,6.89746,5.83252,2.7644,11.63257,5.64795,17.64282,7.97382,7.44458,2.88098,14.9353,5.6156,22.7793,7.45264,6.82373,1.59802,13.75562,2.60229,20.54858,4.29547,.81348,.20276,1.68604,.28943,2.52393,.25433,4.48975-.18793,8.92725,.53333,13.39404,.70947,6.44824,.25427,12.85254,1.21411,19.3623-.05487,3.56714-.69531,7.30347-.87079,11.02441-.82367,3.60254,.04559,7.2749-.22998,10.80908-.91681,12.8855-2.50415,25.06958-7.01343,36.51294-13.47424,.7605-.4295,1.61377-.78656,2.30151-1.90118-3.23926,.20483-5.73584,1.58063-8.26514,2.74872-16.10718,7.43915-33.10571,11.28748-50.73779,12.26202Z"/><path class="b" d="M669.64895,449.65776c-3.74902-.34735-7.50269-.45294-11.27026-.53882-5.69287-.12982-11.36768-.9989-17.06104-1.15625-11.12109-.30743-22.10767-2.0741-33.12915-3.22369-8.69165-.90656-17.51782-2.75122-25.30322-7.42609-.52393-.31464-1.11499-.52972-1.69409-.7381-1.51392-.5451-2.38306-.0329-2.55469,1.60101-.20728,1.9743,.1106,3.88495,1.03223,5.6106,1.30615,2.44562,2.56006,4.96698,4.2207,7.16571,3.81006,5.04492,8.63184,8.55548,15.30908,8.4549,4.61914-.06964,9.23853-.26648,13.85156-.51752,2.07104-.11273,4.14819-.29657,6.17627-.86395,5.5-1.53857,11.1189-2.49658,16.75977-3.34406,1.0166-.15271,1.99023-.00098,2.98779,.11053,5.05005,.56445,10.10376,1.09644,14.64453,1.58478,6.29004-.15802,11.88477-.94067,16.79443-4.32043,.61963-.4267,1.61792-.77917,1.41309-1.63568-.25537-1.0672-1.37988-.68915-2.177-.76294Z"/><path class="b" d="M659.77517,47.19792c.43896,.11096,.9187,.08484,1.37964,.08081,2.7085-.0235,5.38745,.30908,8.05615,.70703,10.63843,1.5863,21.18701,3.62805,31.65845,6.01166,6.28296,1.43018,12.53809,2.98346,18.76831,4.63525,11.56079,3.06512,21.71021,9.17676,30.99438,16.62085,4.04346,3.24213,7.51538,7.05243,10.89941,10.94855,2.03052,2.33765,4.0293,4.70624,6.10107,7.00146,.45923,.50891,.87598,1.24396,1.46631,1.54742,.35425,.18213,.771,.20886,1.29712-.06183,1.35522-.69708,.96045-2.12219,.82544-3.3349-.021-.18738-.0769-.37097-.14355-.55334-.06641-.18231-.14355-.36334-.20605-.54547-3.00098-8.72894-7.271-16.49982-14.54736-22.63007-8.12061-6.84143-16.92334-12.48364-26.76978-16.21045-15.73804-5.95679-32.28735-7.84503-49.00049-8.49927-1.62085,0-3.25391-.12909-4.86035,.02356-1.00464,.0954-2.01294,.16235-3.02246,.22003-1.00952,.05774-2.02051,.1062-3.03003,.16479-1.34619,.07806-2.68994,.17401-4.02539,.33362-.50098,.05981-1.00049,.1286-1.49854,.20874-.99658,.16022-1.98682,.36597-2.96851,.63635-.49097,.13519-.97974,.28656-1.46606,.45654-.12891,.0451-.28223,.07715-.43848,.11224-.15625,.03516-.31592,.07336-.45776,.1308-.28369,.11493-.49634,.30664-.4707,.70441v.00006c.04785,.74249,.77124,1.11719,1.45923,1.29114Z"/><path class="b" d="M542.40481,414.85747c-4.30371-2.1712-8.17993-4.85999-11.63184-8.26233-1.52808-1.5061-2.96606-2.04584-4.20898-1.70044s-2.29077,1.57587-3.03906,3.61035c-.32007,.87012-.42773,1.72815-.42554,2.5813,.00098,.35547,.021,.71021,.05298,1.06451,.09546,1.06305,.29663,2.12329,.40454,3.19519,.19946,1.9848,.68018,3.63141,1.43896,4.92529,.45508,.77637,1.01001,1.42572,1.66431,1.94495,.87231,.69238,1.9209,1.15338,3.14355,1.37567,.30591,.05554,.62231,.09625,.94995,.12189,.32739,.02563,.66553,.03619,1.01489,.03162,.69824-.00916,1.43994-.07892,2.22485-.21021,5.85205-.979,11.60522-2.51379,17.52246-3.16125,.80737-.08832,1.6958-.21759,2.59448-1.03845-1.86841-1.31531-3.68481-2.22205-5.77563-2.60889-2.0459-.3786-4.03564-.91345-5.92993-1.8692Z"/><path class="b" d="M849.32204,177.41478c-9.38818-17.09351-22.46802-31.04688-37.77441-42.9884-.55664-.43439-1.07959-1.21252-2.33594-.84003,.18311,.11035,.35547,.22516,.51855,.34357,.32593,.23688,.61475,.48853,.87793,.74957,.13184,.13055,.25708,.26343,.37744,.39801,.24072,.26923,.46216,.5451,.67578,.82251s.41968,.55627,.62988,.83124c7.40112,9.68097,14.7793,19.37939,22.20312,29.04285,8.54932,11.12842,15.69727,22.98114,20.17944,36.40631,4.03198,12.0769,6.29956,24.42157,6.98462,37.09418,.11621,2.15503,.20972,4.31616,.18408,6.47296-.0835,6.97858,.43262,13.95801-.91064,20.91711-1.13623,5.88794-2.33911,11.75488-3.49414,17.67712,.13965-.17334,.32861-.32587,.41162-.52301,7.81177-18.54541,10.38892-37.71515,7.50513-57.71051-2.48315-17.21808-7.68237-33.48975-16.03247-48.69348Z"/><path class="b" d="M841.53738,198.92906c3.03467,12.65564,5.73511,25.35974,6.65576,38.33923,.92041,12.97925-.43652,25.98761,.38354,39.01605,3.88184-12.87573,4.56323-26.10864,3.67993-39.37054-.88745-13.32074-3.59131-26.28888-10.71924-37.98474Z"/><path class="b" d="M820.60183,205.6212c-3.05981-9.47906-6.396-18.83209-10.96313-27.67688-7.97803-15.45001-19.02124-28.64423-31.30786-40.76349-1.12085-1.10541-2.25488-2.19556-3.40283-3.26959-2.29565-2.14807-4.64697-4.23138-7.05786-6.24219-6.0271-5.02692-12.42651-9.60022-19.26245-13.59686-8.55371-5.00098-17.68384-8.57861-26.92261-12.09222-9.3147-3.54236-18.7749-6.53564-28.27197-9.46942-5.82959-1.80084-11.78076-3.20459-17.81763-3.98358-29.08936-3.75372-56.87231,.84888-83.35205,13.41663l.87207,.39893,1.14355,.52313c.49243,.90765,1.54614,2.14917,.94385,2.9032-1.29785,1.62433,.00269,1.17499,.7041,1.08716,.75415-.09436,1.48364-.40265,2.21802-.63556,2.25342-.7146,4.5-1.4549,6.74976-2.1842,6.74951-2.18787,13.52637-4.27655,20.59277-5.27374,5.11279-.72156,10.09302-2.26312,15.25977-2.55737,4.76782-.27161,9.56445-.10248,14.32275-.46417,14.49512-1.10211,28.58838,1.53253,42.5979,4.59625,4.72803,1.03406,9.32056,2.61292,13.87402,4.3349,1.51782,.57404,3.03149,1.164,4.54419,1.755,14.67969,5.73517,28.43335,13.03369,41.08862,22.45093,9.38696,6.98523,17.79004,15.03717,26.03003,23.28778,.68457,.68567,1.38477,1.13336,2.45654,1.41461,2.06616,.54211,4.50317,.56055,6.00952,2.44275,6.1228,7.65009,10.40283,16.36554,14.30762,25.26556,3.40381,7.75848,6.26416,15.73773,8.95605,23.76807,5.89087,17.5733,9.66357,35.55707,10.08618,54.14893,.11377,4.99927,.01733,10.0033,.01733,15.00513l.67993-.00714c.72754-6.54034,1.69824-13.06586,2.10059-19.62616,.28662-4.67511-.22144-9.401-.43408-14.09387-.54077-11.92889-3.09131-23.48938-6.7627-34.86249Z"/><path class="b" d="M823.60891,365.11113c-4.36426,7.89673-8.28174,16.1319-13.9187,23.18188-9.87695,12.35297-18.56006,25.67065-29.73706,36.98224-4.12671,4.17645-8.48926,8.02802-13.31079,11.40527-2.82495,1.97864-5.62939,4.06812-7.94458,6.6839-2.17505,2.45721-1.92383,3.4715,1.12842,4.76593,.41846,.17749,.88989,.33112,1.33545,.32739,4.0813-.03412,8.1543,.22797,12.24023-.3786,6.31226-.93695,12.24487-3.06458,18.07422-5.47644,4.94263-2.04498,9.35278-5.18634,13.38086-8.57782,4.13257-3.47949,7.31958-7.94531,9.48413-13.07147,2.28052-5.40143,4.07007-10.96674,5.896-16.51678,2.12061-6.44586,3.06055-13.18201,4.47412-19.80237,1.28809-6.03143,2.25757-12.11304,2.84033-18.23547,.16577-1.73901,.66162-3.85773-.96875-5.60132-1.43091,1.29816-2.15845,2.83838-2.97388,4.31366Z"/><path class="d" d="M862.64748,203.67223c-4.94873-18.55499-14.57056-34.59863-27.18921-48.91064-9.76782-11.07855-20.68164-20.98517-31.66064-30.83948-10.27734-9.22449-18.50708-19.99634-23.79297-32.92847-2.74048-6.70532-6.01416-13.18549-10.2373-19.14191-8.3125-11.72473-19.88721-19.19739-32.63647-25.11847-21.03882-9.77075-43.40259-13.19904-66.35449-13.65552-12.9707-.22833-25.74658,1.45807-38.35034,4.24377-18.54932,4.09998-35.57544,12.07379-52.1001,21.22388-11.07422,6.13226-20.75464,14.16376-30.47217,22.16089-15.50806,12.76282-30.7041,25.9071-44.10449,40.88379-10.06689,11.2514-21.49756,20.45251-34.71191,27.69379-11.84595,6.49133-22.22925,14.95483-31.60034,24.72876-9.17896,9.57373-13.78955,20.82031-13.68091,34.04663,.07544,9.16101,1.57764,18.12964,3.90137,26.95007,3.59961,13.66394,8.98242,26.74017,13.49609,40.10364,2.64502,7.83099,5.45874,15.61084,5.28809,24.04565-.16211,8.02844-.66846,16.04474-1.61963,24.01251-2.1394,17.91791-.72876,35.5611,3.52026,53.05048,3.89185,16.01953,13.20264,27.62225,28.02124,34.78772,1.93262,.93451,4.02734,1.53723,6.05591,2.26935,3.02417,1.09155,3.46777,2.81757,1.29785,5.13434-.26392,.28162-.56323,.53156-.81226,.82483-6.85693,8.07208-10.88257,17.09338-9.68481,27.98706,1.97778,17.98828,20.7334,28.12604,36.85327,19.85754,7.59106-3.89355,16.93506-.883,20.77832,6.7132,.90479,1.78839,1.7417,3.61139,2.60718,5.41968,3.45728,7.22412,6.4248,14.70856,11.77881,20.88153,6.58252,7.58911,14.90405,10.35883,24.69434,9.15283,6.71362-.82703,12.72388-3.6319,18.51831-6.92712,11.26025-6.40369,21.06104-14.82281,31.16235-22.81232,3.38232-2.67529,7.01294-3.61407,11.22046-3.14496,6.87329,.76648,12.87305,3.62598,18.47046,7.4696,9.22998,6.33801,19.14771,11.21973,29.91382,14.3429,19.68066,5.70941,39.55298,7.38892,59.65283,2.48853,19.75488-4.81641,37.54932-13.78662,54.00366-25.64819,10.24121-7.38263,18.66333-16.27655,24.97144-27.2522,6.19043-10.77087,9.75146-22.4632,12.56885-34.42358,4.1189-17.48547,5.61865-35.33612,6.9375-53.18909,1.11304-15.0672,3.60718-29.87585,8.02002-44.31036,3.52002-11.51312,8.58154-22.46161,13.08203-33.6106,3.87109-9.58978,6.21338-19.48608,7.22656-29.78503,1.63599-16.6286-.77417-32.80695-5.03296-48.77502ZM658.31594,45.90672c-.02563-.39777,.18701-.58948,.4707-.70441,.14185-.05743,.30151-.09564,.45776-.1308,.15625-.0351,.30957-.06714,.43848-.11224,.48633-.16998,.9751-.32135,1.46606-.45654,.98169-.27039,1.97192-.47614,2.96851-.63635,.49805-.08014,.99756-.14893,1.49854-.20874,1.33545-.15961,2.6792-.25555,4.02539-.33362,1.00952-.05859,2.02051-.10706,3.03003-.16479,1.00952-.05768,2.01782-.12463,3.02246-.22003,1.60645-.15265,3.2395-.02356,4.86035-.02356,16.71313,.65424,33.26245,2.54248,49.00049,8.49927,9.84644,3.72681,18.64917,9.36902,26.76978,16.21045,7.27637,6.13025,11.54639,13.90112,14.54736,22.63007,.0625,.18213,.13965,.36316,.20605,.54547,.06665,.18237,.12256,.36597,.14355,.55334,.13501,1.21271,.52979,2.63782-.82544,3.3349-.52612,.27069-.94287,.24396-1.29712,.06183-.59033-.30347-1.00708-1.03851-1.46631-1.54742-2.07178-2.29523-4.07056-4.66382-6.10107-7.00146-3.38403-3.89612-6.85596-7.70642-10.89941-10.94855-9.28418-7.44409-19.43359-13.55573-30.99438-16.62085-6.23022-1.65179-12.48535-3.20508-18.76831-4.63525-10.47144-2.38361-21.02002-4.42535-31.65845-6.01166-2.6687-.39795-5.34766-.73053-8.05615-.70703-.46094,.00403-.94067,.03015-1.37964-.08081-.68799-.17395-1.41138-.54865-1.45923-1.29114v-.00006Zm-68.79883,195.05878c9.85474,.07654,17.99902,8.23608,18.07568,18.10962,.07812,10.0647-8.21387,18.33179-18.32153,18.2666-10.11816-.06525-18.18481-8.35394-18.01904-18.51532,.16162-9.90729,8.37378-17.93774,18.26489-17.8609Zm59.81055,19.74872l.26782-.00024c0-17.71252,.26172-35.42969-.05469-53.1366-.65601-36.72559,30.79443-48.38947,56.91895-39.76025,5.10205,1.6853,9.88477,3.97577,13.60645,8.01093,3.45361,3.74457,3.91602,8.30566,1.28418,12.02185-2.53589,3.58112-5.87402,4.2677-10.93018,2.07861-3.771-1.63269-7.38135-3.67474-11.22729-5.08813-9.58228-3.52142-20.46167-.46271-25.88892,6.97528-2.33887,3.20538-2.96289,6.94464-3.39844,10.72284-.84082,7.29749-.51831,14.6322-.52344,21.95294-.02197,30.99689,.03125,61.9939-.0249,92.99072-.03418,18.89972-9.9873,33.13245-27.65942,37.77844-15.25073,4.0094-30.02808,2.55634-42.38745-8.65881-3.70557-3.36267-4.29004-8.18829-2.11328-11.63892,2.34424-3.71643,5.94067-4.76349,10.37256-2.83813,4.84839,2.1062,9.26196,5.27264,14.65747,6.0321,15.9519,2.24536,27.14136-4.68427,27.1084-22.03418-.03491-18.46942-.00781-36.93896-.00781-55.40845Zm-139.37476,118.88464c-.25879,.22357-.55371,.33893-.85425,.36298-.30054,.02399-.60718-.04321-.88989-.18469-.32642-.16339-.65894-.32129-.9917-.48047-.9978-.47748-1.99634-.96619-2.83105-1.64783-3.03369-2.47705-6.04468-4.94751-8.80322-7.79498-2.21948-2.29089-4.32788-4.65686-6.24878-7.14972-.48022-.62323-.94873-1.25433-1.4043-1.89423-1.36646-1.91956-2.6167-3.91779-3.71802-6.01642-.87183-1.66132-1.71582-3.3335-2.53174-5.0166-5.71045-11.78156-10.03882-24.09668-12.85425-36.94843-.4375-1.99707-.83081-3.99811-1.18579-6.00409-.71021-4.01196-1.26733-8.0437-1.71899-12.10242-.22583-2.02936-.42529-4.06549-.60425-6.10925-.66211-7.5589-1.77441-15.1366-2.74463-22.69794-.18604-1.45178-.37671-2.90344-.56763-4.35529-.95483-7.25934-1.92041-14.52313-2.41431-21.8233-.19751-2.92004-.31958-5.84595-.33545-8.77966-.00903-1.69714,.01221-3.39044,.06494-5.07971,.04614-1.47809,.11646-2.95306,.21143-4.42462,.66431-10.30109,2.53662-20.43726,5.82739-30.33392,4.67578-14.06189,11.31567-26.89844,22.05029-37.49756,4.61011-4.55194,9.09668-9.22925,13.54346-13.94678,4.44678-4.71747,8.85352-9.47516,13.30396-14.18774,.5835-.61774,1.22363-1.09601,1.90967-1.50146,.36768-.21716,.74414-.41949,1.14111-.59747,.56909-.25507,1.1687-.47766,1.79858-.69006,.53198-.17932,1.09058-.35254,1.66577-.5307,.10596-.03278,.20752-.06464,.31494-.0979-1.11523,2.75543-2.3186,4.79352-3.77368,6.71185-1.11938,1.47583-2.27563,2.92072-3.45435,4.34656-2.35693,2.85175-4.80371,5.6275-7.22607,8.42389-1.21094,1.39819-2.41602,2.80151-3.60059,4.22205-7.62402,9.14185-14.44946,18.81207-19.84082,29.47321-5.40186,10.68134-10.34668,21.53613-13.58545,33.09503-1.77295,6.32745-2.6311,12.8241-3.35303,19.33459-.09277,.83435-.17529,1.66876-.24854,2.5033-.146,1.66907-.25342,3.33875-.32324,5.00952-.03467,.83539-.0603,1.67108-.07666,2.50708-.03271,1.67212-.02832,3.34558,.01172,5.02112,.02002,.83777,.04883,1.67603,.08667,2.51483,.03784,.83887,.08423,1.67828,.1394,2.51837,.57007,8.68427,2.15771,17.19373,3.44873,25.77258,.16602,1.10315,.34619,2.20398,.53516,3.30334,.37842,2.19873,.79248,4.39154,1.20288,6.58557,1.02612,5.48505,2.02759,10.97742,2.37866,16.5871,.08936,1.4278,.2124,2.85016,.36523,4.26764,.4585,4.25244,1.18457,8.46112,2.07153,12.64117,.59131,2.78668,1.25415,5.56055,1.95679,8.32617,.70288,2.76562,1.4458,5.52295,2.19678,8.27649,.55737,2.04382,1.63818,3.82666,2.68555,5.62207,.34937,.59851,.69482,1.1983,1.01611,1.80969,.5752,1.09473,1.15747,2.18414,1.75,3.26654,3.55542,6.4942,7.47583,12.73358,12.3855,18.33026,.81812,.9328,1.66406,1.84772,2.54028,2.74298,.81763,.83563,1.59668,1.70917,2.35107,2.60706,2.2627,2.69379,4.30029,5.60742,6.48047,8.37854,.3728,.47406,.62109,1.06018,.85742,1.6236,.23853,.56824,.47485,1.20239-.11084,1.70807Zm41.56299,40.77515c-5.91724,.64746-11.67041,2.18225-17.52246,3.16125-.78491,.13129-1.52661,.20105-2.22485,.21021-.34937,.00458-.6875-.00598-1.01489-.03162-.32764-.02563-.64404-.06635-.94995-.12189-1.22266-.22229-2.27124-.68329-3.14355-1.37567-.6543-.51923-1.20923-1.16858-1.66431-1.94495-.75879-1.29388-1.2395-2.94049-1.43896-4.92529-.10791-1.0719-.30908-2.13214-.40454-3.19519-.03198-.35431-.052-.70905-.05298-1.06451-.0022-.85315,.10547-1.71118,.42554-2.5813,.74829-2.03448,1.79614-3.26495,3.03906-3.61035s2.68091,.19434,4.20898,1.70044c3.4519,3.40234,7.32812,6.09113,11.63184,8.26233,1.89429,.95575,3.88403,1.4906,5.92993,1.8692,2.09082,.38684,3.90723,1.29358,5.77563,2.60889-.89868,.82086-1.78711,.95013-2.59448,1.03845Zm118.89697,31.68237c-4.90967,3.37976-10.50439,4.16241-16.79443,4.32043-4.54077-.48834-9.59448-1.02032-14.64453-1.58478-.99756-.11151-1.97119-.26324-2.98779-.11053-5.64087,.84747-11.25977,1.80548-16.75977,3.34406-2.02808,.56738-4.10522,.75122-6.17627,.86395-4.61304,.25104-9.23242,.44788-13.85156,.51752-6.67725,.10059-11.49902-3.40997-15.30908-8.4549-1.66064-2.19873-2.91455-4.72009-4.2207-7.16571-.92163-1.72565-1.2395-3.63629-1.03223-5.6106,.17163-1.63391,1.04077-2.14612,2.55469-1.60101,.5791,.20837,1.17017,.42346,1.69409,.7381,7.7854,4.67487,16.61157,6.51953,25.30322,7.42609,11.02148,1.1496,22.00806,2.91626,33.12915,3.22369,5.69336,.15735,11.36816,1.02643,17.06104,1.15625,3.76758,.08588,7.52124,.19147,11.27026,.53882,.79712,.07379,1.92163-.30426,2.177,.76294,.20483,.85651-.79346,1.20898-1.41309,1.63568Zm58.87671-38.64465c-11.44336,6.46082-23.62744,10.97009-36.51294,13.47424-3.53418,.68683-7.20654,.9624-10.80908,.91681-3.72095-.04712-7.45728,.12836-11.02441,.82367-6.50977,1.26898-12.91406,.30914-19.3623,.05487-4.4668-.17615-8.9043-.8974-13.39404-.70947-.83789,.0351-1.71045-.05157-2.52393-.25433-6.79297-1.69318-13.72485-2.69745-20.54858-4.29547-7.84399-1.83704-15.33472-4.57166-22.7793-7.45264-6.01025-2.32587-11.8103-5.20941-17.64282-7.97382-3.58154-1.69745-6.32935-4.6347-9.54297-6.89746-9.40405-6.62158-18.32666-13.81799-26.32129-22.18231-.84839-.88757-1.68262-1.7854-2.50488-2.6922-1.64404-1.8136-3.23975-3.66309-4.80225-5.53809-3.90625-4.6875-7.60547-9.53461-11.34033-14.37982-6.86572-8.90649-11.70215-18.73682-15.67065-29.14209-1.35742-3.5592-2.73853-7.09845-3.83008-10.73688-.36377-1.21283-.69556-2.43665-.9834-3.6759-.2439-1.0498-.5249-2.09735-.81323-3.14441-.28809-1.04706-.58325-2.09357-.85547-3.14142-.54443-2.09558-.99634-4.19617-1.11475-6.31567-.23022-4.12469,.36694-8.33881,.0791-12.55377,.88062,3.29742,1.78003,6.58374,2.72266,9.85156,2.82764,9.80359,6.04395,19.44104,10.30371,28.71405,1.60156,3.48657,3.28418,6.91449,5.05127,10.28021,7.6582,14.58472,16.90967,28.00061,28.09082,39.95752,1.14673,1.22632,2.31372,2.43732,3.50146,3.63269,2.37549,2.39069,4.8335,4.71863,7.3772,6.98151,1.27173,1.13141,2.56519,2.24658,3.88013,3.34515,21.25586,17.75763,45.72852,28.62378,72.96265,33.46826,13.8147,2.45746,27.72241,3.46765,41.7063,2.69476,17.63208-.97455,34.63062-4.82288,50.73779-12.26202,2.5293-1.16809,5.02588-2.54388,8.26514-2.74872-.68774,1.11462-1.54102,1.47168-2.30151,1.90118Zm1.61328-136.06818c-9.92065-.06451-17.99146-8.14722-18.04639-18.07275-.05542-10.04254,8.33569-18.42303,18.33179-18.30872,9.95312,.11389,17.95898,8.18201,17.99097,18.13086,.03271,10.16815-8.1272,18.31659-18.27637,18.25061Zm96.64868,89.05524c-.58276,6.12244-1.55225,12.20404-2.84033,18.23547-1.41357,6.62036-2.35352,13.35651-4.47412,19.80237-1.82593,5.55005-3.61548,11.11536-5.896,16.51678-2.16455,5.12616-5.35156,9.59198-9.48413,13.07147-4.02808,3.39148-8.43823,6.53284-13.38086,8.57782-5.82935,2.41187-11.76196,4.53949-18.07422,5.47644-4.08594,.60657-8.15894,.34448-12.24023,.3786-.44556,.00372-.91699-.1499-1.33545-.32739-3.05225-1.29443-3.30347-2.30872-1.12842-4.76593,2.31519-2.61578,5.11963-4.70526,7.94458-6.6839,4.82153-3.37726,9.18408-7.22882,13.31079-11.40527,11.177-11.31158,19.86011-24.62927,29.73706-36.98224,5.63696-7.04999,9.55444-15.28516,13.9187-23.18188,.81543-1.47528,1.54297-3.0155,2.97388-4.31366,1.63037,1.74359,1.13452,3.8623,.96875,5.60132Zm.24707-111.82123c-.40234,6.5603-1.37305,13.08582-2.10059,19.62616l-.67993,.00714c0-5.00183,.09644-10.00586-.01733-15.00513-.42261-18.59186-4.19531-36.57562-10.08618-54.14893-2.69189-8.03033-5.55225-16.00958-8.95605-23.76807-3.90479-8.90002-8.18481-17.61548-14.30762-25.26556-1.50635-1.8822-3.94336-1.90063-6.00952-2.44275-1.07178-.28125-1.77197-.72894-2.45654-1.41461-8.23999-8.25061-16.64307-16.30255-26.03003-23.28778-12.65527-9.41724-26.40894-16.71576-41.08862-22.45093-1.5127-.591-3.02637-1.18097-4.54419-1.755-4.55347-1.72198-9.146-3.30084-13.87402-4.3349-14.00952-3.06372-28.10278-5.69836-42.5979-4.59625-4.7583,.36169-9.55493,.19257-14.32275,.46417-5.16675,.29425-10.14697,1.83582-15.25977,2.55737-7.06641,.99719-13.84326,3.08588-20.59277,5.27374-2.24976,.72931-4.49634,1.4696-6.74976,2.1842-.73438,.23291-1.46387,.5412-2.21802,.63556-.70142,.08783-2.00195,.53717-.7041-1.08716,.60229-.75403-.45142-1.99554-.94385-2.9032l-1.14355-.52313-.87207-.39893c26.47974-12.56775,54.2627-17.17035,83.35205-13.41663,6.03687,.77899,11.98804,2.18274,17.81763,3.98358,9.49707,2.93378,18.95728,5.92706,28.27197,9.46942,9.23877,3.51361,18.3689,7.09125,26.92261,12.09222,6.83594,3.99664,13.23535,8.56995,19.26245,13.59686,2.41089,2.0108,4.76221,4.09412,7.05786,6.24219,1.14795,1.07404,2.28198,2.16418,3.40283,3.26959,12.28662,12.11926,23.32983,25.31348,31.30786,40.76349,4.56714,8.84479,7.90332,18.19781,10.96313,27.67688,3.67139,11.37311,6.22192,22.93359,6.7627,34.86249,.21265,4.69287,.7207,9.41876,.43408,14.09387Zm20.77808,21.70679c-.82007-13.02844,.53687-26.0368-.38354-39.01605-.92065-12.97949-3.62109-25.68359-6.65576-38.33923,7.12793,11.69586,9.83179,24.664,10.71924,37.98474,.8833,13.2619,.2019,26.49481-3.67993,39.37054Zm9.27271,7.53442c-.08301,.19714-.27197,.34967-.41162,.52301,1.15503-5.92224,2.35791-11.78918,3.49414-17.67712,1.34326-6.95911,.82715-13.93854,.91064-20.91711,.02563-2.1568-.06787-4.31793-.18408-6.47296-.68506-12.67261-2.95264-25.01727-6.98462-37.09418-4.48218-13.42517-11.63013-25.27789-20.17944-36.40631-7.42383-9.66345-14.802-19.36188-22.20312-29.04285-.21021-.27496-.41626-.55383-.62988-.83124s-.43506-.55328-.67578-.82251c-.12036-.13458-.24561-.26746-.37744-.39801-.26318-.26105-.552-.5127-.87793-.74957-.16309-.11841-.33545-.23322-.51855-.34357,1.25635-.3725,1.7793,.40564,2.33594,.84003,15.3064,11.94153,28.38623,25.8949,37.77441,42.9884,8.3501,15.20374,13.54932,31.4754,16.03247,48.69348,2.88379,19.99536,.30664,39.1651-7.50513,57.71051Z"/><path class="c" d="M459.3196,225.87682c.04614-1.47809,.11646-2.95306,.21143-4.42462"/><path class="c" d="M658.78664,45.20232c.14185-.05743,.30151-.09564,.45776-.1308"/><path class="c" d="M661.14895,44.50273c.98169-.27039,1.97192-.47614,2.96851-.63635"/><path class="c" d="M523.09939,411.08635c.00098,.35547,.021,.71021,.05298,1.06451"/></g></svg>