<?xml version="1.0" encoding="UTF-8"?><svg id="a" xmlns="http://www.w3.org/2000/svg" viewBox="0 0 1920 511"><defs><style>.cls-1{fill:#2f2e71;}</style></defs><g><path class="cls-1" d="M922.54321,298.17557c13.82983,.4238,30.11255-1.46161,45.73322,3.98016,14.7146,5.12619,24.2464,14.84497,26.09802,30.86234,1.89697,16.41104-3.75208,29.67963-17.28302,39.24829-17.04907,12.05646-36.84283,14.86993-56.93823,15.526-22.77789,.74377-45.57239,.56531-67.00372-9.15384-25.67511-11.64355-28.98248-40.741-6.14679-56.88147,4.05829-2.86841,3.63202-3.97638,.78864-7.23297-10.57343-12.10974-10.44409-33.94193,4.22198-44.2355,4.24658-2.98053,3.74945-5.25214,.68274-8.85031-21.42322-25.13638-11.10852-63.68677,20.04541-75.79088,25.19128-9.78754,50.49146-9.82494,75.82922-.93164,3.14319,1.10323,4.97949,.96066,7.42755-1.2021,4.5874-4.05286,9.38031-7.91943,14.38165-11.4472,7.54382-5.32129,16.78241-4.85815,21.79321,.69061,5.34894,5.9232,5.4845,14.60941-2.41449,20.9492-10.56641,8.48061-12.1991,16.47031-8.67633,29.85361,6.02606,22.89291-9.45447,45.47798-33.72626,54.01503-20.63147,7.25668-41.69916,7.47913-62.84589,2.57306-4.3476-1.0087-8.12506-1.8826-9.82489,3.41071-1.5293,4.76205-.91254,9.14532,3.7959,11.98004,3.60907,2.17288,7.68024,2.63425,11.8136,2.63571,10.00378,.00357,20.00763,.00113,32.24854,.00113l-.00006,.00003Zm-9.93335-41.71014c4.04663-.45096,7.6673-.53412,11.13763-1.2988,12.42218-2.73727,20.52631-11.10066,21.52527-21.86075,.99701-10.73874-4.43652-21.11015-14.10748-24.99934-12.56769-5.05408-25.48853-5.44196-38.01031,.25784-15.0567,6.85368-19.57965,26.13101-8.85052,37.77802,7.68243,8.33969,18.1283,9.74055,28.30542,10.12303Zm-2.72247,71.46732l-.00031-.24115c-9.45886,0-18.9278,.26389-28.37317-.09396-6.16492-.23355-9.42346,2.98676-11.60382,7.97134-4.48999,10.26526,1.13513,19.50311,14.76361,22.23434,19.20959,3.84961,38.53229,3.76202,57.69379-1.11966,3.58447-.91315,6.60321-2.79828,9.42206-4.85101,7.4375-5.41614,6.41949-16.63678-1.76709-21.03851-3.63806-1.95599-7.62152-2.84952-11.76752-2.85638-9.45587-.01572-18.91174-.00497-28.36761-.00497l.00006-.00003Z"/><path class="cls-1" d="M1830.34241,276.6647c-16.92053,.00058-33.8446,.18909-50.75952-.11862-4.8374-.08801-5.12195,1.59937-4.47473,5.61108,3.02307,18.73679,20.30566,33.4389,43.36597,35.95111,17.48596,1.90494,33.65356-.85388,46.32007-14.76572,2.51025-2.75687,5.97632-4.9007,9.38403-6.5264,5.72546-2.73151,11.83228-3.69458,17.21228,.83365,5.56311,4.68243,6.42041,11.00665,4.19556,17.47534-4.60425,13.3869-14.47546,22.59094-26.91956,27.90482-35.64136,15.21948-70.3114,13.89209-102.25598-9.80606-15.45923-11.46854-23.51013-27.87265-27.19788-46.52005-5.21887-26.38882-2.58545-51.80881,12.90503-74.1976,19.82764-28.65785,48.79846-37.386,82.14758-33.16643,31.21313,3.94933,52.73499,20.75414,62.91223,50.88469,3.11279,9.21547,4.51611,18.93468,3.49048,28.70816-1.30481,12.4303-7.03101,17.56989-19.56421,17.69089-16.91919,.16339-33.84082,.04059-50.7616,.0412l.00024-.00006Zm-10.58826-29.86572c12.55005,0,25.11487-.36641,37.64368,.15012,6.5509,.27003,6.97583-2.09064,5.62952-7.45671-4.50427-17.95236-18.66467-29.34753-39.0271-30.96001-23.47693-1.85913-41.55359,9.17937-48.01758,29.32187-2.5752,8.02467-1.99768,8.91098,6.12183,8.93503,12.5498,.03712,25.09985,.00977,37.64966,.0097Z"/><path class="cls-1" d="M1457.56592,352.55176c-51.10669,.21518-86.99963-35.28702-87.48315-86.53064-.47839-50.71535,35.3457-87.38583,85.60217-87.62427,53.96033-.256,90.20532,34.07965,90.40894,85.64648,.20984,53.14108-34.9397,88.28284-88.52795,88.50842Zm-.38037-34.1153c29.85925,.28635,50.54749-20.70676,51.35486-52.11182,.79626-30.96724-20.26843-53.60878-50.26904-54.03218-28.58118-.40337-50.0625,21.75081-50.63721,52.22334-.58081,30.79346,20.41565,53.6413,49.55139,53.92065Z"/><path class="cls-1" d="M1101.99365,352.48087c-16.73425-.35236-38.40271-4.92334-55.34924-22.20871-5.42712-5.53564-9.60925-12.01358-10.49585-20.00854-.67065-6.04919,1.11267-11.44788,6.42957-14.64328,5.08228-3.05432,10.74377-3.01703,16.09839-.21829,4.81946,2.51907,8.66455,6.29529,12.49072,10.10236,14.04626,13.97568,31.11646,17.91025,50.12769,14.44147,9.77344-1.78317,15.26746-7.53607,16.32971-15.93115,1.02563-8.10541-3.33704-15.19336-12.30481-19.15433-10.40259-4.5947-21.77966-5.40875-32.73645-7.8194-12.57214-2.76608-24.95532-6.02213-35.08276-14.39734-22.93396-18.96581-21.27441-55.18315,3.38135-72.06093,19.40063-13.2805,41.23474-13.9333,63.46094-10.67207,15.19324,2.22929,29.23584,7.36214,40.17798,18.89323,3.97314,4.18713,6.68335,9.10454,8.10461,14.60352,1.56812,6.06725,.66626,11.68555-4.49268,16.0126-5.125,4.29866-10.64734,4.04887-16.44836,1.64899-6.57019-2.71812-11.14575-8.10699-16.51379-12.39186-12.62415-10.07687-26.91479-11.83083-41.979-8.45032-8.85645,1.98743-13.59143,8.09798-13.76062,15.35432-.18103,7.76932,4.36841,13.77187,13.03186,16.81712,14.80371,5.20372,30.61572,6.07994,45.61328,10.5224,8.68298,2.57199,16.86584,6.07855,23.52649,12.2851,24.3186,22.66092,16.56409,64.98703-14.46326,79.56598-12.29614,5.77753-25.35181,7.69693-45.14575,7.70914Z"/><path class="cls-1" d="M626.94879,352.06982c-24.07477-.18839-46.85315-4.3129-64.17651-23.29428-4.05823-4.44666-7.05365-9.43768-8.54767-15.20758-1.78534-6.89484-.98425-13.31537,5.38123-17.6969,5.68304-3.91174,14.37335-3.1181,20.04541,1.62817,4.51294,3.77631,8.82666,7.78943,13.29657,11.6185,13.95233,11.95184,30.19714,14.14789,47.4978,10.47614,8.92444-1.8941,14.14526-8.42694,14.51904-16.51871,.39905-8.63864-4.11755-16.21509-12.95612-18.66211-14.04285-3.88791-28.47955-6.34067-42.56128-10.10486-17.19269-4.59576-32.00049-12.88217-38.16583-30.98236-8.95544-26.29108,6.00214-53.34785,34.53119-61.1241,26.06848-7.10556,51.71869-5.48177,75.75372,8.22275,8.72852,4.97693,15.33954,11.98027,18.16473,21.80249,1.9436,6.75699,1.43829,13.45325-4.97266,17.82661-6.43774,4.39162-13.1123,3.29485-19.3714-.81065-6.62738-4.34715-11.76361-10.5627-18.81372-14.48848-11.83771-6.59171-24.15936-7.65846-36.9566-4.16412-7.25848,1.98196-12.2179,6.58273-12.61469,14.57123-.3847,7.7467,3.32751,13.04742,10.409,16.26608,10.41931,4.73579,21.76184,5.43204,32.72388,7.77676,12.03314,2.57387,24.19568,5.03265,34.38562,12.34122,18.61292,13.34973,24.26709,38.65756,13.84521,59.74219-10.53577,21.31512-29.70074,28.22311-51.43903,30.72922-3.28436,.37866-6.6499,.0528-9.97797,.0528h.00006Z"/><path class="cls-1" d="M1241.02832,263.23868c-.00208-13.84045-.16455-27.68391,.09216-41.51962,.08203-4.42268-1.36096-5.72098-5.67688-5.61653-6.64001,.16078-13.34473,.09354-19.93311-.65736-8.68176-.9895-14.37585-7.80107-14.43933-16.22366-.05847-7.79024,6.15576-14.9567,14.55127-15.83163,6.59985-.68784,13.30603-.76393,19.9447-.53143,4.51001,.15794,5.70813-1.47079,5.54407-5.73755-.29517-7.6778-.17078-15.37633-.05994-23.0639,.15369-10.66324,7.07703-18.00719,17.39917-18.65381,9.64221-.60402,17.36182,5.98351,18.80518,16.25594,.42542,3.02805,.28394,6.13158,.51013,9.19255,.52246,7.06844-3.13782,16.33643,1.49146,20.63312,4.53467,4.20879,13.68872,.98676,20.8092,1.24506,8.18945,.29707,16.43567-.07904,24.56372,.75107,6.9762,.71249,11.51538,5.12569,13.04907,12.22379,1.51575,7.01529-.92419,12.6929-6.33679,16.95135-3.97253,3.1256-8.95898,3.5322-13.88611,3.53874-11.02405,.01468-22.052,.17226-33.07043-.07364-4.61792-.10306-6.82642,.69221-6.76135,6.16805,.29529,24.85806-.03662,49.72308,.18726,74.58264,.15967,17.73535,13.47449,25.44244,29.41992,17.20557,4.04956-2.09189,7.72119-4.90826,11.599-7.34033,6.50256-4.07837,13.28442-4.57581,19.10742,.62189,5.79199,5.1701,6.30127,12.11569,3.20044,19.03519-4.78308,10.67328-13.57007,17.0011-24.19763,20.9761-20.91321,7.82236-41.17041,7.99289-59.28198-6.9021-11.5426-9.49277-16.2594-22.60419-16.5686-37.24707-.28137-13.3219-.05957-26.65445-.06177-39.9823l-.00024-.00009Z"/><path class="cls-1" d="M1629.91748,198.93002c12.32922-15.28787,27.87866-21.93457,46.83533-20.40157,11.65149,.94223,21.96216,4.66376,29.57129,14.10378,5.44775,6.75859,7.61218,14.4503,6.12708,22.95282-1.1571,6.62303-4.13086,11.76297-11.31885,14.05461-8.16638,2.60358-14.48877,.07359-20.21118-5.39819-11.68494-11.17317-20.81897-13.52939-32.27734-7.61584-8.15796,4.21017-12.68799,11.62601-15.73425,19.99712-3.01416,8.28226-3.9447,16.91168-3.94507,25.67059-.0011,23.33044,.03076,46.66092-.02026,69.99124-.01611,7.41208-2.56189,13.61984-9.58301,17.05548-6.40942,3.13641-12.85522,3.08551-18.93726-.97211-6.13965-4.09579-8.15588-10.28406-8.16187-17.26297-.03796-43.84064-.06543-87.68134,.01331-131.5218,.02051-11.39668,6.28979-18.89861,16.12781-19.90723,11.41541-1.17033,18.03101,4.18886,20.56812,16.63689,.12708,.62326,.43066,1.21051,.94629,2.61719h-.00012Z"/><path class="cls-1" d="M780.76703,265.70316c.00287,22.30289,.20972,44.60837-.07574,66.90762-.16754,13.09366-9.90283,20.70975-22.50818,18.34552-7.86438-1.47504-13.96423-8.52908-14.00305-17.7641-.1908-45.3743-.23358-90.75055,.0116-136.1243,.05707-10.55664,8.11774-17.61702,18.37408-17.52451,10.78271,.09726,17.94031,6.91216,18.10455,18.48364,.32019,22.5546,.09381,45.11697,.09668,67.67612h.00006Z"/><path class="cls-1" d="M785.38947,137.18852c-.07861,12.40182-10.09558,22.16277-22.64636,22.06769-13.15076-.09962-22.99652-9.73457-23.08411-22.5899-.08636-12.67169,10.21997-22.75928,23.12878-22.63811,12.82568,.12039,22.68372,10.22211,22.60168,23.16032Z"/></g><path class="cls-1" d="M452.28894,186.2262c-4.94873-18.55499-14.57062-34.59863-27.18927-48.91064-9.76776-11.07855-20.68146-20.98517-31.66052-30.83948-10.2774-9.22449-18.5072-19.99634-23.79291-32.92847-2.7406-6.70532-6.01428-13.18549-10.2373-19.14191-8.31274-11.72473-19.88721-19.19733-32.6366-25.11841-21.03882-9.77081-43.40265-13.19904-66.35449-13.65552-12.9707-.22839-25.74658,1.45807-38.35046,4.24377-18.54932,4.09998-35.57538,12.07379-52.09985,21.22388-11.07446,6.13226-20.75482,14.1637-30.47223,22.16089-15.50806,12.76276-30.70428,25.9071-44.10449,40.88373-10.06708,11.2514-21.4975,20.45251-34.71198,27.69379-11.84589,6.49133-22.22931,14.95483-31.60028,24.72876-9.17902,9.57373-13.78961,20.82031-13.68091,34.04663,.07532,9.16101,1.5777,18.12964,3.90131,26.95007,3.59955,13.66394,8.98242,26.74017,13.49615,40.10364,2.64496,7.83099,5.4588,15.61084,5.28821,24.04565-.16223,8.02844-.66864,16.04474-1.61993,24.01251-2.13934,17.91791-.72852,35.5611,3.52045,53.05048,3.89178,16.01953,13.20264,27.62225,28.02112,34.78772,1.93268,.93451,4.02753,1.53723,6.05603,2.26935,3.02423,1.09155,3.46777,2.81757,1.29773,5.13434-.26373,.28162-.56317,.53156-.81226,.82483-6.85681,8.07208-10.88245,17.09338-9.68481,27.98706,1.97778,17.98828,20.73346,28.12604,36.85345,19.85754,7.59088-3.89355,16.93488-.883,20.7782,6.7132,.90485,1.78839,1.7417,3.61139,2.60718,5.41968,3.4574,7.22412,6.42487,14.70856,11.77887,20.88153,6.5824,7.58911,14.90393,10.35883,24.69434,9.15283,6.71344-.82703,12.72388-3.6319,18.51825-6.92712,11.26038-6.40369,21.06104-14.82281,31.16229-22.81232,3.38239-2.67529,7.013-3.61407,11.2204-3.14496,6.87347,.76648,12.87317,3.62598,18.47058,7.4696,9.22998,6.33801,19.14777,11.21973,29.9137,14.3429,19.68085,5.70941,39.55304,7.38892,59.65283,2.48853,19.75513-4.81641,37.54938-13.78662,54.00378-25.64819,10.24121-7.38263,18.66333-16.27655,24.9715-27.2522,6.19043-10.77087,9.7514-22.4632,12.56879-34.42358,4.1189-17.48547,5.61853-35.33612,6.93738-53.18909,1.1131-15.0672,3.6073-29.87585,8.02026-44.31036,3.51978-11.51312,8.5813-22.46161,13.08191-33.6106,3.87122-9.58978,6.21344-19.48608,7.22662-29.78503,1.63593-16.6286-.77417-32.80695-5.03302-48.77502ZM249.3244,27.51324c5.1875-1.81281,10.65344-1.51105,16.01093-2.02008,1.60638-.15259,3.2395-.02356,4.86041-.02356,16.71313,.65424,33.26251,2.54248,49.00049,8.49927,9.84637,3.72681,18.64911,9.36902,26.76959,16.21045,7.27655,6.13025,11.54639,13.90112,14.54749,22.63007,.12524,.36426,.30786,.72412,.34961,1.09882,.13507,1.21271,.52966,2.63782-.82544,3.3349-1.40295,.7218-2.0285-.67133-2.76349-1.4856-5.52454-6.12067-10.53088-12.76257-17.00049-17.95001-9.284-7.44409-19.43341-13.55573-30.99432-16.62085-16.61401-4.40479-33.40515-8.10883-50.42682-10.64691-2.66852-.39795-5.34753-.73053-8.05603-.70703-.46106,.00403-.94067,.03015-1.37964-.08081-.68793-.17395-1.41144-.54865-1.45929-1.29114-.05133-.79553,.85083-.76709,1.367-.94751Zm-70.16583,196.00623c9.85474,.07654,17.99902,8.23608,18.07562,18.10962,.07812,10.0647-8.21375,18.33179-18.32135,18.2666-10.11835-.06525-18.18494-8.35394-18.0191-18.51532,.16162-9.90729,8.37372-17.93774,18.26483-17.8609Zm59.81055,19.74872l.26782-.00024c0-17.71252,.26178-35.42969-.05457-53.1366-.65613-36.72559,30.79443-48.38947,56.91895-39.76025,5.10205,1.6853,9.88477,3.97577,13.60632,8.01093,3.45355,3.74457,3.91595,8.30566,1.28424,12.02185-2.53601,3.58112-5.87402,4.2677-10.93018,2.07861-3.771-1.63269-7.38135-3.67474-11.22729-5.08813-9.58228-3.52142-20.46173-.46271-25.88904,6.97528-2.33881,3.20538-2.96295,6.94464-3.39832,10.72284-.84088,7.29749-.51837,14.6322-.52356,21.95294-.02203,30.99689,.03125,61.9939-.02484,92.99072-.03424,18.89972-9.98718,33.13245-27.65936,37.77844-15.25085,4.0094-30.02826,2.55634-42.38745-8.65881-3.70569-3.36267-4.29004-8.18829-2.1134-11.63892,2.3443-3.71643,5.9408-4.76349,10.37268-2.83813,4.84827,2.1062,9.2619,5.27264,14.65741,6.0321,15.9519,2.24536,27.14142-4.68427,27.10846-22.03418-.03503-18.46942-.00787-36.93896-.00787-55.40845Zm-139.37476,118.88464c-.51782,.44714-1.17877,.4613-1.74408,.17828-1.30573-.65363-2.70978-1.21942-3.82288-2.1283-3.03351-2.47705-6.04449-4.94751-8.80316-7.79498-4.43872-4.58173-8.4342-9.46399-11.37109-15.06036-6.97449-13.29047-12.16858-27.27734-15.38599-41.96503-1.74988-7.98822-2.79285-16.04059-3.50903-24.21576-.66217-7.5589-1.77454-15.1366-2.74451-22.69794-1.48981-11.61401-3.25452-23.22333-3.31738-34.95825-.07275-13.57709,1.80542-26.91199,6.10358-39.83826,4.67584-14.06189,11.31586-26.89844,22.05029-37.49756,9.22034-9.10388,17.94672-18.70935,26.84753-28.13452,1.79132-1.89691,4.0675-2.56104,6.83014-3.4176-1.11536,2.75543-2.31879,4.79352-3.7738,6.71185-4.47791,5.90344-9.54254,11.31042-14.28107,16.99249-7.6239,9.14185-14.44934,18.81207-19.84082,29.47321-5.40173,10.68134-10.34662,21.53613-13.58539,33.09503-1.77295,6.32745-2.63104,12.8241-3.35315,19.33459-.7403,6.67474-.85168,13.35358-.41052,20.07422,.57013,8.68427,2.15765,17.19373,3.44879,25.77258,1.32819,8.82532,3.55475,17.50055,4.11664,26.47601,.71509,11.42218,3.58606,22.49744,6.59027,33.51147,.74329,2.7251,2.41681,4.98621,3.70166,7.43176,4.60114,8.75787,9.66663,17.17755,16.67572,24.33978,3.271,3.34253,5.92493,7.29077,8.83167,10.9856,.37286,.47406,.62097,1.06018,.85748,1.6236,.23846,.56824,.47473,1.20239-.1109,1.70807Zm41.56305,40.77515c-5.9173,.64746-11.67047,2.18225-17.52258,3.16125-6.27826,1.05035-9.79803-1.83783-10.43658-8.18921-.22986-2.28674-.88519-4.52063-.03186-6.841,1.49646-4.06897,4.19189-4.92206,7.24799-1.90991,3.45209,3.40234,7.32825,6.09113,11.63184,8.26233,1.89447,.95575,3.88416,1.4906,5.93011,1.8692,2.09082,.38684,3.90717,1.29358,5.77545,2.60889-.89868,.82086-1.78705,.95013-2.59436,1.03845Zm118.89685,31.68237c-4.90948,3.37976-10.50446,4.16241-16.79425,4.32043-4.54095-.48834-9.59467-1.02032-14.64478-1.58478-.99731-.11151-1.97119-.26324-2.98779-.11053-5.64075,.84747-11.2597,1.80548-16.75952,3.34406-2.02826,.56738-4.10535,.75122-6.17627,.86395-4.61322,.25104-9.23254,.44788-13.85162,.51752-6.67725,.10059-11.49896-3.40997-15.30927-8.4549-1.66058-2.19873-2.91455-4.72009-4.22064-7.16571-.92157-1.72565-1.23938-3.63629-1.0321-5.6106,.17163-1.63391,1.04065-2.14612,2.55469-1.60101,.57892,.20837,1.17004,.42346,1.69403,.7381,7.78546,4.67487,16.61145,6.51953,25.30322,7.42609,11.02142,1.1496,22.00793,2.91626,33.12909,3.22369,5.69348,.15735,11.36835,1.02643,17.0611,1.15625,3.76746,.08588,7.52124,.19147,11.27032,.53882,.79706,.07379,1.92151-.30426,2.17688,.76294,.2049,.85651-.79333,1.20898-1.41309,1.63568Zm58.87671-38.64465c-11.44324,6.46082-23.62732,10.97009-36.51288,13.47424-3.5343,.68683-7.20654,.9624-10.80896,.91681-3.72107-.04712-7.4574,.12836-11.02441,.82367-6.50977,1.26898-12.91431,.30914-19.36249,.05487-4.4668-.17615-8.90424-.8974-13.39404-.70947-.83783,.0351-1.71027-.05157-2.5238-.25433-6.79291-1.69318-13.72485-2.69745-20.54858-4.29547-7.84406-1.83704-15.33466-4.57166-22.77936-7.45264-6.01019-2.32587-11.81042-5.20941-17.64294-7.97382-3.58136-1.69745-6.32916-4.6347-9.54272-6.89746-9.40411-6.62158-18.32666-13.81799-26.32141-22.18231-6.78687-7.10059-12.67169-14.85779-18.64758-22.61011-6.86548-8.90649-11.7019-18.73682-15.67053-29.14209-1.81-4.74561-3.66193-9.45569-4.81342-14.41278-.9754-4.19922-2.54675-8.36249-2.78339-12.6015-.23029-4.12469,.36694-8.33881,.07916-12.55377,3.52209,13.1897,7.34644,26.2016,13.02625,38.56561,11.38959,24.79364,26.86139,46.62036,47.9007,64.19708,21.25592,17.75763,45.7287,28.62378,72.96283,33.46826,13.8147,2.45746,27.72241,3.46765,41.7063,2.69476,17.63202-.97455,34.63049-4.82288,50.73773-12.26202,2.52924-1.16809,5.02594-2.54388,8.26501-2.74872-.68762,1.11462-1.54077,1.47168-2.30145,1.90118Zm1.6134-136.06818c-9.92072-.06451-17.99158-8.14722-18.04645-18.07275-.05548-10.04254,8.33557-18.42303,18.33167-18.30872,9.95319,.11389,17.95923,8.18201,17.99115,18.13086,.03265,10.16815-8.12732,18.31659-18.27637,18.25061Zm96.64874,89.05524c-.58289,6.12244-1.55225,12.20404-2.84033,18.23547-1.41382,6.62036-2.3537,13.35651-4.47424,19.80237-1.82593,5.55005-3.61548,11.11536-5.89612,16.51678-2.16443,5.12616-5.35156,9.59198-9.48407,13.07147-4.02802,3.39148-8.43811,6.53284-13.38074,8.57782-5.82941,2.41187-11.76208,4.53949-18.07434,5.47644-4.08594,.60657-8.15894,.34448-12.24017,.3786-.4455,.00372-.91699-.1499-1.33539-.32739-3.05231-1.29443-3.30341-2.30872-1.12848-4.76593,2.31525-2.61578,5.11957-4.70526,7.94446-6.6839,4.82166-3.37726,9.18414-7.22882,13.31091-11.40527,11.17688-11.31158,19.85999-24.62927,29.73706-36.98224,5.63696-7.04999,9.5545-15.28516,13.91876-23.18188,.81531-1.47528,1.54285-3.0155,2.97394-4.31366,1.63031,1.74359,1.13434,3.8623,.96875,5.60132Zm.24689-111.82123c-.40228,6.5603-1.37286,13.08582-2.1004,19.62616l-.68011,.00714c0-5.00183,.0965-10.00586-.01715-15.00513-.42267-18.59186-4.19543-36.57562-10.0863-54.14893-2.69189-8.03033-5.55225-16.00958-8.95612-23.76807-3.90472-8.90002-8.18488-17.61548-14.3075-25.26556-1.50641-1.8822-3.94336-1.90063-6.00952-2.44275-1.07196-.28125-1.77197-.72894-2.45673-1.41461-8.23993-8.25061-16.64288-16.30255-26.02991-23.28778-12.65521-9.41724-26.40906-16.71576-41.08868-22.45093-6.05096-2.36401-12.11401-4.71118-18.41821-6.0899-14.0094-3.06372-28.10284-5.69836-42.5979-4.59625-4.75824,.36169-9.55481,.19257-14.32257,.46417-5.16687,.29425-10.14716,1.83582-15.25977,2.55737-9.42188,1.32965-18.32935,4.59961-27.34265,7.45795-.73444,.23291-1.46381,.5412-2.21796,.63556-.70154,.08783-2.00189,.53717-.70428-1.08716,.60236-.75403-.45135-1.99548-.9436-2.9032l-2.01562-.92206c26.47961-12.56775,54.2627-17.17035,83.35181-13.41663,6.03693,.77899,11.9881,2.18274,17.81781,3.98358,9.49701,2.93378,18.95715,5.92706,28.27185,9.46942,9.23889,3.51361,18.36908,7.09131,26.92255,12.09222,10.9375,6.39471,20.75775,14.2655,29.72314,23.10864,12.2868,12.11926,23.33002,25.31348,31.30792,40.76349,4.5672,8.84479,7.90344,18.19781,10.96326,27.67688,3.6712,11.37311,6.2218,22.93359,6.76251,34.86249,.21277,4.69287,.72083,9.41876,.43414,14.09387Zm20.77808,21.70679c-.82001-13.02844,.53705-26.0368-.38354-39.01605-.92059-12.97949-3.62115-25.68359-6.65576-38.33923,7.12805,11.69586,9.83191,24.664,10.71918,37.98474,.88336,13.2619,.20197,26.49481-3.67987,39.37054Zm9.27289,7.53442c-.08301,.19714-.27209,.34967-.41168,.52301,1.15491-5.92224,2.35773-11.78918,3.4942-17.67712,1.3432-6.95911,.82709-13.93854,.9104-20.91711,.02576-2.1568-.06763-4.31793-.18408-6.47296-.68506-12.67261-2.95239-25.01727-6.98444-37.09418-4.48212-13.42517-11.63025-25.27789-20.1795-36.40631-7.42383-9.66345-14.80206-19.36188-22.20306-29.04285-.84088-1.09985-1.61456-2.26184-3.07965-3.1449,1.25647-.3725,1.77924,.40564,2.33606,.84003,15.30634,11.94153,28.38623,25.8949,37.77423,42.9884,8.35022,15.20374,13.54944,31.4754,16.03259,48.69348,2.88367,19.99536,.30658,39.1651-7.50507,57.71051Z"/></svg>