<?xml version="1.0" encoding="UTF-8"?>
<svg id="Layer_1" data-name="Layer 1" xmlns="http://www.w3.org/2000/svg" viewBox="0 0 345 235">
  <defs>
    <style>
      .cls-1 {
        fill: #fff;
      }
    </style>
  </defs>
  <g>
    <path class="cls-1" d="m96.1982595,208.4697048c3.4754488.1065012,7.5672939-.3673018,11.4927802,1.0002195,3.6977878,1.2882119,6.0931322,3.7305531,6.5584457,7.7557195.4767173,4.1241026-.9429044,7.4585097-4.3432249,9.86312-4.284435,3.0297976-9.2586238,3.73682-14.308602,3.9016939-5.7241019.1869083-11.4523592.1420607-16.838077-2.3003632-6.4521753-2.9260344-7.2833081-10.2382347-1.5446859-14.294346,1.0198506-.7208307.9127303-.9992635.1981856-1.8176496-2.6571128-3.043181-2.6246013-8.5296238,1.0609799-11.1164097,1.0671658-.749008.9422433-1.3198648.1715767-2.2240868-5.3836637-6.3167902-2.7915739-16.0045206,5.0374174-19.0462913,6.3305819-2.4596134,12.6885282-2.4690137,19.0559186-.2341222.7898854.2772408,1.2513504.2414158,1.8665426-.3020899,1.1528243-1.0184831,2.3572845-1.9901594,3.6141126-2.8766902,1.8957723-1.3372433,4.2174287-1.2208579,5.4766414.1735543,1.3441865,1.4885036,1.3782563,3.6713543-.6067633,5.2645475-2.655342,2.1311815-3.0656433,4.1389967-2.1803719,7.5022302,1.5143465,5.7530028-2.3759131,11.4286434-8.4754201,13.5740109-5.184699,1.8236096-10.479021,1.8795098-15.7931994.6466139-1.092547-.2534833-2.0418261-.473095-2.4690089.8571143-.3843062,1.1967051-.2293277,2.2982211.9539068,3.0105898.9069694.5460431,1.9300546.661986,2.9687699.6623518,2.513963.000897,5.0279261.0002832,8.104076.0002832Zm-2.4962552-10.4817808c1.0169229-.1133228,1.9267963-.1342241,2.7988932-.3263902,3.1216944-.6878796,5.158279-2.7896033,5.4093046-5.4936184.2505534-2.6986511-1.114906-5.304993-3.5452174-6.282352-3.1582668-1.2700899-6.4052851-1.3675685-9.5520065.0647989-3.7837532,1.7223366-4.9203807,6.5667388-2.2241455,9.4936348,1.9305976,2.0957696,4.5556475,2.4478114,7.1131717,2.5439269Zm-.6841581,17.9597756c-.0000236-.020205-.0000472-.0403982-.0000708-.0606033-2.3770228,0-4.7565719.0663154-7.1301948-.0236158-1.5492427-.0586913-2.3681217.7505718-2.9160479,2.0032006-1.1283403,2.5796693.2852607,4.9011462,3.7101124,5.5875033,4.8273794.9674099,9.6831858.9453992,14.4984767-.2813715.9007834-.2294781,1.6593851-.7032103,2.3677675-1.219064,1.8690453-1.3610774,1.6132268-4.1808348-.4440641-5.286989-.9142414-.4915415-1.9152981-.7160863-2.9571772-.7178094-2.3762673-.0039537-4.7525345-.001251-7.1288018-.001251Z"/>
    <path class="cls-1" d="m324.3286993,203.0640172c-4.252136.0001475-8.5051692.0475208-12.7558886-.0298119-1.2156515-.0221169-1.2871438.4019171-1.1245154,1.4100675.7596878,4.7085671,5.1028182,8.4032185,10.8978929,9.0345311,4.3942233.4787127,8.4571457-.214584,11.6402506-3.7106313.6308223-.692801,1.5018566-1.2315505,2.3582053-1.6400885,1.4388169-.6864279,2.9734447-.9284515,4.3254699.2094973,1.3980182,1.1766948,1.6134393,2.7659757,1.0543454,4.3915595-1.1570506,3.3641364-3.6376993,5.6771159-6.7648949,7.0125004-8.9566942,3.8246622-17.6693043,3.4910905-25.696977-2.4642693-3.8849001-2.8820483-5.9081212-7.004416-6.8348289-11.690518-1.3115097-6.6315259-.6497106-13.0195825,3.2430281-18.6459026,4.9826886-7.2017336,12.2630926-9.3951235,20.6437406-8.3347433,7.8438895.9924656,13.2523205,5.2155279,15.809892,12.7873486.7822593,2.3158533,1.134904,4.7582948.877173,7.2143795-.327901,3.1237415-1.7669068,4.4153228-4.916485,4.4457307-4.2518055.0410592-8.5042248.0102028-12.756408.0103504Zm-2.6608432-7.5052752c3.1538281,0,6.3113866-.0920792,9.4598788.0377251,1.6462577.0678615,1.7530239-.5253778,1.4146871-1.8738743-1.1319291-4.5114383-4.6904392-7.3750519-9.8075181-7.7802677-5.8997632-.4671999-10.4424486,2.3067776-12.0668431,7.3686021-.6471607,2.0166077-.502004,2.239335,1.5384055,2.2453776,3.1537809.0093295,6.307609.0024548,9.4613898.0024371Z"/>
    <path class="cls-1" d="m230.6497488,222.1344731c-12.843129.0540768-21.8630518-8.8676449-21.9845508-21.7452021-.1202241-12.7447965,8.8823923-21.9601106,21.5118709-22.0200294,13.5602472-.0643327,22.6686381,8.5642391,22.7198018,21.5230118.052722,13.3543816-8.7803719,22.1855229-22.2471219,22.2422197Zm-.0955748-8.5731968c7.5036403.0719568,12.7025999-5.2036197,12.9055076-13.095729.200098-7.7820852-5.0934685-13.4719177-12.6326424-13.5783187-7.1824682-.1013674-12.5807467,5.4659899-12.7251715,13.1237528-.1459594,7.7384119,5.130466,13.4800847,12.4523062,13.5502948Z"/>
    <path class="cls-1" d="m141.2942613,222.1166639c-4.2053402-.0885504-9.6506271-1.237239-13.9093031-5.5810594-1.3638539-1.3911135-2.414823-3.0190223-2.6376106-5.0281593-.1685309-1.5201684.2796178-2.8768554,1.6157531-3.6798635,1.2771802-.7675549,2.6999184-.7581841,4.0455215-.0548557,1.2111183.6330475,2.177397,1.5820108,3.1389299,2.5387282,3.5298235,3.5120981,7.8195944,4.5008578,12.5971087,3.6291503,2.4560704-.4481101,3.8367349-1.8938197,4.1036739-4.0035097.257731-2.0368953-.8385937-3.8181003-3.092205-4.8134928-2.6141891-1.1546486-5.4732415-1.3592186-8.2266847-1.9650211-3.1594001-.6951201-6.2712962-1.5133586-8.8163305-3.6180623-5.7633187-4.7661196-5.3462649-13.8675562.8497378-18.1089529,4.875403-3.337399,10.3623149-3.5014468,15.9477766-2.6818982,3.8180591.5602232,7.3469853,1.850111,10.0967453,4.7478796.9984596,1.0522309,1.6795248,2.287977,2.0367027,3.6698731.3940809,1.5247003.1674212,2.9365854-1.129025,4.0239744-1.2879229,1.0802547-2.6756706,1.0174858-4.1334938.4143918-1.6510979-.6830643-2.8009473-2.0372907-4.1499266-3.1140815-3.1724567-2.5323256-6.7636908-2.9730948-10.5493328-2.1235692-2.225633.4994429-3.4155492,2.0350247-3.4580479,3.8585517-.0454972,1.9524343,1.0977885,3.4608774,3.2749021,4.2261545,3.720194,1.307697,7.6937511,1.5278928,11.4626533,2.6442852,2.1820482.6463424,4.2383948,1.5275446,5.9122294,3.0872556,6.1112886,5.6947009,4.1625582,16.3312767-3.63463,19.9949715-3.0900328,1.4518938-6.3709084,1.9342415-11.3451444,1.93731Z"/>
    <path class="cls-1" d="m21.9152054,222.013361c-6.049996-.0473378-11.7742278-1.0838366-16.1275933-5.8538627-1.0198388-1.1174487-1.7725851-2.3716944-2.1480375-3.8216763-.4486564-1.7326752-.2473424-3.346162,1.3523084-4.4472413,1.4281568-.983024,3.6120348-.783582,5.0374292.4091635,1.1341013.948987,2.2181485,1.9574915,3.3414362,2.9197321,3.5062367,3.0035027,7.588555,3.555376,11.9362186,2.6326603,2.2427151-.4759864,3.5547088-2.1176918,3.6486427-4.1511646.1002851-2.1708952-1.0347488-4.0748646-3.2558722-4.6898019-3.5289735-.9770344-7.1569335-1.5934175-10.6956699-2.5393537-4.3205353-1.1549201-8.0417327-3.2372944-9.5910935-7.7858854-2.2505065-6.6069601,1.5083377-13.4063458,8.6777021-15.3605209,6.5510202-1.7856307,12.9969388-1.3775707,19.0369477,2.0663826,2.1934757,1.2507051,3.8548322,3.0106488,4.5648083,5.478978.488428,1.6980363.3614514,3.3808067-1.2496269,4.4798384-1.6178072,1.1036168-3.2951362.8279988-4.8680365-.2037202-1.6654648-1.0924403-2.9561974-2.6544114-4.7278971-3.6409641-2.9748259-1.6564992-6.071269-1.9245757-9.287216-1.0464479-1.8240676.498068-3.0703654,1.654245-3.170072,3.6617592-.0966727,1.9467516.836209,3.2788256,2.6157828,4.0876757,2.61838,1.1901077,5.4687674,1.3650724,8.2235209,1.9543049,3.0239355.6468145,6.0803826,1.2647082,8.6411296,3.101359,4.6774299,3.3547951,6.0983383,9.7146685,3.4793091,15.0132471-2.647645,5.3565028-7.4638095,7.0924825-12.9266507,7.7222726-.8253601.0951595-1.6711313.0132654-2.5074702.0132654Z"/>
    <path class="cls-1" d="m176.2337362,199.6900438c-.0005194-3.4781142-.0413418-6.9569838.0231618-10.433906.0206119-1.1114238-.3419964-1.4376842-1.4266103-1.4114365-1.6686404.0404041-3.3535483.0235037-5.009203-.1651985-2.1817413-.2486622-3.6126723-1.9604125-3.6286093-4.0770185-.0147093-1.9576921,1.5469525-3.7586241,3.6567293-3.9785013,1.6585588-.1728521,3.3438209-.1919772,5.0121071-.1335514,1.1333693.0396901,1.4344726-.3696091,1.3932252-1.4418503-.0741838-1.9294322-.0429237-3.8640809-.0150634-5.7959738.0386266-2.6796794,1.7784523-4.5252171,4.3724073-4.687713,2.4230867-.1517914,4.363034,1.5036574,4.7257367,4.0851265.1069078.7609516.0713506,1.5408691.1282044,2.3100939.1312974,1.7763013-.7885397,4.1053551.3748149,5.1851141,1.1395553,1.0576716,3.439986.2479718,5.2293699.3128828,2.0580229.0746535,4.1302828-.0198628,6.1728881.1887435,1.7531184.1790481,2.8938305,1.2880879,3.2792465,3.0718422.3809064,1.7629473-.2322554,3.1897324-1.5924497,4.2598846-.9982943.7854644-2.2513919.8876402-3.4895914.8892866-2.7703482.0036881-5.5416644.0432897-8.3106196-.0185055-1.1604977-.0258995-1.7154834.1739556-1.699145,1.5500333.0742074,6.2468456-.0092081,12.4954439.0470555,18.7426613.040114,4.4569072,3.3861307,6.3936979,7.3932381,4.3237688,1.0176548-.5256965,1.9403487-1.2334506,2.9148202-1.8446289,1.6340984-1.0248975,3.3383905-1.1499042,4.8017149.1562821,1.4555331,1.2992467,1.5835013,3.0446799.8042642,4.7835511-1.2019811,2.6822051-3.410166,4.2723829-6.0808784,5.2713041-5.2555066,1.9657647-10.3461418,2.0086177-14.8976103-1.7345045-2.9006775-2.3855382-4.0859897-5.6804441-4.1636915-9.3602132-.0707131-3.3478024-.014969-6.698278-.015512-10.0475734Z"/>
    <path class="cls-1" d="m273.961797,183.529247c3.0983437-3.8418518,7.0059097-5.5121712,11.76973-5.1269244,2.9280184.2367835,5.5191165,1.1720035,7.4312744,3.544288,1.3690246,1.6984376,1.9129607,3.6313691,1.5397277,5.7680562-.2907855,1.6643711-1.0381014,2.956041-2.8444376,3.5319313-2.0522147.6542793-3.641052.0184937-5.0790661-1.3565691-2.9364237-2.8078255-5.2318253-3.3999437-8.1113007-1.9138654-2.0500898,1.0580198-3.1884881,2.9216204-3.9540313,5.0252856-.7574684,2.0813358-.9913056,4.2499178-.9914001,6.451032-.0002833,5.8629502.0077442,11.7259122-.0050998,17.5888388-.004061,1.8626624-.643808,3.4226743-2.4082121,4.2860496-1.6107005.7881847-3.2305146.7753914-4.7589565-.2442896-1.5428915-1.029276-2.0495704-2.5843901-2.0510814-4.3381908-.0095386-11.0171785-.0164328-22.0343688.0033527-33.051506.0051471-2.8639913,1.5806209-4.7492309,4.0529116-5.0026965,2.8687091-.2941058,4.5312108,1.0526617,5.1687856,4.1808584.0319212.1566243.10823.3042024.2378038.6577018Z"/>
    <path class="cls-1" d="m60.5698217,200.3093714c.0007201,5.6047283.0526984,11.2101117-.01903,16.8139254-.0421091,3.2904447-2.4885819,5.204375-5.6563165,4.6102387-1.9763191-.3706772-3.5092234-2.1433612-3.5189745-4.46413-.0479527-11.4025846-.0587072-22.8056649.0029159-34.2081138.0143433-2.6528889,2.0399963-4.4271661,4.6174241-4.4039162,2.7097049.0244419,4.5084031,1.7370301,4.5496859,4.6449484.0804642,5.6679812.023575,11.3379214.0242951,17.0070474Z"/>
    <path class="cls-1" d="m61.7314409,168.0135711c-.0197619,3.1165836-2.5370304,5.5695171-5.6910473,5.5456239-3.3047929-.0250379-5.7790314-2.4463067-5.8010481-5.6768563-.0216979-3.1844038,2.5682787-5.7194202,5.8122749-5.688971,3.223101.0302544,5.7004325,2.5688233,5.6798206,5.8202033Z"/>
  </g>
  <path class="cls-1" d="m244.34198,64.7202397c-3.2283774-6.5134306-7.7541406-11.3712816-13.1376984-15.9873985-8.7476635-7.5009356-9.7411299-11.765922-12.7565066-23.4261206-3.2794309-12.6814944-20.8568051-23.6894967-33.7311557-20.9388805-9.8561768,2.1057657-19.4788129,2.6596409-29.2702335.3264372-1.0364395-.2470458-2.1341319-.2754685-3.207018-.3239509-5.2062127-.2351794-9.4406291,1.659648-12.6725664,5.7903188-1.9431404,2.4832846-3.6488411,5.1313983-5.0646078,7.9263154-3.7557511,7.4143114-9.5144264,12.6763523-16.8206411,16.4613173-3.3381127,1.7293204-6.6345802,3.6008672-9.7233304,5.7361292-4.7566482,3.2885001-8.643607,7.3442435-9.3869481,13.47846-.5415569,4.4691438.8289482,8.594503,2.9297413,12.3791854,3.8623221,6.9580791,5.7624047,14.2727698,4.9987214,21.4894219,0,2.9820662-.0802955,5.2286457.0145221,7.4677664.3266067,7.7108002,2.1318716,14.7662397,8.9306593,19.5279735,2.5823968,1.8086553,5.324311,3.3747853,8.2235953,4.5557681,8.4986117,3.4615226,15.3441867,8.8019943,20.013024,16.8093399.6238301,1.0700043,1.5332433,1.9885715,2.3861502,2.9069127,3.8765617,4.1743502,8.6312322,6.2777991,14.3748767,6.0889549,4.2792825-.1407008,8.3701728-1.16081,12.2259402-2.9041439,11.5393315-5.217627,23.2141653-9.7176798,35.8793859-11.7497047,8.9623029-1.4379171,14.8044945-7.549079,17.9088122-16.1469159,1.0148823-2.8111345,1.5153026-5.7255061,1.9433664-8.6450197.851918-5.809983,3.6775746-10.2051036,8.8071929-13.1133725,1.1676472-.6619719,1.6239643-1.428198,2.7118246-2.2175353,3.8981189-2.8281994,6.2162072-6.6366145,6.9122807-11.4085193.7242984-4.9651001-.2821645-9.6296429-2.4893873-14.0827389Zm-53.9967065-54.9237215c.0524379-.3658221.4741448-.1885052.7252025-.1900309,7.2468831-.0444705,12.7524664,2.9601417,16.3069702,9.3536094.1346829.2422427.2042987.5253961.2737168.7972481.035938.1404748-.0276599.2786328-.2191599.3368344-.3166898.0481434-.5858861-.1085487-.8062891-.3368909-.4903904-.5083311-.9964895-1.0066041-1.4392733-1.5549983-2.900019-3.5921088-6.6530578-5.8069882-11.0885804-6.9489251-1.0401689-.2677271-2.064403-.5985718-3.091293-.9154594-.2901601-.0894496-.712093-.1873186-.6612938-.5413874Zm-69.5541199,44.9262222c-.3971266,1.0704563-.7685429,2.1567344-1.2573793,3.1857151-3.2022149,6.7405861-3.8006737,13.75924-2.3579535,21.0209278.338247,1.7028189.573596,3.4266582.8312084,5.1445643.0727237.4852765.2255734,1.1686079-.3257591,1.3425909-.569697.1796902-.6065957-.5587913-.7846472-.9234268-5.1399307-10.5264552-4.6182641-20.6514327,2.2067425-30.3072381.2585731-.3658221.6223044-.6655318.969762-.9571046.1795207-.1506459.4252103-.1547709.6442289.0834599.2919118.4276401.2522444.929586.0737973,1.4105115Zm1.9773833,49.4904663c9.3438338,11.7675607,21.3756746,18.9977179,36.1554759,21.5010057,26.7906783,4.5375165,52.8857916-9.8566289,62.2679084-34.2426229,7.6371442-19.8505117,1.5494607-43.0195849-14.9438109-56.8738687-23.8973553-20.0738248-58.5642844-18.0915255-79.9982171,4.617812-1.8126107,1.9203684-3.3566468,4.0944502-5.2001665,6.3661186,8.4239669-16.8249356,32.0081357-33.2714482,60.7389031-27.2784411,25.796336,5.3807608,44.7667048,29.0005287,44.5656552,55.7486577-.2068698,27.5261085-19.6605374,50.5107449-47.166021,55.4723416-25.1008559,4.5277974-48.1236906-9.7155325-56.4197271-25.311003Zm44.3878297-30.7946053c.0302309,0,.0604053-.0000565.0906362-.0000565,0-5.9975841.0886585-11.9966939-.0184211-17.9923003-.222183-12.4354658,10.427117-16.3849207,19.2729603-13.4630338,1.7275687.5706576,3.3470407,1.3462073,4.6071889,2.7125309,1.1693989,1.267946,1.3259215,2.8123211.4348729,4.070661-.8587835,1.2125698-1.9890236,1.4450369-3.7009965.7038431-1.2769305-.5528581-2.4993889-1.2442699-3.8016343-1.7228787-3.2445947-1.1923405-6.9284698-.1566921-8.7661693,2.3618525-.79188,1.0853175-1.0032703,2.3515118-1.1506953,3.6308156-.2847355,2.4709097-.1755087,4.9545334-.1773169,7.433354-.0074023,10.4957157.0106232,20.9914314-.0083629,31.4870907-.0115838,6.3995703-3.3816791,11.2188275-9.3655887,12.7919643-5.1640024,1.3575651-10.1677529.8655643-14.3525567-2.9319451-1.25478-1.138603-1.4526653-2.7725406-.7156529-3.940979.7938012-1.2583964,2.0116261-1.6129173,3.5122088-.960947,1.641679.7131102,3.136159,1.7852617,4.9631224,2.0424786,5.4013856.760293,9.1902495-1.5861333,9.1790047-7.4608726-.0118098-6.2538404-.0025993-12.5077374-.0025993-18.7615778Zm27.7183431-6.6882048c3.3701518.0385938,6.0809875,2.7705064,6.0918932,6.139189.0110187,3.443045-2.7519723,6.2020806-6.1885191,6.1797606-3.3591896-.0218115-6.0920628-2.7586966-6.1105968-6.1194683-.0187601-3.4004957,2.8224357-6.2381882,6.2072227-6.1994813Zm-48.0536793,12.3183281c-3.4261496-.022094-6.1574971-2.8286514-6.1013863-6.2693797.0546981-3.3546691,2.8353757-6.0738112,6.1845636-6.0477618,3.3368696.0259364,6.094549,2.788758,6.1204854,6.1320127.026445,3.4079546-2.7812426,6.2072227-6.2036628,6.1851287Zm79.3513606,25.1476431c-3.1354809,11.2868611-10.2414936,18.5181485-21.7537021,21.2172873-.4361725.1022765-.907153.0853246-1.3605599.0730627-.2343318-.0063852-.4209158-.1662417-.4267925-.4897405.0652083-.5136427.4278096-.862965.880369-1.1045296,1.0071692-.5376579,2.0056364-1.1043036,3.054027-1.5501387,6.8673581-2.9204178,11.9705597-7.776065,15.7074095-14.1673854.876244-1.498718,1.8435762-2.9448285,2.7902836-4.4013927.2674163-.4114227.6062284-1.0241776,1.134252-.7886591.5455406.2433163.0833469.8205852-.0252866,1.2114962Z"/>
</svg>