<?xml version="1.0" encoding="UTF-8"?><svg id="Layer_1" xmlns="http://www.w3.org/2000/svg" viewBox="0 0 115 125"><defs><style>.cls-1{fill:#2e2f71;}</style></defs><path class="cls-1" d="M110.89236,45.79708c-1.22241-4.5835-3.5993-8.54663-6.71637-12.08179-2.4129-2.73682-5.10876-5.18408-7.8208-7.61816-2.5387-2.27856-4.57159-4.93945-5.87726-8.13403-.67694-1.65649-1.48566-3.25684-2.52881-4.72827-2.05353-2.89648-4.9126-4.74219-8.06195-6.20483-5.19702-2.41357-10.72125-3.2605-16.39093-3.37305-3.2041-.0564-6.36005,.36011-9.47327,1.0481-4.58215,1.01294-8.78796,2.98242-12.86987,5.24292-2.73553,1.51489-5.12677,3.49878-7.52728,5.47412-3.83075,3.15259-7.58459,6.39966-10.89465,10.09912-2.48676,2.7793-5.31024,5.05225-8.57452,6.84106-2.92621,1.60327-5.49115,3.69385-7.80585,6.1084-2.26746,2.36475-3.40643,5.14307-3.37952,8.41016,.00006,.00659,.00085,.01294,.00092,.01953,.00482,.53247,.03119,1.06226,.07312,1.58984,.0058,.073,.01349,.146,.02002,.21899,.04425,.49878,.10101,.99561,.17456,1.48999,.00342,.02295,.00635,.0459,.00983,.06885,.16663,1.09985,.40057,2.18945,.68524,3.27002,.8891,3.375,2.21887,6.60547,3.33386,9.90649,.6532,1.93433,1.34839,3.85596,1.30627,5.9397-.0401,1.98315-.16522,3.96338-.40021,5.93164-.52612,4.40576-.18201,8.74438,.85651,13.04541,.00476,.01978,.00836,.03955,.01312,.05908,.18994,.78174,.44739,1.5083,.74194,2.20508,.026,.06128,.0498,.12476,.0766,.18555,1.2074,2.73779,3.2298,4.81323,6.10333,6.20264,.47736,.23096,.99475,.37988,1.49591,.56055,.3056,.11035,.49854,.24829,.59021,.41016,.13245,.23413,.04712,.52002-.26959,.85791-.06531,.06982-.13916,.13159-.20081,.20386-1.69366,1.99414-2.68811,4.22266-2.39227,6.91357,.02979,.27075,.07605,.53345,.13544,.78906,.9162,3.94214,5.22864,6.03394,8.9682,4.11597,1.86041-.9541,4.14362-.22632,5.10651,1.61792,.00757,.0144,.01855,.02588,.026,.04053,.22363,.44165,.43024,.89209,.64417,1.33862,.39606,.82764,.77002,1.66724,1.18494,2.48389,.04462,.08765,.08868,.17578,.1344,.2627,.09918,.18921,.21344,.36987,.31921,.55518,.37,.64844,.77075,1.27979,1.27094,1.85645,1.62598,1.87476,3.68158,2.55908,6.10004,2.26123,1.65845-.20435,3.14307-.89746,4.5744-1.71118,2.78168-1.58179,5.20245-3.66162,7.69775-5.6355,.83551-.66064,1.73236-.89258,2.77167-.77661,1.69781,.18945,3.17981,.89551,4.56262,1.84521,2.28003,1.56567,4.7298,2.77148,7.38928,3.54272,4.86163,1.41064,9.77039,1.82544,14.73535,.61499,4.87994-1.18994,9.27557-3.40552,13.34021-6.33569,2.52966-1.82373,4.61011-4.02051,6.16852-6.73193,1.52905-2.66064,2.40875-5.54883,3.10468-8.50342,1.01746-4.31934,1.38776-8.72852,1.71362-13.13867,.27496-3.72217,.89099-7.37988,1.98114-10.94556,.86945-2.84399,2.11981-5.54834,3.23157-8.30249,.95624-2.36914,1.53479-4.81348,1.78503-7.35742,.40411-4.10767-.1911-8.10425-1.24316-12.04858ZM60.756,6.59176c1.28137-.44775,2.63153-.37329,3.9549-.49902,.39685-.0376,.80042-.00562,1.20074-.00562,4.12842,.16138,8.21643,.62793,12.104,2.09937,2.43225,.92041,4.60681,2.31445,6.61273,4.00439,1.79749,1.51416,2.85217,3.43359,3.59351,5.58984,.03101,.09033,.07605,.17896,.0863,.27173,.03339,.29932,.1308,.65137-.20386,.82373-.34662,.17822-.50116-.16577-.68256-.36694-1.36462-1.51221-2.60138-3.15283-4.19958-4.43433-2.29333-1.83862-4.80029-3.34839-7.65631-4.10547-4.10382-1.08813-8.25159-2.00317-12.45636-2.63013-.65906-.09839-1.32104-.18018-1.99005-.17432-.11383,.00073-.23236,.00732-.34064-.02026-.17004-.04297-.34882-.1355-.36053-.3186-.01276-.19678,.21014-.1897,.33771-.23438Zm-11.61469,63.60547c.63702-.23608,1.32257-.37158,2.04071-.37158,1.10205,0,2.13068,.30957,3.01398,.83813l20.77051-20.76807c-.43341-.82031-.68158-1.75317-.68158-2.74365,0-3.25073,2.64459-5.89526,5.89545-5.89526s5.89539,2.64453,5.89539,5.89526c0,3.25098-2.64459,5.89551-5.89539,5.89551-.8606,0-1.67627-.1897-2.41406-.52271l-21.08667,21.08545c.25287,.65649,.39728,1.36621,.39728,2.11084,0,3.25073-2.64459,5.89526-5.8949,5.89526-3.25079,0-5.89545-2.64453-5.89545-5.89526,0-1.13062,.3255-2.18408,.87946-3.08228l-5.31934-7.5022c-.52612,.15454-1.08099,.24121-1.65637,.24121-3.25085,0-5.89545-2.64453-5.89545-5.89551,0-3.25073,2.64459-5.89551,5.89545-5.89551s5.89539,2.64478,5.89539,5.89551c0,1.28027-.41461,2.46289-1.11035,3.43042l5.16595,7.28442Zm-25.37164,19.05737c-.12805,.1106-.2912,.11401-.43097,.04419-.32263-.16162-.66943-.30151-.94421-.52588-.74945-.61206-1.4931-1.22217-2.17468-1.92578-1.09644-1.13159-2.08337-2.33765-2.80884-3.72021-1.72284-3.28271-3.00586-6.73779-3.80066-10.36572-.43225-1.97339-.68982-3.96265-.86688-5.98218-.16357-1.86719-.43835-3.73901-.67792-5.60669-.36798-2.86914-.80389-5.73633-.8194-8.6355-.01801-3.35376,.44586-6.64771,1.50757-9.84058,1.15509-3.47388,2.79541-6.64453,5.44696-9.26294,2.27759-2.24878,4.43323-4.62158,6.6319-6.94971,.4425-.46851,1.0047-.63257,1.68713-.84424-.27539,.68066-.57269,1.18408-.93207,1.6582-1.1062,1.45801-2.3573,2.7937-3.52777,4.19702-1.88336,2.25854-3.56927,4.64697-4.90118,7.28076-1.33417,2.63843-2.55566,5.31982-3.35577,8.17505-.43799,1.56323-.65002,3.16797-.82825,4.77612-.18286,1.64893-.21039,3.29834-.1015,4.95874,.14087,2.14526,.53302,4.24731,.85187,6.36621,.32806,2.17993,.87823,4.323,1.01697,6.54028,.17664,2.82129,.88586,5.55737,1.62799,8.27808,.18353,.6731,.59705,1.23145,.91425,1.83569,1.13666,2.16357,2.38806,4.24316,4.11938,6.01245,.80798,.82544,1.46356,1.80103,2.18158,2.71362,.09204,.11719,.15344,.26196,.21173,.40088,.05896,.14062,.11731,.29712-.02722,.42212Zm10.26672,10.07251c-1.46161,.15967-2.88287,.53906-4.32825,.78076-1.55109,.25928-2.42041-.4541-2.57812-2.02295-.05676-.5647-.21875-1.1167-.00793-1.68994,.36981-1.00488,1.03558-1.21582,1.79047-.47168,.85266,.84033,1.81018,1.50439,2.87323,2.04077,.46808,.23633,.95947,.36841,1.46484,.46191,.51654,.0957,.96521,.31958,1.4267,.64429-.22198,.20288-.44135,.23486-.64093,.25684Zm29.37,7.82593c-1.21271,.83496-2.59479,1.02856-4.14844,1.06738-1.12177-.12061-2.37018-.25195-3.61761-.3916-.24628-.02759-.48682-.06494-.7381-.0271-1.39331,.20898-2.78131,.4458-4.13995,.82568-.50104,.14062-1.01404,.18555-1.52557,.21362-1.13959,.06226-2.28064,.1106-3.42169,.12769-1.64935,.02515-2.84045-.84229-3.78162-2.08838-.41028-.54321-.71991-1.16602-1.04272-1.77002-.22754-.42627-.30609-.89844-.25488-1.38599,.04242-.40356,.25708-.53027,.6311-.39551,.14294,.05151,.289,.10474,.41846,.18262,1.92316,1.15454,4.10339,1.61011,6.25031,1.83423,2.72253,.28394,5.43658,.72021,8.18365,.79639,1.40649,.03882,2.80829,.25342,4.21448,.28564,.93066,.021,1.85773,.04712,2.784,.13306,.19696,.01807,.47467-.0752,.5376,.18848,.0506,.21118-.1958,.29858-.349,.40381Zm14.5437-9.5459c-2.82672,1.59595-5.8363,2.70972-9.01935,3.32837-.87311,.16968-1.78015,.23755-2.66998,.22656-.91919-.01172-1.84222,.03149-2.72339,.20312-1.60797,.31348-3.18988,.07666-4.78278,.01392-1.10345-.0437-2.19958-.22192-3.30872-.17529-.20691,.00854-.42249-.01294-.62335-.06299-1.67804-.41821-3.39038-.66626-5.07605-1.06104-1.93762-.45361-3.7879-1.12915-5.62677-1.84082-1.48474-.57471-2.91742-1.28687-4.35815-1.96997-.8847-.41919-1.56366-1.14478-2.3573-1.70361-2.32306-1.63574-4.52704-3.41333-6.50195-5.47949-1.67645-1.75391-3.13019-3.67041-4.60632-5.58521-1.69592-2.19995-2.89069-4.62817-3.87103-7.19849-.44702-1.17236-.9046-2.33594-1.18909-3.56055-.24084-1.03735-.62891-2.06567-.68744-3.11279-.05688-1.0188,.09076-2.05957,.01965-3.10107,.87006,3.2583,1.8147,6.47241,3.21765,9.52637,2.81354,6.12476,6.63531,11.5166,11.83246,15.8584,5.25073,4.38647,11.2959,7.07056,18.02332,8.26733,3.41248,.60693,6.8479,.85645,10.30237,.66528,4.35553-.24048,8.55444-1.19092,12.5332-3.02881,.62482-.28857,1.24158-.62842,2.04169-.67896-.16992,.27539-.38074,.36353-.56866,.46973Zm24.27277-11.61328c-.14398,1.51245-.38336,3.01489-.70148,4.50439-.3493,1.6355-.58154,3.29956-1.10535,4.89185-.45099,1.37109-.89301,2.74585-1.45636,4.08008-.53473,1.26611-1.32208,2.36914-2.34283,3.22876-.995,.83789-2.08429,1.61377-3.30518,2.1189-1.44019,.5957-2.90564,1.12134-4.46484,1.35278-1.00922,.1499-2.01532,.08521-3.0235,.09351-.11005,.00098-.22656-.03711-.32983-.08081-.75415-.31958-.81622-.57007-.27893-1.17749,.57202-.64575,1.26471-1.16211,1.96252-1.65088,1.1911-.83423,2.26862-1.78564,3.28796-2.81714,2.76099-2.79419,4.90594-6.08398,7.34583-9.1355,1.3924-1.74146,2.36005-3.77588,3.43805-5.72656,.20148-.36426,.38129-.74487,.73468-1.06543,.40283,.43066,.28021,.95386,.23926,1.38354Zm.06116-27.62207c-.09949,1.62061-.33917,3.23267-.51886,4.8479l-.16797,.00195c0-1.2356,.02368-2.47168-.00439-3.70654-.10437-4.59253-1.03632-9.03491-2.49152-13.37598-.66492-1.98389-1.37152-3.95459-2.21228-5.87134-.9646-2.19849-2.02191-4.35107-3.53436-6.24097-.37195-.46484-.97394-.46948-1.48431-.60352-.26483-.06934-.43781-.17993-.60693-.34937-2.0354-2.03809-4.11115-4.0271-6.42981-5.75244-3.1261-2.32642-6.52362-4.12915-10.14972-5.54565-1.49487-.58423-2.99249-1.16406-4.54987-1.50464-3.46057-.75659-6.94196-1.40747-10.52252-1.13501-1.17529,.08911-2.36023,.04736-3.53784,.11426-1.27643,.073-2.50659,.45361-3.76965,.63184-2.32733,.32837-4.52759,1.13623-6.75409,1.84229-.18146,.05762-.36157,.13379-.54785,.15723-.17322,.02148-.49457,.13257-.17413-.2688,.14899-.18628-.11151-.49268-.23291-.71729l-.49799-.22754c6.54108-3.10449,13.40399-4.24146,20.5896-3.31421,1.49133,.19238,2.9613,.53931,4.40149,.98413,2.34589,.72461,4.68268,1.46411,6.98364,2.33911,2.28223,.86792,4.53754,1.75146,6.65033,2.98682,2.70178,1.57959,5.12769,3.52393,7.34235,5.7085,3.03503,2.99365,5.76288,6.25269,7.73358,10.06934,1.12817,2.18457,1.95239,4.49512,2.70819,6.83667,.90692,2.80933,1.53699,5.66528,1.67041,8.61182,.05267,1.15918,.17822,2.32666,.10742,3.48145Zm5.13251,5.36182c-.20251-3.21802,.13257-6.4314-.09485-9.63745-.22736-3.2063-.89429-6.34448-1.6441-9.4707,1.76093,2.88916,2.42871,6.09253,2.64795,9.38281,.21826,3.27637,.04999,6.54492-.909,9.72534Zm2.29059,1.86133c-.02051,.04858-.0672,.08643-.10168,.12939,.28528-1.46313,.58252-2.91235,.86316-4.3667,.33185-1.71899,.20428-3.44312,.22491-5.16699,.00629-.53296-.01685-1.06665-.04553-1.59912-.16913-3.13037-.72931-6.17944-1.72516-9.16284-1.10724-3.31641-2.87299-6.24414-4.98486-8.99316-1.83392-2.38721-3.65637-4.78271-5.48456-7.17432-.20782-.27148-.39893-.55859-.76074-.77661,.3103-.09204,.43951,.1001,.57709,.20728,3.78088,2.9502,7.0119,6.39648,9.33087,10.61914,2.06274,3.75562,3.34705,7.7749,3.96045,12.02832,.71228,4.93945,.07581,9.67456-1.85394,14.25562Z"/></svg>