<?xml version="1.0" encoding="UTF-8"?>
<svg id="Layer_1" data-name="Layer 1" xmlns="http://www.w3.org/2000/svg" viewBox="0 0 265.0678711 235">
  <defs>
    <style>
      .cls-1 {
        fill: #faf7ef;
      }

      .cls-2 {
        fill: #a9cb38;
      }
    </style>
  </defs>
  <g>
    <path class="cls-1" d="m107.3487774,155.8481774c1.1432824.0350344,2.4893391-.120828,3.7806658.3290315,1.2164241.423771,2.0043972,1.2272016,2.157467,2.5513224.1568186,1.3566652-.3101759,2.4535504-1.4287498,3.2445712-1.4094099.9966812-3.0457173,1.2292652-4.7069603,1.2835009-1.8829991.0614862-3.7673705.0467328-5.5390526-.756728-2.1225057-.9625474-2.395919-3.3679699-.5081418-4.7022678.3354899-.2371251.3002511-.3287187.0651948-.5979341-.8740822-1.0010861-.8633904-2.8059054.3490223-3.6568533.3510557-.2463939.309959-.4341827.0564406-.7316361-1.771011-2.0779703-.9183173-5.264847,1.6571106-6.2654676,2.0825089-.8091144,4.1740192-.8122062,6.2686376-.0770167.2598406.0912013.4116438.0794159.6140196-.0993752.3792306-.3350409.7754499-.6546824,1.1889001-.9463156.6236315-.4398994,1.3873654-.4016131,1.8015977.0570915.4421851.4896583.4533915,1.2077279-.1996006,1.7318252-.8735019.7010733-1.0084729,1.3615645-.7172534,2.467933.4981615,1.8925076-.7815804,3.7595662-2.7880766,4.4653055-1.7055589.5998943-3.447179.6182831-5.1953332.2127092-.3594063-.0833868-.6716812-.1556304-.8122024.2819556-.1264237.3936687-.0754374.7560242.3137987.9903641.298354.1796275.6349085.2177675.9766046.2178886.8269912.0002952,1.6539874.0000933,2.6659165.0000933l-.000005.0000025Zm-.8211685-3.4480872c.3345262-.0372797.6338389-.0441544.9207241-.1073688,1.0269147-.2262845,1.6968652-.9176677,1.7794473-1.8071807.0824206-.8877483-.3667578-1.7451306-1.166235-2.0666416-1.0389435-.4178096-2.1070812-.4498747-3.1422304.0213153-1.2447049.5665792-1.6186073,2.1601941-.7316537,3.1230266.6350902.6894242,1.4986269.8052306,2.3399477.8368491Zm-.225061,5.9080481l-.0000252-.0199353c-.7819436,0-1.5647198.0218148-2.3455484-.0077678-.5096403-.0193072-.7790172.2469086-.9592627.6589737-.3711778.8486067.0938389,1.6122801,1.2204757,1.8380651,1.5880156.3182389,3.1853807.3109984,4.7694203-.0925598.2963206-.0754879.5458731-.2313276.7789011-.4010227.614842-.4477404.5306857-1.3753265-.1460815-1.7392083-.3007507-.1616978-.6300546-.2355635-.9727951-.2361311-.7816964-.0012993-1.5633928-.0004112-2.3450892-.0004112l.000005-.0000025Z"/>
    <path class="cls-1" d="m182.3945693,154.0699209c-1.3987837.0000479-2.7978601.0156314-4.1961796-.0098062-.3998976-.0072758-.4234204.1322161-.3699164.4638562.2499108,1.5489295,1.6786252,2.7643217,3.5849705,2.9720004,1.4455266.1574771,2.7820672-.0705886,3.8291797-1.2206498.2075172-.2279042.4940493-.4051299.7757577-.5395232.4733117-.2258077.9781486-.3054229,1.4229019.0689159.4598903.3870867.5307614.9098961.3468376,1.4446486-.3806232,1.1066662-1.1966552,1.8675442-2.2253813,2.3068306-2.9463938,1.2581616-5.8124912,1.148429-8.4532804-.8106458-1.2779809-.948079-1.9435316-2.3041716-2.2483895-3.8457117-.4314328-2.1815069-.2137335-4.2829218,1.0668308-6.1337549,1.6391078-2.3690825,4.0340631-3.0906197,6.7909626-2.7417967,2.5803222.3264822,4.3594869,1.7156994,5.2008178,4.206527.2573278.7618229.3733373,1.5652887.2885503,2.3732414-.1078658,1.0275858-.581238,1.4524643-1.6173308,1.4624673-1.3986727.0135072-2.7975473.0033554-4.1963512.0034058l.0000202-.000005Zm-.8753082-2.4689346c1.0374853,0,2.0761917-.0302903,3.1119212.0124098.541549.0223232.5766768-.1728284.4653799-.6164301-.3723584-1.4840829-1.5429681-2.426097-3.2262857-2.5593967-1.9407868-.1536903-3.4351451.7588384-3.9695091,2.4239754-.2128858.6633824-.1651439.7366514.5060781.7386394,1.0374652.003069,2.0749505.0008073,3.1124156.0008023Z"/>
    <path class="cls-1" d="m151.5779449,160.3433392c-4.2248793.0177884-7.1920712-2.9171013-7.2320428-7.1533004-.0395478-4.1925278,2.9219527-7.2239975,7.0765461-7.2437083,4.4607833-.0211627,7.4570785,2.8172909,7.4739108,7.0802092.0173469,4.3930581-2.888389,7.2981508-7.3184141,7.3167995Zm-.0314445-2.8202375c2.4683997.0236716,4.1786511-1.7117827,4.2453948-4.3079709.0658255-2.5599946-1.6755474-4.4317216-4.1556328-4.4667233-2.3627439-.0333454-4.1385584,1.7980922-4.1860682,4.3171906-.0480143,2.5456284,1.6877175,4.4344097,4.0963062,4.4575036Z"/>
    <path class="cls-1" d="m122.1835563,160.3374787c-1.3833844-.0291285-3.1746688-.4070018-4.575602-1.8359459-.4486486-.4576197-.7943761-.9931366-.8676691-1.654063-.0554415-.5000738.0919821-.9463711.5315182-1.2105282.4201407-.2524941.8881645-.2494112,1.3308189-.0180457.3984141.2082463.7162796.5204178,1.032581.8351399,1.1611743,1.155339,2.5723299,1.4806014,4.1439471,1.1938448.8079489-.147411,1.2621275-.6229907,1.3499419-1.3169938.084787-.6700565-.2758655-1.2560021-1.0172119-1.5834467-.8599594-.3798336-1.8004775-.4471298-2.7062514-.6464126-1.0393119-.2286661-2.0630024-.497836-2.900216-1.1901968-1.8959008-1.567862-1.7587097-4.5618715.2795287-5.9571208,1.6038084-1.0978703,3.4087867-1.151836,5.2461782-.8822372,1.255992.1842909,2.4168635.6086119,3.3214264,1.5618627.3284512.3461413.552498.7526524.6699909,1.207241.1296327.501566.0550783.9660188-.3713998,1.3237272-.4236726.3553609-.8801924.3347116-1.3597506.1363182-.5431434-.2247015-.9213952-.6701877-1.3651596-1.0244083-1.0436107-.8330333-2.2249878-.9780287-3.4703133-.6985694-.7321431.1642963-1.1235741.6694422-1.1375606,1.2693087-.0149654.6422726.3611268,1.1384903,1.0773157,1.3902351,1.2237907.4301803,2.5309354.5026155,3.7707511.869864.7178034.2126209,1.3942628.5025007,1.9448839,1.0155822,2.0103662,1.8733291,1.3693172,5.3723369-1.1956461,6.577547-1.0164955.4776156-2.0957789.6362885-3.7321015.6372976Z"/>
    <path class="cls-1" d="m82.9126272,160.3034988c-1.9902089-.0155734-3.8732483-.3565378-5.3053333-1.9256877-.3354849-.3675954-.5831099-.7801928-.7066172-1.2571777-.1475901-.5699812-.0813661-1.1007527.4448543-1.4629643.469805-.3233753,1.1882139-.2577668,1.6571106.1345976.3730749.312179.7296809.6439352,1.0991986.9604762,1.153409.988033,2.4963324,1.1695753,3.9265404.8660394.737764-.1565815,1.1693583-.6966369,1.2002578-1.3655657.0329884-.7141378-.3403892-1.3404662-1.071054-1.5427561-1.1608917-.321405-2.3543429-.5241693-3.5184487-.8353467-1.4212823-.3799219-2.645411-1.0649412-3.1550867-2.5612446-.7403272-2.1734263.4961836-4.4101515,2.8546186-5.0529969,2.1550249-.5874013,4.2754719-.4531657,6.2623961.6797567.7215675.4114319,1.2680864.990383,1.5016392,1.8023646.1606735.5585856.1189006,1.1121508-.4110787,1.4736876-.5321944.3630454-1.0839658.2723777-1.6013916-.067015-.5478712-.3593697-.9724722-.8731954-1.5552895-1.1977312-.9785976-.544922-1.9972022-.6331085-3.0551224-.3442391-.6000431.1638447-1.0100269.5441803-1.0428287,1.2045718-.0318027.6404032.2750784,1.0786023.8604892,1.3446818.8613419.3914978,1.7990042.4490548,2.705212.6428882.9947538.2127761,2.0002043.4160386,2.8425847,1.0202217,1.5386893,1.1035934,2.0061077,3.1957369,1.1445539,4.9387572-.870969,1.7620751-2.4552962,2.3331437-4.2523528,2.5403178-.2715112.0313032-.549733.0043645-.8248568.0043645h.000005Z"/>
    <path class="cls-1" d="m133.677251,152.9600205c-.0001716-1.1441603-.0136031-2.2885692.0076189-3.4323372.0067813-.3656137-.1125078-.4729408-.4692954-.4643065-.5489156.0132915-1.1031796.0077324-1.6478266-.0543428-.7177025-.0818-1.1884207-.6448976-1.1936682-1.3411751-.0048337-.644002.5088835-1.2364376,1.2029219-1.3087669.5455956-.0568619,1.0999807-.0631525,1.6487853-.0439324.3728327.0130569.4718787-.1215874.458316-.4743107-.0244007-.6347067-.0141177-1.2711277-.0049548-1.9066429.0127049-.8815068.5850424-1.4886151,1.4383517-1.5420699.7971008-.049933,1.4352637.4946434,1.5545831,1.343843.0351681.250322.0234723.5068841.0421715.7599282.0431907.5843323-.2593966,1.3504969.1232954,1.7056951.3748712.3479312,1.1316169.0815729,1.7202518.1029261.6770043.0245584,1.3587011-.0065341,2.0306296.0620892.576707.0589003.9519516.4237294,1.0787385,1.0105138.1253035.5799388-.0764011,1.0492947-.5238489,1.4013318-.3284008.2583862-.7406198.291999-1.1479345.2925401-.9113341.0012135-1.8229912.0142401-2.7338612-.0060876-.3817534-.0085196-.564325.0572239-.5589464.5098989.0244108,2.0549622-.0030274,4.1104995.01548,6.1655853.0131994,1.4661431,1.1139067,2.1032717,2.4320812,1.4223469.3347684-.1729319.6382942-.4057556.9588641-.6068093.5375528-.3371499,1.0981945-.3782719,1.5795692.0514101.4788114.4274014.5209123,1.001578.2645734,1.5735976-.3954069.8823368-1.1218081,1.405444-2.0003658,1.7340491-1.7288496.6466573-3.4034686.6607548-4.900713-.5705816-.9542019-.7847465-1.3441293-1.8686392-1.3696905-3.0791346-.0232604-1.1012926-.0049245-2.2034656-.0051062-3.3052501l-.0000202-.0000076Z"/>
    <path class="cls-1" d="m165.825875,147.6437633c1.0192302-1.2638153,2.3046686-1.8132834,3.871775-1.6865532.9632034.0778921,1.815564.3855427,2.4445944,1.1659285.450354.558718.6292826,1.1945752.506512,1.8974599-.0956553.5475117-.3414892.9724192-.9357046,1.1618642-.6750971.215232-1.1977552.0060838-1.6708146-.4462569-.9659684-.9236619-1.7210591-1.1184452-2.6682981-.6295854-.6744008.348046-1.0488885.9610968-1.3007166,1.6531182-.2491741.6846762-.3261,1.3980521-.3261303,2.1221323-.0000908,1.9286773.002543,3.8573571-.0016752,5.7860242-.0013321.6127405-.2117859,1.1259229-.7922065,1.4099396-.5298532.2592805-1.0627136.2550724-1.5655019-.080362-.5075514-.3385905-.6742292-.8501608-.6747237-1.4270923-.0031384-3.6242105-.0054089-7.248426.0011-10.8726226.0016953-.9421391.5199637-1.5623067,1.3332509-1.6456873.9436868-.096749,1.4905842.3462838,1.7003215,1.3753354.010505.0515236.0356021.1000703.0782277.2163572h-.0000101Z"/>
    <path class="cls-1" d="m95.6284475,153.1637535c.0002371,1.8437313.0173368,3.6876771-.0062616,5.5311082-.0138503,1.0824244-.8186457,1.7120299-1.8607024,1.5165844-.6501312-.1219381-1.1543929-.7050808-1.1576019-1.4685196-.0157727-3.7509949-.0193097-7.5021512.0009587-11.2531007.0047177-.8726946.6710757-1.4563608,1.5189457-1.4487129.8913837.0080402,1.4830863.5714129,1.4966642,1.5280027.0264694,1.8645396.0077552,3.7297224.0079923,5.5946379h.000005Z"/>
    <path class="cls-1" d="m96.0105743,142.5397273c-.0064988,1.025232-.8345798,1.8321478-1.8721257,1.8242879-1.0871446-.0082358-1.9010726-.8047361-1.908313-1.8674585-.0071396-1.0475413.8448628-1.8814601,1.9120065-1.8714433,1.0602715.0099525,1.8752136.8450394,1.8684323,1.9146138Z"/>
  </g>
  <g>
    <path class="cls-1" d="m6.9765625,223.5678035c0-3.0488281,1.8632812-5.3525391,4.6069336-6.6396484-1.6938477-1.3554688-2.6757812-3.2861328-2.6757812-5.5898438,0-2.6074219,1.1513672-4.640625,3.7597656-6.2324219-2.2695312-1.9990234-3.5229492-4.7421875-3.5229492-7.9941406,0-7.2490234,6.1992188-11.8564453,15.887207-11.8564453,3.6245117,0,6.7749023.6435547,9.2475586,1.8291016l3.3540039-2.8115234c.9482422-.7792969,2.1000977-1.2871094,3.184082-1.2871094,1.7954102,0,3.1503906,1.4228516,3.1503906,2.9814453,0,1.1855469-.6777344,2.3710938-1.8295898,3.4208984l-2.6420898,2.3037109c.9145508,1.5576172,1.3891602,3.3867188,1.3891602,5.4199219,0,7.2832031-6.1313477,11.8554688-15.8535156,11.8554688-2.8115234,0-5.3520508-.3720703-7.4863281-1.1171875-.7451172.5419922-1.1176758,1.1513672-1.1176758,1.9306641,0,1.5244141,1.2192383,2.5068359,3.3198242,2.5068359h11.9912109c7.7573242,0,11.9916992,3.2519531,11.9916992,9.1455078,0,7.1474609-6.9443359,11.1455078-19.3085938,11.1455078-11.2802734,0-17.4453125-3.0830078-17.4453125-9.0107422Zm17.8178711,2.7431641c6.8427734,0,10.3994141-1.4902344,10.3994141-4.1328125,0-2.1337891-1.659668-3.2177734-5.0810547-3.2177734h-11.5512695c-.5078125,0-.9819336-.0341797-1.456543-.0673828-1.253418.8466797-1.8969727,1.9306641-1.8969727,3.3193359,0,2.7783203,3.0825195,4.0986328,9.5864258,4.0986328Zm.3388672-23.4404297c4.6069336,0,7.4863281-2.2363281,7.4863281-5.8271484,0-3.6240234-2.8793945-5.8603516-7.4863281-5.8603516-4.6748047,0-7.621582,2.2705078-7.621582,5.8603516,0,3.5908203,2.9467773,5.8271484,7.621582,5.8271484Z"/>
    <path class="cls-1" d="m59.1508789,170.7914363c2.9814453,0,5.1152344,2.2011719,5.1152344,5.0810547,0,2.9130859-2.1337891,5.1142578-5.1152344,5.1142578-2.9804688,0-5.1826172-2.2011719-5.1826172-5.1142578,0-2.8798828,2.2021484-5.0810547,5.1826172-5.0810547Zm-4.2001953,49.21875v-30.2158203c0-2.5400391,1.7275391-4.3017578,4.1665039-4.3017578,2.4052734,0,4.0991211,1.7617188,4.0991211,4.3017578v30.2158203c0,2.5068359-1.6938477,4.3027344-4.0991211,4.3027344-2.4389648,0-4.1665039-1.7958984-4.1665039-4.3027344Z"/>
    <path class="cls-1" d="m80.8041992,212.9310847v-19.1728516h-5.081543c-2.2695312,0-3.8955078-1.5585938-3.8955078-3.7607422,0-2.1679688,1.6259766-3.7255859,3.8955078-3.7255859h5.081543v-6.4023438c0-2.5068359,1.7275391-4.2685547,4.1665039-4.2685547,2.4047852,0,4.0986328,1.7617188,4.0986328,4.2685547v6.4023438h9.8237305c2.2358398,0,3.8618164,1.5576172,3.8618164,3.7255859,0,2.2021484-1.6259766,3.7607422-3.8618164,3.7607422h-9.8237305v18.0205078c0,3.21875,1.659668,4.8447266,4.2006836,4.8447266,1.6933594,0,2.980957-.8466797,4.3017578-1.8974609.7792969-.609375,1.7275391-1.2197266,2.980957-1.2197266,1.8969727,0,3.2519531,1.3896484,3.2519531,3.3544922,0,1.5244141-.7451172,3.0146484-2.2016602,4.3359375-2.1342773,1.9638672-5.690918,3.3535156-9.3496094,3.3535156-6.5712891,0-11.4492188-4.4375-11.4492188-11.6191406Z"/>
    <path class="cls-1" d="m114.8798828,219.9086238c-1.659668-1.5234375-2.8115234-3.6582031-2.8115234-5.3857422,0-1.9648438,1.3208008-3.3535156,3.387207-3.3535156,1.3891602,0,2.371582.5761719,4.03125,2.3037109,2.6420898,2.8457031,5.5893555,4.03125,9.2475586,4.03125,3.9296875,0,6.3007812-1.5244141,6.3007812-4.3027344,0-2.4042969-1.5922852-3.9970703-4.8442383-4.6064453l-5.8261719-1.1855469c-7.2832031-1.4570312-11.0429688-5.2167969-11.0429688-10.7724609,0-7.0800781,5.6567383-11.3818359,14.5322266-11.3818359,4.7763672,0,9.0444336,1.1855469,11.8222656,3.3193359,2.065918,1.5585938,3.387207,3.6923828,3.387207,5.7255859,0,1.8964844-1.4228516,3.2851562-3.2856445,3.2851562-1.4570312,0-2.6762695-.8798828-4.3359375-2.4042969-2.1679688-2.2363281-4.8779297-3.1171875-7.7573242-3.1171875-3.5571289,0-5.8266602,1.4912109-5.8266602,3.9638672,0,2.2695312,1.7275391,3.7255859,5.1489258,4.3359375l6.1313477,1.21875c7.012207,1.4228516,10.4672852,5.0136719,10.4672852,10.8066406,0,7.6210938-5.7587891,12.1611328-15.1757812,12.1611328-5.7587891,0-10.8061523-1.7958984-13.5498047-4.6416016Z"/>
    <path class="cls-1" d="m159.4223633,170.7914363c2.9804688,0,5.1147461,2.2011719,5.1147461,5.0810547,0,2.9130859-2.1342773,5.1142578-5.1147461,5.1142578-2.9814453,0-5.1831055-2.2011719-5.1831055-5.1142578,0-2.8798828,2.2016602-5.0810547,5.1831055-5.0810547Zm-4.2006836,49.21875v-30.2158203c0-2.5400391,1.7275391-4.3017578,4.1665039-4.3017578,2.4052734,0,4.0986328,1.7617188,4.0986328,4.3017578v30.2158203c0,2.5068359-1.6933594,4.3027344-4.0986328,4.3027344-2.4389648,0-4.1665039-1.7958984-4.1665039-4.3027344Z"/>
    <path class="cls-1" d="m174.8334961,223.5678035c0-3.0488281,1.8632812-5.3525391,4.6069336-6.6396484-1.6938477-1.3554688-2.6762695-3.2861328-2.6762695-5.5898438,0-2.6074219,1.1518555-4.640625,3.7602539-6.2324219-2.2695312-1.9990234-3.5229492-4.7421875-3.5229492-7.9941406,0-7.2490234,6.1992188-11.8564453,15.887207-11.8564453,3.6245117,0,6.7749023.6435547,9.2475586,1.8291016l3.3535156-2.8115234c.9487305-.7792969,2.1005859-1.2871094,3.1845703-1.2871094,1.7954102,0,3.1503906,1.4228516,3.1503906,2.9814453,0,1.1855469-.6777344,2.3710938-1.8295898,3.4208984l-2.6420898,2.3037109c.9145508,1.5576172,1.3886719,3.3867188,1.3886719,5.4199219,0,7.2832031-6.1308594,11.8554688-15.8530273,11.8554688-2.8115234,0-5.3520508-.3720703-7.4863281-1.1171875-.7451172.5419922-1.1176758,1.1513672-1.1176758,1.9306641,0,1.5244141,1.2192383,2.5068359,3.3193359,2.5068359h11.9916992c7.7573242,0,11.9916992,3.2519531,11.9916992,9.1455078,0,7.1474609-6.9443359,11.1455078-19.3085938,11.1455078-11.2802734,0-17.4453125-3.0830078-17.4453125-9.0107422Zm17.8178711,2.7431641c6.8427734,0,10.3999023-1.4902344,10.3999023-4.1328125,0-2.1337891-1.6601562-3.2177734-5.081543-3.2177734h-11.5512695c-.5078125,0-.9824219-.0341797-1.456543-.0673828-1.253418.8466797-1.8969727,1.9306641-1.8969727,3.3193359,0,2.7783203,3.0825195,4.0986328,9.5864258,4.0986328Zm.3388672-23.4404297c4.6069336,0,7.4863281-2.2363281,7.4863281-5.8271484,0-3.6240234-2.8793945-5.8603516-7.4863281-5.8603516-4.6748047,0-7.621582,2.2705078-7.621582,5.8603516,0,3.5908203,2.9467773,5.8271484,7.621582,5.8271484Z"/>
    <path class="cls-1" d="m222.9975586,220.0101863v-30.2158203c0-2.5400391,1.7275391-4.3017578,4.1665039-4.3017578,2.4052734,0,4.0986328,1.7617188,4.0986328,4.3017578v.7451172c2.3037109-3.4208984,6.5039062-5.2841797,11.6191406-5.2841797,9.1801758,0,15.2094727,5.7246094,15.2094727,15.9208984v18.8339844c0,2.4736328-1.7275391,4.3027344-4.1323242,4.3027344-2.4389648,0-4.1328125-1.8632812-4.1328125-4.3027344v-17.3769531c0-6.6054688-3.3535156-9.7900391-8.7734375-9.7900391-6.0634766,0-9.7900391,4.1669922-9.7900391,10.3662109v16.8007812c0,2.5068359-1.6933594,4.3027344-4.0986328,4.3027344-2.4389648,0-4.1665039-1.7958984-4.1665039-4.3027344Z"/>
  </g>
  <path class="cls-2" d="m179.9762334,42.7528579c-7.100769-6.0888672-7.9071655-9.5507812-10.3548584-19.015625-2.6619263-10.2939453-16.9299927-19.2294922-27.3804321-16.996582-8.0006104,1.7094727-15.8115234,2.1591797-23.7595215.2646484-.8413086-.2001953-1.7322998-.2231445-2.6032104-.2626953-4.2260742-.190918-7.663208,1.347168-10.2867432,4.7001953-1.5772095,2.015625-2.961853,4.1655273-4.1110229,6.434082-3.048645,6.0185547-7.7230835,10.2895508-13.6537476,13.3623047-2.7096558,1.4038086-5.385498,2.9223633-7.8926392,4.65625-3.8612061,2.6689453-7.0163574,5.9614258-7.6196899,10.9404297-.4396973,3.6279297.6728516,6.9765625,2.3781128,10.0488281,3.1351318,5.6479492,4.6774902,11.5854492,4.0576172,17.4433594,0,2.4204102-.0651855,4.2441406.0117798,6.0615234.2650757,6.2592773,1.7304688,11.9863281,7.2492676,15.8515625,2.0961914,1.4682617,4.3218384,2.7392578,6.675293,3.6982422,6.8986206,2.8095703,12.4552612,7.1445312,16.2451172,13.6445312.5064087.8686523,1.2446289,1.6142578,1.9368896,2.359375,3.1467285,3.3886719,7.0062256,5.0961914,11.6685181,4.9428711,3.4735718-.1142578,6.7943115-.9423828,9.9241333-2.3574219,9.3667603-4.2353516,18.8435669-7.8881836,29.1243286-9.5375977,7.2749634-1.1669922,12.0172119-6.1279297,14.5369873-13.1069336.8239136-2.2817383,1.2300415-4.6474609,1.5775146-7.0170898.6915283-4.7163086,2.9851685-8.2841797,7.1491089-10.6445312.9477539-.5375977,1.3181763-1.159668,2.2012329-1.800293,3.1641846-2.2958984,5.0458374-5.387207,5.6109009-9.2607422.5878906-4.0297852-.2290649-7.8164062-2.0206909-11.4311523-2.6206055-5.2871094-6.2943115-9.2304688-10.6642456-12.9775391Zm-32.5777588-31.7597656c5.8825073-.0361328,10.3515015,2.402832,13.2368164,7.5927734.109314.1962891.1658325.4262695.222229.6469727.0291138.1137695-.0224609.2260742-.1779785.2729492-.257019.0395508-.4755249-.0878906-.6543579-.2734375-.3981323-.4121094-.80896-.8168945-1.168335-1.2617188-2.3540649-2.9160156-5.4005127-4.7138672-9.0009766-5.640625-.8442993-.2172852-1.6757202-.4863281-2.5092773-.7431641-.2354736-.0727539-.5780029-.1523438-.5368042-.4399414.0426025-.2963867.3848877-.152832.5886841-.1538086Zm-57.0476074,36.6220703c-.3224487.8686523-.6239014,1.7504883-1.020752,2.5859375-2.5993042,5.4716797-3.085022,11.1689453-1.9140015,17.0634766.2746582,1.3818359.4656372,2.78125.6747437,4.1757812.059021.394043.1831665.9487305-.2644043,1.0898438-.4624634.1459961-.4924316-.4536133-.6369629-.7495117-4.1721802-8.5449219-3.7487183-16.7636719,1.7913208-24.6015625.2098999-.296875.505127-.5400391.7871094-.7768555.145813-.1220703.3452148-.1254883.5230103.0678711.2369385.347168.2047119.7543945.0599365,1.1450195Zm1.6051025,40.1728516c7.5846558,9.5517578,17.3511353,15.4208984,29.3483276,17.453125,21.7467651,3.6831055,42.928833-8.0014648,50.5445557-27.7958984,1.3510742-3.5117188,2.1722412-7.1513672,2.4928589-10.8129883,1.1505737-13.1386719-4.1528931-26.5581055-14.6230469-35.3530273-5.840332-4.90625-12.4750977-8.1772461-19.3685303-9.8666992-16.0026245-3.921875-33.4080811.730957-45.5683594,13.6147461-1.4712524,1.559082-2.7245483,3.3237305-4.2210693,5.1679688,6.8379517-13.6572266,25.9818726-27.0078125,49.3034668-22.1425781,20.9396362,4.3671875,36.3383179,23.5405273,36.1751709,45.2524414-.1679688,22.34375-15.9590454,41.0009766-38.2860107,45.0283203-20.375,3.675293-39.0632935-7.8862305-45.7973633-20.5454102Zm28.1140747-16.3198242c.6370239-.236084,1.3225708-.371582,2.0407104-.371582,1.1020508,0,2.1306763.3095703,3.0139771.8381348l20.7705078-20.7680664c-.4334106-.8203125-.6815796-1.7531738-.6815796-2.7436523,0-3.2507324,2.6445923-5.8952637,5.8954468-5.8952637,3.2507935,0,5.8953857,2.6445312,5.8953857,5.8952637,0,3.2509766-2.6445923,5.8955078-5.8953857,5.8955078-.8605957,0-1.6762695-.1896973-2.4140625-.5227051l-21.0866699,21.0854492c.2528687.6564941.3972778,1.3662109.3972778,2.1108398,0,3.2507324-2.6445923,5.8952637-5.8948975,5.8952637-3.2507935,0-5.8954468-2.6445312-5.8954468-5.8952637,0-1.1306152.3255005-2.184082.8794556-3.0822754l-5.3193359-7.5021973c-.526123.154541-1.0809937.2412109-1.6563721.2412109-3.2508545,0-5.8954468-2.6445312-5.8954468-5.8955078,0-3.2507324,2.6445923-5.8955078,5.8954468-5.8955078,3.2507935,0,5.8953857,2.6447754,5.8953857,5.8955078,0,1.2802734-.4146118,2.4628906-1.1103516,3.4304199l5.1659546,7.2844238Zm55.8216553,16.3061523c-2.545166,9.1616211-8.3133545,15.03125-17.6580811,17.2226562-.3540649.0830078-.7363892.0688477-1.1044312.059082-.1901855-.0048828-.3416138-.1347656-.3464355-.3974609.0529785-.4169922.34729-.7001953.7146606-.8964844.8175049-.4365234,1.6280518-.8964844,2.4790039-1.2583008,5.5744629-2.3706055,9.7168579-6.3120117,12.7501221-11.5.7113037-1.2167969,1.49646-2.390625,2.2650146-3.5727539.217041-.3339844.4920654-.831543.9206543-.6401367.4428711.1972656.067688.6660156-.0205078.9833984Z"/>
</svg>