<?xml version="1.0" encoding="UTF-8"?><svg id="Layer_1" xmlns="http://www.w3.org/2000/svg" viewBox="0 0 220.23926 235"><defs><style>.cls-1{fill:#faf7ef;}.cls-2{fill:#42bfb9;}.cls-3{fill:#2e2f71;}</style></defs><g><path class="cls-3" d="M84.93447,155.7659c1.14328,.03503,2.48934-.12083,3.78067,.32903,1.21642,.42377,2.0044,1.2272,2.15747,2.55132,.15682,1.35667-.31018,2.45355-1.42875,3.24457-1.40941,.99668-3.04572,1.22927-4.70696,1.2835-1.883,.06149-3.76737,.04673-5.53905-.75673-2.12251-.96255-2.39592-3.36797-.50814-4.70227,.33549-.23713,.30025-.32872,.06519-.59793-.87408-1.00109-.86339-2.80591,.34902-3.65685,.35106-.24639,.30996-.43418,.05644-.73164-1.77101-2.07797-.91832-5.26485,1.65711-6.26547,2.08251-.80911,4.17402-.81221,6.26864-.07702,.25984,.0912,.41164,.07942,.61402-.09938,.37923-.33504,.77545-.65468,1.1889-.94632,.62363-.4399,1.38737-.40161,1.8016,.05709,.44219,.48966,.45339,1.20773-.1996,1.73183-.8735,.70107-1.00847,1.36156-.71725,2.46793,.49816,1.89251-.78158,3.75957-2.78808,4.46531-1.70556,.59989-3.44718,.61828-5.19533,.21271-.35941-.08339-.67168-.15563-.8122,.28196-.12642,.39367-.07544,.75602,.3138,.99036,.29835,.17963,.63491,.21777,.9766,.21789,.82699,.0003,1.65399,.00009,2.66592,.00009h0Zm-.82117-3.44808c.33453-.03728,.63384-.04415,.92072-.10737,1.02691-.22628,1.69687-.91767,1.77945-1.80718,.08242-.88775-.36676-1.74513-1.16624-2.06664-1.03894-.41781-2.10708-.44987-3.14223,.02132-1.2447,.56658-1.61861,2.16019-.73165,3.12303,.63509,.68942,1.49863,.80523,2.33995,.83685Zm-.22506,5.90805l-.00003-.01994c-.78194,0-1.56472,.02181-2.34555-.00777-.50964-.01931-.77902,.24691-.95926,.65897-.37118,.84861,.09384,1.61228,1.22048,1.83807,1.58802,.31824,3.18538,.311,4.76942-.09256,.29632-.07549,.54587-.23133,.7789-.40102,.61484-.44774,.53069-1.37533-.14608-1.73921-.30075-.1617-.63005-.23556-.9728-.23613-.7817-.0013-1.56339-.00041-2.34509-.00041h0Z"/><path class="cls-3" d="M159.98026,153.98764c-1.39878,.00005-2.79786,.01563-4.19618-.00981-.3999-.00728-.42342,.13222-.36992,.46386,.24991,1.54893,1.67863,2.76432,3.58497,2.972,1.44553,.15748,2.78207-.07059,3.82918-1.22065,.20752-.2279,.49405-.40513,.77576-.53952,.47331-.22581,.97815-.30542,1.4229,.06892,.45989,.38709,.53076,.9099,.34684,1.44465-.38062,1.10667-1.19666,1.86754-2.22538,2.30683-2.94639,1.25816-5.81249,1.14843-8.45328-.81065-1.27798-.94808-1.94353-2.30417-2.24839-3.84571-.43143-2.18151-.21373-4.28292,1.06683-6.13375,1.63911-2.36908,4.03406-3.09062,6.79096-2.7418,2.58032,.32648,4.35949,1.7157,5.20082,4.20653,.25733,.76182,.37334,1.56529,.28855,2.37324-.10787,1.02759-.58124,1.45246-1.61733,1.46247-1.39867,.01351-2.79755,.00336-4.19635,.00341h.00002Zm-.87531-2.46894c1.03749,0,2.07619-.03029,3.11192,.01241,.54155,.02232,.57668-.17283,.46538-.61643-.37236-1.48408-1.54297-2.4261-3.22629-2.5594-1.94079-.15369-3.43515,.75884-3.96951,2.42398-.21289,.66338-.16514,.73665,.50608,.73864,1.03747,.00307,2.07495,.00081,3.11242,.0008Z"/><path class="cls-3" d="M129.16364,160.26106c-4.22488,.01779-7.19207-2.9171-7.23204-7.1533-.03955-4.19253,2.92195-7.224,7.07655-7.24371,4.46078-.02116,7.45708,2.81729,7.47391,7.08021,.01735,4.39306-2.88839,7.29815-7.31841,7.3168Zm-.03144-2.82024c2.4684,.02367,4.17865-1.71178,4.24539-4.30797,.06583-2.55999-1.67555-4.43172-4.15563-4.46672-2.36274-.03335-4.13856,1.79809-4.18607,4.31719-.04801,2.54563,1.68772,4.43441,4.09631,4.4575Z"/><path class="cls-3" d="M99.76925,160.2552c-1.38338-.02913-3.17467-.407-4.5756-1.83595-.44865-.45762-.79438-.99314-.86767-1.65406-.05544-.50007,.09198-.94637,.53152-1.21053,.42014-.25249,.88816-.24941,1.33082-.01805,.39841,.20825,.71628,.52042,1.03258,.83514,1.16117,1.15534,2.57233,1.4806,4.14395,1.19384,.80795-.14741,1.26213-.62299,1.34994-1.31699,.08479-.67006-.27587-1.256-1.01721-1.58345-.85996-.37983-1.80048-.44713-2.70625-.64641-1.03931-.22867-2.063-.49784-2.90022-1.1902-1.8959-1.56786-1.75871-4.56187,.27953-5.95712,1.60381-1.09787,3.40879-1.15184,5.24618-.88224,1.25599,.18429,2.41686,.60861,3.32143,1.56186,.32845,.34614,.5525,.75265,.66999,1.20724,.12963,.50157,.05508,.96602-.3714,1.32373-.42367,.35536-.88019,.33471-1.35975,.13632-.54314-.2247-.9214-.67019-1.36516-1.02441-1.04361-.83303-2.22499-.97803-3.47031-.69857-.73214,.1643-1.12357,.66944-1.13756,1.26931-.01497,.64227,.36113,1.13849,1.07732,1.39024,1.22379,.43018,2.53094,.50262,3.77075,.86986,.7178,.21262,1.39426,.5025,1.94488,1.01558,2.01037,1.87333,1.36932,5.37234-1.19565,6.57755-1.0165,.47762-2.09578,.63629-3.7321,.6373Z"/><path class="cls-3" d="M60.49832,160.22122c-1.99021-.01557-3.87325-.35654-5.30533-1.92569-.33548-.3676-.58311-.78019-.70662-1.25718-.14759-.56998-.08137-1.10075,.44485-1.46296,.4698-.32338,1.18821-.25777,1.65711,.1346,.37307,.31218,.72968,.64394,1.0992,.96048,1.15341,.98803,2.49633,1.16958,3.92654,.86604,.73776-.15658,1.16936-.69664,1.20026-1.36557,.03299-.71414-.34039-1.34047-1.07105-1.54276-1.16089-.32141-2.35434-.52417-3.51845-.83535-1.42128-.37992-2.64541-1.06494-3.15509-2.56124-.74033-2.17343,.49618-4.41015,2.85462-5.053,2.15502-.5874,4.27547-.45317,6.2624,.67976,.72157,.41143,1.26809,.99038,1.50164,1.80236,.16067,.55859,.1189,1.11215-.41108,1.47369-.53219,.36305-1.08397,.27238-1.60139-.06701-.54787-.35937-.97247-.8732-1.55529-1.19773-.9786-.54492-1.9972-.63311-3.05512-.34424-.60004,.16384-1.01003,.54418-1.04283,1.20457-.0318,.6404,.27508,1.0786,.86049,1.34468,.86134,.3915,1.799,.44905,2.70521,.64289,.99475,.21278,2.0002,.41604,2.84258,1.02022,1.53869,1.10359,2.00611,3.19574,1.14455,4.93876-.87097,1.76208-2.4553,2.33314-4.25235,2.54032-.27151,.0313-.54973,.00436-.82486,.00436h0Z"/><path class="cls-3" d="M111.26294,152.87774c-.00017-1.14416-.0136-2.28857,.00762-3.43234,.00678-.36561-.11251-.47294-.4693-.46431-.54892,.01329-1.10318,.00773-1.64783-.05434-.7177-.0818-1.18842-.6449-1.19367-1.34118-.00483-.644,.50888-1.23644,1.20292-1.30877,.5456-.05686,1.09998-.06315,1.64879-.04393,.37283,.01306,.47188-.12159,.45832-.47431-.0244-.63471-.01412-1.27113-.00495-1.90664,.0127-.88151,.58504-1.48862,1.43835-1.54207,.7971-.04993,1.43526,.49464,1.55458,1.34384,.03517,.25032,.02347,.50688,.04217,.75993,.04319,.58433-.2594,1.3505,.1233,1.7057,.37487,.34793,1.13162,.08157,1.72025,.10293,.677,.02456,1.3587-.00653,2.03063,.06209,.57671,.0589,.95195,.42373,1.07874,1.01051,.1253,.57994-.0764,1.04929-.52385,1.40133-.3284,.25839-.74062,.292-1.14793,.29254-.91133,.00121-1.82299,.01424-2.73386-.00609-.38175-.00852-.56433,.05722-.55895,.5099,.02441,2.05496-.00303,4.1105,.01548,6.16559,.0132,1.46614,1.11391,2.10327,2.43208,1.42235,.33477-.17293,.63829-.40576,.95886-.60681,.53755-.33715,1.09819-.37827,1.57957,.05141,.47881,.4274,.52091,1.00158,.26457,1.5736-.39541,.88234-1.12181,1.40544-2.00037,1.73405-1.72885,.64666-3.40347,.66075-4.90071-.57058-.9542-.78475-1.34413-1.86864-1.36969-3.07913-.02326-1.10129-.00492-2.20347-.00511-3.30525h-.00002Z"/><path class="cls-3" d="M143.41157,147.56148c1.01923-1.26382,2.30467-1.81328,3.87177-1.68655,.9632,.07789,1.81556,.38554,2.44459,1.16593,.45035,.55872,.62928,1.19458,.50651,1.89746-.09566,.54751-.34149,.97242-.9357,1.16186-.6751,.21523-1.19776,.00608-1.67081-.44626-.96597-.92366-1.72106-1.11845-2.6683-.62959-.6744,.34805-1.04889,.9611-1.30072,1.65312-.24917,.68468-.3261,1.39805-.32613,2.12213-.00009,1.92868,.00254,3.85736-.00168,5.78602-.00133,.61274-.21179,1.12592-.79221,1.40994-.52985,.25928-1.06271,.25507-1.5655-.08036-.50755-.33859-.67423-.85016-.67472-1.42709-.00314-3.62421-.00541-7.24843,.0011-10.87262,.0017-.94214,.51996-1.56231,1.33325-1.64569,.94369-.09675,1.49058,.34628,1.70032,1.37534,.01051,.05152,.0356,.10007,.07823,.21636h-.00001Z"/><path class="cls-3" d="M73.21414,153.08147c.00024,1.84373,.01734,3.68768-.00626,5.53111-.01385,1.08242-.81865,1.71203-1.8607,1.51658-.65013-.12194-1.15439-.70508-1.1576-1.46852-.01577-3.75099-.01931-7.50215,.00096-11.2531,.00472-.87269,.67108-1.45636,1.51895-1.44871,.89138,.00804,1.48309,.57141,1.49666,1.528,.02647,1.86454,.00776,3.72972,.00799,5.59464h0Z"/><path class="cls-3" d="M73.59627,142.45745c-.0065,1.02523-.83458,1.83215-1.87213,1.82429-1.08714-.00824-1.90107-.80474-1.90831-1.86746-.00714-1.04754,.84486-1.88146,1.91201-1.87144,1.06027,.00995,1.87521,.84504,1.86843,1.91461Z"/></g><g><path class="cls-3" d="M12.6167,219.92803v-26.25195H7.43359c-2.26953,0-3.89551-1.55859-3.89551-3.76074,0-2.16797,1.62598-3.72559,3.89551-3.72559h5.18311v-.94922c0-7.21484,4.67432-11.58496,12.29639-11.58496,3.21777,0,5.96191,.74512,7.58789,1.99902,1.01611,.7793,1.69385,1.96484,1.69385,3.21777,0,1.86328-1.25342,3.15039-3.08252,3.15039-.57617,0-1.15186-.20312-1.76172-.44043-.88086-.40625-1.99854-.91406-3.76025-.91406-3.1499,0-4.7085,1.62598-4.7085,4.70801v.81348h8.84131c2.26953,0,3.86182,1.55762,3.86182,3.72559,0,2.20215-1.59229,3.76074-3.86182,3.76074h-8.84131v26.25195c0,2.50684-1.69336,4.30273-4.1665,4.30273-2.40479,0-4.09863-1.7959-4.09863-4.30273Z"/><path class="cls-3" d="M77.87793,189.71221v30.21582c0,2.50684-1.72754,4.30273-4.1665,4.30273-2.40527,0-4.09912-1.7959-4.09912-4.30273v-.77832c-2.30322,3.45508-6.50391,5.31836-11.61865,5.31836-9.18018,0-15.20996-5.72559-15.20996-15.95508v-18.83398c0-2.43945,1.72803-4.26855,4.13281-4.26855,2.43896,0,4.13281,1.86328,4.13281,4.26855v17.41113c0,6.60547,3.35352,9.79004,8.77344,9.79004,6.06348,0,9.78955-4.20117,9.78955-10.36621v-16.80176c0-2.54004,1.69385-4.30176,4.09912-4.30176,2.43896,0,4.1665,1.79492,4.1665,4.30176Z"/><path class="cls-3" d="M91.58594,219.92803v-41.7666c0-2.50684,1.72754-4.26855,4.1665-4.26855,2.40527,0,4.09863,1.76172,4.09863,4.26855v41.7666c0,2.50684-1.69336,4.30273-4.09863,4.30273-2.43896,0-4.1665-1.7959-4.1665-4.30273Z"/><path class="cls-3" d="M110.87305,204.82061c0-11.4834,8.19775-19.64746,19.34277-19.64746,6.06348,0,10.7041,1.86328,13.48193,4.77637,1.93066,1.99902,3.18408,4.53906,3.18408,6.43652,0,2.06641-1.45654,3.59082-3.48926,3.59082-1.79492,0-2.91309-.74609-4.13232-2.33789-1.76172-2.87891-4.84424-4.81055-8.77344-4.81055-6.43652,0-11.11084,4.87891-11.11084,11.99219,0,7.08008,4.67432,11.99121,11.11084,11.99121,4.33594,0,7.28271-2.30371,9.01025-5.25,1.11816-1.59277,2.10059-2.30371,3.86182-2.30371,1.99854,0,3.65869,1.52441,3.65869,3.6582,0,1.8291-1.2876,4.4043-3.1167,6.33496-2.91309,3.04883-7.79102,5.2168-13.68506,5.2168-11.14502,0-19.34277-8.16406-19.34277-19.64746Z"/><path class="cls-3" d="M162.1543,170.70928c2.98145,0,5.11523,2.20117,5.11523,5.08105,0,2.91309-2.13379,5.11426-5.11523,5.11426-2.98047,0-5.18262-2.20117-5.18262-5.11426,0-2.87988,2.20215-5.08105,5.18262-5.08105Zm-4.2002,49.21875v-30.21582c0-2.54004,1.72754-4.30176,4.1665-4.30176,2.40527,0,4.09912,1.76172,4.09912,4.30176v30.21582c0,2.50684-1.69385,4.30273-4.09912,4.30273-2.43896,0-4.1665-1.7959-4.1665-4.30273Z"/><path class="cls-3" d="M176.9668,204.82061c0-11.82227,8.29883-19.64746,19.8501-19.64746,11.58545,0,19.88428,7.8252,19.88428,19.64746,0,11.78809-8.29883,19.64746-19.88428,19.64746-11.55127,0-19.8501-7.85938-19.8501-19.64746Zm19.8501,11.99121c6.63965,0,11.34814-4.84375,11.34814-11.99121s-4.7085-11.99219-11.34814-11.99219c-6.63916,0-11.34766,4.84473-11.34766,11.99219s4.7085,11.99121,11.34766,11.99121Z"/></g><g><path class="cls-1" d="M70.59938,97.17547l-.01654-.02588c.00507,.00879,.01215,.01709,.01654,.02588Z"/><path class="cls-1" d="M101.99001,66.88836l3.22131,1.64453,.33142,.64893v16.354c0,.7832,.41931,1.50391,1.09723,1.89307,.67792,.39404,1.51404,.38916,2.18689-.00488l4.09009-2.3877,4.09003,2.3877c.33899,.19824,.71808,.2959,1.09973,.2959,.37659,0,.75073-.09521,1.08716-.29102,.67792-.38916,1.09723-1.10986,1.09723-1.89307v-16.35449l.33142-.64844,3.22131-1.64453c.9541-.4873,1.41357-1.59961,1.08466-2.61914l-1.11481-3.44189,1.11481-3.44238c.32892-1.01953-.13055-2.13184-1.08466-2.61865l-3.22131-1.64453-1.64709-3.22168c-.48706-.9541-1.60687-1.40576-2.61871-1.08447l-3.43976,1.11475-3.44232-1.11475c-1.02435-.32129-2.13165,.13037-2.61871,1.08447l-1.64459,3.22168-3.22131,1.64453c-.9541,.48682-1.41357,1.59668-1.08466,2.61865l1.11481,3.44238-1.11481,3.44189c-.32892,1.02197,.13055,2.13184,1.08466,2.61914Zm13.93231,14.84326l-1.9057-1.11182c-.33893-.19873-.72058-.29639-1.09967-.29639-.37915,0-.7608,.09766-1.09973,.29639l-1.9057,1.11182v-9.03467l3.00543-.97314,3.00537,.97412v9.03369Zm-9.52838-21.57715l-.75824-2.34277,2.1944-1.11963c.40924-.2085,.74316-.54248,.9516-.95166l1.11981-2.19434,2.34253,.76074c.43689,.14062,.90887,.14062,1.34576,0l2.34259-.76074,1.11981,2.19434c.21088,.40918,.5423,.74316,.95154,.95166l2.19446,1.11963-.7608,2.34277c-.14056,.43652-.14056,.90869,0,1.3457l.7608,2.34229-2.19446,1.12012c-.40924,.20801-.74066,.54199-.95154,.95166l-1.11981,2.19434-2.34259-.7583c-.21844-.07031-.4469-.10547-.67285-.10547-.22601,0-.45447,.03516-.67291,.10547l-2.34253,.7583-1.11981-2.19434c-.20844-.40967-.54236-.74365-.9516-.95166l-2.1944-1.12012,.75824-2.34229c.14056-.43701,.14056-.90918,0-1.3457Z"/><path class="cls-1" d="M138.19038,71.76385v-25.73779c0-3.36963-2.73926-6.10889-6.1087-6.10889h-38.32953c-3.36945,0-6.1087,2.73926-6.1087,6.10889v25.73779c0,3.36963,2.73926,6.10889,6.1087,6.10889h3.77625c1.20764,0,2.18433-.97656,2.18433-2.18408,0-1.20801-.97668-2.18457-2.18433-2.18457h-3.77625c-.95911,0-1.73999-.78076-1.73999-1.74023v-25.73779c0-.95898,.78088-1.73975,1.73999-1.73975h38.32953c.95911,0,1.73999,.78076,1.73999,1.73975v25.73779c0,.95947-.78088,1.74023-1.73999,1.74023h-3.9444c-1.2077,0-2.18439,.97656-2.18439,2.18457,0,1.20752,.97668,2.18408,2.18439,2.18408h3.9444c3.36945,0,6.1087-2.73926,6.1087-6.10889Z"/><path class="cls-1" d="M84.44563,116.69646c-.17664-.2915-.35052-.58398-.50885-.88525,.15961,.30078,.33038,.59521,.50885,.88525Z"/><path class="cls-1" d="M152.94875,45.56658c-.75446-2.33789-1.578-4.64502-2.7041-6.82666-1.96844-3.81152-4.69263-7.06592-7.72314-10.05566-2.21136-2.18115-4.63361-4.12256-7.33209-5.7002-2.10968-1.2334-4.36188-2.11572-6.64099-2.98291-2.29736-.87354-4.63116-1.6123-6.97369-2.33545-1.43805-.44434-2.90625-.79102-4.39514-.98291-7.17578-.92578-14.02893,.20947-20.56073,3.30957l.49713,.22754c.12115,.22363,.38098,.53027,.23285,.71582-.32013,.40039,.00067,.29004,.17328,.26807,.1864-.02295,.36658-.09912,.5473-.15625,2.22333-.70557,4.4209-1.51221,6.74524-1.84033,1.26038-.17773,2.48944-.55811,3.76367-.63037,1.17627-.06689,2.3595-.02539,3.53326-.11475,3.57538-.27148,7.05212,.37842,10.50763,1.13428,1.55481,.33984,3.0506,.91895,4.54321,1.50195,3.62122,1.41455,7.01385,3.21533,10.13538,5.53857,2.31561,1.72217,4.38885,3.70898,6.42133,5.74365,.16888,.16943,.34149,.2793,.60571,.34912,.5097,.13379,1.11102,.13867,1.48267,.60254,1.51019,1.8877,2.56598,4.03662,3.52887,6.23242,.83984,1.91406,1.54541,3.88232,2.20947,5.86279,1.45312,4.33447,2.38336,8.77148,2.48822,13.35742,.02759,1.2334,.00439,2.46729,.00439,3.70117l.16754-.00195c.17957-1.61279,.4187-3.22217,.51788-4.84131,.07092-1.15283-.05463-2.31836-.10669-3.47607-.13373-2.94287-.7627-5.79443-1.66846-8.6001Z"/><path class="cls-1" d="M63.01131,91.18181c-.07275-.12744-.14441-.25586-.21295-.38721,.06885,.13086,.13983,.26025,.21295,.38721Z"/><path class="cls-1" d="M87.21224,98.28435c-.46075-.32422-.90894-.54736-1.42426-.64355-.5047-.09375-.99554-.22559-1.4632-.46094-1.0614-.53516-2.01801-1.19873-2.86914-2.03809-.75391-.74316-1.41864-.53271-1.78772,.4707-.21088,.57275-.04895,1.12402,.00757,1.68799,.15753,1.56689,1.02563,2.2793,2.57477,2.02002,1.44312-.2417,2.8623-.62012,4.32233-.7793,.19897-.02246,.41803-.0542,.63965-.25684Z"/><path class="cls-1" d="M74.94643,88.00115c.27496,.22461,.6214,.36426,.94281,.52539,.13995,.06982,.30255,.06592,.4306-.04395,.14435-.125,.086-.28125,.02759-.4209-.05896-.13965-.11987-.28369-.21216-.40039-.7168-.91162-1.37152-1.88574-2.1781-2.71045-1.72864-1.7666-2.97839-3.84326-4.11389-6.00391-.31635-.60352-.72937-1.16064-.91266-1.8335-.74133-2.7168-1.44934-5.44873-1.62573-8.26611-.13873-2.21387-.68799-4.354-1.01562-6.53125-.31824-2.11621-.7099-4.21484-.85052-6.35742-.10858-1.65771-.0816-3.30518,.10107-4.95117,.17828-1.60645,.38977-3.20898,.82727-4.77002,.79907-2.85059,2.01868-5.52832,3.35126-8.16309,1.33014-2.62988,3.01361-5.01514,4.89417-7.27051,1.16876-1.40137,2.41785-2.73535,3.52264-4.19189,.35901-.47314,.65588-.97607,.93085-1.65527-.68103,.21094-1.24286,.375-1.68475,.84277-2.19568,2.32471-4.34802,4.69434-6.6228,6.94043-2.64758,2.61426-4.28589,5.78076-5.43896,9.24951-1.06018,3.18848-1.52338,6.47754-1.50586,9.82715,.01575,2.89453,.45068,5.75781,.81854,8.62305,.23914,1.86523,.51343,3.73438,.67664,5.59912,.177,2.01611,.43439,4.00293,.86621,5.97314,.79346,3.62305,2.07458,7.07373,3.79504,10.35156,.72437,1.38086,1.70984,2.58496,2.80518,3.71533,.68042,.70215,1.42297,1.31201,2.1712,1.92236Z"/><path class="cls-1" d="M115.71266,105.76433c-.92523-.08594-1.8504-.11182-2.78003-.13281-1.40417-.03223-2.80396-.24658-4.20868-.28564-2.74304-.0752-5.45343-.51123-8.172-.79492-2.14417-.22314-4.32104-.6792-6.24176-1.83154-.12933-.07764-.27496-.13135-.41742-.18262-.37415-.13428-.5882-.0083-.63025,.39502-.05145,.48682,.02704,.9585,.25427,1.38477,.32196,.60254,.63141,1.22461,1.04132,1.76758,.93964,1.24365,2.12915,2.10986,3.77618,2.08496,1.13928-.01709,2.27856-.06592,3.41718-.12744,.51031-.02832,1.02313-.07324,1.52344-.21338,1.35645-.37988,2.74237-.61572,4.13397-.82471,.25049-.0376,.49084-.00049,.73694,.02686,1.24597,.13965,2.49255,.27051,3.61237,.39111,1.5517-.03906,2.93195-.23145,4.14276-1.06592,.1532-.10449,.39923-.19189,.349-.40332-.06335-.26318-.34082-.16992-.53729-.18799Z"/><path class="cls-1" d="M112.91695,6.16961c.0119,.18311,.19019,.27539,.36029,.31787,.10797,.02783,.22656,.02148,.34021,.02051,.66785-.00586,1.3288,.07617,1.98724,.17432,4.19867,.62646,8.34082,1.53955,12.43903,2.62646,2.85162,.75586,5.35486,2.26318,7.64532,4.09961,1.59625,1.2793,2.83093,2.91846,4.19366,4.42773,.1814,.20117,.33514,.54492,.68164,.3667,.33392-.17188,.23663-.52344,.20337-.82275-.01001-.09229-.05524-.18164-.086-.27051-.74005-2.15381-1.79333-4.0708-3.5885-5.58301-2.00299-1.68701-4.17419-3.0791-6.60333-3.99805-3.88232-1.46973-7.96423-1.93555-12.08691-2.09668-.40045,0-.8028-.03223-1.19891,.00586-1.3219,.12549-2.67017,.05078-3.9494,.49805-.12805,.04492-.35028,.03711-.33771,.23389Z"/><path class="cls-1" d="M163.98805,50.62078c-.61267-4.24756-1.89502-8.26172-3.95514-12.01123-2.31555-4.21729-5.54193-7.65869-9.3175-10.60449-.13745-.10742-.26611-.29883-.57623-.20703,.36157,.21777,.55243,.50439,.75952,.77588,1.82538,2.3877,3.64569,4.78027,5.47729,7.16357,2.1084,2.74512,3.87158,5.66895,4.9776,8.98047,.99426,2.979,1.55353,6.02441,1.72241,9.15039,.02887,.53125,.05206,1.06494,.04578,1.59668-.02069,1.72168,.10675,3.44238-.22467,5.16016-.28058,1.45166-.57684,2.89941-.86182,4.35986,.03448-.04248,.08093-.08057,.10168-.12891,1.927-4.57471,2.56226-9.30322,1.85107-14.23535Z"/><path class="cls-1" d="M62.48256,90.1574c-.10217-.22559-.19543-.4585-.28619-.69336,.09137,.23438,.18341,.46826,.28619,.69336Z"/><path class="cls-1" d="M160.75728,53.28582c-.21906-3.28564-.88629-6.48438-2.64447-9.37012,.74884,3.12207,1.41479,6.25586,1.64203,9.45752,.22723,3.20215-.10797,6.41064,.09479,9.62451,.95728-3.17627,1.12549-6.43994,.90765-9.71191Z"/><path class="cls-1" d="M154.42384,83.8449c-.35278,.31982-.53229,.7002-.73315,1.06348-1.07648,1.94824-2.04315,3.97998-3.43347,5.71924-2.43671,3.04688-4.57843,6.33203-7.33527,9.12207-1.01813,1.03027-2.09399,1.98047-3.28345,2.81348-.69739,.48779-1.3891,1.00391-1.95966,1.64893-.53668,.60596-.47455,.85645,.27808,1.17529,.10291,.04395,.21967,.08154,.32953,.08057,1.00684-.00781,2.01178,.05664,3.01923-.09326,1.55731-.23096,3.02045-.75586,4.4585-1.35107,1.21899-.50439,2.30743-1.2793,3.30042-2.11572,1.01935-.85791,1.80591-1.95947,2.34003-3.22461,.56244-1.33203,1.00372-2.70459,1.45374-4.07373,.5235-1.59033,.75513-3.25195,1.10413-4.88477,.31763-1.48828,.55676-2.98828,.7005-4.49854,.04083-.42871,.16321-.95166-.23914-1.38135Z"/><path class="cls-1" d="M130.99202,96.35467c-.79907,.05029-1.41486,.38965-2.03876,.67773-3.97333,1.83496-8.16632,2.78467-12.51562,3.02441-3.44916,.19092-6.88013-.05859-10.2879-.66406-6.7182-1.19531-12.75476-3.87549-17.99786-8.25586-5.18976-4.33594-9.00616-9.72021-11.81573-15.83643-1.401-3.04932-2.34442-6.25928-3.21381-9.5127,.07159,1.03955-.07593,2.07959-.0188,3.09668,.05774,1.04541,.44568,2.07227,.68604,3.10791,.28436,1.22314,.74133,2.38525,1.18762,3.55566,.97858,2.56689,2.17181,4.9917,3.86536,7.18896,1.47443,1.9126,2.92566,3.82568,4.59973,5.57666,1.97223,2.06348,4.17352,3.83936,6.49286,5.47266,.79279,.55762,1.4707,1.28223,2.35388,1.70068,1.43927,.68213,2.86981,1.39355,4.35242,1.96729,1.836,.71045,3.68396,1.38477,5.61914,1.83789,1.6828,.39453,3.39264,.64209,5.0686,1.05957,.20087,.05029,.41553,.07178,.62268,.06299,1.10724-.0459,2.20197,.13184,3.3042,.1748,1.59058,.06299,3.16986,.2998,4.77551-.01318,.88-.17188,1.80206-.21436,2.71979-.20312,.88879,.01123,1.79456-.05664,2.66644-.22607,3.17798-.61768,6.18402-1.72998,9.00677-3.32373,.18707-.10596,.39795-.19385,.56744-.46875Z"/><path class="cls-1" d="M70.14082,98.26043c.06146-.07227,.13556-.13379,.20087-.20361,.29639-.31641,.38763-.58691,.28967-.81201,.0174,.05811,.02698,.11816,.01965,.18213-.01324,.11475-.06641,.23926-.15985,.37256-.04669,.06689-.10345,.13623-.17023,.20752-.06488,.06885-.13892,.13086-.20001,.20312-1.26678,1.49121-2.14124,3.11426-2.37494,4.96436-.07788,.6167-.08459,1.25879-.01086,1.92969,.03241,.29492,.08582,.57959,.15344,.85693-.0603-.25781-.10669-.52344-.13678-.79688-.29498-2.68701,.698-4.91309,2.38904-6.90381Z"/><path class="cls-1" d="M81.96846,111.71795c-.00409-.00781-.01019-.01416-.01434-.02197,.10272,.20557,.20001,.41309,.29858,.62061,.10596,.22314,.21448,.44531,.32098,.66797,.40143,.83838,.78149,1.68799,1.20337,2.51416-.40686-.8042-.7757-1.62939-1.16522-2.44385-.21405-.44531-.42053-.89551-.64337-1.33691Z"/><path class="cls-1" d="M55.55068,46.19012c.00421,.51807,.03278,1.03271,.07227,1.54639-.04028-.51758-.0672-1.03662-.07184-1.55859,0,.00391-.00049,.00781-.00043,.01221Z"/><path class="cls-1" d="M55.80641,49.3742c-.06299-.43555-.11353-.87354-.15369-1.3125,.03986,.43945,.09094,.87646,.15369,1.3125Z"/><path class="cls-1" d="M57.12636,40.14763l.0116-.02002-.0116,.02002Z"/><path class="cls-1" d="M60.74672,74.56365c.23474-1.96582,.35968-3.94336,.39984-5.92383,.04205-2.08057-.65216-3.99951-1.30432-5.93066-1.11353-3.29688-2.4411-6.52246-3.32928-9.89307-.27826-1.05615-.50598-2.12158-.67163-3.19629,.08075,.52588,.17133,1.05078,.28131,1.57227,.11548,.54785,.24597,1.09375,.38916,1.63672,.88654,3.36572,2.21265,6.58691,3.32446,9.87891,.56982,1.6875,1.17188,3.36621,1.28534,5.15137,.01617,.25488,.02246,.51221,.01721,.77197-.0401,1.97754-.16473,3.95215-.39899,5.91504-.13177,1.10352-.20886,2.20264-.23407,3.29785-.02515,1.09521,.00153,2.18701,.07745,3.27539,.15186,2.17676,.50043,4.34033,1.02362,6.49414l.00232,.00781c-1.04291-4.30518-1.38855-8.64746-.86243-13.05762Z"/><path class="cls-2" d="M163.32015,45.08562c-1.22083-4.57715-3.59418-8.53369-6.70691-12.06494-2.40906-2.73193-5.10126-5.17627-7.80975-7.60693-2.53528-2.27539-4.56525-4.93213-5.86896-8.12207-.67603-1.65479-1.48389-3.25293-2.52521-4.72217-2.05066-2.89209-4.90546-4.73535-8.05084-6.19629-5.18976-2.41016-10.70593-3.25586-16.36774-3.36816-3.19934-.05615-6.35101,.35938-9.45996,1.04639-4.57593,1.01123-8.77582,2.97852-12.85144,5.23584-2.73236,1.5127-5.12012,3.49365-7.51727,5.46631-3.82513,3.14795-7.57373,6.39062-10.87921,10.08545-2.48315,2.7749-5.30273,5.04492-8.56238,6.83105-2.92188,1.60107-5.48352,3.68896-7.79529,6.1001-.71198,.74268-1.29926,1.53076-1.78723,2.35742l-.0116,.02002c-1.05603,1.79688-1.59412,3.79199-1.57568,6.02051l.00043,.00977c.00464,.52197,.03156,1.04102,.07184,1.55859,.00848,.1084,.01984,.2168,.02979,.3252,.04016,.43896,.0907,.87695,.15369,1.3125,.01184,.08154,.02234,.16357,.03491,.24561,.16565,1.07471,.39337,2.14014,.67163,3.19629,.88818,3.37061,2.21576,6.59619,3.32928,9.89307,.65216,1.93115,1.34637,3.8501,1.30432,5.93066-.04016,1.98047-.1651,3.95801-.39984,5.92383-.52612,4.41016-.18048,8.75244,.86243,13.05762l.00629,.02832c.1546,.63672,.35681,1.23438,.58093,1.81445,.09076,.23486,.18402,.46777,.28619,.69336,.09863,.21777,.20654,.42822,.3158,.63721,.06854,.13135,.1402,.25977,.21295,.38721,1.23584,2.1709,3.06268,3.8623,5.5163,5.04883,.47644,.23047,.99304,.37939,1.49396,.55957,.27338,.09863,.45935,.21924,.56128,.35938l.01654,.02588c.01422,.02246,.02191,.0459,.03198,.06934,.09796,.2251,.00671,.49561-.28967,.81201-.06531,.06982-.1394,.13135-.20087,.20361-1.69104,1.99072-2.68402,4.2168-2.38904,6.90381,.03009,.27344,.07648,.53906,.13678,.79688,.91943,3.93066,5.22253,6.01562,8.9541,4.10107,1.86438-.95605,4.1554-.22217,5.11145,1.63379,.00415,.00781,.01025,.01416,.01434,.02197,.22284,.44141,.42932,.8916,.64337,1.33691,.38953,.81445,.75836,1.63965,1.16522,2.44385,.05286,.10449,.10535,.20898,.15973,.3125,.15833,.30127,.33221,.59375,.50885,.88525,.31824,.52441,.66034,1.03564,1.07117,1.50977,1.62384,1.87207,3.67639,2.55518,6.0918,2.2583,1.65582-.20459,3.13843-.89648,4.56769-1.70947,2.77759-1.57959,5.19543-3.65625,7.68677-5.62695,.83484-.66016,1.72992-.8916,2.76813-.77588,1.69543,.18945,3.17554,.89453,4.55585,1.84277,2.27722,1.56299,4.72339,2.76758,7.37915,3.5376,4.85461,1.40869,9.7569,1.82275,14.71503,.61377,4.8728-1.1875,9.26227-3.40088,13.32092-6.32617,2.52649-1.82129,4.60419-4.01562,6.16022-6.72266,1.52716-2.65723,2.40533-5.54053,3.10016-8.4917,1.01624-4.3125,1.38599-8.71582,1.71112-13.12012,.2749-3.71631,.89008-7.36963,1.97852-10.92969,.86871-2.84033,2.11658-5.5415,3.22693-8.2915,.95477-2.36572,1.53284-4.80615,1.78265-7.34717,.40363-4.10107-.1908-8.09229-1.24158-12.03174Zm-1.28485,19.89941c.28497-1.46045,.58124-2.9082,.86182-4.35986,.33142-1.71777,.20398-3.43848,.22467-5.16016,.00629-.53174-.01691-1.06543-.04578-1.59668-.16888-3.12598-.72815-6.17139-1.72241-9.15039-1.10602-3.31152-2.8692-6.23535-4.9776-8.98047-1.8316-2.3833-3.65192-4.77588-5.47729-7.16357-.20709-.27148-.39795-.55811-.75952-.77588,.31012-.0918,.43878,.09961,.57623,.20703,3.77557,2.9458,7.00195,6.38721,9.3175,10.60449,2.06012,3.74951,3.34247,7.76367,3.95514,12.01123,.71118,4.93213,.07593,9.66064-1.85107,14.23535-.02075,.04834-.0672,.08643-.10168,.12891Zm-2.28046-11.61182c-.22723-3.20166-.89319-6.33545-1.64203-9.45752,1.75818,2.88574,2.42542,6.08447,2.64447,9.37012,.21783,3.27197,.04962,6.53564-.90765,9.71191-.20276-3.21387,.13245-6.42236-.09479-9.62451Zm-6.89648,41.23633c-.45001,1.36914-.8913,2.7417-1.45374,4.07373-.53412,1.26514-1.32068,2.3667-2.34003,3.22461-.99298,.83643-2.08142,1.61133-3.30042,2.11572-1.43805,.59521-2.90118,1.12012-4.4585,1.35107-1.00745,.1499-2.01239,.08545-3.01923,.09326-.10986,.00098-.22662-.03662-.32953-.08057-.75262-.31885-.81476-.56934-.27808-1.17529,.57056-.64502,1.26227-1.16113,1.95966-1.64893,1.18945-.83301,2.26532-1.7832,3.28345-2.81348,2.75684-2.79004,4.89856-6.0752,7.33527-9.12207,1.39032-1.73926,2.35699-3.771,3.43347-5.71924,.20087-.36328,.38037-.74365,.73315-1.06348,.40234,.42969,.27997,.95264,.23914,1.38135-.14374,1.51025-.38287,3.01025-.7005,4.49854-.349,1.63281-.58063,3.29443-1.10413,4.88477Zm-34.10699,5.76367c-.91772-.01123-1.83978,.03125-2.71979,.20312-1.60565,.31299-3.18494,.07617-4.77551,.01318-1.10223-.04297-2.19696-.2207-3.3042-.1748-.20715,.00879-.42181-.0127-.62268-.06299-1.67596-.41748-3.3858-.66504-5.0686-1.05957-1.93518-.45312-3.78314-1.12744-5.61914-1.83789-1.4826-.57373-2.91315-1.28516-4.35242-1.96729-.88318-.41846-1.5611-1.14307-2.35388-1.70068-2.31934-1.6333-4.52063-3.40918-6.49286-5.47266-1.67407-1.75098-3.12531-3.66406-4.59973-5.57666-1.69354-2.19727-2.88678-4.62207-3.86536-7.18896-.44629-1.17041-.90326-2.33252-1.18762-3.55566-.24036-1.03564-.6283-2.0625-.68604-3.10791-.05713-1.01709,.09039-2.05713,.0188-3.09668,.86938,3.25342,1.81281,6.46338,3.21381,9.5127,2.80957,6.11621,6.62598,11.50049,11.81573,15.83643,5.2431,4.38037,11.27966,7.06055,17.99786,8.25586,3.40778,.60547,6.83875,.85498,10.2879,.66406,4.3493-.23975,8.5423-1.18945,12.51562-3.02441,.6239-.28809,1.23969-.62744,2.03876-.67773-.16949,.2749-.38037,.36279-.56744,.46875-2.82275,1.59375-5.8288,2.70605-9.00677,3.32373-.87189,.16943-1.77765,.2373-2.66644,.22607Zm-2.8504,5.98242c-1.21082,.83447-2.59106,1.02686-4.14276,1.06592-1.11981-.12061-2.36639-.25146-3.61237-.39111-.24609-.02734-.48645-.06445-.73694-.02686-1.3916,.20898-2.77753,.44482-4.13397,.82471-.50031,.14014-1.01312,.18506-1.52344,.21338-1.13861,.06152-2.27789,.11035-3.41718,.12744-1.64703,.0249-2.83655-.84131-3.77618-2.08496-.40991-.54297-.71936-1.16504-1.04132-1.76758-.22723-.42627-.30573-.89795-.25427-1.38477,.04205-.40332,.2561-.5293,.63025-.39502,.14246,.05127,.28809,.10498,.41742,.18262,1.92072,1.15234,4.0976,1.6084,6.24176,1.83154,2.71857,.28369,5.42896,.71973,8.172,.79492,1.40472,.03906,2.8045,.25342,4.20868,.28564,.92963,.021,1.8548,.04688,2.78003,.13281,.19647,.01807,.47394-.0752,.53729,.18799,.05023,.21143-.1958,.29883-.349,.40332Zm-14.99561-48.9707c-.32892-1.02197,.13055-2.13184,1.08466-2.61865l3.22131-1.64453,1.64459-3.22168c.48706-.9541,1.59436-1.40576,2.61871-1.08447l3.44232,1.11475,3.43976-1.11475c1.01184-.32129,2.13165,.13037,2.61871,1.08447l1.64709,3.22168,3.22131,1.64453c.9541,.48682,1.41357,1.59912,1.08466,2.61865l-1.11481,3.44238,1.11481,3.44189c.32892,1.01953-.13055,2.13184-1.08466,2.61914l-3.22131,1.64453-.33142,.64844v16.35449c0,.7832-.41931,1.50391-1.09723,1.89307-.33643,.1958-.71057,.29102-1.08716,.29102-.38165,0-.76074-.09766-1.09973-.2959l-4.09003-2.3877-4.09009,2.3877c-.67285,.39404-1.50897,.39893-2.18689,.00488-.67792-.38916-1.09723-1.10986-1.09723-1.89307v-16.354l-.33142-.64893-3.22131-1.64453c-.9541-.4873-1.41357-1.59717-1.08466-2.61914l1.11481-3.44189-1.11481-3.44238Zm27.23193,20.48779c-1.2077,0-2.18439-.97656-2.18439-2.18408,0-1.20801,.97668-2.18457,2.18439-2.18457h3.9444c.95911,0,1.73999-.78076,1.73999-1.74023v-25.73779c0-.95898-.78088-1.73975-1.73999-1.73975h-38.32953c-.95911,0-1.73999,.78076-1.73999,1.73975v25.73779c0,.95947,.78088,1.74023,1.73999,1.74023h3.77625c1.20764,0,2.18433,.97656,2.18433,2.18457,0,1.20752-.97668,2.18408-2.18433,2.18408h-3.77625c-3.36945,0-6.1087-2.73926-6.1087-6.10889v-25.73779c0-3.36963,2.73926-6.10889,6.1087-6.10889h38.32953c3.36945,0,6.1087,2.73926,6.1087,6.10889v25.73779c0,3.36963-2.73926,6.10889-6.1087,6.10889h-3.9444Zm26.58661-20.22998c-.09918,1.61914-.33832,3.22852-.51788,4.84131l-.16754,.00195c0-1.23389,.02319-2.46777-.00439-3.70117-.10486-4.58594-1.0351-9.02295-2.48822-13.35742-.66406-1.98047-1.36963-3.94873-2.20947-5.86279-.96289-2.1958-2.01868-4.34473-3.52887-6.23242-.37164-.46387-.97296-.46875-1.48267-.60254-.26422-.06982-.43683-.17969-.60571-.34912-2.03247-2.03467-4.10571-4.02148-6.42133-5.74365-3.12152-2.32324-6.51416-4.12402-10.13538-5.53857-1.49261-.58301-2.9884-1.16211-4.54321-1.50195-3.45551-.75586-6.93225-1.40576-10.50763-1.13428-1.17377,.08936-2.35699,.04785-3.53326,.11475-1.27423,.07227-2.5033,.45264-3.76367,.63037-2.32434,.32812-4.52191,1.13477-6.74524,1.84033-.18073,.05713-.3609,.1333-.5473,.15625-.17261,.02197-.49341,.13232-.17328-.26807,.14813-.18555-.11169-.49219-.23285-.71582l-.49713-.22754c6.5318-3.1001,13.38495-4.23535,20.56073-3.30957,1.48889,.19189,2.95709,.53857,4.39514,.98291,2.34253,.72314,4.67633,1.46191,6.97369,2.33545,2.27911,.86719,4.53131,1.74951,6.64099,2.98291,2.69849,1.57764,5.12073,3.51904,7.33209,5.7002,3.03052,2.98975,5.7547,6.24414,7.72314,10.05566,1.1261,2.18164,1.94965,4.48877,2.7041,6.82666,.90576,2.80566,1.53473,5.65723,1.66846,8.6001,.05206,1.15771,.17761,2.32324,.10669,3.47607ZM118.40297,5.43181c4.12268,.16113,8.20459,.62695,12.08691,2.09668,2.42914,.91895,4.60034,2.31104,6.60333,3.99805,1.79517,1.51221,2.84845,3.4292,3.5885,5.58301,.03076,.08887,.07599,.17822,.086,.27051,.03326,.29932,.13055,.65088-.20337,.82275-.3465,.17822-.50024-.16553-.68164-.3667-1.36273-1.50928-2.59741-3.14844-4.19366-4.42773-2.29047-1.83643-4.7937-3.34375-7.64532-4.09961-4.09821-1.08691-8.24036-2-12.43903-2.62646-.65845-.09814-1.3194-.18018-1.98724-.17432-.11365,.00098-.23224,.00732-.34021-.02051-.1701-.04248-.34839-.13477-.36029-.31787-.01257-.19678,.20966-.18896,.33771-.23389,1.27924-.44727,2.6275-.37256,3.9494-.49805,.39612-.03809,.79846-.00586,1.19891-.00586Zm-48.43292,76.93164c-1.72046-3.27783-3.00159-6.72852-3.79504-10.35156-.43182-1.97021-.68921-3.95703-.86621-5.97314-.16321-1.86475-.4375-3.73389-.67664-5.59912-.36786-2.86523-.8028-5.72852-.81854-8.62305-.01752-3.34961,.44568-6.63867,1.50586-9.82715,1.15308-3.46875,2.79138-6.63525,5.43896-9.24951,2.27478-2.24609,4.42712-4.61572,6.6228-6.94043,.44189-.46777,1.00372-.63184,1.68475-.84277-.27496,.6792-.57184,1.18213-.93085,1.65527-1.1048,1.45654-2.35388,2.79053-3.52264,4.19189-1.88055,2.25537-3.56403,4.64062-4.89417,7.27051-1.33258,2.63477-2.55219,5.3125-3.35126,8.16309-.4375,1.56104-.64899,3.16357-.82727,4.77002-.18268,1.646-.20966,3.29346-.10107,4.95117,.14062,2.14258,.53229,4.24121,.85052,6.35742,.32764,2.17725,.87689,4.31738,1.01562,6.53125,.17639,2.81738,.8844,5.54932,1.62573,8.26611,.18329,.67285,.59631,1.22998,.91266,1.8335,1.1355,2.16064,2.38525,4.2373,4.11389,6.00391,.80658,.82471,1.4613,1.79883,2.1781,2.71045,.09229,.1167,.1532,.26074,.21216,.40039,.05841,.13965,.11676,.2959-.02759,.4209-.12805,.10986-.29065,.11377-.4306,.04395-.32141-.16113-.66785-.30078-.94281-.52539-.74823-.61035-1.49078-1.22021-2.1712-1.92236-1.09534-1.13037-2.08081-2.33447-2.80518-3.71533Zm12.28021,16.95703c-1.54913,.25928-2.41724-.45312-2.57477-2.02002-.05652-.56396-.21844-1.11523-.00757-1.68799,.36908-1.00342,1.03381-1.21387,1.78772-.4707,.85114,.83936,1.80774,1.50293,2.86914,2.03809,.46765,.23535,.9585,.36719,1.4632,.46094,.51532,.09619,.9635,.31934,1.42426,.64355-.22162,.20264-.44067,.23438-.63965,.25684-1.46002,.15918-2.87921,.5376-4.32233,.7793Z"/><path class="cls-2" d="M109.91152,72.69695v9.03467l1.9057-1.11182c.33893-.19873,.72058-.29639,1.09973-.29639,.37909,0,.76074,.09766,1.09967,.29639l1.9057,1.11182v-9.03369l-3.00537-.97412-3.00543,.97314Z"/><path class="cls-2" d="M105.6357,63.84246l2.1944,1.12012c.40924,.20801,.74316,.54199,.9516,.95166l1.11981,2.19434,2.34253-.7583c.21844-.07031,.4469-.10547,.67291-.10547,.22595,0,.45441,.03516,.67285,.10547l2.34259,.7583,1.11981-2.19434c.21088-.40967,.5423-.74365,.95154-.95166l2.19446-1.12012-.7608-2.34229c-.14056-.43701-.14056-.90918,0-1.3457l.7608-2.34277-2.19446-1.11963c-.40924-.2085-.74066-.54248-.95154-.95166l-1.11981-2.19434-2.34259,.76074c-.43689,.14062-.90887,.14062-1.34576,0l-2.34253-.76074-1.11981,2.19434c-.20844,.40918-.54236,.74316-.9516,.95166l-2.1944,1.11963,.75824,2.34277c.14056,.43652,.14056,.90869,0,1.3457l-.75824,2.34229Z"/></g></svg>