<?xml version="1.0" encoding="UTF-8"?><svg id="a" xmlns="http://www.w3.org/2000/svg" viewBox="0 0 1250 820"><defs><style>.cls-1{fill:#2f2e71;}</style></defs><g><path class="cls-1" d="M350.94688,722.7377c12.44067,.38123,27.08783-1.31482,41.13943,3.58038,13.23654,4.61127,21.81091,13.35382,23.47653,27.76227,1.70642,14.76257-3.37518,26.69836-15.54697,35.30591-15.33652,10.8454-33.14206,13.37628-51.21893,13.96643-20.4899,.66907-40.99475,.50854-60.27335-8.23438-23.0961-10.474-26.07126-36.64868-5.52936-51.16785,3.65063-2.58026,3.26718-3.57697,.70941-6.50647-9.51135-10.89337-9.39502-30.53253,3.79791-39.79218,3.82001-2.68115,3.37283-4.72455,.61417-7.9613-19.2713-22.61151-9.99271-57.28961,18.03189-68.17786,22.66089-8.80438,45.41971-8.83807,68.21234-.83807,2.82745,.99243,4.47931,.8642,6.68146-1.08136,4.12662-3.64575,8.43808-7.12396,12.93704-10.29736,6.78607-4.7868,15.09665-4.37018,19.60413,.62122,4.81165,5.32825,4.93359,13.14191-2.17197,18.84491-9.50504,7.62872-10.97372,14.81592-7.80481,26.85492,5.42075,20.59338-8.50479,40.90985-30.33853,48.58936-18.55908,6.52777-37.51059,6.72784-56.53317,2.31458-3.91089-.90741-7.30893-1.69348-8.83801,3.06812-1.37567,4.28369-.82086,8.22668,3.41461,10.77667,3.24655,1.95459,6.90878,2.36963,10.62695,2.37097,8.99893,.00323,17.99792,.00104,29.00925,.00104h-.00006l.00003,.00006Zm-8.93558-37.52045c3.64017-.40564,6.89713-.48047,10.01889-1.16833,11.17441-2.46234,18.46448-9.98566,19.3631-19.66492,.89685-9.66003-3.99088-18.98969-12.69043-22.48822-11.3053-4.54639-22.92828-4.89532-34.19226,.23193-13.54428,6.16522-17.61292,23.50623-7.96152,33.98334,6.91074,7.50201,16.30734,8.76215,25.46222,9.1062Zm-2.44901,64.28857l-.00027-.21692c-8.50873,0-17.02655,.23737-25.52316-.08453-5.54568-.21008-8.4769,2.68677-10.43826,7.17065-4.03897,9.23413,1.02112,17.54407,13.28064,20.00098,17.28003,3.46295,34.6618,3.38416,51.89859-1.0072,3.22443-.82141,5.93994-2.51721,8.47565-4.36377,6.69043-4.87207,5.77466-14.96564-1.5896-18.92523-3.27264-1.75952-6.85596-2.56329-10.58551-2.56946-8.50604-.01416-17.01208-.00446-25.51816-.00446h.00006l.00003-.00006Z"/><path class="cls-1" d="M1167.55986,703.38754c-15.22095,.00055-30.44495,.1701-45.66089-.10669-4.35144-.07916-4.60742,1.43872-4.02527,5.04749,2.71936,16.85474,18.26599,30.08008,39.01001,32.3399,15.72949,1.71356,30.27319-.76813,41.66736-13.28253,2.25806-2.47998,5.37598-4.40845,8.44141-5.87085,5.15039-2.45715,10.6438-3.32349,15.4834,.74994,5.00427,4.2121,5.77551,9.90106,3.77417,15.71997-4.14172,12.04224-13.02148,20.32172-24.21558,25.10187-32.06128,13.69073-63.24878,12.49664-91.98462-8.82104-13.90637-10.31653-21.14856-25.07294-24.46594-41.84723-4.6947-23.73816-2.32581-46.60474,11.60876-66.74463,17.83606-25.77924,43.89673-33.63068,73.89612-29.83496,28.07788,3.55261,47.43787,18.66943,56.5929,45.77344,2.80017,8.28979,4.0625,17.03271,3.13989,25.82452-1.17371,11.1817-6.32471,15.80505-17.599,15.91388-15.21973,.14697-30.44165,.0365-45.66272,.03705l.00024-.00006-.00024-.00006Zm-9.52466-26.86578c11.28943,0,22.59216-.32959,33.86243,.13501,5.89282,.24292,6.27515-1.88062,5.06409-6.7077-4.05188-16.14911-16.78979-26.39966-35.10693-27.85016-21.11877-1.67236-37.37964,8.25732-43.19434,26.37659-2.31653,7.21863-1.797,8.01587,5.50696,8.03754,11.28918,.03339,22.57861,.00879,33.8678,.00873Z"/><path class="cls-1" d="M832.22789,771.65195c-45.97314,.19354-78.26074-31.74249-78.69568-77.83887-.43036-45.62109,31.79529-78.60815,77.00366-78.82263,48.54016-.23029,81.14441,30.65643,81.32758,77.04352,.18878,47.80316-31.43011,79.41504-79.63556,79.61798Zm-.34216-30.68848c26.85999,.25757,45.47009-18.62683,46.19641-46.87732,.71631-27.85669-18.23254-48.22394-45.21967-48.6048-25.71027-.36285-45.03381,19.56598-45.55084,46.97766-.52246,27.70032,18.36493,48.25317,44.5741,48.50446Z"/><path class="cls-1" d="M512.37193,771.58817c-15.05334-.31696-34.54526-4.42877-49.78955-19.97791-4.88199-4.97961-8.64404-10.80682-9.44156-17.99872-.6033-5.44159,1.00092-10.29797,5.78372-13.17242,4.57178-2.7475,9.66458-2.71399,14.48135-.19635,4.33536,2.26605,7.79422,5.66296,11.23605,9.08759,12.63538,12.57184,27.99091,16.11121,45.09247,12.99084,8.79175-1.60406,13.73389-6.77911,14.68945-14.33093,.92261-7.29126-3.00183-13.66724-11.06885-17.23035-9.35767-4.13318-19.59192-4.86548-29.44812-7.03394-11.30933-2.48822-22.44861-5.41724-31.55878-12.95117-20.63031-17.06073-19.13745-49.64014,3.04169-64.82257,17.4519-11.94653,37.09283-12.53375,57.08643-9.6001,13.66711,2.00537,26.29919,6.62262,36.14221,16.99548,3.57404,3.76654,6.01202,8.19,7.29053,13.13666,1.41058,5.45782,.59937,10.51178-4.04138,14.40417-4.61023,3.86688-9.57782,3.64215-14.79614,1.48334-5.91022-2.44513-10.02618-7.29266-14.85504-11.14716-11.35608-9.0647-24.21124-10.64246-37.76233-7.6015-7.96686,1.78778-12.2262,7.28455-12.37842,13.81201-.16284,6.98889,3.92963,12.38855,11.72284,15.12787,13.31671,4.68103,27.54047,5.46924,41.03156,9.46545,7.81079,2.31366,15.17169,5.46796,21.16333,11.05109,21.87585,20.3847,14.90027,58.45923-13.01044,71.57379-11.06104,5.1972-22.8053,6.92377-40.61096,6.93475l-.00006,.00006Z"/><path class="cls-1" d="M85.04419,771.21841c-21.65652-.16943-42.14687-3.8797-57.73014-20.95441-3.65059-4-6.34513-8.48969-7.68908-13.67999-1.60601-6.20227-.88539-11.97784,4.84069-15.91931,5.1122-3.5188,12.92958-2.80487,18.0319,1.4646,4.05963,3.39697,7.94004,7.00702,11.96096,10.45148,12.55085,10.75128,27.16391,12.72675,42.72676,9.42383,8.02799-1.70386,12.7244-7.58051,13.06065-14.85944,.35896-7.77094-3.70396-14.5863-11.65471-16.78754-12.63228-3.49738-25.61885-5.70374-38.2861-9.08984-15.46572-4.13416-28.78612-11.5882-34.33217-27.87024-8.05589-23.65021,5.39924-47.9892,31.06262-54.98431,23.44997-6.39185,46.52367-4.93115,68.14444,7.39679,7.85176,4.47699,13.79872,10.77686,16.34013,19.61249,1.74837,6.07825,1.29382,12.10193-4.47318,16.03595-5.79109,3.9505-11.79521,2.96387-17.42558-.72925-5.96169-3.91046-10.58199-9.50171-16.92393-13.03314-10.64864-5.92957-21.73261-6.88916-33.2444-3.74585-6.52939,1.7829-10.99064,5.92151-11.34757,13.1076-.34606,6.96857,2.99327,11.73682,9.36344,14.6322,9.37272,4.26007,19.57592,4.88641,29.43684,6.99561,10.82445,2.31531,21.76527,4.52716,30.93167,11.10156,16.74329,12.00879,21.82951,34.77448,12.4545,53.74121-9.47746,19.17407-26.71738,25.38818-46.27209,27.64252-2.95446,.34064-5.98194,.04749-8.9757,.04749h.00005Z"/><path class="cls-1" d="M637.4409,691.31015c-.00189-12.4502-.14801-24.90314,.08289-37.34906,.07379-3.97845-1.22424-5.1463-5.10663-5.05237-5.97302,.14465-12.00427,.08417-17.93085-.59131-7.80969-.89014-12.93182-7.01746-12.98895-14.59406-.05261-7.00775,5.53741-13.45435,13.0896-14.24139,5.93689-.61871,11.96948-.68719,17.94128-.47803,4.05701,.14209,5.13477-1.32306,4.98718-5.16125-.2655-6.90656-.15363-13.83179-.05389-20.74719,.13824-9.59216,6.36615-16.19843,15.65149-16.78009,8.67371-.54333,15.61786,5.38251,16.91626,14.62305,.38269,2.72388,.25543,5.51569,.45886,8.26917,.46997,6.35846-2.82263,14.6955,1.34161,18.56055,4.07916,3.78601,12.31372,.88763,18.71899,1.12,7.36682,.26721,14.78473-.07111,22.09637,.67566,6.27545,.64093,10.3587,4.61084,11.73834,10.99591,1.36346,6.31061-.83136,11.41791-5.70026,15.24866-3.57349,2.81165-8.05908,3.17743-12.49127,3.18329-9.91669,.01318-19.83691,.15497-29.7486-.06622-4.15405-.09271-6.14075,.62268-6.08221,5.54846,.26562,22.36115-.03296,44.72852,.16846,67.091,.14362,15.95386,12.12103,22.88684,26.46478,15.47729,3.64276-1.88177,6.94562-4.41522,10.4339-6.60303,5.84943-3.6687,11.95001-4.11615,17.18811,.55945,5.21021,4.65076,5.66833,10.89868,2.87897,17.12317-4.30261,9.6012-12.20697,15.2934-21.76703,18.86914-18.8125,7.03662-37.03491,7.19-53.32727-6.2088-10.38318-8.53925-14.62616-20.33368-14.90436-33.50568-.25311-11.98376-.05359-23.97705-.05554-35.96619l-.00024-.00006v-.00006Z"/><path class="cls-1" d="M987.26713,633.46115c11.09076-13.75226,25.07837-19.73132,42.13086-18.35229,10.48108,.8476,19.7561,4.19531,26.60095,12.68707,4.90051,6.07971,6.84753,12.99878,5.5116,20.64728-1.04089,5.95776-3.71594,10.58142-10.18188,12.64288-7.34607,2.34204-13.03345,.06622-18.18103-4.85596-10.51123-10.05084-18.72778-12.17041-29.03516-6.85083-7.3385,3.78729-11.41351,10.45819-14.15381,17.98846-2.71143,7.45032-3.54846,15.21295-3.54883,23.09204-.00098,20.98694,.02765,41.97394-.01825,62.96082-.01447,6.66754-2.30457,12.25177-8.62042,15.34229-5.76562,2.82135-11.56396,2.77557-17.03503-.87445-5.52295-3.68439-7.33667-9.25104-7.34204-15.52893-.03418-39.43695-.05884-78.87396,.01196-118.31073,.01843-10.25189,5.65802-17.00031,14.50781-17.90759,10.26874-1.0528,16.21985,3.76813,18.50208,14.96576,.11432,.56067,.38739,1.08893,.85126,2.35431h-.00012l.00006-.00012Z"/><path class="cls-1" d="M223.41176,693.52707c.00258,20.06262,.18864,40.12756-.06815,60.18689-.15071,11.77844-8.90813,18.62952-20.24728,16.50275-7.07442-1.32684-12.56155-7.67236-12.59648-15.97974-.17163-40.81659-.21011-81.63489,.01044-122.45093,.05135-9.49628,7.30232-15.84741,16.52846-15.76422,9.69962,.08746,16.13824,6.21783,16.286,16.62701,.28802,20.28906,.0844,40.58508,.08698,60.87823h.00005Z"/><path class="cls-1" d="M227.56988,577.92142c-.07072,11.15607-9.0815,19.93658-20.3716,19.85101-11.8298-.0896-20.68658-8.75677-20.76537-20.3208-.07768-11.39886,9.19341-20.47314,20.80556-20.36414,11.53738,.10828,20.40518,9.19531,20.33141,20.83392Z"/></g><path class="cls-1" d="M840.67204,187.02229c-4.94873-18.55499-14.57056-34.59863-27.18921-48.91064-9.76782-11.07855-20.68164-20.98517-31.66064-30.83948-10.27734-9.22449-18.50708-19.99634-23.79297-32.92847-2.74048-6.70532-6.01416-13.18549-10.2373-19.14191-8.3125-11.72473-19.88721-19.19739-32.63647-25.11847-21.03882-9.77075-43.40259-13.19904-66.35449-13.65552-12.9707-.22833-25.74658,1.45807-38.35034,4.24377-18.54932,4.09998-35.57544,12.07379-52.1001,21.22388-11.07422,6.13226-20.75464,14.16376-30.47217,22.16089-15.50806,12.76282-30.7041,25.9071-44.10449,40.88379-10.06689,11.2514-21.49756,20.45251-34.71191,27.69379-11.84595,6.49133-22.22925,14.95483-31.60034,24.72876-9.17896,9.57373-13.78955,20.82031-13.68091,34.04663,.07544,9.16101,1.57764,18.12964,3.90137,26.95007,3.59961,13.66394,8.98242,26.74016,13.49609,40.10365,2.64502,7.83099,5.45874,15.61084,5.28809,24.04565-.16211,8.02844-.66846,16.04474-1.61963,24.01251-2.1394,17.91791-.72876,35.5611,3.52026,53.05048,3.89185,16.01953,13.20264,27.62225,28.02124,34.78772,1.93262,.93451,4.02734,1.53723,6.05591,2.26935,3.02417,1.09155,3.46777,2.81757,1.29785,5.13434-.26392,.28162-.56323,.53156-.81226,.82483-6.85693,8.07208-10.88257,17.09338-9.68481,27.98706,1.97778,17.98828,20.7334,28.12604,36.85327,19.85754,7.59106-3.89355,16.93506-.883,20.77832,6.7132,.90479,1.78839,1.7417,3.61139,2.60718,5.41968,3.45728,7.22412,6.4248,14.70856,11.77881,20.88153,6.58252,7.58911,14.90405,10.35883,24.69434,9.15283,6.71362-.82703,12.72388-3.6319,18.51831-6.92712,11.26025-6.40369,21.06104-14.82281,31.16235-22.81232,3.38232-2.67529,7.01294-3.61407,11.22046-3.14496,6.87329,.76648,12.87305,3.62598,18.47046,7.4696,9.22998,6.33801,19.14771,11.21973,29.91382,14.3429,19.68066,5.70941,39.55298,7.38892,59.65283,2.48853,19.75488-4.81641,37.54932-13.78662,54.00366-25.64819,10.24121-7.38263,18.66333-16.27655,24.97144-27.2522,6.19043-10.77087,9.75146-22.4632,12.56885-34.42358,4.1189-17.48547,5.61865-35.33612,6.9375-53.18909,1.11304-15.0672,3.60718-29.87585,8.02002-44.31036,3.52002-11.51312,8.58154-22.46161,13.08203-33.6106,3.87109-9.58978,6.21338-19.48608,7.22656-29.78503,1.63599-16.6286-.77417-32.80695-5.03296-48.77502v-.00002ZM636.3405,29.25679c-.02563-.39777,.18701-.58948,.4707-.70441,.14185-.05743,.30151-.09564,.45776-.1308,.15625-.0351,.30957-.06714,.43848-.11224,.48633-.16998,.9751-.32135,1.46606-.45654,.98169-.27039,1.97192-.47614,2.96851-.63635,.49805-.08014,.99756-.14893,1.49854-.20874,1.33545-.15961,2.6792-.25555,4.02539-.33362,1.00952-.05859,2.02051-.10706,3.03003-.16479,1.00952-.05768,2.01782-.12463,3.02246-.22003,1.60645-.15265,3.2395-.02356,4.86035-.02356,16.71313,.65424,33.26245,2.54248,49.00049,8.49927,9.84644,3.72681,18.64917,9.36902,26.76978,16.21045,7.27637,6.13025,11.54639,13.90112,14.54736,22.63007,.0625,.18213,.13965,.36316,.20605,.54547,.06665,.18237,.12256,.36597,.14355,.55334,.13501,1.21271,.52979,2.63782-.82544,3.3349-.52612,.27069-.94287,.24396-1.29712,.06183-.59033-.30347-1.00708-1.03851-1.46631-1.54742-2.07178-2.29523-4.07056-4.66382-6.10107-7.00146-3.38403-3.89612-6.85596-7.70642-10.89941-10.94855-9.28418-7.44409-19.43359-13.55573-30.99438-16.62085-6.23022-1.65179-12.48535-3.20508-18.76831-4.63525-10.47144-2.38361-21.02002-4.42535-31.65845-6.01166-2.6687-.39795-5.34766-.73053-8.05615-.70703-.46094,.00403-.94067,.03015-1.37964-.08081-.68799-.17395-1.41138-.54865-1.45923-1.29114v-.00008Zm-68.79883,195.05878c9.85474,.07654,17.99902,8.23608,18.07568,18.10963,.07812,10.0647-8.21387,18.33179-18.32153,18.2666-10.11816-.06525-18.18481-8.35394-18.01904-18.51532,.16162-9.90729,8.37378-17.93774,18.26489-17.8609v-.00002Zm59.81055,19.74873l.26782-.00024c0-17.71252,.26172-35.42969-.05469-53.1366-.65601-36.72559,30.79443-48.38947,56.91895-39.76025,5.10205,1.6853,9.88477,3.97577,13.60645,8.01093,3.45361,3.74457,3.91602,8.30566,1.28418,12.02185-2.53589,3.58112-5.87402,4.2677-10.93018,2.07861-3.771-1.63269-7.38135-3.67474-11.22729-5.08813-9.58228-3.52142-20.46167-.46271-25.88892,6.97528-2.33887,3.20538-2.96289,6.94464-3.39844,10.72284-.84082,7.29749-.51831,14.6322-.52344,21.95294-.02197,30.99689,.03125,61.9939-.0249,92.99072-.03418,18.89972-9.9873,33.13245-27.65942,37.77844-15.25073,4.0094-30.02808,2.55634-42.38745-8.65881-3.70557-3.36267-4.29004-8.18829-2.11328-11.63892,2.34424-3.71643,5.94067-4.76349,10.37256-2.83813,4.84839,2.1062,9.26196,5.27264,14.65747,6.0321,15.9519,2.24536,27.14136-4.68427,27.1084-22.03418-.03491-18.46942-.00781-36.93896-.00781-55.40845Zm-139.37476,118.88464c-.25879,.22357-.55371,.33893-.85425,.36298-.30054,.02399-.60718-.04321-.88989-.18469-.32642-.16339-.65894-.32129-.9917-.48047-.9978-.47748-1.99634-.96619-2.83105-1.64783-3.03369-2.47705-6.04468-4.94751-8.80322-7.79498-2.21948-2.29089-4.32788-4.65686-6.24878-7.14972-.48022-.62323-.94873-1.25433-1.4043-1.89423-1.36646-1.91956-2.6167-3.91779-3.71802-6.01642-.87183-1.66132-1.71582-3.3335-2.53174-5.0166-5.71045-11.78156-10.03882-24.09668-12.85425-36.94843-.4375-1.99707-.83081-3.99811-1.18579-6.00409-.71021-4.01196-1.26733-8.0437-1.71899-12.10242-.22583-2.02936-.42529-4.06549-.60425-6.10925-.66211-7.5589-1.77441-15.1366-2.74463-22.69794-.18604-1.45178-.37671-2.90344-.56763-4.35529-.95483-7.25934-1.92041-14.52313-2.41431-21.8233-.19751-2.92004-.31958-5.84595-.33545-8.77966-.00903-1.69714,.01221-3.39044,.06494-5.07971,.04614-1.47809,.11646-2.95306,.21143-4.42462,.66431-10.30109,2.53662-20.43726,5.82739-30.33392,4.67578-14.06189,11.31567-26.89844,22.05029-37.49756,4.61011-4.55194,9.09668-9.22925,13.54346-13.94678,4.44678-4.71747,8.85352-9.47516,13.30396-14.18774,.5835-.61774,1.22363-1.09601,1.90967-1.50146,.36768-.21716,.74414-.41949,1.14111-.59747,.56909-.25507,1.1687-.47766,1.79858-.69006,.53198-.17932,1.09058-.35254,1.66577-.5307,.10596-.03278,.20752-.06464,.31494-.0979-1.11523,2.75543-2.3186,4.79352-3.77368,6.71185-1.11938,1.47583-2.27563,2.92072-3.45435,4.34656-2.35693,2.85175-4.80371,5.6275-7.22607,8.42389-1.21094,1.39819-2.41602,2.80151-3.60059,4.22205-7.62402,9.14185-14.44946,18.81207-19.84082,29.47321-5.40186,10.68134-10.34668,21.53613-13.58545,33.09503-1.77295,6.32745-2.6311,12.8241-3.35303,19.33459-.09277,.83435-.17529,1.66876-.24854,2.5033-.146,1.66907-.25342,3.33875-.32324,5.00952-.03467,.83539-.0603,1.67108-.07666,2.50708-.03271,1.67212-.02832,3.34558,.01172,5.02112,.02002,.83777,.04883,1.67603,.08667,2.51483,.03784,.83887,.08423,1.67828,.1394,2.51837,.57007,8.68427,2.15771,17.19373,3.44873,25.77258,.16602,1.10315,.34619,2.20398,.53516,3.30334,.37842,2.19873,.79248,4.39154,1.20288,6.58557,1.02612,5.48505,2.02759,10.97742,2.37866,16.5871,.08936,1.4278,.2124,2.85016,.36523,4.26764,.4585,4.25244,1.18457,8.46112,2.07153,12.64117,.59131,2.78668,1.25415,5.56055,1.95679,8.32617,.70288,2.76562,1.4458,5.52295,2.19678,8.27649,.55737,2.04382,1.63818,3.82666,2.68555,5.62207,.34937,.59851,.69482,1.1983,1.01611,1.80969,.5752,1.09473,1.15747,2.18414,1.75,3.26654,3.55542,6.4942,7.47583,12.73358,12.3855,18.33026,.81812,.9328,1.66406,1.84772,2.54028,2.74298,.81763,.83563,1.59668,1.70917,2.35107,2.60706,2.2627,2.69379,4.30029,5.60742,6.48047,8.37854,.3728,.47406,.62109,1.06018,.85742,1.6236,.23853,.56824,.47485,1.20239-.11084,1.70807Zm41.56299,40.77515c-5.91724,.64746-11.67041,2.18225-17.52246,3.16125-.78491,.13129-1.52661,.20105-2.22485,.21021-.34937,.00458-.6875-.00598-1.01489-.03162-.32764-.02563-.64404-.06635-.94995-.12189-1.22266-.22229-2.27124-.68329-3.14355-1.37567-.6543-.51923-1.20923-1.16858-1.66431-1.94495-.75879-1.29388-1.2395-2.94049-1.43896-4.92529-.10791-1.0719-.30908-2.13214-.40454-3.19519-.03198-.35431-.052-.70905-.05298-1.06451-.0022-.85315,.10547-1.71118,.42554-2.5813,.74829-2.03448,1.79614-3.26495,3.03906-3.61035s2.68091,.19434,4.20898,1.70044c3.4519,3.40234,7.32812,6.09113,11.63184,8.26233,1.89429,.95575,3.88403,1.4906,5.92993,1.8692,2.09082,.38684,3.90723,1.29358,5.77563,2.60889-.89868,.82086-1.78711,.95013-2.59448,1.03845Zm118.89697,31.68237c-4.90967,3.37976-10.50439,4.16241-16.79443,4.32043-4.54077-.48834-9.59448-1.02032-14.64453-1.58478-.99756-.11151-1.97119-.26324-2.98779-.11053-5.64087,.84747-11.25977,1.80548-16.75977,3.34406-2.02808,.56738-4.10522,.75122-6.17627,.86395-4.61304,.25104-9.23242,.44788-13.85156,.51752-6.67725,.10059-11.49902-3.40997-15.30908-8.4549-1.66064-2.19873-2.91455-4.72009-4.2207-7.16571-.92163-1.72565-1.2395-3.63629-1.03223-5.6106,.17163-1.63391,1.04077-2.14612,2.55469-1.60101,.5791,.20837,1.17017,.42346,1.69409,.7381,7.7854,4.67487,16.61157,6.51953,25.30322,7.42609,11.02148,1.1496,22.00806,2.91626,33.12915,3.22369,5.69336,.15735,11.36816,1.02643,17.06104,1.15625,3.76758,.08588,7.52124,.19147,11.27026,.53882,.79712,.07379,1.92163-.30426,2.177,.76294,.20483,.85651-.79346,1.20898-1.41309,1.63568Zm58.87671-38.64465c-11.44336,6.46082-23.62744,10.97009-36.51294,13.47424-3.53418,.68683-7.20654,.9624-10.80908,.91681-3.72095-.04712-7.45728,.12836-11.02441,.82367-6.50977,1.26898-12.91406,.30914-19.3623,.05487-4.4668-.17615-8.9043-.8974-13.39404-.70947-.83789,.0351-1.71045-.05157-2.52393-.25433-6.79297-1.69318-13.72485-2.69745-20.54858-4.29547-7.84399-1.83704-15.33472-4.57166-22.7793-7.45264-6.01025-2.32587-11.8103-5.20941-17.64282-7.97382-3.58154-1.69745-6.32935-4.6347-9.54297-6.89746-9.40405-6.62158-18.32666-13.81799-26.32129-22.18231-.84839-.88757-1.68262-1.7854-2.50488-2.6922-1.64404-1.8136-3.23975-3.66309-4.80225-5.53809-3.90625-4.6875-7.60547-9.53461-11.34033-14.37982-6.86572-8.90649-11.70215-18.73682-15.67065-29.14209-1.35742-3.5592-2.73853-7.09845-3.83008-10.73688-.36377-1.21283-.69556-2.43665-.9834-3.6759-.2439-1.0498-.5249-2.09735-.81323-3.14441-.28809-1.04706-.58325-2.09357-.85547-3.14142-.54443-2.09558-.99634-4.19617-1.11475-6.31567-.23022-4.12469,.36694-8.33881,.0791-12.55377,.88062,3.29742,1.78003,6.58374,2.72266,9.85156,2.82764,9.80359,6.04395,19.44104,10.30371,28.71405,1.60156,3.48657,3.28418,6.91449,5.05127,10.28021,7.6582,14.58472,16.90967,28.00061,28.09082,39.95752,1.14673,1.22632,2.31372,2.43732,3.50146,3.63269,2.37549,2.39069,4.8335,4.71863,7.3772,6.98151,1.27173,1.13141,2.56519,2.24658,3.88013,3.34515,21.25586,17.75763,45.72852,28.62378,72.96265,33.46826,13.8147,2.45746,27.72241,3.46765,41.7063,2.69476,17.63208-.97455,34.63062-4.82288,50.73779-12.26202,2.5293-1.16809,5.02588-2.54388,8.26514-2.74872-.68774,1.11462-1.54102,1.47168-2.30151,1.90118Zm1.61328-136.06818c-9.92065-.06451-17.99146-8.14722-18.04639-18.07275-.05542-10.04254,8.33569-18.42303,18.33179-18.30872,9.95312,.11389,17.95898,8.18201,17.99097,18.13086,.03271,10.16815-8.1272,18.31659-18.27637,18.25061Zm96.64868,89.05524c-.58276,6.12244-1.55225,12.20404-2.84033,18.23547-1.41357,6.62036-2.35352,13.35651-4.47412,19.80237-1.82593,5.55005-3.61548,11.11536-5.896,16.51678-2.16455,5.12616-5.35156,9.59198-9.48413,13.07147-4.02808,3.39148-8.43823,6.53284-13.38086,8.57782-5.82935,2.41187-11.76196,4.53949-18.07422,5.47644-4.08594,.60657-8.15894,.34448-12.24023,.3786-.44556,.00372-.91699-.1499-1.33545-.32739-3.05225-1.29443-3.30347-2.30872-1.12842-4.76593,2.31519-2.61578,5.11963-4.70526,7.94458-6.6839,4.82153-3.37726,9.18408-7.22882,13.31079-11.40527,11.177-11.31158,19.86011-24.62927,29.73706-36.98224,5.63696-7.04999,9.55444-15.28516,13.9187-23.18188,.81543-1.47528,1.54297-3.0155,2.97388-4.31366,1.63037,1.74359,1.13452,3.8623,.96875,5.60132Zm.24707-111.82123c-.40234,6.5603-1.37305,13.08582-2.10059,19.62616l-.67993,.00714c0-5.00183,.09644-10.00586-.01733-15.00513-.42261-18.59186-4.19531-36.57562-10.08618-54.14893-2.69189-8.03033-5.55225-16.00958-8.95605-23.76807-3.90479-8.90002-8.18481-17.61548-14.30762-25.26556-1.50635-1.8822-3.94336-1.90063-6.00952-2.44275-1.07178-.28125-1.77197-.72894-2.45654-1.41461-8.23999-8.25061-16.64307-16.30255-26.03003-23.28778-12.65527-9.41724-26.40894-16.71576-41.08862-22.45093-1.5127-.591-3.02637-1.18097-4.54419-1.755-4.55347-1.72198-9.146-3.30084-13.87402-4.3349-14.00952-3.06372-28.10278-5.69836-42.5979-4.59625-4.7583,.36169-9.55493,.19257-14.32275,.46417-5.16675,.29425-10.14697,1.83582-15.25977,2.55737-7.06641,.99719-13.84326,3.08588-20.59277,5.27374-2.24976,.72931-4.49634,1.4696-6.74976,2.1842-.73438,.23291-1.46387,.5412-2.21802,.63556-.70142,.08783-2.00195,.53717-.7041-1.08716,.60229-.75403-.45142-1.99554-.94385-2.9032l-1.14355-.52313-.87207-.39893c26.47974-12.56775,54.2627-17.17035,83.35205-13.41663,6.03687,.77899,11.98804,2.18274,17.81763,3.98358,9.49707,2.93378,18.95728,5.92706,28.27197,9.46942,9.23877,3.51361,18.3689,7.09125,26.92261,12.09222,6.83594,3.99664,13.23535,8.56995,19.26245,13.59686,2.41089,2.0108,4.76221,4.09412,7.05786,6.24219,1.14795,1.07404,2.28198,2.16418,3.40283,3.26959,12.28662,12.11926,23.32983,25.31348,31.30786,40.76349,4.56714,8.84479,7.90332,18.19781,10.96313,27.67688,3.67139,11.37311,6.22192,22.93359,6.7627,34.86249,.21265,4.69287,.7207,9.41876,.43408,14.09387v.00002Zm20.77808,21.70679c-.82007-13.02844,.53687-26.0368-.38354-39.01605-.92065-12.97949-3.62109-25.68359-6.65576-38.33923,7.12793,11.69586,9.83179,24.664,10.71924,37.98474,.8833,13.2619,.2019,26.49481-3.67993,39.37054Zm9.27271,7.53442c-.08301,.19714-.27197,.34967-.41162,.52301,1.15503-5.92224,2.35791-11.78918,3.49414-17.67712,1.34326-6.95911,.82715-13.93854,.91064-20.91711,.02563-2.1568-.06787-4.31793-.18408-6.47296-.68506-12.67261-2.95264-25.01727-6.98462-37.09418-4.48218-13.42517-11.63013-25.27789-20.17944-36.40631-7.42383-9.66345-14.802-19.36188-22.20312-29.04285-.21021-.27496-.41626-.55383-.62988-.83124s-.43506-.55328-.67578-.82251c-.12036-.13458-.24561-.26746-.37744-.39801-.26318-.26105-.552-.5127-.87793-.74957-.16309-.11841-.33545-.23322-.51855-.34357,1.25635-.3725,1.7793,.40564,2.33594,.84003,15.3064,11.94153,28.38623,25.8949,37.77441,42.9884,8.3501,15.20374,13.54932,31.4754,16.03247,48.69348,2.88379,19.99536,.30664,39.1651-7.50513,57.71051Z"/></svg>