<?xml version="1.0" encoding="UTF-8"?>
<svg id="Layer_1" data-name="Layer 1" xmlns="http://www.w3.org/2000/svg" viewBox="0 0 485 150">
  <defs>
    <style>
      .cls-1 {
        fill: #faf7ef;
      }

      .cls-2 {
        fill: #416ab2;
      }
    </style>
  </defs>
  <g>
    <path class="cls-1" d="m19.7201571,66.0207511c-.2819824.2368164-.5772095.4799805-.7871094.7768555-5.5400391,7.8378906-5.963501,16.0566406-1.7913208,24.6015625.1445312.2958984.1744995.8955078.6369629.7495117.4475708-.1411133.3234253-.6958008.2644043-1.0898438-.2091064-1.3945312-.4000854-2.7939453-.6747437-4.1757812-1.1710205-5.8945312-.6853027-11.5917969,1.9140015-17.0634766.3968506-.8354492.6983032-1.7172852,1.020752-2.5859375.1447754-.390625.177002-.7978516-.0599365-1.1450195-.1777954-.1933594-.3771973-.1899414-.5230103-.0678711Z"/>
    <path class="cls-1" d="m77.2988314,31.2053214c.8335571.2568359,1.664978.5258789,2.5092773.7431641,3.6004639.9267578,6.6469116,2.7246094,9.0009766,5.640625.359375.4448242.7702026.8496094,1.168335,1.2617188.178833.1855469.3973389.3129883.6543579.2734375.1555176-.046875.2070923-.1591797.1779785-.2729492-.0563965-.2207031-.112915-.4506836-.222229-.6469727-2.8853149-5.1899414-7.3543091-7.6289062-13.2368164-7.5927734-.2037964.0009766-.5460815-.1425781-.5886841.1538086-.0411987.2875977.3013306.3671875.5368042.4399414Z"/>
    <path class="cls-1" d="m105.9915804,82.9235831c.163147-21.7119141-15.2355347-40.8852539-36.1751709-45.2524414-23.3215942-4.8652344-42.4655151,8.4853516-49.3034668,22.1425781,1.496521-1.8442383,2.7498169-3.6088867,4.2210693-5.1679688,12.1602783-12.8837891,29.5657349-17.5366211,45.5683594-13.6147461,6.8934326,1.6894531,13.5281982,4.9604492,19.3685303,9.8666992,10.4701538,8.7949219,15.7736206,22.2143555,14.6230469,35.3530273-.3206177,3.6616211-1.1417847,7.3012695-2.4928589,10.8129883-7.6157227,19.7944336-28.7977905,31.4790039-50.5445557,27.7958984-11.9971924-2.0322266-21.7636719-7.9013672-29.3483276-17.453125,6.7340698,12.6591797,25.4223633,24.2207031,45.7973633,20.5454102,22.3269653-4.0273438,38.118042-22.6845703,38.2860107-45.0283203Z"/>
    <path class="cls-1" d="m105.8644442,106.4094229c-.4285889-.1914062-.7036133.3061523-.9206543.6401367-.7685547,1.1821289-1.5537109,2.355957-2.2650146,3.5727539-3.0332642,5.1879883-7.1756592,9.1293945-12.7501221,11.5-.8509521.3618164-1.661499.8217773-2.4790039,1.2583008-.3673706.1962891-.6616821.4794922-.7146606.8964844.0048218.2626953.15625.3925781.3464355.3974609.368042.0097656.7503662.0239258,1.1044312-.059082,9.3447266-2.1914062,15.112915-8.0610352,17.6580811-17.2226562.0881958-.3173828.4633789-.7861328.0205078-.9833984Z"/>
    <path class="cls-2" d="m120.5927157,75.3488761c-2.6206055-5.2871094-6.2943115-9.2304688-10.6642456-12.9775391-7.100769-6.0888672-7.9071655-9.5507812-10.3548584-19.015625-2.6619263-10.2939453-16.9299927-19.2294922-27.3804321-16.996582-8.0006104,1.7094727-15.8115234,2.1591797-23.7595215.2646484-.8413086-.2001953-1.7322998-.2231445-2.6032104-.2626953-4.2260742-.190918-7.663208,1.347168-10.2867432,4.7001953-1.5772095,2.015625-2.961853,4.1655273-4.1110229,6.434082-3.048645,6.0185547-7.7230835,10.2895508-13.6537476,13.3623047-2.7096558,1.4038086-5.385498,2.9223633-7.8926392,4.65625-3.8612061,2.6689453-7.0163574,5.9614258-7.6196899,10.9404297-.4396973,3.6279297.6728516,6.9765625,2.3781128,10.0488281,3.1351318,5.6479492,4.6774902,11.5854492,4.0576172,17.4433594,0,2.4204102-.0651855,4.2441406.0117798,6.0615234.2650757,6.2592773,1.7304688,11.9863281,7.2492676,15.8515625,2.0961914,1.4682617,4.3218384,2.7392578,6.675293,3.6982422,6.8986206,2.8095703,12.4552612,7.1445312,16.2451172,13.6445312.5064087.8686523,1.2446289,1.6142578,1.9368896,2.359375,3.1467285,3.3886719,7.0062256,5.0961914,11.6685181,4.9428711,3.4735718-.1142578,6.7943115-.9423828,9.9241333-2.3574219,9.3667603-4.2353516,18.8435669-7.8881836,29.1243286-9.5375977,7.2749634-1.1669922,12.0172119-6.1279297,14.5369873-13.1069336.8239136-2.2817383,1.2300415-4.6474609,1.5775146-7.0170898.6915283-4.7163086,2.9851685-8.2841797,7.1491089-10.6445312.9477539-.5375977,1.3181763-1.159668,2.2012329-1.800293,3.1641846-2.2958984,5.0458374-5.387207,5.6109009-9.2607422.5878906-4.0297852-.2290649-7.8164062-2.0206909-11.4311523Zm-43.2420044-44.7373047c5.8825073-.0361328,10.3515015,2.402832,13.2368164,7.5927734.109314.1962891.1658325.4262695.222229.6469727.0291138.1137695-.0224609.2260742-.1779785.2729492-.257019.0395508-.4755249-.0878906-.6543579-.2734375-.3981323-.4121094-.80896-.8168945-1.168335-1.2617188-2.3540649-2.9160156-5.4005127-4.7138672-9.0009766-5.640625-.8442993-.2172852-1.6757202-.4863281-2.5092773-.7431641-.2354736-.0727539-.5780029-.1523438-.5368042-.4399414.0426025-.2963867.3848877-.152832.5886841-.1538086Zm-57.0476074,36.6220703c-.3224487.8686523-.6239014,1.7504883-1.020752,2.5859375-2.5993042,5.4716797-3.085022,11.1689453-1.9140015,17.0634766.2746582,1.3818359.4656372,2.78125.6747437,4.1757812.059021.394043.1831665.9487305-.2644043,1.0898438-.4624634.1459961-.4924316-.4536133-.6369629-.7495117-4.1721802-8.5449219-3.7487183-16.7636719,1.7913208-24.6015625.2098999-.296875.505127-.5400391.7871094-.7768555.145813-.1220703.3452148-.1254883.5230103.0678711.2369385.347168.2047119.7543945.0599365,1.1450195Zm1.6051025,40.1728516c7.5846558,9.5517578,17.3511353,15.4208984,29.3483276,17.453125,21.7467651,3.6831055,42.928833-8.0014648,50.5445557-27.7958984,1.3510742-3.5117188,2.1722412-7.1513672,2.4928589-10.8129883,1.1505737-13.1386719-4.1528931-26.5581055-14.6230469-35.3530273-5.840332-4.90625-12.4750977-8.1772461-19.3685303-9.8666992-16.0026245-3.921875-33.4080811.730957-45.5683594,13.6147461-1.4712524,1.559082-2.7245483,3.3237305-4.2210693,5.1679688,6.8379517-13.6572266,25.9818726-27.0078125,49.3034668-22.1425781,20.9396362,4.3671875,36.3383179,23.5405273,36.1751709,45.2524414-.1679688,22.34375-15.9590454,41.0009766-38.2860107,45.0283203-20.375,3.675293-39.0632935-7.8862305-45.7973633-20.5454102Zm15.3357544-39.1005859c.1201172-.5917969.5-1.0976562,1.0341797-1.3789062l21.4819336-11.3125c.0582886-.0307617.1218262-.0429688.1820679-.067627.0830688-.0339355.1639404-.0708008.249939-.0930176.0831909-.0217285.1670532-.0292969.25177-.0400391.0848999-.0107422.1682739-.0249023.2537231-.0249023.0853882,0,.1685791.0141602.253418.0249023.0849609.0107422.1690063.0183105.2524414.0400391.0855713.0224609.1660767.059082.2487183.0925293.0605469.0246582.1243896.0371094.1829224.0681152l21.4819336,11.3125c.5341797.28125.9140625.7871094,1.0341797,1.3789062.0576172.28125,5.4125977,28.3144531-22.3769531,42.6162109-.2895508.1494141-.6054688.2236328-.9208984.2236328-.0524292,0-.1034546-.0170898-.1557617-.0212402-.0523071.0041504-.1033325.0212402-.1557617.0212402-.3154297,0-.6313477-.0742188-.9208984-.2236328-14.5024414-7.4628906-19.8237305-18.6396484-21.7338867-26.7011719-2.0654297-8.7167969-.7021484-15.6259766-.6430664-15.9150391Zm68.5999756,39.0869141c-2.545166,9.1616211-8.3133545,15.03125-17.6580811,17.2226562-.3540649.0830078-.7363892.0688477-1.1044312.059082-.1901855-.0048828-.3416138-.1347656-.3464355-.3974609.0529785-.4169922.34729-.7001953.7146606-.8964844.8175049-.4365234,1.6280518-.8964844,2.4790039-1.2583008,5.5744629-2.3706055,9.7168579-6.3120117,12.7501221-11.5.7113037-1.2167969,1.49646-2.390625,2.2650146-3.5727539.217041-.3339844.4920654-.831543.9206543-.6401367.4428711.1972656.067688.6660156-.0205078.9833984Z"/>
    <path class="cls-2" d="m80.357242,70.0217276l-17.637207-9.2871094.1352539,44.9746094c19.5532227-11.8691406,18.1298828-31.2011719,17.5019531-35.6875Z"/>
    <path class="cls-2" d="m58.5398592,105.7092276l.1352539-44.9746094-17.637207,9.2871094c-.6274414,4.4785156-2.0556641,23.8164062,17.5019531,35.6875Z"/>
    <path class="cls-1" d="m59.6209139,110.9221183c.2895508.1494141.6054688.2236328.9208984.2236328.0524292,0,.1034546-.0170898.1557617-.0212402.0523071.0041504.1033325.0212402.1557617.0212402.3154297,0,.6313477-.0742188.9208984-.2236328,27.7895508-14.3017578,22.4345703-42.3349609,22.3769531-42.6162109-.1201172-.5917969-.5-1.0976562-1.0341797-1.3789062l-21.4819336-11.3125c-.0585327-.0310059-.1223755-.043457-.1829224-.0681152-.0826416-.0334473-.163147-.0700684-.2487183-.0925293-.0834351-.0217285-.1674805-.0292969-.2524414-.0400391-.0848389-.0107422-.1680298-.0249023-.253418-.0249023-.0854492,0-.1688232.0141602-.2537231.0249023-.0847168.0107422-.1685791.0183105-.25177.0400391-.0859985.0222168-.1668701.059082-.249939.0930176-.0602417.0246582-.1237793.0368652-.1820679.067627l-21.4819336,11.3125c-.5341797.28125-.9140625.7871094-1.0341797,1.3789062-.059082.2890625-1.4223633,7.1982422.6430664,15.9150391,1.9101562,8.0615234,7.2314453,19.2382812,21.7338867,26.7011719Zm20.7363281-40.9003906c.6279297,4.4863281,2.0512695,23.8183594-17.5019531,35.6875l-.1352539-44.9746094,17.637207,9.2871094Zm-39.3193359,0l17.637207-9.2871094-.1352539,44.9746094c-19.5576172-11.8710938-18.1293945-31.2089844-17.5019531-35.6875Z"/>
  </g>
  <g>
    <g>
      <path class="cls-1" d="m174.9007264,8.5678513c-2.8763536,1.1171968-3.828842,4.6763098-1.8508294,6.997339.2830769.3324391.3291651.5419764-.0629619.8169942-1.3539337.9504736-1.3660224,2.9662633-.3898604,4.0839638.2624254.3007063.3019655.4029565-.072784.6679003-2.1082179,1.4904352-1.8029783,4.1766438.5674131,5.2515301,1.9787681.8975855,4.0834601.9137038,6.1863891.8452012,1.8551108-.0604435,3.6825184-.3203504,5.2568189-1.4335176,1.249165-.8834821,1.7707418-2.1084697,1.5954558-3.623586-.1707528-1.4788502-1.050709-2.3759321-2.409176-2.8494059-1.4423323-.5021845-2.9456118-.3279058-4.2224801-.3671941h-2.9773446c-.3818013-.0005037-.7575582-.0428141-1.0907528-.2437887-.4346893-.261418-.4916069-.6658856-.3503203-1.1061155.1566493-.4885847.5057104-.4079934.9069039-.314306,1.9525759.4528223,3.8973446.4321708,5.8023213-.2377443,2.2409416-.7882836,3.6701779-2.8735833,3.1138461-4.98709-.3253873-1.2355653-.1745305-1.9729756.800876-2.7562222.7293512-.5852943.7167588-1.3871776.2231371-1.934191-.4628962-.5122584-1.3156529-.5550725-2.0122638-.0639693-.461637.325891-.9041336.6830112-1.3277416,1.057257-.2261593.1994635-.395401.2125595-.6855297.110813-2.339666-.8210238-4.6753024-.8174979-7.0011167.0861319Zm.8096906,13.1056553c.8724007.0327402,1.7463126.0085628,2.6197207.0085628v.0221626h0c.8729044,0,1.7460607-.0010074,2.619217.0005037.3828086.0005037.7505064.0831098,1.0864714.2639365.7555434.4064823.8497344,1.4420805.1631974,1.9422502-.2604106.1893895-.5389543.3636682-.8701341.4477854-1.7689789.4508075-3.5530686.4588667-5.3265808.1032576-1.2582316-.2518478-1.7775417-1.1046044-1.3630002-2.0525595.2012264-.4603778.5019326-.7575582,1.0711087-.7358992Zm4.5841335-11.0138076c.8930523.3591349,1.3947331,1.3166603,1.3025568,2.3084369-.0921763.9932877-.8404161,1.765453-1.9870791,2.0178045-.3206022.0705174-.6548043.0785765-1.0285464.1198795-.9393923-.0352587-1.9039693-.1642048-2.6131727-.9343553-.9907692-1.0753901-.5732056-2.8554503.8169942-3.4880919,1.1559814-.5258582,2.3492362-.4900958,3.5092471-.0236737Z"/>
      <path class="cls-1" d="m254.8981624,17.8978045c.3404982,1.7216315,1.083701,3.2362441,2.5111743,4.2950122,2.9491376,2.1880536,6.1501231,2.3104516,9.4407663.9056447,1.1489296-.4905995,2.0603668-1.3408376,2.485234-2.5769066.2055078-.5968793.1264276-1.1806624-.3873419-1.6128333-.4966438-.4180673-1.0602792-.3294169-1.5891596-.0775691-.314306.1501013-.6344046.3485573-.8663564.6029236-1.1693293,1.2844237-2.6620312,1.53879-4.2763755,1.3635039-2.1291212-.2322037-3.7248288-1.5896633-4.0038762-3.3193539-.0596879-.3707199-.0332439-.5263619.4130304-.5183028,1.56196.0287106,3.1244237.0110813,4.6866355.0110813s3.1244237.0110813,4.6866355-.0035259c1.1569888-.011585,1.6858691-.4860662,1.8062524-1.6334848.0946948-.9026225-.0350068-1.7997043-.3223652-2.6509498-.9396441-2.781407-2.9264713-4.3327894-5.8083656-4.697465-3.0788392-.3898604-5.7537146.4160526-7.5843962,3.0619654-1.4299918,2.0671667-1.6732767,4.4138844-1.1914919,6.8502599Zm3.3949082-4.5100902c.5966274-1.8596441,2.2658746-2.8786203,4.4332767-2.7073638,1.8797919.1490939,3.1873856,1.201314,3.6031863,2.8584724.124161.4956365.0848727.7137366-.5198138.6885519-1.1567369-.0473474-2.3167478-.0135998-3.4754995-.0135998s-2.3172515.0025185-3.4760032-.0010074c-.7497509-.0025185-.8028908-.0841172-.5651464-.8250534Z"/>
      <path class="cls-1" d="m228.7213549,7.8984398c-4.6400437.0216589-7.9473089,3.4075006-7.9032355,8.0898547.0445771,4.7312126,3.3583903,8.0087598,8.0770105,7.9891156,4.947298-.0206515,8.1926086-3.2654585,8.1732164-8.1714534-.0188886-4.7609306-3.3649383-7.9311906-8.3469913-7.9075169Zm.1385163,12.9293619c-2.6899863-.0261922-4.6284587-2.1356693-4.5748151-4.9785271.0531399-2.8136435,2.0361894-4.8586476,4.6750505-4.8213741,2.769822.0387846,4.7145906,2.1296249,4.6410511,4.988601-.0745469,2.8992718-1.9845606,4.8374924-4.7412865,4.8113002Z"/>
      <path class="cls-1" d="m190.9562749,21.9203174c1.5647303,1.5957076,3.5651573,2.0178045,5.1102435,2.0505447,1.8276594-.0010074,3.0330029-.1783082,4.1680809-.7117219,2.8647686-1.3463783,3.58052-5.2540486,1.3355488-7.3464001-.6150123-.5727019-1.3705557-.8965781-2.172439-1.1338188-1.3846592-.4105119-2.844369-.4911032-4.2111469-.9716288-.7998686-.2810621-1.2196989-.8351273-1.2030769-1.5523898.0156146-.6699151.4528223-1.2345579,1.2703203-1.4179031,1.3909553-.3117876,2.7103859-.1501013,3.8759375.7802245.4956365.3959047.9179852.8930523,1.5246865,1.1443964.5354284.2211224,1.0451683.2442924,1.5186422-.1526198.4759923-.3994306.5593539-.918237.4145415-1.4783465-.1312127-.5077251-.3812976-.9615549-.7482398-1.3483931-1.0101615-1.0643088-2.3066739-1.5382863-3.7094661-1.7442978-2.0520558-.30121-4.0678455-.2407665-5.858987.9852286-2.2764522,1.5584341-2.4295756,4.9019654-.3122913,6.6533149.9351108.7731727,2.078248,1.073879,3.2392663,1.3292526,1.0114207.2226334,2.0618779.2976841,3.0221735.7217958.8280755.365683,1.2307802,1.0199836,1.1360854,1.7684752-.0979688.7751875-.6051902,1.3060826-1.5075609,1.4707911-1.7551273.3203504-3.3311907-.0428141-4.6282069-1.3332822-.3530906-.3515795-.708196-.7001369-1.1529592-.9323405-.4946291-.2588995-1.0172132-.2619217-1.4864057.0201478-.4911032.2946619-.6555598.7933205-.5938571,1.3519189.0821024.737914.468185,1.3358007.9691103,1.8470517Z"/>
      <path class="cls-1" d="m153.4536204,20.9345852c-1.5972187.3389871-3.0969723.1359978-4.3851737-.9670955-.4125267-.3535943-.8109499-.7243142-1.2275061-1.0728716-.5238434-.4382152-1.3259786-.5117547-1.8505776-.1501013-.5878127.4039639-.661856.9968136-.4971475,1.6334848.1380126.5329099.4145415.9937914.789291,1.4043033,1.5994853,1.7523569,3.7026662,2.1331508,5.925223,2.1502764.3072543,0,.6177826.0302217.9210074-.0045333,2.0072269-.2311963,3.7767095-.8693786,4.7493456-2.8373172.9620586-1.9462797.4402299-4.2834272-1.2783794-5.5154666-.9406515-.6749521-2.0636408-.9021188-3.1745414-1.1393594-1.0121763-.2165891-2.0593594-.2810621-3.0214179-.7182699-.6537969-.2971804-.9963099-.7867725-.9610512-1.5020202.0367698-.7374103.4946291-1.1620257,1.164796-1.3448672,1.181418-.3228689,2.3192663-.2241445,3.4120339.3843197.6510265.3621571,1.1250041.9363701,1.7369942,1.3378155.5777388.3787791,1.1942622.4800219,1.788623.0745469.5918423-.4034602.6384342-1.0219983.4588667-1.6455735-.2606625-.9071557-.8711415-1.5533972-1.6768026-2.0127675-2.2192827-1.2652833-4.5874075-1.4153846-6.9943169-.7595729-2.6338242.7182699-4.0149575,3.2160963-3.1878893,5.6434053.569176,1.6712619,1.9362058,2.4358718,3.5236024,2.8604872,1.3002901.34755,2.6330687.5737093,3.9295811.9328442.8159868.2261593,1.2330468.9252888,1.196277,1.7231426-.034755.7469805-.5167917,1.3499042-1.3408376,1.5251902Z"/>
      <path class="cls-1" d="m206.5471643,11.3190365c.6082124.0690063,1.2272543.0755543,1.8402518.0604435.3984232-.0095702.5316507.1103093.5240953.5188064-.0236737,1.277372-.0085628,2.5552477-.0085628,3.8331234.0002518,1.2305283-.0201478,2.4615603.0057925,3.6910812.0284588,1.3519189.4641555,2.5628031,1.5297235,3.4392334,1.6720175,1.3750889,3.5422392,1.3594744,5.473408.6371749.981199-.3671941,1.7921489-.951481,2.2338899-1.9367095.2860991-.638686.2392554-1.2798905-.2956693-1.7573939-.5374432-.4800219-1.1635368-.4336819-1.7639419-.0574213-.3581276.2246482-.6971147.4845551-1.0708568.6774706-1.4723022.7605803-2.7013194.0493622-2.7161784-1.5881522-.0206515-2.2953408.0098221-4.5911852-.0173775-6.8860223-.0060443-.5057104.1979524-.5792499.6243307-.569176,1.0172132.0221626,2.0354338.0080591,3.0531508.006548.4548371-.0005037.9152149-.0382809,1.2821571-.3268984.499666-.3928826.7250698-.9172297.5850424-1.5649822-.1415385-.655308-.5606132-1.0627977-1.2048398-1.1282781-.7505064-.0770654-1.5115904-.0418067-2.2678894-.06951-.6573227-.0236737-1.5025239.2735067-1.9213468-.1148426-.4271339-.3969121-.0891541-1.2526909-.1375089-1.9049767-.0209034-.2825732-.0078073-.569176-.0470955-.8487271-.1332275-.9484588-.8459567-1.5564193-1.7362387-1.5010128-.952992.0599398-1.5921817.737914-1.6065371,1.7221352-.0100739.7097071-.0216589,1.4209252.0055407,2.1296249.0153627.3938899-.0951985.5444949-.5117547.5293841-.6129975-.0211552-1.2320394-.0141035-1.841511.0493622-.7749357.0805913-1.3486449.7424473-1.3433561,1.4617246.0060443.777706.5316507,1.4063181,1.3332822,1.4979907Z"/>
      <path class="cls-1" d="m242.0843987,23.5910757c.5616206.3747495,1.1567369.3792828,1.7483274.0896578.6482562-.3173282.8834821-.8905338.8849931-1.5745524.0045333-2.1538023.0015111-4.3081083.0017629-6.4619106,0-.8089351.0858801-1.6052778.3644238-2.3703914.2810621-.772669.6991295-1.4571913,1.4526581-1.8460443,1.0577607-.546006,1.9009471-.3284095,2.9798631.703159.5283767.5052067,1.1121598.7384177,1.8661921.4986586.6633671-.2120558.9378812-.6865371,1.0446646-1.2980235.137257-.7847577-.0624583-1.4949685-.5656501-2.1190473-.7024035-.8713934-1.6541363-1.2149137-2.7300301-1.3020531-1.7503421-.1415385-3.1858746.4719628-4.3242266,1.8833178-.0473474-.1299535-.0755543-.1838489-.0871393-.2412702-.2342184-1.1494333-.8452012-1.6440624-1.8989323-1.5362715-.908415.0931837-1.4874131.7857651-1.489176,1.8379852-.0073036,4.0476977-.0047851,8.0953954-.0012592,12.1430931.0005037.6442266.1868711,1.2154174.7535286,1.5936928Z"/>
      <path class="cls-1" d="m164.7285941,8.0042159c-.9469477-.0085628-1.6911579.6432193-1.6961949,1.6178702-.0226663,4.1892362-.0188886,8.3784723-.0012592,12.5677085.0037777.8527566.5669094,1.504035,1.2927347,1.6400328,1.1640405.2186039,2.0626334-.4845551,2.078248-1.6934245.0261922-2.0591075.0070517-4.1182151.0070517-6.1773226-.0005037-2.0827812.0206515-4.1660662-.0090665-6.2483437-.0151109-1.0683383-.6759595-1.6974541-1.6715138-1.7065206Z"/>
      <path class="cls-1" d="m164.7489938,1.9553357c-1.1917437-.0110813-2.1432247.9202518-2.1351656,2.0903367.0080591,1.1867068.9169778,2.0762332,2.131136,2.0852997,1.1587517.0090665,2.0837886-.8925486,2.0908404-2.0369449.0075554-1.1947659-.9026225-2.1276101-2.0868108-2.1386914Z"/>
    </g>
    <g>
      <path class="cls-1" d="m144.2773666,89.6380821v-33.6651969c0-2.2245725,1.5127093-3.7669427,3.6482989-3.7669427,2.1059286,0,3.5889769,1.5423703,3.5889769,3.7669427v.889829c2.4915212-3.1737234,6.2288029-4.8643985,10.7669308-4.8643985,9.1355777,0,15.9872609,6.9110052,15.9872609,17.2033605,0,10.2626944-6.8516832,17.2033605-15.9872609,17.2033605-4.6271108,0-8.1864267-1.4237264-10.7669308-4.5677888v7.8008342c0,2.1949115-1.4830483,3.7372818-3.5889769,3.7372818-2.1355896,0-3.6482989-1.5423703-3.6482989-3.7372818Zm16.788107-9.9364237c5.4872788,0,9.728797-4.0338914,9.728797-10.4999821,0-6.4957516-4.2415182-10.4999821-9.728797-10.4999821-5.8432104,0-9.699136,4.6271108-9.699136,10.4703211,0,5.8728713,3.8559256,10.5296431,9.699136,10.5296431Z"/>
      <path class="cls-1" d="m186.4192439,69.2016762c0-10.3516773,7.2669368-17.2033605,17.3813263-17.2033605,10.1440505,0,17.4109873,6.8516832,17.4109873,17.2033605,0,10.3220163-7.2669368,17.2033605-17.4109873,17.2033605-10.1143895,0-17.3813263-6.8813442-17.3813263-17.2033605Zm17.3813263,10.4999821c5.8135494,0,9.9364237-4.2415182,9.9364237-10.4999821s-4.1228743-10.4999821-9.9364237-10.4999821-9.9364237,4.2415182-9.9364237,10.4999821,4.1228743,10.4999821,9.9364237,10.4999821Z"/>
      <path class="cls-1" d="m231.6871753,82.4304672v-36.5719716c0-2.1949115,1.5127093-3.7372818,3.6482989-3.7372818,2.1059286,0,3.5889769,1.5423703,3.5889769,3.7372818v36.5719716c0,2.1949115-1.4830483,3.7669427-3.5889769,3.7669427-2.1355896,0-3.6482989-1.5720312-3.6482989-3.7669427Z"/>
      <path class="cls-1" d="m255.4413721,39.3330831c2.610165,0,4.4788059,1.9279628,4.4788059,4.449145,0,2.5508431-1.8686409,4.4788059-4.4788059,4.4788059s-4.5381279-1.9279628-4.5381279-4.4788059c0-2.5211821,1.9279628-4.449145,4.5381279-4.449145Zm-3.6779598,43.0973842v-26.457582c0-2.2245725,1.5127093-3.7669427,3.6482989-3.7669427,2.1059286,0,3.5889769,1.5423703,3.5889769,3.7669427v26.457582c0,2.1949115-1.4830483,3.7669427-3.5889769,3.7669427-2.1355896,0-3.6482989-1.5720312-3.6482989-3.7669427Z"/>
      <path class="cls-1" d="m269.2824502,69.2016762c0-10.0550676,7.1779539-17.2033605,16.9364118-17.2033605,5.309313,0,9.3728654,1.6313532,11.8050646,4.1821963,1.6906751,1.749997,2.7881308,3.9745695,2.7881308,5.6355836,0,1.809319-1.2754216,3.1440624-3.0550795,3.1440624-1.5720312,0-2.5508431-.6525413-3.6186379-2.0466067-1.5423703-2.5211821-4.2415182-4.2118572-7.6821903-4.2118572-5.6355836,0-9.728797,4.2711792-9.728797,10.4999821,0,6.199142,4.0932134,10.4999821,9.728797,10.4999821,3.7966037,0,6.3771078-2.0169457,7.8898171-4.5974498.9788119-1.3940654,1.8389799-2.0169457,3.3813502-2.0169457,1.749997,0,3.2033844,1.3347435,3.2033844,3.2033844,0,1.6016922-1.1271167,3.8559256-2.7288089,5.5466007-2.5508431,2.669487-6.8220223,4.5677888-11.9830304,4.5677888-9.7584579,0-16.9364118-7.1482929-16.9364118-17.2033605Z"/>
      <path class="cls-1" d="m308.4677648,55.3796659c0-1.9576238,1.4237264-3.3220282,3.529655-3.3220282,2.0762676,0,3.0550795,1.0974558,4.0042305,3.3516892l8.7499851,18.5974259,8.1271048-18.3897992c1.0974558-2.610165,2.1059286-3.559316,4.0932134-3.559316s3.529655,1.3940654,3.529655,3.1440624c0,.9491509-.2966097,2.1059286-.91949,3.4406721l-12.1016743,26.487243c-2.5805041,5.6652446-5.8728713,8.3347316-11.1525234,8.3347316-2.610165,0-4.6864327-.6228803-6.5254126-2.0762676-1.2457606-.9788119-2.1059286-2.5508431-2.1059286-3.9449085,0-1.8983018,1.3050825-3.4703331,3.0254186-3.4703331.5635584,0,1.2160996.2372877,1.779658.7711851,1.0084729,1.2457606,2.2838944,1.8686409,3.5889769,1.8686409,2.0466067,0,3.529655-1.2457606,4.8347375-3.9152476l-11.449133-23.9067389c-.6822022-1.4830483-1.0084729-2.5805041-1.0084729-3.4110111Z"/>
      <path class="cls-1" d="m347.9857059,66.9177818c0-2.1949115,1.6610141-3.7372818,3.8855866-3.7372818h17.3813263c2.2542334,0,3.8855866,1.5423703,3.8855866,3.7372818s-1.6313532,3.7372818-3.8855866,3.7372818h-17.3813263c-2.2245725,0-3.8855866-1.5423703-3.8855866-3.7372818Z"/>
      <path class="cls-1" d="m141.4002529,130.8414017c0-10.0550676,7.1779539-17.2033605,16.9364118-17.2033605,5.309313,0,9.3728654,1.6313532,11.8050646,4.1821963,1.6906751,1.749997,2.7881308,3.9745695,2.7881308,5.6355836,0,1.809319-1.2754216,3.1440624-3.0550795,3.1440624-1.5720312,0-2.5508431-.6525413-3.6186379-2.0466067-1.5423703-2.5211821-4.2415182-4.2118572-7.6821903-4.2118572-5.6355836,0-9.728797,4.2711792-9.728797,10.4999821,0,6.199142,4.0932134,10.4999821,9.728797,10.4999821,3.7966037,0,6.3771078-2.0169457,7.8898171-4.5974498.9788119-1.3940654,1.8389799-2.0169457,3.3813502-2.0169457,1.749997,0,3.2033844,1.3347435,3.2033844,3.2033844,0,1.6016922-1.1271167,3.8559256-2.7288089,5.5466007-2.5508431,2.669487-6.8220223,4.5677888-11.9830304,4.5677888-9.7584579,0-16.9364118-7.1482929-16.9364118-17.2033605Z"/>
      <path class="cls-1" d="m180.9775159,130.8414017c0-10.3516773,7.2669368-17.2033605,17.3813263-17.2033605,10.1440505,0,17.4109873,6.8516832,17.4109873,17.2033605,0,10.3220163-7.2669368,17.2033605-17.4109873,17.2033605-10.1143895,0-17.3813263-6.8813442-17.3813263-17.2033605Zm17.3813263,10.4999821c5.8135494,0,9.9364237-4.2415182,9.9364237-10.4999821s-4.1228743-10.4999821-9.9364237-10.4999821-9.9364237,4.2415182-9.9364237,10.4999821,4.1228743,10.4999821,9.9364237,10.4999821Z"/>
      <path class="cls-1" d="m226.2454473,144.0701927v-26.457582c0-2.2245725,1.5127093-3.7669427,3.6482989-3.7669427,2.1059286,0,3.5889769,1.5423703,3.5889769,3.7669427v.6525413c2.0169457-2.9957576,5.6949055-4.6271108,10.1737115-4.6271108,8.0381219,0,13.3177739,5.0127033,13.3177739,13.9406542v16.4914973c0,2.1652505-1.5127093,3.7669427-3.6186379,3.7669427-2.1355896,0-3.6186379-1.6313532-3.6186379-3.7669427v-15.2160758c0-5.7838884-2.9364357-8.5720193-7.6821903-8.5720193-5.309313,0-8.5720193,3.6482989-8.5720193,9.0762557v14.7118393c0,2.1949115-1.4830483,3.7669427-3.5889769,3.7669427-2.1355896,0-3.6482989-1.5720312-3.6482989-3.7669427Z"/>
      <path class="cls-1" d="m272.2135893,137.8710507v-16.788107h-4.449145c-1.9872847,0-3.4110111-1.3644045-3.4110111-3.2923673,0-1.8983018,1.4237264-3.2627063,3.4110111-3.2627063h4.449145v-5.6059226c0-2.1949115,1.5127093-3.7372818,3.6482989-3.7372818,2.1059286,0,3.5889769,1.5423703,3.5889769,3.7372818v5.6059226h8.6016803c1.9576238,0,3.3813502,1.3644045,3.3813502,3.2627063,0,1.9279628-1.4237264,3.2923673-3.3813502,3.2923673h-8.6016803v15.7796341c0,2.8177918,1.4533874,4.2415182,3.6779598,4.2415182,1.4830483,0,2.610165-.7415242,3.7669427-1.6610141.6822022-.5338974,1.5127093-1.0677948,2.610165-1.0677948,1.6610141,0,2.8474528,1.2160996,2.8474528,2.9364357,0,1.3347435-.6525413,2.639826-1.9279628,3.7966037-1.8686409,1.7203361-4.9830424,2.9364357-8.1864267,2.9364357-5.7542275,0-10.0254066-3.8855866-10.0254066-10.1737115Z"/>
      <path class="cls-1" d="m309.2431872,144.0701927c0,2.1949115-1.4830483,3.7669427-3.5889769,3.7669427-2.1355896,0-3.6482989-1.5720312-3.6482989-3.7669427v-26.457582c0-2.2245725,1.5127093-3.7669427,3.6482989-3.7669427,2.1059286,0,3.5889769,1.5423703,3.5889769,3.7669427v.4152535c1.8389799-2.8177918,4.9237204-4.389823,8.5423583-4.389823,2.639826,0,4.7457546.860168,6.0804981,2.1059286,1.2754216,1.2160996,1.9576238,2.6991479,1.9576238,4.3008401,0,2.3432163-1.3347435,3.9745695-3.6779598,3.9745695-1.2457606,0-2.2838944-.8305071-2.9364357-1.6016922-.889829-1.0084729-2.1355896-1.809319-3.7966037-1.809319-3.4110111,0-6.169481,3.4110111-6.169481,9.1355777v14.3262468Z"/>
      <path class="cls-1" d="m332.7473844,130.8414017c0-10.3516773,7.2669368-17.2033605,17.3813263-17.2033605,10.1440505,0,17.4109873,6.8516832,17.4109873,17.2033605,0,10.3220163-7.2669368,17.2033605-17.4109873,17.2033605-10.1143895,0-17.3813263-6.8813442-17.3813263-17.2033605Zm17.3813263,10.4999821c5.8135494,0,9.9364237-4.2415182,9.9364237-10.4999821s-4.1228743-10.4999821-9.9364237-10.4999821-9.9364237,4.2415182-9.9364237,10.4999821,4.1228743,10.4999821,9.9364237,10.4999821Z"/>
      <path class="cls-1" d="m378.0153157,144.0701927v-36.5719716c0-2.1949115,1.5127093-3.7372818,3.6482989-3.7372818,2.1059286,0,3.5889769,1.5423703,3.5889769,3.7372818v36.5719716c0,2.1949115-1.4830483,3.7669427-3.5889769,3.7669427-2.1355896,0-3.6482989-1.5720312-3.6482989-3.7669427Z"/>
      <path class="cls-1" d="m398.1540526,144.0701927v-36.5719716c0-2.1949115,1.5127093-3.7372818,3.6482989-3.7372818,2.1059286,0,3.5889769,1.5423703,3.5889769,3.7372818v36.5719716c0,2.1949115-1.4830483,3.7669427-3.5889769,3.7669427-2.1355896,0-3.6482989-1.5720312-3.6482989-3.7669427Z"/>
      <path class="cls-1" d="m415.982412,130.7524188c0-10.2033724,6.7627003-17.1143776,16.4914973-17.1143776,9.699136,0,15.868617,6.3771078,15.868617,15.3050587,0,2.7881308-1.3050825,4.0932134-3.8559256,4.0932134h-21.17793c.5338974,5.1016862,4.5677888,8.3347316,10.4406602,8.3347316,3.3813502,0,5.8432104-1.0084729,7.7415122-3.3220282.9788119-.889829,1.9576238-1.4533874,3.2033844-1.4533874,1.9279628,0,2.7881308,1.1567777,2.7881308,2.9364357,0,.9788119-.4449145,1.9872847-1.0381338,2.8771137-2.5211821,3.7966037-7.8008342,5.6355836-12.9618423,5.6355836-10.588965,0-17.4999702-6.7330394-17.4999702-17.2923434Zm25.1524995-3.559316c-.5338974-4.8347375-3.9152476-7.6525293-8.9279509-7.6525293-4.9237204,0-8.3940535,2.9364357-8.8982899,7.6525293h17.8262408Z"/>
      <path class="cls-1" d="m466.2492755,144.0701927c0,2.1949115-1.4830483,3.7669427-3.5889769,3.7669427-2.1355896,0-3.6482989-1.5720312-3.6482989-3.7669427v-26.457582c0-2.2245725,1.5127093-3.7669427,3.6482989-3.7669427,2.1059286,0,3.5889769,1.5423703,3.5889769,3.7669427v.4152535c1.8389799-2.8177918,4.9237204-4.389823,8.5423583-4.389823,2.639826,0,4.7457546.860168,6.0804981,2.1059286,1.2754216,1.2160996,1.9576238,2.6991479,1.9576238,4.3008401,0,2.3432163-1.3347435,3.9745695-3.6779598,3.9745695-1.2457606,0-2.2838944-.8305071-2.9364357-1.6016922-.889829-1.0084729-2.1355896-1.809319-3.7966037-1.809319-3.4110111,0-6.169481,3.4110111-6.169481,9.1355777v14.3262468Z"/>
    </g>
  </g>
</svg>