<?xml version="1.0" encoding="UTF-8"?><svg id="a" xmlns="http://www.w3.org/2000/svg" viewBox="0 0 500 500"><defs><style>.b{fill:none;}.c{fill:#fff;}</style></defs><path class="b" d="M109.49296,160.70683c-1.14569,2.04126-2.29138,4.08252-3.43707,6.12372,2.13635-1.49329,3.38885-3.47528,3.43707-6.12372Z"/><path class="b" d="M271.62675,430.26585c-3.74908-.34735-7.50287-.45294-11.27032-.53882-5.69275-.12982-11.36761-.9989-17.0611-1.15625-11.12115-.30743-22.10767-2.0741-33.12909-3.22369-8.69177-.90656-17.51776-2.75122-25.30322-7.42609-.52399-.31464-1.11511-.52972-1.69403-.7381-1.51404-.5451-2.38306-.0329-2.55469,1.60101-.20728,1.9743,.11053,3.88495,1.0321,5.6106,1.30609,2.44562,2.56006,4.96698,4.22064,7.16571,3.8103,5.04492,8.63202,8.55548,15.30927,8.4549,4.61908-.06964,9.2384-.26648,13.85162-.51752,2.07092-.11273,4.14801-.29657,6.17627-.86395,5.49982-1.53857,11.11877-2.49658,16.75952-3.34406,1.0166-.15271,1.99048-.00098,2.98779,.11053,5.05011,.56445,10.10382,1.09644,14.64478,1.58478,6.28979-.15802,11.88477-.94067,16.79425-4.32043,.61975-.4267,1.61798-.77917,1.41309-1.63568-.25537-1.0672-1.37982-.68915-2.17688-.76294Z"/><path class="b" d="M111.18406,356.87529c-2.90674-3.69482-5.56067-7.64307-8.83167-10.9856-7.00909-7.16223-12.07458-15.58191-16.67572-24.33978-1.28485-2.44556-2.95837-4.70667-3.70166-7.43176-3.00421-11.01404-5.87518-22.08929-6.59027-33.51147-.56189-8.97546-2.78845-17.6507-4.11664-26.47601-1.29114-8.57886-2.87866-17.08832-3.44879-25.77258-.44116-6.72064-.32977-13.39948,.41052-20.07422,.72211-6.5105,1.5802-13.00714,3.35315-19.33459,3.23877-11.5589,8.18365-22.4137,13.58539-33.09503,5.39148-10.66113,12.21692-20.33136,19.84082-29.47321,4.73853-5.68207,9.80316-11.08905,14.28107-16.99249,1.45502-1.91833,2.65845-3.95642,3.7738-6.71185-2.76263,.85657-5.03882,1.52069-6.83014,3.4176-8.90082,9.42517-17.6272,19.03064-26.84753,28.13452-10.73444,10.59912-17.37445,23.43567-22.05029,37.49756-4.29816,12.92627-6.17633,26.26117-6.10358,39.83826,.06287,11.73492,1.82758,23.34424,3.31738,34.95825,.96997,7.56134,2.08234,15.13904,2.74451,22.69794,.71619,8.17517,1.75916,16.22754,3.50903,24.21576,3.21741,14.68768,8.4115,28.67456,15.38599,41.96503,2.93689,5.59637,6.93237,10.47864,11.37109,15.06036,2.75867,2.84747,5.76965,5.31793,8.80316,7.79498,1.1131,.90887,2.51715,1.47467,3.82288,2.1283,.56531,.28302,1.22626,.26886,1.74408-.17828,.58563-.50568,.34937-1.13983,.1109-1.70807-.23651-.56342-.48462-1.14954-.85748-1.6236Z"/><path class="b" d="M274.56596,407.12938c-13.98389,.77289-27.8916-.2373-41.7063-2.69476-27.23413-4.84448-51.70691-15.71063-72.96283-33.46826-21.03931-17.57672-36.51111-39.40344-47.9007-64.19708-5.67981-12.36401-9.50415-25.37592-13.02625-38.56561,.28778,4.21497-.30945,8.42908-.07916,12.55377,.23663,4.23901,1.80798,8.40228,2.78339,12.6015,1.15149,4.95709,3.00342,9.66718,4.81342,14.41278,3.96863,10.40527,8.80505,20.2356,15.67053,29.14209,5.97589,7.75232,11.86072,15.50952,18.64758,22.61011,7.99475,8.36432,16.9173,15.56073,26.32141,22.18231,3.21356,2.26276,5.96136,5.20001,9.54272,6.89746,5.83252,2.7644,11.63275,5.64795,17.64294,7.97382,7.4447,2.88098,14.9353,5.6156,22.77936,7.45264,6.82373,1.59802,13.75568,2.60229,20.54858,4.29547,.81354,.20276,1.68597,.28943,2.5238,.25433,4.48981-.18793,8.92725,.53333,13.39404,.70947,6.44818,.25427,12.85272,1.21411,19.36249-.05487,3.56702-.69531,7.30334-.87079,11.02441-.82367,3.60242,.04559,7.27466-.22998,10.80896-.91681,12.88556-2.50415,25.06964-7.01343,36.51288-13.47424,.76068-.4295,1.61383-.78656,2.30145-1.90118-3.23907,.20483-5.73578,1.58063-8.26501,2.74872-16.10724,7.43915-33.10571,11.28748-50.73773,12.26202Z"/><path class="b" d="M261.75297,27.80601c.43896,.11096,.91858,.08484,1.37964,.08081,2.7085-.0235,5.38751,.30908,8.05603,.70703,17.02167,2.53809,33.81281,6.24213,50.42682,10.64691,11.56091,3.06512,21.71033,9.17676,30.99432,16.62085,6.4696,5.18744,11.47595,11.82935,17.00049,17.95001,.73499,.81427,1.36053,2.2074,2.76349,1.4856,1.3551-.69708,.96051-2.12219,.82544-3.3349-.04175-.37469-.22437-.73456-.34961-1.09882-3.0011-8.72894-7.27094-16.49982-14.54749-22.63007-8.12048-6.84143-16.92322-12.48364-26.76959-16.21045-15.73798-5.95679-32.28735-7.84503-49.00049-8.49927-1.62091,0-3.25403-.12903-4.86041,.02356-5.35748,.50903-10.82343,.20728-16.01093,2.02008-.51617,.18042-1.41833,.15198-1.367,.94751,.04785,.74249,.77136,1.11719,1.45929,1.29114h0Z"/><path class="b" d="M144.38248,395.46556c-4.30359-2.1712-8.17975-4.85999-11.63184-8.26233-3.05609-3.01215-5.75153-2.15906-7.24799,1.90991-.85333,2.32037-.198,4.55426,.03186,6.841,.63855,6.35138,4.15833,9.23956,10.43658,8.18921,5.85211-.979,11.60529-2.51379,17.52258-3.16125,.80731-.08832,1.69568-.21759,2.59436-1.03845-1.86829-1.31531-3.68463-2.22205-5.77545-2.60889-2.04596-.3786-4.03564-.91345-5.93011-1.8692h.00002Z"/><path class="b" d="M443.51505,179.53715c3.03461,12.65564,5.73517,25.35974,6.65576,38.33923,.92059,12.97925-.43646,25.98761,.38354,39.01605,3.88184-12.87573,4.56323-26.10864,3.67987-39.37054-.88727-13.32074-3.59113-26.28888-10.71918-37.98474Z"/><path class="b" d="M451.29972,158.02287c-9.388-17.09351-22.4679-31.04688-37.77423-42.9884-.55682-.43439-1.07959-1.21252-2.33606-.84003,1.46509,.88306,2.23877,2.04504,3.07965,3.1449,7.401,9.68097,14.77924,19.37939,22.20306,29.04285,8.54926,11.12842,15.69739,22.98114,20.1795,36.40631,4.03204,12.0769,6.29938,24.42157,6.98444,37.09418,.11646,2.15503,.20984,4.31616,.18408,6.47296-.08331,6.97858,.4328,13.95801-.9104,20.91711-1.13647,5.88794-2.33929,11.75488-3.4942,17.67712,.13959-.17334,.32867-.32587,.41168-.52301,7.81165-18.54541,10.38873-37.71515,7.50507-57.71051-2.48315-17.21808-7.68237-33.48975-16.03259-48.69348Z"/><path class="b" d="M422.57963,186.22929c-3.05981-9.47906-6.39606-18.83209-10.96326-27.67688-7.97791-15.45001-19.02112-28.64423-31.30792-40.76349-8.96539-8.84314-18.78564-16.71393-29.72314-23.10864-8.55347-5.00092-17.68365-8.57861-26.92255-12.09222-9.3147-3.54236-18.77484-6.53564-28.27185-9.46942-5.82971-1.80084-11.78088-3.20459-17.81781-3.98358-29.08911-3.75372-56.87219,.84888-83.35181,13.41663-.34149,.16211-.87677,.19464-.8858,.76453,.9837,.50861,2.10547-1.31042,2.90143,.15753,.49225,.90771,1.54596,2.14917,.9436,2.9032-1.29761,1.62433,.00275,1.17499,.70428,1.08716,.75415-.09436,1.48352-.40265,2.21796-.63556,9.01331-2.85834,17.92078-6.1283,27.34265-7.45795,5.11261-.72156,10.0929-2.26312,15.25977-2.55737,4.76776-.27161,9.56433-.10248,14.32257-.46417,14.49506-1.10211,28.5885,1.53253,42.5979,4.59625,6.3042,1.37872,12.36725,3.72589,18.41821,6.0899,14.67963,5.73517,28.43347,13.03369,41.08868,22.45093,9.38702,6.98523,17.78998,15.03717,26.02991,23.28779,.68475,.68567,1.38477,1.13336,2.45673,1.41461,2.06616,.54211,4.50311,.56055,6.00952,2.44275,6.12262,7.65009,10.40277,16.36554,14.3075,25.26556,3.40387,7.75848,6.26422,15.73773,8.95612,23.76807,5.89087,17.5733,9.66364,35.55707,10.0863,54.14893,.11365,4.99927,.01715,10.0033,.01715,15.00513l.68011-.00714c.72754-6.54034,1.69812-13.06586,2.1004-19.62616,.28668-4.67511-.22137-9.401-.43414-14.09387-.54071-11.92889-3.09131-23.48938-6.76251-34.86249Z"/><path class="b" d="M425.58671,345.71922c-4.36426,7.89673-8.2818,16.1319-13.91876,23.18188-9.87708,12.35297-18.56018,25.67065-29.73706,36.98224-4.12677,4.17645-8.48926,8.02802-13.31091,11.40527-2.82489,1.97864-5.62921,4.06812-7.94446,6.6839-2.17493,2.45721-1.92383,3.4715,1.12848,4.76593,.4184,.17749,.88989,.33112,1.33539,.32739,4.08124-.03412,8.15424,.22797,12.24017-.3786,6.31226-.93695,12.24493-3.06458,18.07434-5.47644,4.94263-2.04498,9.35272-5.18634,13.38074-8.57782,4.13251-3.47949,7.31964-7.94531,9.48407-13.07147,2.28064-5.40143,4.07019-10.96674,5.89612-16.51678,2.12054-6.44586,3.06042-13.18201,4.47424-19.80237,1.28809-6.03143,2.25745-12.11304,2.84033-18.23547,.16559-1.73901,.66156-3.85773-.96875-5.60132-1.43109,1.29816-2.15863,2.83838-2.97394,4.31366Z"/><path class="c" d="M464.62522,184.28032c-4.94873-18.55499-14.57062-34.59863-27.18927-48.91064-9.76776-11.07855-20.68146-20.98517-31.66052-30.83948-10.2774-9.22449-18.5072-19.99634-23.79291-32.92847-2.7406-6.70532-6.01428-13.18549-10.2373-19.14191-8.31274-11.72473-19.88721-19.19733-32.6366-25.11841-21.03882-9.77081-43.40265-13.19904-66.35449-13.65552-12.9707-.22839-25.74658,1.45807-38.35046,4.24377-18.54932,4.09998-35.57538,12.07379-52.09985,21.22388-11.07446,6.13226-20.75482,14.1637-30.47223,22.16089-15.50806,12.76276-30.70428,25.9071-44.10449,40.88374-10.06708,11.2514-21.4975,20.45251-34.71198,27.69379-11.84589,6.49133-22.22931,14.95483-31.60028,24.72876-9.17902,9.57373-13.78961,20.82031-13.68091,34.04663,.07532,9.16101,1.5777,18.12964,3.90131,26.95007,3.59955,13.66394,8.98242,26.74017,13.49615,40.10364,2.64496,7.83099,5.4588,15.61084,5.28821,24.04565-.16223,8.02844-.66864,16.04474-1.61993,24.01251-2.13934,17.91791-.72852,35.5611,3.52045,53.05048,3.89178,16.01953,13.20264,27.62225,28.02112,34.78772,1.93268,.93451,4.02753,1.53723,6.05603,2.26935,3.02423,1.09155,3.46777,2.81757,1.29773,5.13434-.26373,.28162-.56317,.53156-.81226,.82483-6.85681,8.07208-10.88245,17.09338-9.68481,27.98706,1.97778,17.98828,20.73346,28.12604,36.85345,19.85754,7.59088-3.89355,16.93488-.883,20.7782,6.7132,.90485,1.78839,1.7417,3.61139,2.60718,5.41968,3.4574,7.22412,6.42487,14.70856,11.77887,20.88153,6.5824,7.58911,14.90393,10.35883,24.69434,9.15283,6.71344-.82703,12.72388-3.6319,18.51825-6.92712,11.26038-6.40369,21.06104-14.82281,31.16229-22.81232,3.38239-2.67529,7.013-3.61407,11.2204-3.14496,6.87347,.76648,12.87317,3.62598,18.47058,7.4696,9.22998,6.33801,19.14777,11.21973,29.9137,14.3429,19.68085,5.70941,39.55304,7.38892,59.65283,2.48853,19.75513-4.81641,37.54938-13.78662,54.00378-25.64819,10.24121-7.38263,18.66333-16.27655,24.9715-27.2522,6.19043-10.77087,9.7514-22.4632,12.56879-34.42358,4.1189-17.48547,5.61853-35.33612,6.93738-53.18909,1.1131-15.0672,3.6073-29.87585,8.02026-44.31036,3.51978-11.51312,8.5813-22.46161,13.08191-33.6106,3.87122-9.58978,6.21344-19.48608,7.22662-29.78503,1.63593-16.6286-.77417-32.80695-5.03302-48.77502ZM261.66068,25.56736c5.1875-1.81281,10.65344-1.51105,16.01093-2.02008,1.60638-.15259,3.2395-.02356,4.86041-.02356,16.71313,.65424,33.26251,2.54248,49.00049,8.49927,9.84637,3.72681,18.64911,9.36902,26.76959,16.21045,7.27655,6.13025,11.54639,13.90112,14.54749,22.63007,.12524,.36426,.30786,.72412,.34961,1.09882,.13507,1.21271,.52966,2.63782-.82544,3.3349-1.40295,.7218-2.0285-.67133-2.76349-1.4856-5.52454-6.12067-10.53088-12.76257-17.00049-17.95001-9.284-7.44409-19.43341-13.55573-30.99432-16.62085-16.61401-4.40479-33.40515-8.10883-50.42682-10.64691-2.66852-.39795-5.34753-.73053-8.05603-.70703-.46106,.00403-.94067,.03015-1.37964-.08081-.68793-.17395-1.41144-.54865-1.45929-1.29114-.05133-.79553,.85083-.76709,1.367-.94752Zm-70.16583,196.00623c9.85474,.07654,17.99902,8.23608,18.07562,18.10962,.07812,10.0647-8.21375,18.33179-18.32135,18.2666-10.11835-.06525-18.18494-8.35394-18.0191-18.51532,.16162-9.90729,8.37372-17.93774,18.26483-17.8609Zm59.81055,19.74872l.26782-.00024c0-17.71252,.26178-35.42969-.05457-53.1366-.65613-36.72559,30.79443-48.38947,56.91895-39.76025,5.10205,1.6853,9.88477,3.97577,13.60632,8.01093,3.45355,3.74457,3.91595,8.30566,1.28424,12.02185-2.53601,3.58112-5.87402,4.2677-10.93018,2.07861-3.771-1.63269-7.38135-3.67474-11.22729-5.08813-9.58228-3.52142-20.46173-.46271-25.88904,6.97528-2.33881,3.20538-2.96295,6.94464-3.39832,10.72284-.84088,7.29749-.51837,14.6322-.52356,21.95294-.02203,30.99689,.03125,61.9939-.02484,92.99072-.03424,18.89972-9.98718,33.13245-27.65936,37.77844-15.25085,4.0094-30.02826,2.55634-42.38745-8.65881-3.70569-3.36267-4.29004-8.18829-2.1134-11.63892,2.3443-3.71643,5.9408-4.76349,10.37268-2.83813,4.84827,2.1062,9.2619,5.27264,14.65741,6.0321,15.9519,2.24536,27.14142-4.68427,27.10846-22.03418-.03503-18.46942-.00787-36.93896-.00787-55.40845Zm-139.37476,118.88464c-.51782,.44714-1.17877,.4613-1.74408,.17828-1.30573-.65363-2.70978-1.21942-3.82288-2.1283-3.03351-2.47705-6.04449-4.94751-8.80316-7.79498-4.43872-4.58173-8.4342-9.46399-11.37109-15.06036-6.97449-13.29047-12.16858-27.27734-15.38599-41.96503-1.74988-7.98822-2.79285-16.04059-3.50903-24.21576-.66217-7.5589-1.77454-15.1366-2.74451-22.69794-1.48981-11.61401-3.25452-23.22333-3.31738-34.95825-.07275-13.57709,1.80542-26.91199,6.10358-39.83826,4.67584-14.06189,11.31586-26.89844,22.05029-37.49756,9.22034-9.10388,17.94672-18.70935,26.84753-28.13452,1.79132-1.89691,4.0675-2.56104,6.83014-3.4176-1.11536,2.75543-2.31879,4.79352-3.7738,6.71185-4.47791,5.90344-9.54254,11.31042-14.28107,16.99249-7.6239,9.14185-14.44934,18.81207-19.84082,29.47321-5.40173,10.68134-10.34662,21.53613-13.58539,33.09503-1.77295,6.32745-2.63104,12.8241-3.35315,19.33459-.7403,6.67474-.85168,13.35358-.41052,20.07422,.57013,8.68427,2.15765,17.19373,3.44879,25.77258,1.32819,8.82532,3.55475,17.50055,4.11664,26.47601,.71509,11.42218,3.58606,22.49744,6.59027,33.51147,.74329,2.7251,2.41681,4.98621,3.70166,7.43176,4.60114,8.75787,9.66663,17.17755,16.67572,24.33978,3.271,3.34253,5.92493,7.29077,8.83167,10.9856,.37286,.47406,.62097,1.06018,.85748,1.6236,.23846,.56824,.47473,1.20239-.1109,1.70807h-.00002Zm41.56305,40.77515c-5.9173,.64746-11.67047,2.18225-17.52258,3.16125-6.27826,1.05035-9.79803-1.83783-10.43658-8.18921-.22986-2.28674-.88519-4.52063-.03186-6.841,1.49646-4.06897,4.19189-4.92206,7.24799-1.90991,3.45209,3.40234,7.32825,6.09113,11.63184,8.26233,1.89447,.95575,3.88416,1.4906,5.93011,1.8692,2.09082,.38684,3.90717,1.29358,5.77545,2.60889-.89868,.82086-1.78705,.95013-2.59436,1.03845h-.00002Zm118.89685,31.68237c-4.90948,3.37976-10.50446,4.16241-16.79425,4.32043-4.54095-.48834-9.59467-1.02032-14.64478-1.58478-.99731-.11151-1.97119-.26324-2.98779-.11053-5.64075,.84747-11.2597,1.80548-16.75952,3.34406-2.02826,.56738-4.10535,.75122-6.17627,.86395-4.61322,.25104-9.23254,.44788-13.85162,.51752-6.67725,.10059-11.49896-3.40997-15.30927-8.4549-1.66058-2.19873-2.91455-4.72009-4.22064-7.16571-.92157-1.72565-1.23938-3.63629-1.0321-5.6106,.17163-1.63391,1.04065-2.14612,2.55469-1.60101,.57892,.20837,1.17004,.42346,1.69403,.7381,7.78546,4.67487,16.61145,6.51953,25.30322,7.42609,11.02142,1.1496,22.00793,2.91626,33.12909,3.22369,5.69348,.15735,11.36835,1.02643,17.0611,1.15625,3.76746,.08588,7.52124,.19147,11.27032,.53882,.79706,.07379,1.92151-.30426,2.17688,.76294,.2049,.85651-.79333,1.20898-1.41309,1.63568Zm58.87671-38.64465c-11.44324,6.46082-23.62732,10.97009-36.51288,13.47424-3.5343,.68683-7.20654,.9624-10.80896,.91681-3.72107-.04712-7.4574,.12836-11.02441,.82367-6.50977,1.26898-12.91431,.30914-19.36249,.05487-4.4668-.17615-8.90424-.8974-13.39404-.70947-.83783,.0351-1.71027-.05157-2.5238-.25433-6.79291-1.69318-13.72485-2.69745-20.54858-4.29547-7.84406-1.83704-15.33466-4.57166-22.77936-7.45264-6.01019-2.32587-11.81042-5.20941-17.64294-7.97382-3.58136-1.69745-6.32916-4.6347-9.54272-6.89746-9.40411-6.62158-18.32666-13.81799-26.32141-22.18231-6.78687-7.10059-12.67169-14.85779-18.64758-22.61011-6.86548-8.90649-11.7019-18.73682-15.67053-29.14209-1.81-4.74561-3.66193-9.45569-4.81342-14.41278-.9754-4.19922-2.54675-8.36249-2.78339-12.6015-.23029-4.12469,.36694-8.33881,.07916-12.55377,3.52209,13.1897,7.34644,26.2016,13.02625,38.56561,11.38959,24.79364,26.86139,46.62036,47.9007,64.19708,21.25592,17.75763,45.7287,28.62378,72.96283,33.46826,13.8147,2.45746,27.72241,3.46765,41.7063,2.69476,17.63202-.97455,34.63049-4.82288,50.73773-12.26202,2.52924-1.16809,5.02594-2.54388,8.26501-2.74872-.68762,1.11462-1.54077,1.47168-2.30145,1.90118Zm1.6134-136.06818c-9.92072-.06451-17.99158-8.14722-18.04645-18.07275-.05548-10.04254,8.33557-18.42303,18.33167-18.30872,9.95319,.11389,17.95923,8.18201,17.99115,18.13086,.03265,10.16815-8.12732,18.31659-18.27637,18.25061Zm96.64874,89.05524c-.58289,6.12244-1.55225,12.20404-2.84033,18.23547-1.41382,6.62036-2.3537,13.35651-4.47424,19.80237-1.82593,5.55005-3.61548,11.11536-5.89612,16.51678-2.16443,5.12616-5.35156,9.59198-9.48407,13.07147-4.02802,3.39148-8.43811,6.53284-13.38074,8.57782-5.82941,2.41187-11.76208,4.53949-18.07434,5.47644-4.08594,.60657-8.15894,.34448-12.24017,.3786-.4455,.00372-.91699-.1499-1.33539-.32739-3.05231-1.29443-3.30341-2.30872-1.12848-4.76593,2.31525-2.61578,5.11957-4.70526,7.94446-6.6839,4.82166-3.37726,9.18414-7.22882,13.31091-11.40527,11.17688-11.31158,19.85999-24.62927,29.73706-36.98224,5.63696-7.04999,9.5545-15.28516,13.91876-23.18188,.81531-1.47528,1.54285-3.0155,2.97394-4.31366,1.63031,1.74359,1.13434,3.8623,.96875,5.60132ZM194.22129,82.55168c26.47961-12.56775,54.2627-17.17035,83.35181-13.41663,6.03693,.77899,11.9881,2.18274,17.81781,3.98358,9.49701,2.93378,18.95715,5.92706,28.27185,9.46942,9.23889,3.51361,18.36908,7.09131,26.92255,12.09222,10.9375,6.39471,20.75775,14.2655,29.72314,23.10864,12.2868,12.11926,23.33002,25.31348,31.30792,40.76349,4.5672,8.84479,7.90344,18.19781,10.96326,27.67688,3.6712,11.37311,6.2218,22.93359,6.76251,34.86249,.21277,4.69287,.72083,9.41876,.43414,14.09387-.40228,6.5603-1.37286,13.08582-2.1004,19.62616l-.68011,.00714c0-5.00183,.0965-10.00586-.01715-15.00513-.42267-18.59186-4.19543-36.57562-10.0863-54.14893-2.69189-8.03033-5.55225-16.00958-8.95612-23.76807-3.90472-8.90002-8.18488-17.61548-14.3075-25.26556-1.50641-1.8822-3.94336-1.90063-6.00952-2.44275-1.07196-.28125-1.77197-.72894-2.45673-1.41461-8.23993-8.25061-16.64288-16.30255-26.02991-23.28778-12.65521-9.41724-26.40906-16.71576-41.08868-22.45093-6.05096-2.36401-12.11401-4.71118-18.41821-6.0899-14.0094-3.06372-28.10284-5.69836-42.5979-4.59625-4.75824,.36169-9.55481,.19257-14.32257,.46417-5.16687,.29425-10.14716,1.83582-15.25977,2.55737-9.42188,1.32965-18.32935,4.59961-27.34265,7.45795-.73444,.23291-1.46381,.5412-2.21796,.63556-.70154,.08783-2.00189,.53717-.70428-1.08716,.60236-.75403-.45135-1.99548-.9436-2.9032m254.31744,173.41869c-.82001-13.02844,.53705-26.0368-.38354-39.01605-.92059-12.97949-3.62115-25.68359-6.65576-38.33923,7.12805,11.69586,9.83191,24.664,10.71918,37.98474,.88336,13.2619,.20197,26.49481-3.67987,39.37054Zm9.27289,7.53442c-.08301,.19714-.27209,.34967-.41168,.52301,1.15491-5.92224,2.35773-11.78918,3.4942-17.67712,1.3432-6.95911,.82709-13.93854,.9104-20.91711,.02576-2.1568-.06763-4.31793-.18408-6.47296-.68506-12.67261-2.95239-25.01727-6.98444-37.09418-4.48212-13.42517-11.63025-25.27789-20.1795-36.40631-7.42383-9.66345-14.80206-19.36188-22.20306-29.04285-.84088-1.09985-1.61456-2.26184-3.07965-3.1449,1.25647-.3725,1.77924,.40564,2.33606,.84003,15.30634,11.94153,28.38623,25.8949,37.77423,42.9884,8.35022,15.20374,13.54944,31.4754,16.03259,48.69348,2.88367,19.99536,.30658,39.1651-7.50507,57.71051Z"/></svg>