<?xml version="1.0" encoding="UTF-8"?><svg id="Layer_1" xmlns="http://www.w3.org/2000/svg" viewBox="0 0 265.06787 235"><defs><style>.cls-1{fill:#faf7ef;}.cls-2{fill:#a9cb38;}.cls-3{fill:#2e2f71;}</style></defs><g><path class="cls-3" d="M107.34878,155.84818c1.14328,.03503,2.48934-.12083,3.78067,.32903,1.21642,.42377,2.0044,1.2272,2.15747,2.55132,.15682,1.35667-.31018,2.45355-1.42875,3.24457-1.40941,.99668-3.04572,1.22927-4.70696,1.2835-1.883,.06149-3.76737,.04673-5.53905-.75673-2.12251-.96255-2.39592-3.36797-.50814-4.70227,.33549-.23713,.30025-.32872,.06519-.59793-.87408-1.00109-.86339-2.80591,.34902-3.65685,.35106-.24639,.30996-.43418,.05644-.73164-1.77101-2.07797-.91832-5.26485,1.65711-6.26547,2.08251-.80911,4.17402-.81221,6.26864-.07702,.25984,.0912,.41164,.07942,.61402-.09938,.37923-.33504,.77545-.65468,1.1889-.94632,.62363-.4399,1.38737-.40161,1.8016,.05709,.44219,.48966,.45339,1.20773-.1996,1.73183-.8735,.70107-1.00847,1.36156-.71725,2.46793,.49816,1.89251-.78158,3.75957-2.78808,4.46531-1.70556,.59989-3.44718,.61828-5.19533,.21271-.35941-.08339-.67168-.15563-.8122,.28196-.12642,.39367-.07544,.75602,.3138,.99036,.29835,.17963,.63491,.21777,.9766,.21789,.82699,.0003,1.65399,.00009,2.66592,.00009h0Zm-.82117-3.44808c.33453-.03728,.63384-.04415,.92072-.10737,1.02691-.22628,1.69687-.91767,1.77945-1.80718,.08242-.88775-.36676-1.74513-1.16624-2.06664-1.03894-.41781-2.10708-.44987-3.14223,.02132-1.2447,.56658-1.61861,2.16019-.73165,3.12303,.63509,.68942,1.49863,.80523,2.33995,.83685Zm-.22506,5.90805l-.00003-.01994c-.78194,0-1.56472,.02181-2.34555-.00777-.50964-.01931-.77902,.24691-.95926,.65897-.37118,.84861,.09384,1.61228,1.22048,1.83807,1.58802,.31824,3.18538,.311,4.76942-.09256,.29632-.07549,.54587-.23133,.7789-.40102,.61484-.44774,.53069-1.37533-.14608-1.73921-.30075-.1617-.63005-.23556-.9728-.23613-.7817-.0013-1.56339-.00041-2.34509-.00041h0Z"/><path class="cls-3" d="M182.39457,154.06992c-1.39878,.00005-2.79786,.01563-4.19618-.00981-.3999-.00728-.42342,.13222-.36992,.46386,.24991,1.54893,1.67863,2.76432,3.58497,2.972,1.44553,.15748,2.78207-.07059,3.82918-1.22065,.20752-.2279,.49405-.40513,.77576-.53952,.47331-.22581,.97815-.30542,1.4229,.06892,.45989,.38709,.53076,.9099,.34684,1.44465-.38062,1.10667-1.19666,1.86754-2.22538,2.30683-2.94639,1.25816-5.81249,1.14843-8.45328-.81065-1.27798-.94808-1.94353-2.30417-2.24839-3.84571-.43143-2.18151-.21373-4.28292,1.06683-6.13375,1.63911-2.36908,4.03406-3.09062,6.79096-2.7418,2.58032,.32648,4.35949,1.7157,5.20082,4.20653,.25733,.76182,.37334,1.56529,.28855,2.37324-.10787,1.02759-.58124,1.45246-1.61733,1.46247-1.39867,.01351-2.79755,.00336-4.19635,.00341h.00002Zm-.87531-2.46894c1.03749,0,2.07619-.03029,3.11192,.01241,.54155,.02232,.57668-.17283,.46538-.61643-.37236-1.48408-1.54297-2.4261-3.22629-2.5594-1.94079-.15369-3.43515,.75884-3.96951,2.42398-.21289,.66338-.16514,.73665,.50608,.73864,1.03747,.00307,2.07495,.00081,3.11242,.0008Z"/><path class="cls-3" d="M151.57794,160.34334c-4.22488,.01779-7.19207-2.9171-7.23204-7.1533-.03955-4.19253,2.92195-7.224,7.07655-7.24371,4.46078-.02116,7.45708,2.81729,7.47391,7.08021,.01735,4.39306-2.88839,7.29815-7.31841,7.3168Zm-.03144-2.82024c2.4684,.02367,4.17865-1.71178,4.24539-4.30797,.06583-2.55999-1.67555-4.43172-4.15563-4.46672-2.36274-.03335-4.13856,1.79809-4.18607,4.31719-.04801,2.54563,1.68772,4.43441,4.09631,4.4575Z"/><path class="cls-3" d="M122.18356,160.33748c-1.38338-.02913-3.17467-.407-4.5756-1.83595-.44865-.45762-.79438-.99314-.86767-1.65406-.05544-.50007,.09198-.94637,.53152-1.21053,.42014-.25249,.88816-.24941,1.33082-.01805,.39841,.20825,.71628,.52042,1.03258,.83514,1.16117,1.15534,2.57233,1.4806,4.14395,1.19384,.80795-.14741,1.26213-.62299,1.34994-1.31699,.08479-.67006-.27587-1.256-1.01721-1.58345-.85996-.37983-1.80048-.44713-2.70625-.64641-1.03931-.22867-2.063-.49784-2.90022-1.1902-1.8959-1.56786-1.75871-4.56187,.27953-5.95712,1.60381-1.09787,3.40879-1.15184,5.24618-.88224,1.25599,.18429,2.41686,.60861,3.32143,1.56186,.32845,.34614,.5525,.75265,.66999,1.20724,.12963,.50157,.05508,.96602-.3714,1.32373-.42367,.35536-.88019,.33471-1.35975,.13632-.54314-.2247-.9214-.67019-1.36516-1.02441-1.04361-.83303-2.22499-.97803-3.47031-.69857-.73214,.1643-1.12357,.66944-1.13756,1.26931-.01497,.64227,.36113,1.13849,1.07732,1.39024,1.22379,.43018,2.53094,.50262,3.77075,.86986,.7178,.21262,1.39426,.5025,1.94488,1.01558,2.01037,1.87333,1.36932,5.37234-1.19565,6.57755-1.0165,.47762-2.09578,.63629-3.7321,.6373Z"/><path class="cls-3" d="M82.91263,160.3035c-1.99021-.01557-3.87325-.35654-5.30533-1.92569-.33548-.3676-.58311-.78019-.70662-1.25718-.14759-.56998-.08137-1.10075,.44485-1.46296,.4698-.32338,1.18821-.25777,1.65711,.1346,.37307,.31218,.72968,.64394,1.0992,.96048,1.15341,.98803,2.49633,1.16958,3.92654,.86604,.73776-.15658,1.16936-.69664,1.20026-1.36557,.03299-.71414-.34039-1.34047-1.07105-1.54276-1.16089-.32141-2.35434-.52417-3.51845-.83535-1.42128-.37992-2.64541-1.06494-3.15509-2.56124-.74033-2.17343,.49618-4.41015,2.85462-5.053,2.15502-.5874,4.27547-.45317,6.2624,.67976,.72157,.41143,1.26809,.99038,1.50164,1.80236,.16067,.55859,.1189,1.11215-.41108,1.47369-.53219,.36305-1.08397,.27238-1.60139-.06701-.54787-.35937-.97247-.8732-1.55529-1.19773-.9786-.54492-1.9972-.63311-3.05512-.34424-.60004,.16384-1.01003,.54418-1.04283,1.20457-.0318,.6404,.27508,1.0786,.86049,1.34468,.86134,.3915,1.799,.44905,2.70521,.64289,.99475,.21278,2.0002,.41604,2.84258,1.02022,1.53869,1.10359,2.00611,3.19574,1.14455,4.93876-.87097,1.76208-2.4553,2.33314-4.25235,2.54032-.27151,.0313-.54973,.00436-.82486,.00436h0Z"/><path class="cls-3" d="M133.67725,152.96002c-.00017-1.14416-.0136-2.28857,.00762-3.43234,.00678-.36561-.11251-.47294-.4693-.46431-.54892,.01329-1.10318,.00773-1.64783-.05434-.7177-.0818-1.18842-.6449-1.19367-1.34118-.00483-.644,.50888-1.23644,1.20292-1.30877,.5456-.05686,1.09998-.06315,1.64879-.04393,.37283,.01306,.47188-.12159,.45832-.47431-.0244-.63471-.01412-1.27113-.00495-1.90664,.0127-.88151,.58504-1.48862,1.43835-1.54207,.7971-.04993,1.43526,.49464,1.55458,1.34384,.03517,.25032,.02347,.50688,.04217,.75993,.04319,.58433-.2594,1.3505,.1233,1.7057,.37487,.34793,1.13162,.08157,1.72025,.10293,.677,.02456,1.3587-.00653,2.03063,.06209,.57671,.0589,.95195,.42373,1.07874,1.01051,.1253,.57994-.0764,1.04929-.52385,1.40133-.3284,.25839-.74062,.292-1.14793,.29254-.91133,.00121-1.82299,.01424-2.73386-.00609-.38175-.00852-.56433,.05722-.55895,.5099,.02441,2.05496-.00303,4.1105,.01548,6.16559,.0132,1.46614,1.11391,2.10327,2.43208,1.42235,.33477-.17293,.63829-.40576,.95886-.60681,.53755-.33715,1.09819-.37827,1.57957,.05141,.47881,.4274,.52091,1.00158,.26457,1.5736-.39541,.88234-1.12181,1.40544-2.00037,1.73405-1.72885,.64666-3.40347,.66075-4.90071-.57058-.9542-.78475-1.34413-1.86864-1.36969-3.07913-.02326-1.10129-.00492-2.20347-.00511-3.30525h-.00002Z"/><path class="cls-3" d="M165.82587,147.64376c1.01923-1.26382,2.30467-1.81328,3.87177-1.68655,.9632,.07789,1.81556,.38554,2.44459,1.16593,.45035,.55872,.62928,1.19458,.50651,1.89746-.09566,.54751-.34149,.97242-.9357,1.16186-.6751,.21523-1.19776,.00608-1.67081-.44626-.96597-.92366-1.72106-1.11845-2.6683-.62959-.6744,.34805-1.04889,.9611-1.30072,1.65312-.24917,.68468-.3261,1.39805-.32613,2.12213-.00009,1.92868,.00254,3.85736-.00168,5.78602-.00133,.61274-.21179,1.12592-.79221,1.40994-.52985,.25928-1.06271,.25507-1.5655-.08036-.50755-.33859-.67423-.85016-.67472-1.42709-.00314-3.62421-.00541-7.24843,.0011-10.87262,.0017-.94214,.51996-1.56231,1.33325-1.64569,.94369-.09675,1.49058,.34628,1.70032,1.37534,.01051,.05152,.0356,.10007,.07823,.21636h-.00001Z"/><path class="cls-3" d="M95.62845,153.16375c.00024,1.84373,.01734,3.68768-.00626,5.53111-.01385,1.08242-.81865,1.71203-1.8607,1.51658-.65013-.12194-1.15439-.70508-1.1576-1.46852-.01577-3.75099-.01931-7.50215,.00096-11.2531,.00472-.87269,.67108-1.45636,1.51895-1.44871,.89138,.00804,1.48309,.57141,1.49666,1.528,.02647,1.86454,.00776,3.72972,.00799,5.59464h0Z"/><path class="cls-3" d="M96.01057,142.53973c-.0065,1.02523-.83458,1.83215-1.87213,1.82429-1.08714-.00824-1.90107-.80474-1.90831-1.86746-.00714-1.04754,.84486-1.88146,1.91201-1.87144,1.06027,.00995,1.87521,.84504,1.86843,1.91461Z"/></g><g><path class="cls-3" d="M6.97656,223.5678c0-3.04883,1.86328-5.35254,4.60693-6.63965-1.69385-1.35547-2.67578-3.28613-2.67578-5.58984,0-2.60742,1.15137-4.64062,3.75977-6.23242-2.26953-1.99902-3.52295-4.74219-3.52295-7.99414,0-7.24902,6.19922-11.85645,15.88721-11.85645,3.62451,0,6.7749,.64355,9.24756,1.8291l3.354-2.81152c.94824-.7793,2.1001-1.28711,3.18408-1.28711,1.79541,0,3.15039,1.42285,3.15039,2.98145,0,1.18555-.67773,2.37109-1.82959,3.4209l-2.64209,2.30371c.91455,1.55762,1.38916,3.38672,1.38916,5.41992,0,7.2832-6.13135,11.85547-15.85352,11.85547-2.81152,0-5.35205-.37207-7.48633-1.11719-.74512,.54199-1.11768,1.15137-1.11768,1.93066,0,1.52441,1.21924,2.50684,3.31982,2.50684h11.99121c7.75732,0,11.9917,3.25195,11.9917,9.14551,0,7.14746-6.94434,11.14551-19.30859,11.14551-11.28027,0-17.44531-3.08301-17.44531-9.01074Zm17.81787,2.74316c6.84277,0,10.39941-1.49023,10.39941-4.13281,0-2.13379-1.65967-3.21777-5.08105-3.21777h-11.55127c-.50781,0-.98193-.03418-1.45654-.06738-1.25342,.84668-1.89697,1.93066-1.89697,3.31934,0,2.77832,3.08252,4.09863,9.58643,4.09863Zm.33887-23.44043c4.60693,0,7.48633-2.23633,7.48633-5.82715,0-3.62402-2.87939-5.86035-7.48633-5.86035-4.6748,0-7.62158,2.27051-7.62158,5.86035,0,3.59082,2.94678,5.82715,7.62158,5.82715Z"/><path class="cls-3" d="M59.15088,170.79144c2.98145,0,5.11523,2.20117,5.11523,5.08105,0,2.91309-2.13379,5.11426-5.11523,5.11426-2.98047,0-5.18262-2.20117-5.18262-5.11426,0-2.87988,2.20215-5.08105,5.18262-5.08105Zm-4.2002,49.21875v-30.21582c0-2.54004,1.72754-4.30176,4.1665-4.30176,2.40527,0,4.09912,1.76172,4.09912,4.30176v30.21582c0,2.50684-1.69385,4.30273-4.09912,4.30273-2.43896,0-4.1665-1.7959-4.1665-4.30273Z"/><path class="cls-3" d="M80.8042,212.93108v-19.17285h-5.08154c-2.26953,0-3.89551-1.55859-3.89551-3.76074,0-2.16797,1.62598-3.72559,3.89551-3.72559h5.08154v-6.40234c0-2.50684,1.72754-4.26855,4.1665-4.26855,2.40479,0,4.09863,1.76172,4.09863,4.26855v6.40234h9.82373c2.23584,0,3.86182,1.55762,3.86182,3.72559,0,2.20215-1.62598,3.76074-3.86182,3.76074h-9.82373v18.02051c0,3.21875,1.65967,4.84473,4.20068,4.84473,1.69336,0,2.98096-.84668,4.30176-1.89746,.7793-.60938,1.72754-1.21973,2.98096-1.21973,1.89697,0,3.25195,1.38965,3.25195,3.35449,0,1.52441-.74512,3.01465-2.20166,4.33594-2.13428,1.96387-5.69092,3.35352-9.34961,3.35352-6.57129,0-11.44922-4.4375-11.44922-11.61914Z"/><path class="cls-3" d="M114.87988,219.90862c-1.65967-1.52344-2.81152-3.6582-2.81152-5.38574,0-1.96484,1.3208-3.35352,3.38721-3.35352,1.38916,0,2.37158,.57617,4.03125,2.30371,2.64209,2.8457,5.58936,4.03125,9.24756,4.03125,3.92969,0,6.30078-1.52441,6.30078-4.30273,0-2.4043-1.59229-3.99707-4.84424-4.60645l-5.82617-1.18555c-7.2832-1.45703-11.04297-5.2168-11.04297-10.77246,0-7.08008,5.65674-11.38184,14.53223-11.38184,4.77637,0,9.04443,1.18555,11.82227,3.31934,2.06592,1.55859,3.38721,3.69238,3.38721,5.72559,0,1.89648-1.42285,3.28516-3.28564,3.28516-1.45703,0-2.67627-.87988-4.33594-2.4043-2.16797-2.23633-4.87793-3.11719-7.75732-3.11719-3.55713,0-5.82666,1.49121-5.82666,3.96387,0,2.26953,1.72754,3.72559,5.14893,4.33594l6.13135,1.21875c7.01221,1.42285,10.46729,5.01367,10.46729,10.80664,0,7.62109-5.75879,12.16113-15.17578,12.16113-5.75879,0-10.80615-1.7959-13.5498-4.6416Z"/><path class="cls-3" d="M159.42236,170.79144c2.98047,0,5.11475,2.20117,5.11475,5.08105,0,2.91309-2.13428,5.11426-5.11475,5.11426-2.98145,0-5.18311-2.20117-5.18311-5.11426,0-2.87988,2.20166-5.08105,5.18311-5.08105Zm-4.20068,49.21875v-30.21582c0-2.54004,1.72754-4.30176,4.1665-4.30176,2.40527,0,4.09863,1.76172,4.09863,4.30176v30.21582c0,2.50684-1.69336,4.30273-4.09863,4.30273-2.43896,0-4.1665-1.7959-4.1665-4.30273Z"/><path class="cls-3" d="M174.8335,223.5678c0-3.04883,1.86328-5.35254,4.60693-6.63965-1.69385-1.35547-2.67627-3.28613-2.67627-5.58984,0-2.60742,1.15186-4.64062,3.76025-6.23242-2.26953-1.99902-3.52295-4.74219-3.52295-7.99414,0-7.24902,6.19922-11.85645,15.88721-11.85645,3.62451,0,6.7749,.64355,9.24756,1.8291l3.35352-2.81152c.94873-.7793,2.10059-1.28711,3.18457-1.28711,1.79541,0,3.15039,1.42285,3.15039,2.98145,0,1.18555-.67773,2.37109-1.82959,3.4209l-2.64209,2.30371c.91455,1.55762,1.38867,3.38672,1.38867,5.41992,0,7.2832-6.13086,11.85547-15.85303,11.85547-2.81152,0-5.35205-.37207-7.48633-1.11719-.74512,.54199-1.11768,1.15137-1.11768,1.93066,0,1.52441,1.21924,2.50684,3.31934,2.50684h11.9917c7.75732,0,11.9917,3.25195,11.9917,9.14551,0,7.14746-6.94434,11.14551-19.30859,11.14551-11.28027,0-17.44531-3.08301-17.44531-9.01074Zm17.81787,2.74316c6.84277,0,10.3999-1.49023,10.3999-4.13281,0-2.13379-1.66016-3.21777-5.08154-3.21777h-11.55127c-.50781,0-.98242-.03418-1.45654-.06738-1.25342,.84668-1.89697,1.93066-1.89697,3.31934,0,2.77832,3.08252,4.09863,9.58643,4.09863Zm.33887-23.44043c4.60693,0,7.48633-2.23633,7.48633-5.82715,0-3.62402-2.87939-5.86035-7.48633-5.86035-4.6748,0-7.62158,2.27051-7.62158,5.86035,0,3.59082,2.94678,5.82715,7.62158,5.82715Z"/><path class="cls-3" d="M222.99756,220.01019v-30.21582c0-2.54004,1.72754-4.30176,4.1665-4.30176,2.40527,0,4.09863,1.76172,4.09863,4.30176v.74512c2.30371-3.4209,6.50391-5.28418,11.61914-5.28418,9.18018,0,15.20947,5.72461,15.20947,15.9209v18.83398c0,2.47363-1.72754,4.30273-4.13232,4.30273-2.43896,0-4.13281-1.86328-4.13281-4.30273v-17.37695c0-6.60547-3.35352-9.79004-8.77344-9.79004-6.06348,0-9.79004,4.16699-9.79004,10.36621v16.80078c0,2.50684-1.69336,4.30273-4.09863,4.30273-2.43896,0-4.1665-1.7959-4.1665-4.30273Z"/></g><g><path class="cls-1" d="M83.09193,74.66402c.23499-1.96826,.36011-3.94849,.40021-5.93164,.04211-2.08374-.65308-4.00537-1.30627-5.9397-1.11499-3.30103-2.44476-6.53149-3.33386-9.90649-.28468-1.08057-.51862-2.17017-.68524-3.27002,.08337,.55518,.17761,1.10864,.29352,1.65869,.11548,.54785,.24597,1.09326,.38916,1.63672,.88654,3.36523,2.21265,6.58691,3.32446,9.87842,.56982,1.68799,1.17188,3.36621,1.28534,5.15186,.01617,.25488,.02246,.51221,.01721,.77197-.0401,1.97705-.16473,3.95215-.39899,5.91504-.13177,1.10303-.20886,2.20215-.23407,3.29785-.02515,1.09521,.00153,2.18652,.07745,3.2749,.15186,2.17676,.50043,4.34033,1.02362,6.49463l.00397,.01318c-1.03851-4.30103-1.38263-8.63965-.85651-13.04541Z"/><path class="cls-1" d="M77.88831,46.27242c.00427,.5249,.03363,1.04614,.07404,1.56592-.04193-.52759-.0683-1.05737-.07312-1.58984,.00006,.00806-.00098,.01587-.00092,.02393Z"/><path class="cls-1" d="M92.49915,98.39425c.06165-.07227,.1355-.13403,.20081-.20386,.31671-.33789,.40204-.62378,.26959-.85791,.01617,.05664,.02625,.11475,.0191,.17676-.01324,.11523-.06641,.23975-.15985,.37305-.04669,.06689-.10345,.13574-.17023,.20703-.06488,.06934-.13892,.13135-.20001,.20361-1.26678,1.49121-2.14124,3.11377-2.37494,4.96436-.07788,.6167-.08459,1.25879-.01086,1.92969,.03461,.31421,.09509,.61597,.16956,.90991-.05939-.25562-.10565-.51831-.13544-.78906-.29584-2.69092,.69861-4.91943,2.39227-6.91357Z"/><path class="cls-1" d="M104.34303,111.8713c-.00745-.01465-.01843-.02612-.026-.04053,.09314,.18848,.18304,.37842,.27332,.5686,.10596,.22314,.21448,.44531,.32098,.66797,.41962,.87598,.81519,1.76514,1.2608,2.62646-.41492-.81665-.78888-1.65625-1.18494-2.48389-.21393-.44653-.42053-.89697-.64417-1.33862Z"/><path class="cls-1" d="M138.13484,105.9089c-.92627-.08594-1.85333-.11206-2.784-.13306-1.40619-.03223-2.80798-.24683-4.21448-.28564-2.74707-.07617-5.46112-.51245-8.18365-.79639-2.14691-.22412-4.32715-.67969-6.25031-1.83423-.12946-.07788-.27551-.1311-.41846-.18262-.37402-.13477-.58868-.00806-.6311,.39551-.05121,.48755,.02734,.95972,.25488,1.38599,.32281,.604,.63245,1.22681,1.04272,1.77002,.94116,1.24609,2.13226,2.11353,3.78162,2.08838,1.14105-.01709,2.2821-.06543,3.42169-.12769,.51154-.02808,1.02454-.073,1.52557-.21362,1.35864-.37988,2.74664-.6167,4.13995-.82568,.25128-.03784,.49182-.00049,.7381,.0271,1.24744,.13965,2.49585,.271,3.61761,.3916,1.55365-.03882,2.93573-.23242,4.14844-1.06738,.1532-.10522,.3996-.19263,.349-.40381-.06293-.26367-.34064-.17041-.5376-.18848Z"/><path class="cls-1" d="M175.42323,45.62667c-.7558-2.34155-1.58002-4.6521-2.70819-6.83667-1.9707-3.81665-4.69855-7.07568-7.73358-10.06934-2.21466-2.18457-4.64056-4.12891-7.34235-5.7085-2.11279-1.23535-4.3681-2.1189-6.65033-2.98682-2.30096-.875-4.63776-1.6145-6.98364-2.33911-1.44019-.44482-2.91016-.79175-4.40149-.98413-7.18561-.92725-14.04852,.20972-20.5896,3.31421l.49799,.22754c.1214,.22461,.3819,.53101,.23291,.71729-.32043,.40137,.00092,.29028,.17413,.2688,.18628-.02344,.36639-.09961,.54785-.15723,2.2265-.70605,4.42676-1.51392,6.75409-1.84229,1.26306-.17822,2.49323-.55884,3.76965-.63184,1.17761-.06689,2.36255-.02515,3.53784-.11426,3.58057-.27246,7.06195,.37842,10.52252,1.13501,1.55737,.34058,3.05499,.92041,4.54987,1.50464,3.6261,1.4165,7.02362,3.21924,10.14972,5.54565,2.31866,1.72534,4.39441,3.71436,6.42981,5.75244,.16913,.16943,.3421,.28003,.60693,.34937,.51038,.13403,1.11237,.13867,1.48431,.60352,1.51245,1.88989,2.56976,4.04248,3.53436,6.24097,.84076,1.91675,1.54736,3.88745,2.21228,5.87134,1.4552,4.34106,2.38715,8.78345,2.49152,13.37598,.02808,1.23486,.00439,2.47095,.00439,3.70654l.16797-.00195c.17969-1.61523,.41937-3.22729,.51886-4.8479,.0708-1.15479-.05475-2.32227-.10742-3.48145-.13342-2.94653-.76349-5.80249-1.67041-8.61182Z"/><path class="cls-1" d="M106.70283,97.31222c-1.06305-.53638-2.02057-1.20044-2.87323-2.04077-.75488-.74414-1.42065-.5332-1.79047,.47168-.21082,.57324-.04883,1.12524,.00793,1.68994,.15771,1.56885,1.02704,2.28223,2.57812,2.02295,1.44537-.2417,2.86664-.62109,4.32825-.78076,.19958-.02197,.41895-.05396,.64093-.25684-.46149-.32471-.91016-.54858-1.4267-.64429-.50537-.09351-.99677-.22559-1.46484-.46191Z"/><path class="cls-1" d="M135.69587,6.49288c.10828,.02759,.22681,.021,.34064,.02026,.66901-.00586,1.33099,.07593,1.99005,.17432,4.20477,.62695,8.35254,1.54199,12.45636,2.63013,2.85602,.75708,5.36298,2.26685,7.65631,4.10547,1.59821,1.28149,2.83496,2.92212,4.19958,4.43433,.1814,.20117,.33594,.54517,.68256,.36694,.33466-.17236,.23724-.52441,.20386-.82373-.01025-.09277-.0553-.1814-.0863-.27173-.74133-2.15625-1.79602-4.07568-3.59351-5.58984-2.00592-1.68994-4.18048-3.08398-6.61273-4.00439-3.88757-1.47144-7.97559-1.93799-12.104-2.09937-.40033,0-.80389-.03198-1.20074,.00562-1.32336,.12573-2.67352,.05127-3.9549,.49902-.12756,.04468-.35046,.0376-.33771,.23438,.01172,.18311,.19049,.27563,.36053,.3186Z"/><path class="cls-1" d="M98.50221,87.77975c-.71802-.9126-1.3736-1.88818-2.18158-2.71362-1.73132-1.76929-2.98273-3.84888-4.11938-6.01245-.3172-.60425-.73071-1.1626-.91425-1.83569-.74213-2.7207-1.45135-5.45679-1.62799-8.27808-.13873-2.21729-.6889-4.36035-1.01697-6.54028-.31885-2.1189-.711-4.22095-.85187-6.36621-.10889-1.6604-.08136-3.30981,.1015-4.95874,.17822-1.60815,.39026-3.21289,.82825-4.77612,.80011-2.85522,2.02161-5.53662,3.35577-8.17505,1.33191-2.63379,3.01782-5.02222,4.90118-7.28076,1.17047-1.40332,2.42157-2.73901,3.52777-4.19702,.35938-.47412,.65668-.97754,.93207-1.6582-.68243,.21167-1.24463,.37573-1.68713,.84424-2.19867,2.32812-4.35431,4.70093-6.6319,6.94971-2.65155,2.61841-4.29187,5.78906-5.44696,9.26294-1.06171,3.19287-1.52557,6.48682-1.50757,9.84058,.0155,2.89917,.45142,5.76636,.8194,8.6355,.23956,1.86768,.51434,3.7395,.67792,5.60669,.17706,2.01953,.43463,4.00879,.86688,5.98218,.7948,3.62793,2.07782,7.08301,3.80066,10.36572,.72546,1.38257,1.7124,2.58862,2.80884,3.72021,.68158,.70361,1.42523,1.31372,2.17468,1.92578,.27478,.22437,.62158,.36426,.94421,.52588,.13977,.06982,.30292,.06641,.43097-.04419,.14453-.125,.08618-.28149,.02722-.42212-.05829-.13892-.11969-.28369-.21173-.40088Z"/><path class="cls-1" d="M182.51765,38.65914c-2.31897-4.22266-5.54999-7.66895-9.33087-10.61914-.13757-.10718-.26678-.29932-.57709-.20728,.36182,.21802,.55292,.50513,.76074,.77661,1.82819,2.3916,3.65063,4.78711,5.48456,7.17432,2.11188,2.74902,3.87762,5.67676,4.98486,8.99316,.99585,2.9834,1.55603,6.03247,1.72516,9.16284,.02869,.53247,.05182,1.06616,.04553,1.59912-.02063,1.72388,.10693,3.448-.22491,5.16699-.28064,1.45435-.57788,2.90356-.86316,4.3667,.03448-.04297,.08118-.08081,.10168-.12939,1.92975-4.58105,2.56622-9.31616,1.85394-14.25562-.6134-4.25342-1.89771-8.27271-3.96045-12.02832Z"/><path class="cls-1" d="M180.59461,43.97359c.74982,3.12622,1.41675,6.2644,1.6441,9.4707,.22742,3.20605-.10767,6.41943,.09485,9.63745,.95898-3.18042,1.12726-6.44897,.909-9.72534-.21924-3.29028-.88702-6.49365-2.64795-9.38281Z"/><path class="cls-1" d="M138.86091,100.19332c-3.45447,.19116-6.88989-.05835-10.30237-.66528-6.72742-1.19678-12.77258-3.88086-18.02332-8.26733-5.19714-4.3418-9.01892-9.73364-11.83246-15.8584-1.40295-3.05396-2.3476-6.26807-3.21765-9.52637,.07111,1.0415-.07654,2.08228-.01965,3.10107,.05853,1.04712,.44659,2.07544,.68744,3.11279,.28448,1.22461,.74207,2.38818,1.18909,3.56055,.98035,2.57031,2.17511,4.99854,3.87103,7.19849,1.47614,1.91479,2.92987,3.8313,4.60632,5.58521,1.97491,2.06616,4.17889,3.84375,6.50195,5.47949,.79364,.55884,1.4726,1.28442,2.3573,1.70361,1.44073,.68311,2.87341,1.39526,4.35815,1.96997,1.83887,.71167,3.68915,1.38721,5.62677,1.84082,1.68567,.39478,3.39801,.64282,5.07605,1.06104,.20087,.05005,.41644,.07153,.62335,.06299,1.10913-.04663,2.20526,.13159,3.30872,.17529,1.5929,.06274,3.1748,.29956,4.78278-.01392,.88116-.17163,1.8042-.21484,2.72339-.20312,.88983,.01099,1.79688-.05688,2.66998-.22656,3.18304-.61865,6.19263-1.73242,9.01935-3.32837,.18793-.1062,.39874-.19434,.56866-.46973-.80011,.05054-1.41687,.39038-2.04169,.67896-3.97876,1.83789-8.17767,2.78833-12.5332,3.02881Z"/><path class="cls-1" d="M176.16596,85.02389c-1.078,1.95068-2.04565,3.98511-3.43805,5.72656-2.43988,3.05151-4.58484,6.34131-7.34583,9.1355-1.01935,1.03149-2.09686,1.98291-3.28796,2.81714-.69781,.48877-1.3905,1.00513-1.96252,1.65088-.53729,.60742-.47522,.85791,.27893,1.17749,.10327,.0437,.21979,.08179,.32983,.08081,1.00818-.0083,2.01428,.0564,3.0235-.09351,1.5592-.23145,3.02466-.75708,4.46484-1.35278,1.22089-.50513,2.31018-1.28101,3.30518-2.1189,1.02075-.85962,1.80811-1.96265,2.34283-3.22876,.56335-1.33423,1.00537-2.70898,1.45636-4.08008,.5238-1.59229,.75604-3.25635,1.10535-4.89185,.31812-1.4895,.5575-2.99194,.70148-4.50439,.04095-.42969,.16357-.95288-.23926-1.38354-.35339,.32056-.5332,.70117-.73468,1.06543Z"/><path class="cls-2" d="M185.8094,45.14522c-1.22241-4.5835-3.5993-8.54663-6.71637-12.08179-2.4129-2.73682-5.10876-5.18408-7.8208-7.61816-2.5387-2.27856-4.57159-4.93945-5.87726-8.13403-.67694-1.65649-1.48566-3.25684-2.52881-4.72827-2.05353-2.89648-4.9126-4.74219-8.06195-6.20483-5.19702-2.41357-10.72125-3.2605-16.39093-3.37305-3.2041-.0564-6.36005,.36011-9.47327,1.0481-4.58215,1.01294-8.78796,2.98242-12.86987,5.24292-2.73553,1.51489-5.12677,3.49878-7.52728,5.47412-3.83075,3.15259-7.58459,6.39966-10.89465,10.09912-2.48676,2.7793-5.31024,5.05225-8.57452,6.84106-2.92621,1.60327-5.49115,3.69385-7.80585,6.1084-2.26746,2.36475-3.40643,5.14307-3.37952,8.41016l.00092,.01953c.00482,.53247,.03119,1.06226,.07312,1.58984,.0058,.073,.01349,.146,.02002,.21899,.04425,.49878,.10101,.99561,.17456,1.48999l.00983,.06885c.16663,1.09985,.40057,2.18945,.68524,3.27002,.8891,3.375,2.21887,6.60547,3.33386,9.90649,.6532,1.93433,1.34839,3.85596,1.30627,5.9397-.0401,1.98315-.16522,3.96338-.40021,5.93164-.52612,4.40576-.18201,8.74438,.85651,13.04541,.00476,.01978,.00836,.03955,.01312,.05908,.18994,.78174,.44739,1.5083,.74194,2.20508,.026,.06128,.0498,.12476,.0766,.18555,1.2074,2.73779,3.2298,4.81323,6.10333,6.20264,.47736,.23096,.99475,.37988,1.49591,.56055,.3056,.11035,.49854,.24829,.59021,.41016,.13245,.23413,.04712,.52002-.26959,.85791-.06531,.06982-.13916,.13159-.20081,.20386-1.69366,1.99414-2.68811,4.22266-2.39227,6.91357,.02979,.27075,.07605,.53345,.13544,.78906,.9162,3.94214,5.22864,6.03394,8.9682,4.11597,1.86041-.9541,4.14362-.22632,5.10651,1.61792,.00757,.0144,.01855,.02588,.026,.04053,.22363,.44165,.43024,.89209,.64417,1.33862,.39606,.82764,.77002,1.66724,1.18494,2.48389,.04462,.08765,.08868,.17578,.1344,.2627,.09918,.18921,.21344,.36987,.31921,.55518,.37,.64844,.77075,1.27979,1.27094,1.85645,1.62598,1.87476,3.68158,2.55908,6.10004,2.26123,1.65845-.20435,3.14307-.89746,4.5744-1.71118,2.78168-1.58179,5.20245-3.66162,7.69775-5.6355,.83551-.66064,1.73236-.89258,2.77167-.77661,1.69781,.18945,3.17981,.89551,4.56262,1.84521,2.28003,1.56567,4.7298,2.77148,7.38928,3.54272,4.86163,1.41064,9.77039,1.82544,14.73535,.61499,4.87994-1.18994,9.27557-3.40552,13.34021-6.33569,2.52966-1.82373,4.61011-4.02051,6.16852-6.73193,1.52905-2.66064,2.40875-5.54883,3.10468-8.50342,1.01746-4.31934,1.38776-8.72852,1.71362-13.13867,.27496-3.72217,.89099-7.37988,1.98114-10.94556,.86945-2.84399,2.11981-5.54834,3.23157-8.30249,.95624-2.36914,1.53479-4.81348,1.78503-7.35742,.40411-4.10767-.1911-8.10425-1.24316-12.04858ZM135.67304,5.9399c1.28137-.44775,2.63153-.37329,3.9549-.49902,.39685-.0376,.80042-.00562,1.20074-.00562,4.12842,.16138,8.21643,.62793,12.104,2.09937,2.43225,.92041,4.60681,2.31445,6.61273,4.00439,1.79749,1.51416,2.85217,3.43359,3.59351,5.58984,.03101,.09033,.07605,.17896,.0863,.27173,.03339,.29932,.1308,.65137-.20386,.82373-.34662,.17822-.50116-.16577-.68256-.36694-1.36462-1.51221-2.60138-3.15283-4.19958-4.43433-2.29333-1.83862-4.80029-3.34839-7.65631-4.10547-4.10382-1.08813-8.25159-2.00317-12.45636-2.63013-.65906-.09839-1.32104-.18018-1.99005-.17432-.11383,.00073-.23236,.00732-.34064-.02026-.17004-.04297-.34882-.1355-.36053-.3186-.01276-.19678,.21014-.1897,.33771-.23438Zm-11.61469,63.60547c.63702-.23608,1.32257-.37158,2.04071-.37158,1.10205,0,2.13068,.30957,3.01398,.83813l20.77051-20.76807c-.43341-.82031-.68158-1.75317-.68158-2.74365,0-3.25073,2.64459-5.89526,5.89545-5.89526s5.89539,2.64453,5.89539,5.89526c0,3.25098-2.64459,5.89551-5.89539,5.89551-.8606,0-1.67627-.1897-2.41406-.52271l-21.08667,21.08545c.25287,.65649,.39728,1.36621,.39728,2.11084,0,3.25073-2.64459,5.89526-5.8949,5.89526-3.25079,0-5.89545-2.64453-5.89545-5.89526,0-1.13062,.3255-2.18408,.87946-3.08228l-5.31934-7.5022c-.52612,.15454-1.08099,.24121-1.65637,.24121-3.25085,0-5.89545-2.64453-5.89545-5.89551,0-3.25073,2.64459-5.89551,5.89545-5.89551s5.89539,2.64478,5.89539,5.89551c0,1.28027-.41461,2.46289-1.11035,3.43042l5.16595,7.28442Zm-25.37164,19.05737c-.12805,.1106-.2912,.11401-.43097,.04419-.32263-.16162-.66943-.30151-.94421-.52588-.74945-.61206-1.4931-1.22217-2.17468-1.92578-1.09644-1.13159-2.08337-2.33765-2.80884-3.72021-1.72284-3.28271-3.00586-6.73779-3.80066-10.36572-.43225-1.97339-.68982-3.96265-.86688-5.98218-.16357-1.86719-.43835-3.73901-.67792-5.60669-.36798-2.86914-.80389-5.73633-.8194-8.6355-.01801-3.35376,.44586-6.64771,1.50757-9.84058,1.15509-3.47388,2.79541-6.64453,5.44696-9.26294,2.27759-2.24878,4.43323-4.62158,6.6319-6.94971,.4425-.46851,1.0047-.63257,1.68713-.84424-.27539,.68066-.57269,1.18408-.93207,1.6582-1.1062,1.45801-2.3573,2.7937-3.52777,4.19702-1.88336,2.25854-3.56927,4.64697-4.90118,7.28076-1.33417,2.63843-2.55566,5.31982-3.35577,8.17505-.43799,1.56323-.65002,3.16797-.82825,4.77612-.18286,1.64893-.21039,3.29834-.1015,4.95874,.14087,2.14526,.53302,4.24731,.85187,6.36621,.32806,2.17993,.87823,4.323,1.01697,6.54028,.17664,2.82129,.88586,5.55737,1.62799,8.27808,.18353,.6731,.59705,1.23145,.91425,1.83569,1.13666,2.16357,2.38806,4.24316,4.11938,6.01245,.80798,.82544,1.46356,1.80103,2.18158,2.71362,.09204,.11719,.15344,.26196,.21173,.40088,.05896,.14062,.11731,.29712-.02722,.42212Zm10.26672,10.07251c-1.46161,.15967-2.88287,.53906-4.32825,.78076-1.55109,.25928-2.42041-.4541-2.57812-2.02295-.05676-.5647-.21875-1.1167-.00793-1.68994,.36981-1.00488,1.03558-1.21582,1.79047-.47168,.85266,.84033,1.81018,1.50439,2.87323,2.04077,.46808,.23633,.95947,.36841,1.46484,.46191,.51654,.0957,.96521,.31958,1.4267,.64429-.22198,.20288-.44135,.23486-.64093,.25684Zm29.37,7.82593c-1.21271,.83496-2.59479,1.02856-4.14844,1.06738-1.12177-.12061-2.37018-.25195-3.61761-.3916-.24628-.02759-.48682-.06494-.7381-.0271-1.39331,.20898-2.78131,.4458-4.13995,.82568-.50104,.14062-1.01404,.18555-1.52557,.21362-1.13959,.06226-2.28064,.1106-3.42169,.12769-1.64935,.02515-2.84045-.84229-3.78162-2.08838-.41028-.54321-.71991-1.16602-1.04272-1.77002-.22754-.42627-.30609-.89844-.25488-1.38599,.04242-.40356,.25708-.53027,.6311-.39551,.14294,.05151,.289,.10474,.41846,.18262,1.92316,1.15454,4.10339,1.61011,6.25031,1.83423,2.72253,.28394,5.43658,.72021,8.18365,.79639,1.40649,.03882,2.80829,.25342,4.21448,.28564,.93066,.021,1.85773,.04712,2.784,.13306,.19696,.01807,.47467-.0752,.5376,.18848,.0506,.21118-.1958,.29858-.349,.40381Zm14.5437-9.5459c-2.82672,1.59595-5.8363,2.70972-9.01935,3.32837-.87311,.16968-1.78015,.23755-2.66998,.22656-.91919-.01172-1.84222,.03149-2.72339,.20312-1.60797,.31348-3.18988,.07666-4.78278,.01392-1.10345-.0437-2.19958-.22192-3.30872-.17529-.20691,.00854-.42249-.01294-.62335-.06299-1.67804-.41821-3.39038-.66626-5.07605-1.06104-1.93762-.45361-3.7879-1.12915-5.62677-1.84082-1.48474-.57471-2.91742-1.28687-4.35815-1.96997-.8847-.41919-1.56366-1.14478-2.3573-1.70361-2.32306-1.63574-4.52704-3.41333-6.50195-5.47949-1.67645-1.75391-3.13019-3.67041-4.60632-5.58521-1.69592-2.19995-2.89069-4.62817-3.87103-7.19849-.44702-1.17236-.9046-2.33594-1.18909-3.56055-.24084-1.03735-.62891-2.06567-.68744-3.11279-.05688-1.0188,.09076-2.05957,.01965-3.10107,.87006,3.2583,1.8147,6.47241,3.21765,9.52637,2.81354,6.12476,6.63531,11.5166,11.83246,15.8584,5.25073,4.38647,11.2959,7.07056,18.02332,8.26733,3.41248,.60693,6.8479,.85645,10.30237,.66528,4.35553-.24048,8.55444-1.19092,12.5332-3.02881,.62482-.28857,1.24158-.62842,2.04169-.67896-.16992,.27539-.38074,.36353-.56866,.46973Zm24.27277-11.61328c-.14398,1.51245-.38336,3.01489-.70148,4.50439-.3493,1.6355-.58154,3.29956-1.10535,4.89185-.45099,1.37109-.89301,2.74585-1.45636,4.08008-.53473,1.26611-1.32208,2.36914-2.34283,3.22876-.995,.83789-2.08429,1.61377-3.30518,2.1189-1.44019,.5957-2.90564,1.12134-4.46484,1.35278-1.00922,.1499-2.01532,.08521-3.0235,.09351-.11005,.00098-.22656-.03711-.32983-.08081-.75415-.31958-.81622-.57007-.27893-1.17749,.57202-.64575,1.26471-1.16211,1.96252-1.65088,1.1911-.83423,2.26862-1.78564,3.28796-2.81714,2.76099-2.79419,4.90594-6.08398,7.34583-9.1355,1.3924-1.74146,2.36005-3.77588,3.43805-5.72656,.20148-.36426,.38129-.74487,.73468-1.06543,.40283,.43066,.28021,.95386,.23926,1.38354Zm.06116-27.62207c-.09949,1.62061-.33917,3.23267-.51886,4.8479l-.16797,.00195c0-1.2356,.02368-2.47168-.00439-3.70654-.10437-4.59253-1.03632-9.03491-2.49152-13.37598-.66492-1.98389-1.37152-3.95459-2.21228-5.87134-.9646-2.19849-2.02191-4.35107-3.53436-6.24097-.37195-.46484-.97394-.46948-1.48431-.60352-.26483-.06934-.43781-.17993-.60693-.34937-2.0354-2.03809-4.11115-4.0271-6.42981-5.75244-3.1261-2.32642-6.52362-4.12915-10.14972-5.54565-1.49487-.58423-2.99249-1.16406-4.54987-1.50464-3.46057-.75659-6.94196-1.40747-10.52252-1.13501-1.17529,.08911-2.36023,.04736-3.53784,.11426-1.27643,.073-2.50659,.45361-3.76965,.63184-2.32733,.32837-4.52759,1.13623-6.75409,1.84229-.18146,.05762-.36157,.13379-.54785,.15723-.17322,.02148-.49457,.13257-.17413-.2688,.14899-.18628-.11151-.49268-.23291-.71729l-.49799-.22754c6.54108-3.10449,13.40399-4.24146,20.5896-3.31421,1.49133,.19238,2.9613,.53931,4.40149,.98413,2.34589,.72461,4.68268,1.46411,6.98364,2.33911,2.28223,.86792,4.53754,1.75146,6.65033,2.98682,2.70178,1.57959,5.12769,3.52393,7.34235,5.7085,3.03503,2.99365,5.76288,6.25269,7.73358,10.06934,1.12817,2.18457,1.95239,4.49512,2.70819,6.83667,.90692,2.80933,1.53699,5.66528,1.67041,8.61182,.05267,1.15918,.17822,2.32666,.10742,3.48145Zm5.13251,5.36182c-.20251-3.21802,.13257-6.4314-.09485-9.63745-.22736-3.2063-.89429-6.34448-1.6441-9.4707,1.76093,2.88916,2.42871,6.09253,2.64795,9.38281,.21826,3.27637,.04999,6.54492-.909,9.72534Zm2.29059,1.86133c-.02051,.04858-.0672,.08643-.10168,.12939,.28528-1.46313,.58252-2.91235,.86316-4.3667,.33185-1.71899,.20428-3.44312,.22491-5.16699,.00629-.53296-.01685-1.06665-.04553-1.59912-.16913-3.13037-.72931-6.17944-1.72516-9.16284-1.10724-3.31641-2.87299-6.24414-4.98486-8.99316-1.83392-2.38721-3.65637-4.78271-5.48456-7.17432-.20782-.27148-.39893-.55859-.76074-.77661,.3103-.09204,.43951,.1001,.57709,.20728,3.78088,2.9502,7.0119,6.39648,9.33087,10.61914,2.06274,3.75562,3.34705,7.7749,3.96045,12.02832,.71228,4.93945,.07581,9.67456-1.85394,14.25562Z"/><path class="cls-1" d="M114.10737,52.93502c-3.25085,0-5.89545,2.64478-5.89545,5.89551,0,3.25098,2.64459,5.89551,5.89545,5.89551,.57538,0,1.13025-.08667,1.65637-.24121l5.31934,7.5022c-.55396,.89819-.87946,1.95166-.87946,3.08228,0,3.25073,2.64465,5.89526,5.89545,5.89526,3.25031,0,5.8949-2.64453,5.8949-5.89526,0-.74463-.14441-1.45435-.39728-2.11084l21.08667-21.08545c.73779,.33301,1.55347,.52271,2.41406,.52271,3.25079,0,5.89539-2.64453,5.89539-5.89551,0-3.25073-2.64459-5.89526-5.89539-5.89526s-5.89545,2.64453-5.89545,5.89526c0,.99048,.24817,1.92334,.68158,2.74365l-20.77051,20.76807c-.8833-.52856-1.91193-.83813-3.01398-.83813-.71814,0-1.40369,.1355-2.04071,.37158l-5.16595-7.28442c.69574-.96753,1.11035-2.15015,1.11035-3.43042,0-3.25073-2.64459-5.89551-5.89539-5.89551Z"/></g></svg>