<?xml version="1.0" encoding="UTF-8"?>
<svg id="Layer_1" data-name="Layer 1" xmlns="http://www.w3.org/2000/svg" viewBox="0 0 315 275">
  <defs>
    <style>
      .cls-1 {
        fill: #faf7ef;
      }

      .cls-2 {
        fill: #416ab2;
      }

      .cls-3 {
        fill: #2e2f71;
      }
    </style>
  </defs>
  <g>
    <g>
      <path class="cls-3" d="m128.2171422,144.4903965c-2.5785715,1.001536-3.4324509,4.1921824-1.6592174,6.2729209.2537706.2980224.2950874.4858669-.0564436.7324127-1.2137641.8520733-1.2246013,2.659173-.349499,3.6611606.2352571.2695748.2707037.3612393-.0652489.5987542-1.889959,1.336134-1.6163202,3.7442456.5086701,4.7078515,1.7739109.8046606,3.660709.8191102,5.5459267.7576995,1.6630555-.0541859,3.3012759-.2871853,4.7125928-1.2851089,1.1198419-.7920172,1.5874211-1.8901848,1.430282-3.2484446-.1530752-1.3257483-.9419315-2.1299574-2.1597596-2.5544136-1.293011-.4501945-2.6406595-.2939585-3.7853366-.3291793h-2.6691071c-.3422743-.0004515-.6791299-.0383817-.9778297-.2185498-.3896869-.234354-.440712-.596948-.3140524-.9916019.1404318-.4380027.4533554-.3657548.8130143-.2817667,1.7504303.4059427,3.4938616.3874292,5.2016205-.2131312,2.0089422-.7066744,3.2902129-2.5760879,2.7914769-4.4707882-.2917008-1.1076501-.1564618-1.768718.7179632-2.470877.6538432-.5247001.6425545-1.2435664.2000363-1.7339488-.4149737-.4592255-1.1794464-.4976072-1.8039389-.0573467-.4138448.2921523-.8105307.6123007-1.1902836.9478017-.2027456.1788135-.3544661.1905537-.6145584.0993408-2.0974458-.7360251-4.1912793-.7328643-6.2763075.0772149Zm.7258653,11.7488575c.7820831.0293507,1.5655209.0076763,2.3485072.0076763v.0198682h0c.7825347,0,1.5652952-.0009031,2.3480556.0004515.3431774.0004515.6728082.0745056.9739915.2366118.6773237.3644002.7617634,1.2927852.1463019,1.7411735-.2334509.1697825-.4831576.3260185-.7800512.4014272-1.5858406.4041365-3.1852278.4113613-4.7751323.0925676-1.1279698-.2257746-1.593517-.9902473-1.221892-1.8400628.1803939-.4127159.4499687-.6791299.9602193-.6597133Zm4.1095489-9.8735739c.8005967.3219545,1.2503396,1.1803495,1.1677061,2.0694498-.0826335.8904549-.7534098,1.5826798-1.7813614,1.8089059-.287411.0632169-.5870139.0704417-.9220634.1074687-.8421392-.0316084-1.7068558-.147205-2.342637-.8376237-.8881972-.9640575-.5138629-2.5598322.7324127-3.1269779,1.0363053-.4714173,2.1060253-.4393573,3.145943-.0212228Z"/>
      <path class="cls-3" d="m199.9326309,152.8544416c.3052472,1.543395.971508,2.9012033,2.2511983,3.8503597,2.6438203,1.9615295,5.5134152,2.071256,8.4633859.8118854,1.0299836-.4398089,1.8470618-1.2020239,2.2279435-2.3101255.1842321-.5350858.1133388-1.0584312-.3472413-1.4458604-.4452275-.3747858-.950511-.2953131-1.4246376-.0695386-.2817667.1345616-.5687262.312472-.7766646.5405043-1.0482714,1.1514504-2.3864373,1.3794827-3.8336523,1.2223436-1.9086983-.2081642-3.339206-1.4250891-3.5893642-2.9757089-.0535086-.3323402-.0298022-.4718689.3702703-.4646441,1.4002539.0257383,2.8009594.0099341,4.2014391.0099341s2.8009594.0099341,4.2014391-.0031608c1.0372084-.0103856,1.511335-.4357449,1.6192553-1.4643739.0848912-.8091761-.0313827-1.6133851-.2889915-2.3765032-.842365-2.4934544-2.6235006-3.8842258-5.2070391-4.2111474-2.7600942-.349499-5.158046.3729796-6.7992014,2.7449673-1.2819481,1.8531577-1.5000463,3.9569253-1.0681395,6.1410685Zm3.0434413-4.0431712c.53486-1.6671195,2.0312939-2.5806034,3.9743099-2.4270767,1.6851815.1336586,2.8574031,1.0769447,3.2301569,2.5625415.1113069.4443244.076086.6398452-.4659987.6172677-1.0369826-.0424456-2.0769003-.0121918-3.1156892-.0121918s-2.0773519.0022577-3.1161407-.0009031c-.6721309-.0022577-.7197694-.0754087-.5066382-.7396375Z"/>
      <path class="cls-3" d="m176.4658469,143.8902877c-4.1596708.0194166-7.1245426,3.05473-7.085032,7.252331.0399621,4.2414012,3.010704,7.1796316,7.2408165,7.1620212,4.4351158-.0185135,7.344447-2.9273932,7.3270624-7.325482-.0169331-4.2680426-3.0165741-7.110093-7.4828469-7.0888702Zm.124176,11.5908153c-2.4114983-.0234806-4.1492852-1.9145684-4.1011952-4.4631119.0476384-2.5223536,1.8253875-4.3556432,4.1910535-4.3222285,2.4830688.0347693,4.2265001,1.9091498,4.1605739,4.4721429-.0668293,2.5991169-1.7791037,4.3366781-4.2504322,4.3131975Z"/>
      <path class="cls-3" d="m142.6104973,156.4605131c1.4027375,1.4305077,3.1960649,1.8089059,4.581192,1.8382566,1.6384461-.0009031,2.7190032-.1598484,3.7365693-.638039,2.5681858-1.2069909,3.2098372-4.7101093,1.1972826-6.5858445-.5513415-.5134114-1.2286653-.8037575-1.9475315-1.0164372-1.2413086-.3680126-2.5498981-.4402604-3.7751767-.8710383-.7170601-.2519644-1.0934263-.7486685-1.0785252-1.3916745.013998-.6005604.4059427-1.106747,1.138807-1.2711109,1.246953-.2795089,2.429786-.1345616,3.4746708.6994496.4443244.3549176.8229483.8005967,1.3668393,1.0259197.4799968.1982301.9369645.2190013,1.3614207-.1368194.426714-.3580785.5014453-.8231741.371625-1.3252968-.1176286-.4551616-.3418227-.8620073-.6707763-1.2087971-.9055818-.9541234-2.0678694-1.3790311-3.3254338-1.5637147-1.8396113-.2700264-3.646711-.2158405-5.2524198.8832302-2.0407764,1.3970931-2.1780474,4.3944764-.2799605,5.9645128.838301.693128,1.8630918.9627028,2.9039126,1.1916382.9067107.1995847,1.8484165.2668656,2.7092949.6470699.7423468.3278247,1.1033604.914387,1.0184691,1.5853891-.0878263.6949342-.5425363,1.170867-1.3514866,1.3185235-1.573423.2871853-2.9863204-.0383817-4.1490594-1.1952506-.316536-.3151813-.6348781-.6276533-1.033596-.8358175-.4434213-.2320963-.9119035-.2348056-1.3325216.018062-.4402604.2641563-.5876912.7111899-.5323765,1.2119579.0736025.6615195.4197149,1.1975084.8687806,1.6558308Z"/>
      <path class="cls-3" d="m108.9904048,155.5768314c-1.4318624.3038926-2.77635.1219183-3.931187-.8669744-.3698188-.3169875-.7269941-.6493277-1.1004253-.9617997-.4696111-.3928478-1.1887032-.4587739-1.6589916-.1345616-.5269579.3621424-.5933356.8936158-.445679,1.4643739.1237245.477739.371625.8909065.7075775,1.258919,1.4338943,1.5709395,3.3193379,1.9123107,5.3117985,1.9276634.275445,0,.553825.0270929.8256576-.0040639,1.7994234-.2072611,3.3857156-.7793738,4.257657-2.5435764.8624589-1.7447859.394654-3.839974-1.1460318-4.9444633-.8432681-.6050759-1.8499969-.8087245-2.8458886-1.0214042-.907388-.1941661-1.8461587-.2519644-2.7086176-.6439091-.5861108-.266414-.8931642-.7053198-.8615558-1.3465196.0329631-.661068.4434213-1.0417239,1.0442074-1.2056362,1.0591085-.289443,2.0791581-.2009394,3.058794.344532.5836273.3246638,1.008535.8394299,1.5571673,1.1993146.5179269.339565,1.0706231.4303263,1.6034511.0668293.5305703-.3616909.5723386-.9161932.4113613-1.4752111-.2336767-.81324-.7809543-1.3925776-1.5032071-1.8043904-1.9895256-1.1342915-4.1124839-1.2688531-6.2702116-.6809361-2.3611505.6439091-3.5992983,2.8831414-2.8578546,5.0591568.5102505,1.4982401,1.735755,2.1836917,3.1588121,2.5643477,1.1656741.3115689,2.3604732.5143145,3.5227607.836269.7315096.2027456,1.1053923.8294958,1.0724292,1.5447497-.0311569.6696474-.4632894,1.2101517-1.2020239,1.3672908Z"/>
      <path class="cls-3" d="m156.5872984,146.956758c.5452456.0618622,1.1001995.0677324,1.6497348.0541859.3571754-.0085794.4766101.0988893.4698369.4650956-.0212228,1.1451287-.0076763,2.2907089-.0076763,3.4362891.0002258,1.1031346-.018062,2.2067207.0051928,3.3089522.0255125,1.2119579.4161025,2.2974821,1.3713548,3.0831776,1.4989174,1.2327292,3.1755194,1.2187312,4.9067589.5712097.8796178-.3291793,1.6066119-.8529764,2.0026205-1.7362065.2564799-.5725643.2144858-1.1473864-.2650594-1.575455-.481803-.4303263-1.0430786-.3887838-1.5813251-.0514766-.3210515.2013909-.624944.4343903-.9599935.6073336-1.3198782.6818392-2.4216581.0442518-2.4349788-1.4237345-.0185135-2.0577095.0088052-4.1158706-.0155784-6.1731285-.0054186-.4533554.1774588-.5192815.5596952-.5102505.9119035.0198682,1.8247101.0072248,2.7370652.0058701.4077489-.0004515.8204648-.0343177,1.1494184-.2930554.4479368-.3522083.650005-.822271.5244743-1.4029632-.1268853-.5874655-.5025742-.9527687-1.0801056-1.0114701-.6728082-.069087-1.355099-.0374786-2.0331001-.0623138-.5892717-.0212228-1.3469711.2451912-1.7224343-.1029532-.3829137-.3558207-.0799242-1.1230028-.1232729-1.7077589-.0187393-.2533191-.006999-.5102505-.0422198-.7608603-.1194348-.8502671-.7583768-1.3952869-1.5564899-1.3456165-.854331.0537343-1.4273469.6615195-1.440216,1.5438466-.009031.6362328-.0194166,1.2738202.004967,1.9091498.0137722.3531114-.0853428.4881246-.4587739.4745782-.5495353-.0189651-1.1044892-.0126434-1.6508637.0442518-.6947084.0722479-1.2090229.6655835-1.2042816,1.3103957.0054186.6971919.4766101,1.2607252,1.1952506,1.3429072Z"/>
      <path class="cls-3" d="m188.4454461,157.9583017c.5034773.3359526,1.0369826.3400165,1.5673271.0803757.5811438-.284476.7920172-.7983389.7933719-1.4115427.0040639-1.9308242.0013546-3.8620999.0015804-5.7929241,0-.7251879.0769891-1.4390872.3266958-2.1249903.2519644-.6926764.6267502-1.3063317,1.3022678-1.6549277.9482532-.4894793,1.7041465-.2944101,2.6713648.6303626.4736751.4529038.9970205.6619711,1.6729896.4470337.5946902-.1901022.8407845-.6154615.936513-1.1636422.1230471-.7035136-.0559921-1.3401979-.5070897-1.8996673-.6296853-.78118-1.4828874-1.0891366-2.4473964-1.1672546-1.5691333-.1268853-2.8560484.4231016-3.8765495,1.6883423-.0424456-.1164997-.0677324-.1648154-.078118-.216292-.2099704-1.0304352-.7576995-1.4738564-1.7023403-1.3772249-.8143689.0835366-1.3334247.7044167-1.3350051,1.6477029-.0065475,3.628649-.0042897,7.2572981-.0011289,10.8859471.0004515.5775314.1675247,1.0895881.6755175,1.4287015Z"/>
      <path class="cls-3" d="m119.0981069,143.985113c-.8489124-.0076763-1.5160763.5766283-1.5205918,1.4503759-.0203197,3.7555343-.0169331,7.5110687-.0011289,11.266603.0033866.7644727.5082186,1.3483258,1.1589009,1.4702441,1.0435301.1959723,1.8490938-.4343903,1.8630918-1.5181083.0234806-1.845933.0063217-3.6918659.0063217-5.5377989-.0004515-1.8671558.0185135-3.7347631-.0081279-5.6014673-.0135465-.9577358-.605979-1.5217207-1.4984659-1.5298485Z"/>
      <path class="cls-3" d="m119.1163947,138.5624592c-1.0683653-.0099341-1.9213417.8249803-1.9141169,1.873929.0072248,1.0638498.8220452,1.8612856,1.9105045,1.8694135,1.0387888.0081279,1.8680589-.8001451,1.8743806-1.8260648.0067732-1.0710746-.8091761-1.9073436-1.8707682-1.9172777Z"/>
    </g>
    <g>
      <path class="cls-3" d="m54.9162941,217.1676161v-30.1799178c0-1.9942677,1.356102-3.37696,3.270599-3.37696,1.8879068,0,3.2174186,1.3826923,3.2174186,3.37696v.7977071c2.2335798-2.8451552,5.5839496-4.3607987,9.6522557-4.3607987,8.1897927,0,14.3321372,6.195525,14.3321372,15.4223369,0,9.2002216-6.1423445,15.4223369-14.3321372,15.4223369-4.1480768,0-7.3389051-1.2763313-9.6522557-4.0948963v6.9932321c0,1.9676775-1.3295118,3.3503697-3.2174186,3.3503697-1.914497,0-3.270599-1.3826923-3.270599-3.3503697Zm15.0500736-8.907729c4.9191937,0,8.7215974-3.6162721,8.7215974-9.4129435,0-5.8232617-3.8024037-9.4129435-8.7215974-9.4129435-5.2382765,0-8.6950072,4.1480768-8.6950072,9.3863533,0,5.2648667,3.4567307,9.4395338,8.6950072,9.4395338Z"/>
      <path class="cls-3" d="m92.6953215,198.8469435c0-9.2799924,6.5146078-15.4223369,15.5818783-15.4223369,9.0938607,0,15.6084685,6.1423445,15.6084685,15.4223369,0,9.2534021-6.5146078,15.4223369-15.6084685,15.4223369-9.0672705,0-15.5818783-6.1689347-15.5818783-15.4223369Zm15.5818783,9.4129435c5.2116862,0,8.907729-3.8024037,8.907729-9.4129435s-3.6960428-9.4129435-8.907729-9.4129435-8.907729,3.8024037-8.907729,9.4129435,3.6960428,9.4129435,8.907729,9.4129435Z"/>
      <path class="cls-3" d="m133.2767699,210.7061887v-32.7857609c0-1.9676775,1.356102-3.3503697,3.270599-3.3503697,1.8879068,0,3.2174186,1.3826923,3.2174186,3.3503697v32.7857609c0,1.9676775-1.3295118,3.37696-3.2174186,3.37696-1.914497,0-3.270599-1.4092825-3.270599-3.37696Z"/>
      <path class="cls-3" d="m154.5717503,172.0705759c2.3399408,0,4.0151256,1.7283653,4.0151256,3.9885354,0,2.2867603-1.6751849,4.0151256-4.0151256,4.0151256s-4.0683061-1.7283653-4.0683061-4.0151256c0-2.2601701,1.7283653-3.9885354,4.0683061-3.9885354Zm-3.2971893,38.6356129v-23.7184905c0-1.9942677,1.356102-3.37696,3.270599-3.37696,1.8879068,0,3.2174186,1.3826923,3.2174186,3.37696v23.7184905c0,1.9676775-1.3295118,3.37696-3.2174186,3.37696-1.914497,0-3.270599-1.4092825-3.270599-3.37696Z"/>
      <path class="cls-3" d="m166.9798939,198.8469435c0-9.01409,6.4348371-15.4223369,15.1830247-15.4223369,4.7596522,0,8.4025146,1.462463,10.5829139,3.7492233,1.5156434,1.5688239,2.4994822,3.5630916,2.4994822,5.0521448,0,1.6220044-1.1433801,2.818565-2.7387943,2.818565-1.4092825,0-2.2867603-.5849852-3.2440088-1.8347263-1.3826923-2.2601701-3.8024037-3.7758135-6.8868711-3.7758135-5.0521448,0-8.7215974,3.828994-8.7215974,9.4129435,0,5.5573593,3.6694526,9.4129435,8.7215974,9.4129435,3.4035502,0,5.7169007-1.808136,7.0730028-4.1214866.8774778-1.2497411,1.6485946-1.808136,3.0312869-1.808136,1.5688239,0,2.8717455,1.1965606,2.8717455,2.8717455,0,1.4358727-1.010429,3.4567307-2.4463017,4.9723741-2.2867603,2.3931212-6.1157543,4.0948963-10.7424553,4.0948963-8.7481876,0-15.1830247-6.4082469-15.1830247-15.4223369Z"/>
      <path class="cls-3" d="m202.1084446,186.4558935c0-1.7549556,1.2763313-2.9781064,3.1642381-2.9781064,1.8613165,0,2.7387943.9838387,3.5896819,3.0046967l7.8441196,16.6720779,7.2857247-16.4859463c.9838387-2.3399408,1.8879068-3.1908283,3.6694526-3.1908283s3.1642381,1.2497411,3.1642381,2.818565c0,.8508876-.2659024,1.8879068-.8242973,3.0844674l-10.8488163,23.7450807c-2.3133505,5.0787351-5.2648667,7.4718563-9.9979287,7.4718563-2.3399408,0-4.2012573-.558395-5.8498519-1.8613165-1.1167899-.8774778-1.8879068-2.2867603-1.8879068-3.5365014,0-1.7017751,1.1699704-3.1110576,2.7122041-3.1110576.5052145,0,1.0901997.2127219,1.5954142.6913461.904068,1.1167899,2.0474482,1.6751849,3.2174186,1.6751849,1.8347263,0,3.1642381-1.1167899,4.3342085-3.5099111l-10.2638311-21.4317302c-.6115754-1.3295118-.904068-2.3133505-.904068-3.0578771Z"/>
      <path class="cls-3" d="m237.5351858,196.7994953c0-1.9676775,1.4890532-3.3503697,3.4833209-3.3503697h15.5818783c2.0208579,0,3.4833209,1.3826923,3.4833209,3.3503697s-1.462463,3.3503697-3.4833209,3.3503697h-15.5818783c-1.9942677,0-3.4833209-1.3826923-3.4833209-3.3503697Z"/>
    </g>
    <g>
      <path class="cls-3" d="m4.4589473,254.1052524c0-9.01409,6.4348371-15.4223369,15.1830247-15.4223369,4.7596522,0,8.4025146,1.462463,10.5829139,3.7492233,1.5156434,1.5688239,2.4994822,3.5630916,2.4994822,5.0521448,0,1.6220044-1.1433801,2.818565-2.7387943,2.818565-1.4092825,0-2.2867603-.5849852-3.2440088-1.8347263-1.3826923-2.2601701-3.8024037-3.7758135-6.8868711-3.7758135-5.0521448,0-8.7215974,3.828994-8.7215974,9.4129435,0,5.5573593,3.6694526,9.4129435,8.7215974,9.4129435,3.4035502,0,5.7169007-1.808136,7.0730028-4.1214866.8774778-1.2497411,1.6485946-1.808136,3.0312869-1.808136,1.5688239,0,2.8717455,1.1965606,2.8717455,2.8717455,0,1.4358727-1.010429,3.4567307-2.4463017,4.9723741-2.2867603,2.3931212-6.1157543,4.0948963-10.7424553,4.0948963-8.7481876,0-15.1830247-6.4082469-15.1830247-15.4223369Z"/>
      <path class="cls-3" d="m39.9388689,254.1052524c0-9.2799924,6.5146078-15.4223369,15.5818783-15.4223369,9.0938607,0,15.6084685,6.1423445,15.6084685,15.4223369,0,9.2534021-6.5146078,15.4223369-15.6084685,15.4223369-9.0672705,0-15.5818783-6.1689347-15.5818783-15.4223369Zm15.5818783,9.4129435c5.2116862,0,8.907729-3.8024037,8.907729-9.4129435s-3.6960428-9.4129435-8.907729-9.4129435-8.907729,3.8024037-8.907729,9.4129435,3.6960428,9.4129435,8.907729,9.4129435Z"/>
      <path class="cls-3" d="m80.5203172,265.9644977v-23.7184905c0-1.9942677,1.356102-3.37696,3.270599-3.37696,1.8879068,0,3.2174186,1.3826923,3.2174186,3.37696v.5849852c1.808136-2.6856138,5.1053253-4.1480768,9.1204509-4.1480768,7.2059539,0,11.9390159,4.4937499,11.9390159,12.4974109v14.7841712c0,1.9410872-1.356102,3.37696-3.2440088,3.37696-1.914497,0-3.2440088-1.462463-3.2440088-3.37696v-13.640791c0-5.185096-2.6324334-7.6845782-6.8868711-7.6845782-4.7596522,0-7.6845782,3.270599-7.6845782,8.1366122v13.188757c0,1.9676775-1.3295118,3.37696-3.2174186,3.37696-1.914497,0-3.270599-1.4092825-3.270599-3.37696Z"/>
      <path class="cls-3" d="m121.7294851,260.4071384v-15.0500736h-3.9885354c-1.7815458,0-3.0578771-1.2231509-3.0578771-2.9515162,0-1.7017751,1.2763313-2.924926,3.0578771-2.924926h3.9885354v-5.0255546c0-1.9676775,1.356102-3.3503697,3.270599-3.3503697,1.8879068,0,3.2174186,1.3826923,3.2174186,3.3503697v5.0255546h7.7111684c1.7549556,0,3.0312869,1.2231509,3.0312869,2.924926,0,1.7283653-1.2763313,2.9515162-3.0312869,2.9515162h-7.7111684v14.1460055c0,2.5260724,1.3029216,3.8024037,3.2971893,3.8024037,1.3295118,0,2.3399408-.6647559,3.37696-1.4890532.6115754-.4786242,1.356102-.9572485,2.3399408-.9572485,1.4890532,0,2.5526627,1.0901997,2.5526627,2.6324334,0,1.1965606-.5849852,2.366531-1.7283653,3.4035502-1.6751849,1.5422337-4.4671596,2.6324334-7.3389051,2.6324334-5.1585058,0-8.9874998-3.4833209-8.9874998-9.1204509Z"/>
      <path class="cls-3" d="m154.9254954,265.9644977c0,1.9676775-1.3295118,3.37696-3.2174186,3.37696-1.914497,0-3.270599-1.4092825-3.270599-3.37696v-23.7184905c0-1.9942677,1.356102-3.37696,3.270599-3.37696,1.8879068,0,3.2174186,1.3826923,3.2174186,3.37696v.3722633c1.6485946-2.5260724,4.4139792-3.9353549,7.657988-3.9353549,2.366531,0,4.2544378.7711168,5.4509984,1.8879068,1.1433801,1.0901997,1.7549556,2.4197115,1.7549556,3.8555842,0,2.1006286-1.1965606,3.5630916-3.2971893,3.5630916-1.1167899,0-2.0474482-.7445266-2.6324334-1.4358727-.7977071-.904068-1.914497-1.6220044-3.4035502-1.6220044-3.0578771,0-5.5307691,3.0578771-5.5307691,8.1897927v12.843084Z"/>
      <path class="cls-3" d="m175.9963581,254.1052524c0-9.2799924,6.5146078-15.4223369,15.5818783-15.4223369,9.0938607,0,15.6084685,6.1423445,15.6084685,15.4223369,0,9.2534021-6.5146078,15.4223369-15.6084685,15.4223369-9.0672705,0-15.5818783-6.1689347-15.5818783-15.4223369Zm15.5818783,9.4129435c5.2116862,0,8.907729-3.8024037,8.907729-9.4129435s-3.6960428-9.4129435-8.907729-9.4129435-8.907729,3.8024037-8.907729,9.4129435,3.6960428,9.4129435,8.907729,9.4129435Z"/>
      <path class="cls-3" d="m216.5778064,265.9644977v-32.7857609c0-1.9676775,1.356102-3.3503697,3.270599-3.3503697,1.8879068,0,3.2174186,1.3826923,3.2174186,3.3503697v32.7857609c0,1.9676775-1.3295118,3.37696-3.2174186,3.37696-1.914497,0-3.270599-1.4092825-3.270599-3.37696Z"/>
      <path class="cls-3" d="m234.631627,265.9644977v-32.7857609c0-1.9676775,1.356102-3.3503697,3.270599-3.3503697,1.8879068,0,3.2174186,1.3826923,3.2174186,3.3503697v32.7857609c0,1.9676775-1.3295118,3.37696-3.2174186,3.37696-1.914497,0-3.270599-1.4092825-3.270599-3.37696Z"/>
      <path class="cls-3" d="m250.6142581,254.0254817c0-9.1470412,6.0625738-15.3425662,14.7841712-15.3425662,8.6950072,0,14.2257762,5.7169007,14.2257762,13.7205618,0,2.4994822-1.1699704,3.6694526-3.4567307,3.6694526h-18.9854285c.4786242,4.5735206,4.0948963,7.4718563,9.3597631,7.4718563,3.0312869,0,5.2382765-.904068,6.9400516-2.9781064.8774778-.7977071,1.7549556-1.3029216,2.8717455-1.3029216,1.7283653,0,2.4994822,1.0370192,2.4994822,2.6324334,0,.8774778-.3988535,1.7815458-.9306583,2.5792529-2.2601701,3.4035502-6.9932321,5.0521448-11.6199331,5.0521448-9.4927142,0-15.6882392-6.0359836-15.6882392-15.5021076Zm22.5485201-3.1908283c-.4786242-4.3342085-3.5099111-6.8602809-8.003661-6.8602809-4.4139792,0-7.5250368,2.6324334-7.9770708,6.8602809h15.9807318Z"/>
      <path class="cls-3" d="m295.6771108,265.9644977c0,1.9676775-1.3295118,3.37696-3.2174186,3.37696-1.914497,0-3.270599-1.4092825-3.270599-3.37696v-23.7184905c0-1.9942677,1.356102-3.37696,3.270599-3.37696,1.8879068,0,3.2174186,1.3826923,3.2174186,3.37696v.3722633c1.6485946-2.5260724,4.4139792-3.9353549,7.657988-3.9353549,2.366531,0,4.2544378.7711168,5.4509984,1.8879068,1.1433801,1.0901997,1.7549556,2.4197115,1.7549556,3.8555842,0,2.1006286-1.1965606,3.5630916-3.2971893,3.5630916-1.1167899,0-2.0474482-.7445266-2.6324334-1.4358727-.7977071-.904068-1.914497-1.6220044-3.4035502-1.6220044-3.0578771,0-5.5307691,3.0578771-5.5307691,8.1897927v12.843084Z"/>
    </g>
  </g>
  <g>
    <path class="cls-1" d="m114.7339916,45.5948055c-.2819824.2368164-.5772095.4799805-.7871094.7768555-5.5400391,7.8378906-5.963501,16.0566406-1.7913208,24.6015625.1445312.2958984.1744995.8955078.6369629.7495117.4475708-.1411133.3234253-.6958008.2644043-1.0898438-.2091064-1.3945312-.4000854-2.7939453-.6747437-4.1757812-1.1710205-5.8945312-.6853027-11.5917969,1.9140015-17.0634766.3968506-.8354492.6983032-1.7172852,1.020752-2.5859375.1447754-.390625.177002-.7978516-.0599365-1.1450195-.1777954-.1933594-.3771973-.1899414-.5230103-.0678711Z"/>
    <path class="cls-1" d="m172.3126659,10.7793758c.8335571.2568359,1.664978.5258789,2.5092773.7431641,3.6004639.9267578,6.6469116,2.7246094,9.0009766,5.640625.359375.4448242.7702026.8496094,1.168335,1.2617188.178833.1855469.3973389.3129883.6543579.2734375.1555176-.046875.2070923-.1591797.1779785-.2729492-.0563965-.2207031-.112915-.4506836-.222229-.6469727-2.8853149-5.1899414-7.3543091-7.6289062-13.2368164-7.5927734-.2037964.0009766-.5460815-.1425781-.5886841.1538086-.0411987.2875977.3013306.3671875.5368042.4399414Z"/>
    <path class="cls-1" d="m201.0054149,62.4976375c.163147-21.7119141-15.2355347-40.8852539-36.1751709-45.2524414-23.3215942-4.8652344-42.4655151,8.4853516-49.3034668,22.1425781,1.496521-1.8442383,2.7498169-3.6088867,4.2210693-5.1679688,12.1602783-12.8837891,29.5657349-17.5366211,45.5683594-13.6147461,6.8934326,1.6894531,13.5281982,4.9604492,19.3685303,9.8666992,10.4701538,8.7949219,15.7736206,22.2143555,14.6230469,35.3530273-.3206177,3.6616211-1.1417847,7.3012695-2.4928589,10.8129883-7.6157227,19.7944336-28.7977905,31.4790039-50.5445557,27.7958984-11.9971924-2.0322266-21.7636719-7.9013672-29.3483276-17.453125,6.7340698,12.6591797,25.4223633,24.2207031,45.7973633,20.5454102,22.3269653-4.0273438,38.118042-22.6845703,38.2860107-45.0283203Z"/>
    <path class="cls-1" d="m200.8782787,85.9834773c-.4285889-.1914062-.7036133.3061523-.9206543.6401367-.7685547,1.1821289-1.5537109,2.355957-2.2650146,3.5727539-3.0332642,5.1879883-7.1756592,9.1293945-12.7501221,11.5-.8509521.3618164-1.661499.8217773-2.4790039,1.2583008-.3673706.1962891-.6616821.4794922-.7146606.8964844.0048218.2626953.15625.3925781.3464355.3974609.368042.0097656.7503662.0239258,1.1044312-.059082,9.3447266-2.1914062,15.112915-8.0610352,17.6580811-17.2226562.0881958-.3173828.4633789-.7861328.0205078-.9833984Z"/>
    <path class="cls-2" d="m215.6065502,54.9229305c-2.6206055-5.2871094-6.2943115-9.2304688-10.6642456-12.9775391-7.100769-6.0888672-7.9071655-9.5507812-10.3548584-19.015625-2.6619263-10.2939453-16.9299927-19.2294922-27.3804321-16.996582-8.0006104,1.7094727-15.8115234,2.1591797-23.7595215.2646484-.8413086-.2001953-1.7322998-.2231445-2.6032104-.2626953-4.2260742-.190918-7.663208,1.347168-10.2867432,4.7001953-1.5772095,2.015625-2.961853,4.1655273-4.1110229,6.434082-3.048645,6.0185547-7.7230835,10.2895508-13.6537476,13.3623047-2.7096558,1.4038086-5.385498,2.9223633-7.8926392,4.65625-3.8612061,2.6689453-7.0163574,5.9614258-7.6196899,10.9404297-.4396973,3.6279297.6728516,6.9765625,2.3781128,10.0488281,3.1351318,5.6479492,4.6774902,11.5854492,4.0576172,17.4433594,0,2.4204102-.0651855,4.2441406.0117798,6.0615234.2650757,6.2592773,1.7304688,11.9863281,7.2492676,15.8515625,2.0961914,1.4682617,4.3218384,2.7392578,6.675293,3.6982422,6.8986206,2.8095703,12.4552612,7.1445312,16.2451172,13.6445312.5064087.8686523,1.2446289,1.6142578,1.9368896,2.359375,3.1467285,3.3886719,7.0062256,5.0961914,11.6685181,4.9428711,3.4735718-.1142578,6.7943115-.9423828,9.9241333-2.3574219,9.3667603-4.2353516,18.8435669-7.8881836,29.1243286-9.5375977,7.2749634-1.1669922,12.0172119-6.1279297,14.5369873-13.1069336.8239136-2.2817383,1.2300415-4.6474609,1.5775146-7.0170898.6915283-4.7163086,2.9851685-8.2841797,7.1491089-10.6445312.9477539-.5375977,1.3181763-1.159668,2.2012329-1.800293,3.1641846-2.2958984,5.0458374-5.387207,5.6109009-9.2607422.5878906-4.0297852-.2290649-7.8164062-2.0206909-11.4311523Zm-43.2420044-44.7373047c5.8825073-.0361328,10.3515015,2.402832,13.2368164,7.5927734.109314.1962891.1658325.4262695.222229.6469727.0291138.1137695-.0224609.2260742-.1779785.2729492-.257019.0395508-.4755249-.0878906-.6543579-.2734375-.3981323-.4121094-.80896-.8168945-1.168335-1.2617188-2.3540649-2.9160156-5.4005127-4.7138672-9.0009766-5.640625-.8442993-.2172852-1.6757202-.4863281-2.5092773-.7431641-.2354736-.0727539-.5780029-.1523438-.5368042-.4399414.0426025-.2963867.3848877-.152832.5886841-.1538086Zm-57.0476074,36.6220703c-.3224487.8686523-.6239014,1.7504883-1.020752,2.5859375-2.5993042,5.4716797-3.085022,11.1689453-1.9140015,17.0634766.2746582,1.3818359.4656372,2.78125.6747437,4.1757812.059021.394043.1831665.9487305-.2644043,1.0898438-.4624634.1459961-.4924316-.4536133-.6369629-.7495117-4.1721802-8.5449219-3.7487183-16.7636719,1.7913208-24.6015625.2098999-.296875.505127-.5400391.7871094-.7768555.145813-.1220703.3452148-.1254883.5230103.0678711.2369385.347168.2047119.7543945.0599365,1.1450195Zm1.6051025,40.1728516c7.5846558,9.5517578,17.3511353,15.4208984,29.3483276,17.453125,21.7467651,3.6831055,42.928833-8.0014648,50.5445557-27.7958984,1.3510742-3.5117188,2.1722412-7.1513672,2.4928589-10.8129883,1.1505737-13.1386719-4.1528931-26.5581055-14.6230469-35.3530273-5.840332-4.90625-12.4750977-8.1772461-19.3685303-9.8666992-16.0026245-3.921875-33.4080811.730957-45.5683594,13.6147461-1.4712524,1.559082-2.7245483,3.3237305-4.2210693,5.1679688,6.8379517-13.6572266,25.9818726-27.0078125,49.3034668-22.1425781,20.9396362,4.3671875,36.3383179,23.5405273,36.1751709,45.2524414-.1679688,22.34375-15.9590454,41.0009766-38.2860107,45.0283203-20.375,3.675293-39.0632935-7.8862305-45.7973633-20.5454102Zm15.3357544-39.1005859c.1201172-.5917969.5-1.0976562,1.0341797-1.3789062l21.4819336-11.3125c.0582886-.0307617.1218262-.0429688.1820679-.067627.0830688-.0339355.1639404-.0708008.249939-.0930176.0831909-.0217285.1670532-.0292969.25177-.0400391.0848999-.0107422.1682739-.0249023.2537231-.0249023.0853882,0,.1685791.0141602.253418.0249023.0849609.0107422.1690063.0183105.2524414.0400391.0855713.0224609.1660767.059082.2487183.0925293.0605469.0246582.1243896.0371094.1829224.0681152l21.4819336,11.3125c.5341797.28125.9140625.7871094,1.0341797,1.3789062.0576172.28125,5.4125977,28.3144531-22.3769531,42.6162109-.2895508.1494141-.6054688.2236328-.9208984.2236328-.0524292,0-.1034546-.0170898-.1557617-.0212402-.0523071.0041504-.1033325.0212402-.1557617.0212402-.3154297,0-.6313477-.0742188-.9208984-.2236328-14.5024414-7.4628906-19.8237305-18.6396484-21.7338867-26.7011719-2.0654297-8.7167969-.7021484-15.6259766-.6430664-15.9150391Zm68.5999756,39.0869141c-2.545166,9.1616211-8.3133545,15.03125-17.6580811,17.2226562-.3540649.0830078-.7363892.0688477-1.1044312.059082-.1901855-.0048828-.3416138-.1347656-.3464355-.3974609.0529785-.4169922.34729-.7001953.7146606-.8964844.8175049-.4365234,1.6280518-.8964844,2.4790039-1.2583008,5.5744629-2.3706055,9.7168579-6.3120117,12.7501221-11.5.7113037-1.2167969,1.49646-2.390625,2.2650146-3.5727539.217041-.3339844.4920654-.831543.9206543-.6401367.4428711.1972656.067688.6660156-.0205078.9833984Z"/>
    <path class="cls-2" d="m175.3710765,49.595782l-17.637207-9.2871094.1352539,44.9746094c19.5532227-11.8691406,18.1298828-31.2011719,17.5019531-35.6875Z"/>
    <path class="cls-2" d="m153.5536937,85.283282l.1352539-44.9746094-17.637207,9.2871094c-.6274414,4.4785156-2.0556641,23.8164062,17.5019531,35.6875Z"/>
    <path class="cls-1" d="m154.6347484,90.4961727c.2895508.1494141.6054688.2236328.9208984.2236328.0524292,0,.1034546-.0170898.1557617-.0212402.0523071.0041504.1033325.0212402.1557617.0212402.3154297,0,.6313477-.0742188.9208984-.2236328,27.7895508-14.3017578,22.4345703-42.3349609,22.3769531-42.6162109-.1201172-.5917969-.5-1.0976562-1.0341797-1.3789062l-21.4819336-11.3125c-.0585327-.0310059-.1223755-.043457-.1829224-.0681152-.0826416-.0334473-.163147-.0700684-.2487183-.0925293-.0834351-.0217285-.1674805-.0292969-.2524414-.0400391-.0848389-.0107422-.1680298-.0249023-.253418-.0249023-.0854492,0-.1688232.0141602-.2537231.0249023-.0847168.0107422-.1685791.0183105-.25177.0400391-.0859985.0222168-.1668701.059082-.249939.0930176-.0602417.0246582-.1237793.0368652-.1820679.067627l-21.4819336,11.3125c-.5341797.28125-.9140625.7871094-1.0341797,1.3789062-.059082.2890625-1.4223633,7.1982422.6430664,15.9150391,1.9101562,8.0615234,7.2314453,19.2382812,21.7338867,26.7011719Zm20.7363281-40.9003906c.6279297,4.4863281,2.0512695,23.8183594-17.5019531,35.6875l-.1352539-44.9746094,17.637207,9.2871094Zm-39.3193359,0l17.637207-9.2871094-.1352539,44.9746094c-19.5576172-11.8710938-18.1293945-31.2089844-17.5019531-35.6875Z"/>
  </g>
</svg>