<?xml version="1.0" encoding="UTF-8"?>
<svg id="Layer_1" data-name="Layer 1" xmlns="http://www.w3.org/2000/svg" viewBox="0 0 315 275">
  <defs>
    <style>
      .cls-1 {
        fill: #231f20;
      }
    </style>
  </defs>
  <path class="cls-1" d="m103.7162059,73.5206909c0,2.4204102-.0651855,4.2441406.0117798,6.0615234.2650757,6.2592773,1.7304688,11.9863281,7.2492676,15.8515625,2.0961914,1.4682617,4.3218384,2.7392578,6.675293,3.6982422,6.8986206,2.8095703,12.4552612,7.1445312,16.2451172,13.6445312.5064087.8686523,1.2446289,1.6142578,1.9368896,2.359375,3.1467285,3.3886719,7.0062256,5.0961914,11.6685181,4.9428711,3.4735718-.1142578,6.7943115-.9423828,9.9241333-2.3574219,9.3667603-4.2353516,18.8435669-7.8881836,29.1243286-9.5375977,7.2749634-1.1669922,12.0172119-6.1279297,14.5369873-13.1069336.8239136-2.2817383,1.2300415-4.6474609,1.5775146-7.0170898.6915283-4.7163086,2.9851685-8.2841797,7.1491089-10.6445312.9477539-.5375977,1.3181763-1.159668,2.2012329-1.800293,3.1641846-2.2958984,5.0458374-5.387207,5.6109009-9.2607422.5878906-4.0297852-.2290649-7.8164062-2.0206909-11.4311523-2.6206055-5.2871094-6.2943115-9.2304688-10.6642456-12.9775391-7.100769-6.0888672-7.9071655-9.5507812-10.3548584-19.015625-2.6619263-10.2939453-16.9299927-19.2294922-27.3804321-16.996582-8.0006104,1.7094727-15.8115234,2.1591797-23.7595215.2646484-.8413086-.2001953-1.7322998-.2231445-2.6032104-.2626953-4.2260742-.190918-7.663208,1.347168-10.2867432,4.7001953-1.5772095,2.015625-2.961853,4.1655273-4.1110229,6.434082-3.048645,6.0185547-7.7230835,10.2895508-13.6537476,13.3623047-2.7096558,1.4038086-5.385498,2.9223633-7.8926392,4.65625-3.8612061,2.6689453-7.0163574,5.9614258-7.6196899,10.9404297-.4396973,3.6279297.6728516,6.9765625,2.3781128,10.0488281,3.1351318,5.6479492,4.6774902,11.5854492,4.0576172,17.4433594Zm97.1416016,13.4462891c-2.545166,9.1616211-8.3133545,15.03125-17.6580811,17.2226562-.3540649.0830078-.7363892.0688477-1.1044312.059082-.1901855-.0048828-.3416138-.1347656-.3464355-.3974609.0529785-.4169922.34729-.7001953.7146606-.8964844.8175049-.4365234,1.6280518-.8964844,2.4790039-1.2583008,5.5744629-2.3706055,9.7168579-6.3120117,12.7501221-11.5.7113037-1.2167969,1.49646-2.390625,2.2650146-3.5727539.217041-.3339844.4920654-.831543.9206543-.6401367.4428711.1972656.067688.6660156-.0205078.9833984Zm-28.4932251-76.78125c5.8825073-.0361328,10.3515015,2.402832,13.2368164,7.5927734.109314.1962891.1658325.4262695.222229.6469727.0291138.1137695-.0224609.2260742-.1779785.2729492-.257019.0395508-.4755249-.0878906-.6543579-.2734375-.3981323-.4121094-.80896-.8168945-1.168335-1.2617188-2.3540649-2.9160156-5.4005127-4.7138672-9.0009766-5.640625-.8442993-.2172852-1.6757202-.4863281-2.5092773-.7431641-.2354736-.0727539-.5780029-.1523438-.5368042-.4399414.0426025-.2963867.3848877-.152832.5886841-.1538086Zm-7.5343018,7.0595703c20.9396362,4.3671875,36.3383179,23.5405273,36.1751709,45.2524414-.1679688,22.34375-15.9590454,41.0009766-38.2860107,45.0283203-20.375,3.675293-39.0632935-7.8862305-45.7973633-20.5454102,7.5846558,9.5517578,17.3511353,15.4208984,29.3483276,17.453125,21.7467651,3.6831055,42.928833-8.0014648,50.5445557-27.7958984,1.3510742-3.5117188,2.1722412-7.1513672,2.4928589-10.8129883,1.1505737-13.1386719-4.1528931-26.5581055-14.6230469-35.3530273-5.840332-4.90625-12.4750977-8.1772461-19.3685303-9.8666992-16.0026245-3.921875-33.4080811.730957-45.5683594,13.6147461-1.4712524,1.559082-2.7245483,3.3237305-4.2210693,5.1679688,6.8379517-13.6572266,25.9818726-27.0078125,49.3034668-22.1425781Zm-32.5724487,30.6347656c.1201172-.5917969.5-1.0976562,1.0341797-1.3789062l21.4819336-11.3125c.0582886-.0307617.1218262-.0429688.1820679-.0678711.0830688-.0336914.1639404-.0708008.249939-.0927734.0831909-.0219727.1670532-.0292969.25177-.0400391.0848999-.0107422.1682739-.0249023.2537231-.0249023.0853882,0,.1685791.0141602.253418.0249023.0849609.0107422.1690063.0180664.2524414.0400391.0855713.0224609.1660767.059082.2487183.0922852.0605469.0249023.1243896.0371094.1829224.0683594l21.4819336,11.3125c.5341797.28125.9140625.7871094,1.0341797,1.3789062.0576172.28125,5.4125977,28.3144531-22.3769531,42.6162109-.2895508.1494141-.6054688.2236328-.9208984.2236328-.0524292,0-.1034546-.0170898-.1557617-.0214844-.0523071.0043945-.1033325.0214844-.1557617.0214844-.3154297,0-.6313477-.0742188-.9208984-.2236328-14.5024414-7.4628906-19.8237305-18.6396484-21.7338867-26.7011719-2.0654297-8.7167969-.7021484-15.6259766-.6430664-15.9150391Zm-18.3109131-1.5083008c.2098999-.296875.505127-.5400391.7871094-.7768555.145813-.1220703.3452148-.1254883.5230103.0678711.2369385.347168.2047119.7543945.0599365,1.1450195-.3224487.8686523-.6239014,1.7504883-1.020752,2.5859375-2.5993042,5.4716797-3.085022,11.1689453-1.9140015,17.0634766.2746582,1.3818359.4656372,2.78125.6747437,4.1757812.059021.394043.1831665.9487305-.2644043,1.0898438-.4624634.1459961-.4924316-.4536133-.6369629-.7495117-4.1721802-8.5449219-3.7487183-16.7636719,1.7913208-24.6015625Z"/>
  <path class="cls-1" d="m175.3711132,49.5958862l-17.637207-9.2871094.1352539,44.9746094c19.5532227-11.8691406,18.1298828-31.2011719,17.5019531-35.6875Z"/>
  <path class="cls-1" d="m153.5537303,85.2833862l.1352539-44.9746094-17.637207,9.2871094c-.6274414,4.4785156-2.0556641,23.8164062,17.5019531,35.6875Z"/>
  <path class="cls-1" d="m126.0867504,155.7555542c-1.8899536,1.3364258-1.616333,3.7441406.508667,4.7080078,1.7739258.8046875,3.6607056.8188477,5.5458984.7578125,1.6630859-.0541992,3.3013306-.2875977,4.7126465-1.2851562,1.119812-.7919922,1.5874023-1.8901367,1.4302368-3.2485352-.1530762-1.3256836-.9418945-2.1298828-2.159729-2.5546875-1.2930298-.4501953-2.640686-.2939453-3.7853394-.3291016h-2.6691284c-.3422852-.0004883-.6791382-.0380859-.9778442-.2182617-.3896484-.234375-.4406738-.597168-.3140259-.9916992.1404419-.4379883.4533691-.3657227.8129883-.2817383,1.7504883.4057617,3.4938965.387207,5.2016602-.2133789,2.0089111-.706543,3.2902222-2.5761719,2.7914429-4.4707031-.291687-1.1074219-.1564331-1.7685547.7179565-2.4707031.6538696-.5249023.6425781-1.2436523.2000732-1.7338867-.414978-.4594727-1.1794434-.4975586-1.8039551-.0576172-.4138184.2924805-.8105469.6123047-1.1902466.9477539-.2027588.1787109-.3544922.190918-.614563.0996094-2.0974731-.7363281-4.1912842-.7329102-6.2763062.0771484-2.5786133,1.0014648-3.4324951,4.1923828-1.6592407,6.2729492.2537842.2978516.295105.4858398-.0564575.7324219-1.2137451.8520508-1.2246094,2.6591797-.3494873,3.6611328.2352295.2695312.2706909.3613281-.0652466.5986328Zm3.8198853-9.3686523c1.0363159-.4716797,2.1060181-.4394531,3.1459351-.0214844.8005981.3222656,1.2503662,1.1806641,1.1677246,2.0698242-.0826416.8901367-.753418,1.5825195-1.7813721,1.8085938-.2874146.0634766-.5870361.0708008-.9220581.1079102-.8421631-.0317383-1.7068481-.1474609-2.3426514-.8378906-.8881836-.9638672-.513855-2.5595703.7324219-3.1269531Zm-1.9238281,10.512207c.1804199-.4130859.4499512-.6791992.9602051-.659668.7821045.0292969,1.5655518.0073242,2.3485107.0073242v.0200195c.7825317,0,1.5653076-.0009766,2.3480835.0004883.3431396.0004883.6727905.074707.973999.2368164.6773071.3642578.7617188,1.2924805.1463013,1.7407227-.2334595.1699219-.4832153.3261719-.7800903.4018555-1.5858154.4038086-3.1852417.4111328-4.7751465.0922852-1.1279297-.2255859-1.5935059-.9902344-1.2218628-1.8398438Z"/>
  <path class="cls-1" d="m203.2738842,152.013855c1.4002686.0253906,2.8009644.0097656,4.201416.0097656h-.0001831.0001831c1.4005127,0,2.8009644.0097656,4.2014771-.003418,1.0371704-.0102539,1.5112915-.4355469,1.6192627-1.4643555.0848389-.809082-.0314331-1.6132812-.2890015-2.3764648-.8424072-2.4931641-2.6235352-3.8842773-5.2070312-4.2109375-2.7601318-.3496094-5.1580811.3730469-6.7991943,2.7451172-1.2819824,1.8530273-1.500061,3.956543-1.0681763,6.1411133.3052368,1.5429688.9714966,2.9008789,2.2512207,3.8500977,2.6437988,1.9614258,5.5134277,2.0712891,8.4633789.8120117,1.0299683-.4399414,1.8470459-1.2021484,2.2279663-2.3100586.1842041-.5351562.1132812-1.0585938-.34729-1.4458008-.4451904-.375-.9505005-.2954102-1.4246216-.0698242-.2817383.1347656-.5687256.3125-.7766724.5405273-1.0482788,1.1513672-2.3864136,1.3793945-3.8336182,1.222168-1.9086914-.2080078-3.3392334-1.4248047-3.5894165-2.9755859-.0534668-.3325195-.0297852-.4716797.3703003-.4643555Zm-.2977905-3.2026367c.5348511-1.6669922,2.031311-2.5805664,3.9743042-2.4272461,1.6851807.1337891,2.8574219,1.0771484,3.2301636,2.5625.1113281.4443359.0760498.6401367-.4660034.6176758-1.0369873-.0424805-2.0769043-.012207-3.1156616-.012207-1.0388184,0-2.0773926.0019531-3.1161499-.0009766-.6721802-.0024414-.7197876-.0756836-.5066528-.7397461Z"/>
  <path class="cls-1" d="m169.3808178,151.1427612c.039978,4.2412109,3.0107422,7.1796875,7.2408447,7.1621094,4.4351196-.0185547,7.3444214-2.9277344,7.3270264-7.3256836-.0169067-4.2680664-3.0165405-7.1098633-7.4828491-7.0888672-4.159668.0195312-7.1245117,3.0546875-7.085022,7.2524414Zm11.4596558.0253906c-.0668335,2.5986328-1.7791138,4.3364258-4.2504272,4.3129883-2.411499-.0234375-4.149292-1.9145508-4.1011963-4.4633789.0476074-2.5219727,1.8253784-4.3554688,4.19104-4.3222656,2.4830933.0351562,4.2265015,1.9091797,4.1605835,4.4726562Z"/>
  <path class="cls-1" d="m152.1255687,151.0748901c-.5513306-.5131836-1.2286987-.8037109-1.9475708-1.0166016-1.241272-.3676758-2.5498657-.4399414-3.7751465-.8710938-.717041-.2519531-1.0934448-.7485352-1.0785522-1.3916016.0140381-.6005859.4059448-1.1064453,1.138855-1.2709961,1.2469482-.2792969,2.4297485-.1347656,3.4746704.6992188.4442749.3549805.822937.8007812,1.3668213,1.0263672.4799805.1982422.9369507.21875,1.3613892-.137207.4267578-.3579102.5014648-.8227539.3716431-1.3251953-.1176147-.4550781-.3417969-.8618164-.6707764-1.2084961-.9055786-.9541016-2.0678711-1.3793945-3.3254395-1.5639648-1.8395996-.2700195-3.6466675-.2158203-5.2523804.8833008-2.0408325,1.3969727-2.1781006,4.3945312-.2799683,5.9643555.8382568.6933594,1.8630981.9628906,2.9038696,1.1918945.9067383.1992188,1.8484497.2666016,2.7092896.6469727.7423706.3276367,1.1033936.9145508,1.0184937,1.5854492-.0878296.6948242-.5425415,1.1708984-1.3515015,1.3183594-1.5734253.2871094-2.9863281-.0380859-4.1490479-1.1953125-.3165283-.3149414-.6348877-.6274414-1.0335693-.8359375-.4434204-.2319336-.9119263-.234375-1.3325195.0185547-.4403076.2636719-.5877075.7109375-.5324097,1.2119141.0736084.6611328.4197388,1.1972656.8687744,1.6557617,1.402771,1.4301758,3.196106,1.8085938,4.5812378,1.8383789,1.6384277-.0009766,2.7189941-.1601562,3.7365723-.6381836,2.5681763-1.2070312,3.2097778-4.7104492,1.1972656-6.5859375Z"/>
  <path class="cls-1" d="m108.9904369,155.5768433c-1.4318848.3037109-2.7763672.1220703-3.9312134-.8671875-.369812-.3168945-.7269897-.6489258-1.1004028-.9614258-.4696045-.3930664-1.1887207-.4589844-1.6589966-.1347656-.5269775.3623047-.5933228.8935547-.4456787,1.4643555.1237183.4780273.3716431.8911133.7075806,1.2587891,1.4338989,1.5712891,3.3193359,1.9125977,5.3117676,1.9277344.2754517,0,.553833.0273438.8256836-.0039062,1.7994385-.2075195,3.3856812-.7792969,4.2576294-2.543457.8624878-1.7451172.3946533-3.840332-1.1459961-4.9448242-.8432617-.6049805-1.8500366-.8085938-2.8458862-1.0209961-.9074097-.1943359-1.8461914-.2519531-2.7086182-.644043-.5861206-.2666016-.8931885-.7055664-.8615723-1.3466797.032959-.6611328.4434204-1.0415039,1.0441895-1.2055664,1.0591431-.2895508,2.0791626-.2011719,3.0588379.3447266.5836182.3242188,1.0084839.8393555,1.5571289,1.1992188.5179443.3393555,1.0706177.4301758,1.6034546.0668945.5305786-.3618164.5723267-.9165039.411377-1.4755859-.2337036-.8129883-.7809448-1.3925781-1.5032349-1.8041992-1.989502-1.1342773-4.1124878-1.269043-6.2702026-.6806641-2.361145.6435547-3.5993042,2.8828125-2.8578491,5.059082.5102539,1.4980469,1.7357788,2.1835938,3.1588135,2.5639648,1.1656494.3115234,2.3604736.5146484,3.5227661.8364258.7315063.2026367,1.1054077.8295898,1.0724487,1.5449219-.031189.6694336-.4633179,1.2099609-1.2020264,1.3671875Z"/>
  <path class="cls-1" d="m158.7044261,154.2213745c.0255127,1.2119141.4160767,2.2973633,1.3713379,3.0830078,1.4989014,1.2329102,3.1755371,1.21875,4.9067383.5712891.8796387-.3291016,1.6066284-.8530273,2.0026245-1.7363281.2564697-.5722656.2144775-1.1474609-.2650757-1.5751953-.4817505-.4306641-1.0430298-.3891602-1.5812988-.0517578-.3210449.2016602-.624939.4345703-.960022.6074219-1.3198242.6821289-2.4216309.0444336-2.4349365-1.4238281-.0185547-2.0576172.0087891-4.1157227-.015564-6.1728516-.0054321-.4536133.1774292-.5195312.5596924-.5102539.9118652.0195312,1.824707.0068359,2.7370605.0058594.4077148-.0004883.8204346-.0341797,1.1494141-.2929688.447937-.3525391.6499634-.8222656.5244751-1.4033203-.1268921-.5874023-.5025635-.9526367-1.0801392-1.0112305-.6727905-.0693359-1.3551025-.0375977-2.0330811-.0625-.5892944-.0209961-1.3469849.2451172-1.7224121-.1030273-.3829346-.3554688-.0799561-1.1230469-.123291-1.7075195-.0187378-.253418-.007019-.5102539-.0422363-.7607422-.1194458-.8505859-.7583618-1.3955078-1.5564575-1.3457031-.8543701.0537109-1.4273682.6616211-1.4402466,1.5439453-.0090332.6362305-.0194092,1.2734375.0049438,1.9086914.0137939.3535156-.0853271.4882812-.4587402.4746094-.5495605-.0185547-1.1044922-.0126953-1.6508789.0444336-.6947021.0722656-1.2089844.6655273-1.2042847,1.3105469.0054321.6972656.4766235,1.2607422,1.1952515,1.3427734.5452881.0620117,1.1002197.0678711,1.6497192.0541992.3571777-.0087891.4766235.0986328.4698486.4648438-.0211792,1.1455078-.0076294,2.2910156-.0076294,3.4365234.0001831,1.1030273-.0180664,2.206543.005188,3.309082Z"/>
  <path class="cls-1" d="m190.8865551,145.5895386c-.0424805-.1166992-.067749-.1650391-.078125-.2163086-.2099609-1.0302734-.7576904-1.4741211-1.7023315-1.3774414-.8143921.0834961-1.3334351.7045898-1.335022,1.6479492-.0065308,3.628418-.0042725,7.2573242-.0011597,10.8857422.0004883.5776367.1675415,1.0898438.6755371,1.4287109.503479.3359375,1.0369873.3398438,1.5673218.0805664.5811768-.284668.7920532-.7983398.793396-1.4116211.0040283-1.9306641.0013428-3.8623047.0015869-5.7929688,0-.7250977.0769653-1.4389648.3266602-2.125.2519531-.6923828.62677-1.3061523,1.3023071-1.6547852.9482422-.4897461,1.7041016-.2944336,2.6713257.6303711.4736938.4526367.9970093.6621094,1.6730347.4467773.5946655-.1899414.8407593-.6152344.9364624-1.1635742.1230469-.7036133-.0559692-1.340332-.5070801-1.8994141-.6296997-.78125-1.4828491-1.0893555-2.4473877-1.1674805-1.5691528-.1269531-2.8560181.4233398-3.8765259,1.6884766Z"/>
  <path class="cls-1" d="m120.596577,145.5148315c-.0135498-.9575195-.605957-1.5214844-1.4984741-1.5297852-.848877-.0078125-1.5160522.5766602-1.5205688,1.4506836-.0203247,3.7553711-.0169067,7.5107422-.0011597,11.2666016.003418.7641602.5082397,1.3481445,1.1589355,1.4697266,1.0435181.1962891,1.8490601-.434082,1.8630981-1.5175781.0234375-1.8461914.0062866-3.6923828.0062866-5.5380859-.0004272-1.8671875.0185547-3.7348633-.0081177-5.6015625Z"/>
  <path class="cls-1" d="m119.1164135,138.5626831c-1.0683594-.0102539-1.9213257.824707-1.9141235,1.8735352.0072021,1.0639648.8220215,1.8613281,1.9105225,1.8696289,1.0387573.0078125,1.868042-.800293,1.8743896-1.8261719.0067749-1.0712891-.8092041-1.9072266-1.8707886-1.9169922Z"/>
  <path class="cls-1" d="m58.1869091,220.5177612c1.8878784,0,3.2174072-1.3823242,3.2174072-3.3500977v-6.9931641c2.3133545,2.8183594,5.5042114,4.0947266,9.6522827,4.0947266,8.1897583,0,14.3320923-6.222168,14.3320923-15.4223633,0-9.2265625-6.142334-15.4223633-14.3320923-15.4223633-4.0682983,0-7.4187012,1.515625-9.6522827,4.3608398v-.7978516c0-1.9941406-1.3295288-3.3769531-3.2174072-3.3769531-1.9144897,0-3.2706299,1.3828125-3.2706299,3.3769531v30.1801758c0,1.9677734,1.3561401,3.3500977,3.2706299,3.3500977Zm11.77948-31.0839844c4.9191895,0,8.7216187,3.5898438,8.7216187,9.4130859,0,5.796875-3.8024292,9.4130859-8.7216187,9.4130859-5.2382812,0-8.6950073-4.1748047-8.6950073-9.4394531,0-5.2382812,3.4567261-9.3867188,8.6950073-9.3867188Z"/>
  <path class="cls-1" d="m123.8857006,198.8468628c0-9.2797852-6.5146484-15.4223633-15.6084595-15.4223633-9.0673218,0-15.5819092,6.1425781-15.5819092,15.4223633,0,9.253418,6.5145874,15.4223633,15.5819092,15.4223633,9.093811,0,15.6084595-6.1689453,15.6084595-15.4223633Zm-15.6084595,9.4130859c-5.211731,0-8.9077759-3.8027344-8.9077759-9.4130859s3.6960449-9.4130859,8.9077759-9.4130859c5.2116699,0,8.9077148,3.8027344,8.9077148,9.4130859s-3.6960449,9.4130859-8.9077148,9.4130859Z"/>
  <path class="cls-1" d="m136.5473827,214.0831909c1.8878784,0,3.2174072-1.4091797,3.2174072-3.3769531v-32.7856445c0-1.9677734-1.3295288-3.3505859-3.2174072-3.3505859-1.9144897,0-3.2705688,1.3828125-3.2705688,3.3505859v32.7856445c0,1.9677734,1.3560791,3.3769531,3.2705688,3.3769531Z"/>
  <path class="cls-1" d="m154.5717357,172.0704956c-2.3399048,0-4.0682983,1.7285156-4.0682983,3.9887695,0,2.2866211,1.7283936,4.0151367,4.0682983,4.0151367,2.3399658,0,4.0151367-1.7285156,4.0151367-4.0151367,0-2.2602539-1.6751709-3.9887695-4.0151367-3.9887695Z"/>
  <path class="cls-1" d="m154.5451854,183.6105347c-1.9144897,0-3.2706299,1.3828125-3.2706299,3.3769531v23.71875c0,1.9677734,1.3561401,3.3769531,3.2706299,3.3769531,1.8878784,0,3.2174072-1.4091797,3.2174072-3.3769531v-23.71875c0-1.9941406-1.3295288-3.3769531-3.2174072-3.3769531Z"/>
  <path class="cls-1" d="m192.9054149,210.1744995c1.4358521-1.515625,2.4462891-3.5366211,2.4462891-4.9726562,0-1.675293-1.3029175-2.871582-2.8717651-2.871582-1.3826904,0-2.1538086.5585938-3.03125,1.8081055-1.3561401,2.3134766-3.6694946,4.121582-7.0730591,4.121582-5.052124,0-8.7215576-3.8554688-8.7215576-9.4130859,0-5.5839844,3.6694336-9.4130859,8.7215576-9.4130859,3.0844727,0,5.5042114,1.515625,6.8869019,3.7758789.9572144,1.25,1.8347168,1.8349609,3.2440186,1.8349609,1.5953979,0,2.7387695-1.1967773,2.7387695-2.8188477,0-1.4887695-.9838257-3.4833984-2.4994507-5.0517578-2.1804199-2.2871094-5.8233032-3.7495117-10.5829468-3.7495117-8.7481689,0-15.1829834,6.4082031-15.1829834,15.4223633s6.4348145,15.4223633,15.1829834,15.4223633c4.626709,0,8.4556885-1.7016602,10.7424927-4.0947266Z"/>
  <path class="cls-1" d="m227.6617015,183.4777222c-1.7815552,0-2.6856689.8510742-3.6694946,3.190918l-7.2857056,16.4858398-7.8441162-16.671875c-.8508911-2.0209961-1.7283936-3.0048828-3.5896606-3.0048828-1.8879395,0-3.1642456,1.2231445-3.1642456,2.9780273,0,.7446289.2924805,1.7285156.9040527,3.0581055l10.263855,21.4316406c-1.1699829,2.3930664-2.4995117,3.5097656-4.3342285,3.5097656-1.1699829,0-2.3133545-.5581055-3.2174072-1.6748047-.505249-.4790039-1.09021-.6914062-1.595459-.6914062-1.5422363,0-2.7121582,1.4091797-2.7121582,3.1108398,0,1.2495117.7711182,2.6591797,1.8878784,3.5366211,1.6486206,1.3027344,3.5099487,1.8613281,5.8498535,1.8613281,4.7330933,0,7.6845703-2.3930664,9.9979248-7.472168l10.8488159-23.7446289c.5584106-1.1967773.8242798-2.2338867.8242798-3.0849609,0-1.5683594-1.3826904-2.8183594-3.1641846-2.8183594Z"/>
  <path class="cls-1" d="m241.0185131,200.1495972h15.5819092c2.020813,0,3.4832764-1.3823242,3.4832764-3.3500977s-1.4624634-3.3505859-3.4832764-3.3505859h-15.5819092c-1.9942627,0-3.4833374,1.3828125-3.4833374,3.3505859s1.4890747,3.3500977,3.4833374,3.3500977Z"/>
  <path class="cls-1" d="m29.9590038,257.588562c-1.3826904,0-2.1538086.5585938-3.031311,1.8081055-1.3560791,2.3134766-3.6694336,4.121582-7.072998,4.121582-5.052124,0-8.7215576-3.8554688-8.7215576-9.4130859,0-5.5839844,3.6694336-9.4125977,8.7215576-9.4125977,3.0844727,0,5.5042114,1.515625,6.8869019,3.7753906.9572144,1.25,1.8347168,1.8349609,3.2440186,1.8349609,1.5953979,0,2.7387695-1.1967773,2.7387695-2.8188477,0-1.4887695-.9838257-3.4829102-2.4995117-5.0517578-2.1803589-2.2871094-5.8232422-3.7495117-10.5828857-3.7495117-8.7481689,0-15.1830444,6.4082031-15.1830444,15.4223633s6.4348755,15.4223633,15.1830444,15.4223633c4.626709,0,8.4556885-1.7016602,10.7424316-4.0947266,1.4359131-1.515625,2.4463501-3.5366211,2.4463501-4.9726562,0-1.6748047-1.3029175-2.871582-2.8717651-2.871582Z"/>
  <path class="cls-1" d="m55.5207714,238.6828003c-9.0672607,0-15.5819092,6.1425781-15.5819092,15.4223633,0,9.253418,6.5146484,15.4223633,15.5819092,15.4223633,9.0938721,0,15.6084595-6.1689453,15.6084595-15.4223633,0-9.2797852-6.5145874-15.4223633-15.6084595-15.4223633Zm0,24.8354492c-5.2116699,0-8.9077148-3.8022461-8.9077148-9.4130859,0-5.6103516,3.6960449-9.4125977,8.9077148-9.4125977s8.9077148,3.8022461,8.9077148,9.4125977c0,5.6108398-3.6960449,9.4130859-8.9077148,9.4130859Z"/>
  <path class="cls-1" d="m96.1288036,238.6828003c-4.0151367,0-7.3123169,1.4624023-9.1204834,4.1484375v-.5854492c0-1.9941406-1.3294678-3.3769531-3.2174072-3.3769531-1.9144897,0-3.2705688,1.3828125-3.2705688,3.3769531v23.71875c0,1.9677734,1.3560791,3.3769531,3.2705688,3.3769531,1.8879395,0,3.2174072-1.4091797,3.2174072-3.3769531v-13.1889648c0-4.8657227,2.9249268-8.1367188,7.6846313-8.1367188,4.2543945,0,6.8868408,2.5,6.8868408,7.6845703v13.6411133c0,1.9145508,1.3295288,3.3769531,3.2440186,3.3769531,1.8878784,0,3.2440186-1.4360352,3.2440186-3.3769531v-14.7841797c0-8.0039062-4.7330933-12.4975586-11.9390259-12.4975586Z"/>
  <path class="cls-1" d="m137.2315868,260.8590698c-.9838257,0-1.7283325.4785156-2.3399048.9575195-1.0370483.8242188-2.0474854,1.4887695-3.3769531,1.4887695-1.9942627,0-3.2972412-1.2763672-3.2972412-3.8022461v-14.1459961h7.7111816c1.7549438,0,3.031311-1.2231445,3.031311-2.9516602,0-1.7016602-1.2763672-2.9248047-3.031311-2.9248047h-7.7111816v-5.0253906c0-1.9677734-1.3294678-3.3505859-3.2174072-3.3505859-1.9144897,0-3.2705688,1.3828125-3.2705688,3.3505859v5.0253906h-3.9885254c-1.7815552,0-3.0579224,1.2231445-3.0579224,2.9248047,0,1.7285156,1.2763672,2.9516602,3.0579224,2.9516602h3.9885254v15.0498047c0,5.637207,3.8289795,9.1206055,8.9874878,9.1206055,2.8717651,0,5.6636963-1.090332,7.3389282-2.6323242,1.1433716-1.0371094,1.7283325-2.2070312,1.7283325-3.4038086,0-1.5419922-1.0635986-2.6323242-2.5526733-2.6323242Z"/>
  <path class="cls-1" d="m162.5835155,238.6828003c-3.2440186,0-6.0093994,1.4091797-7.65802,3.9355469v-.3725586c0-1.9941406-1.3294678-3.3769531-3.2174072-3.3769531-1.9144897,0-3.2705688,1.3828125-3.2705688,3.3769531v23.71875c0,1.9677734,1.3560791,3.3769531,3.2705688,3.3769531,1.8879395,0,3.2174072-1.4091797,3.2174072-3.3769531v-12.8432617c0-5.1318359,2.4729004-8.1894531,5.5307617-8.1894531,1.4890747,0,2.605896.7177734,3.4035645,1.621582.585022.6914062,1.515625,1.4360352,2.6324463,1.4360352,2.100647,0,3.2971802-1.4624023,3.2971802-3.5629883,0-1.4360352-.6115723-2.765625-1.7549438-3.8554688-1.1965942-1.1166992-3.0844727-1.8881836-5.4509888-1.8881836Z"/>
  <path class="cls-1" d="m191.5782665,238.6828003c-9.0672607,0-15.5819092,6.1425781-15.5819092,15.4223633,0,9.253418,6.5146484,15.4223633,15.5819092,15.4223633,9.0938721,0,15.6084595-6.1689453,15.6084595-15.4223633,0-9.2797852-6.5145874-15.4223633-15.6084595-15.4223633Zm0,24.8354492c-5.211731,0-8.9077148-3.8022461-8.9077148-9.4130859,0-5.6103516,3.6959839-9.4125977,8.9077148-9.4125977,5.2116699,0,8.9077148,3.8022461,8.9077148,9.4125977,0,5.6108398-3.6960449,9.4130859-8.9077148,9.4130859Z"/>
  <path class="cls-1" d="m219.8484081,229.8283081c-1.9144897,0-3.2705688,1.3828125-3.2705688,3.3505859v32.7856445c0,1.9677734,1.3560791,3.3769531,3.2705688,3.3769531,1.8879395,0,3.2174072-1.4091797,3.2174072-3.3769531v-32.7856445c0-1.9677734-1.3294678-3.3505859-3.2174072-3.3505859Z"/>
  <path class="cls-1" d="m237.9022411,229.8283081c-1.9144897,0-3.2705688,1.3828125-3.2705688,3.3505859v32.7856445c0,1.9677734,1.3560791,3.3769531,3.2705688,3.3769531,1.8878784,0,3.2174072-1.4091797,3.2174072-3.3769531v-32.7856445c0-1.9677734-1.3295288-3.3505859-3.2174072-3.3505859Z"/>
  <path class="cls-1" d="m279.624226,252.4035034c0-8.0039062-5.5307617-13.7207031-14.225769-13.7207031-8.7216187,0-14.7841797,6.1958008-14.7841797,15.3427734,0,9.4658203,6.1954956,15.5019531,15.6882324,15.5019531,4.626709,0,9.3597412-1.6484375,11.6199341-5.0522461.5317993-.7973633.9306641-1.7016602.9306641-2.5791016,0-1.5952148-.7711182-2.6323242-2.4995117-2.6323242-1.1167603,0-1.9942627.5048828-2.8717041,1.3027344-1.7017822,2.0742188-3.9087524,2.9780273-6.9400635,2.9780273-5.2648926,0-8.8811646-2.8979492-9.3597412-7.4716797h18.9854126c2.2867432,0,3.4567261-1.1699219,3.4567261-3.6694336Zm-22.4421387-1.5688477c.4520264-4.2280273,3.5630493-6.8603516,7.9770508-6.8603516,4.4937744,0,7.5250244,2.5258789,8.0036621,6.8603516h-15.9807129Z"/>
  <path class="cls-1" d="m308.7860912,240.5709839c-1.1965332-1.1166992-3.0844727-1.8881836-5.4509888-1.8881836-3.2440186,0-6.0093994,1.4091797-7.657959,3.9355469v-.3725586c0-1.9941406-1.3295288-3.3769531-3.2174072-3.3769531-1.9145508,0-3.2706299,1.3828125-3.2706299,3.3769531v23.71875c0,1.9677734,1.3560791,3.3769531,3.2706299,3.3769531,1.8878784,0,3.2174072-1.4091797,3.2174072-3.3769531v-12.8432617c0-5.1318359,2.4729004-8.1894531,5.5307617-8.1894531,1.4890137,0,2.605835.7177734,3.4035645,1.621582.5849609.6914062,1.515625,1.4360352,2.6323853,1.4360352,2.100647,0,3.2972412-1.4624023,3.2972412-3.5629883,0-1.4360352-.6116333-2.765625-1.7550049-3.8554688Z"/>
</svg>