<?xml version="1.0" encoding="UTF-8"?><svg id="Layer_1" xmlns="http://www.w3.org/2000/svg" viewBox="0 0 250.83691 235"><defs><style>.cls-1{fill:#faf7ef;}.cls-2{fill:#5a9ecc;}.cls-3{fill:#2e2f71;}</style></defs><g><path class="cls-1" d="M148.78973,6.93517c.76501,.39111,1.50793,.81128,2.22076,1.271-.71277-.45972-1.45575-.87988-2.22076-1.271Z"/><path class="cls-1" d="M145.66821,5.53796c-.62122-.2395-1.24738-.45532-1.87671-.65576,.96259,.3064,1.9129,.67139,2.85596,1.07129-.32642-.13843-.65039-.28857-.97925-.41553Z"/><path class="cls-1" d="M152.05609,8.92663c-.34033-.25098-.68921-.49048-1.04559-.72046,.71277,.45972,1.39551,.95898,2.03998,1.50806-.32227-.27466-.65405-.53662-.99438-.7876Z"/><path class="cls-1" d="M153.98767,10.57629c.60437,.60132,1.16656,1.25806,1.67853,1.97998-.51196-.72192-1.07416-1.37866-1.67853-1.97998Z"/><path class="cls-1" d="M137.99738,3.55505c.39624,.06006,.79126,.12598,1.18524,.19727-.39392-.07129-.789-.13721-1.18524-.19727Z"/><path class="cls-1" d="M139.95935,3.89928c.3985,.08008,.79517,.16992,1.19104,.26294-.39587-.09302-.79248-.18262-1.19104-.26294Z"/><path class="cls-1" d="M141.8902,4.33923c.43024,.11035,.85767,.23486,1.28448,.36182-.42682-.12695-.85425-.25146-1.28448-.36182Z"/><path class="cls-1" d="M176.14349,39.06359c.10999,.20215,.21729,.40601,.32239,.6106-.1051-.20483-.21246-.40845-.32239-.6106Z"/><path class="cls-1" d="M179.02039,46.98522c.03699,.16553,.07281,.3313,.10791,.49707-.0351-.16577-.07092-.33154-.10791-.49707Z"/><path class="cls-1" d="M159.94678,20.63903c-.45374-.70166-.86731-1.43359-1.23724-2.19727-.185-.38184-.35907-.77173-.52185-1.16992,.5614,1.37354,1.26495,2.64258,2.07825,3.83057-.10596-.15479-.21722-.30566-.31915-.46338Z"/><path class="cls-1" d="M179.75427,51.4652c.0166,.16699,.03168,.33472,.04565,.5022-.01398-.16772-.02905-.33496-.04565-.5022Z"/><path class="cls-1" d="M177.06195,40.91613c.08575,.18994,.17548,.37744,.25708,.56958-.0816-.19214-.17126-.37988-.25708-.56958Z"/><path class="cls-1" d="M135.99133,3.29845c.40967,.04321,.8186,.09009,1.22607,.14429-.40747-.0542-.81641-.10107-1.22607-.14429Z"/><path class="cls-1" d="M161.427,22.66027c.35406,.43018,.7301,.84399,1.11578,1.25049-.38574-.40649-.76178-.82031-1.11578-1.25049Z"/><path class="cls-1" d="M175.13648,37.34264c.10992,.17334,.21246,.35107,.31879,.52637-.10632-.17529-.2088-.35303-.31879-.52637Z"/><path class="cls-1" d="M96.38306,19.11462c.61316-.55078,1.23138-1.09619,1.85632-1.63477-.62494,.53857-1.24323,1.08398-1.85632,1.63477Z"/><path class="cls-1" d="M93.19476,22.10973c.79156-.78809,1.60516-1.55347,2.42834-2.30859-.82312,.75537-1.63684,1.52051-2.42834,2.30859Z"/><path class="cls-1" d="M98.9845,16.83849c.82635-.70239,1.6579-1.39917,2.49554-2.08862-.83765,.68945-1.66913,1.38623-2.49554,2.08862Z"/><path class="cls-1" d="M133.89179,3.12023c.45337,.02905,.90631,.06079,1.35736,.10132-.45105-.04053-.90399-.07227-1.35736-.10132Z"/><path class="cls-1" d="M72.32556,40.38879c.12177-.22192,.25128-.44067,.38885-.65649-.13757,.21582-.26715,.43457-.38885,.65649Z"/><path class="cls-1" d="M71.12256,43.75524c-.06903,.37744-.12,.76221-.15289,1.1543,.09875-1.17651,.36023-2.28564,.78265-3.33154-.28162,.69727-.49176,1.42261-.62976,2.17725Z"/><path class="cls-1" d="M103.29352,13.26598c-.30139,.24316-.59985,.49023-.89948,.73584,.8988-.73682,1.80084-1.46875,2.72809-2.16602-.61816,.46484-1.22583,.94409-1.82861,1.43018Z"/><path class="cls-1" d="M71.75232,41.578c.12671-.31396,.27277-.62012,.42841-.92261-.15564,.30249-.3017,.60864-.42841,.92261Z"/><path class="cls-1" d="M126.7536,3.22985c.71136-.07812,1.42426-.14404,2.14032-.18164-.71606,.03784-1.42896,.10352-2.14032,.18164Z"/><path class="cls-1" d="M131.28131,3.005c.66504,.01318,1.32764,.03882,1.9884,.07349-.66077-.03467-1.32336-.0603-1.9884-.07349Z"/><path class="cls-1" d="M70.99524,47.62975c-.03833-.50513-.0658-1.01147-.06995-1.52124,.00415,.50977,.03162,1.01611,.06995,1.52124Z"/><path class="cls-1" d="M114.41492,6.55944c.19373-.08594,.38666-.17407,.58142-.25757-.19476,.0835-.3877,.17163-.58142,.25757Z"/><path class="cls-1" d="M112.52795,7.43786c.21088-.10303,.42242-.20459,.63434-.30518-.21198,.10059-.42346,.20215-.63434,.30518Z"/><path class="cls-1" d="M119.0155,4.81261c.18481-.05762,.37036-.11353,.55634-.16846-.18597,.05493-.37152,.11084-.55634,.16846Z"/><path class="cls-1" d="M110.74011,8.34216c.18079-.09473,.36292-.18652,.54431-.27979-.1814,.09326-.36359,.18506-.54431,.27979Z"/><path class="cls-1" d="M124.54895,3.53527c.52032-.08521,1.04199-.1604,1.56476-.22632-.52283,.06592-1.04443,.14111-1.56476,.22632Z"/><path class="cls-1" d="M127.9671,39.50768c-.70709-.94263-2.12128-1.17896-3.06415-.47168l-1.41412,.94287c-.94287,.70728-1.17865,2.12134-.47131,3.06445l13.67065,18.85596c.70709,.94263,2.12128,1.17871,3.06415,.47144l1.41418-.94263c.94287-.70728,1.17841-2.12134,.47156-3.06396l-13.67096-18.85645Z"/><path class="cls-1" d="M105.10376,71.5631c2.3573,.94312,4.47858,1.41431,6.36407,1.41431h1.41412c2.12152-.23584,3.77148-.70703,5.65723-1.41431,4.00677-1.17822,7.30664-2.35669,12.25653,.23584,1.17841,.70728,2.82837,.23584,3.53546-1.17847,.47125-1.17871,0-2.82861-1.17865-3.2998-6.59961-3.53564-11.54919-1.88574-16.02777-.70728-1.64972,.47144-3.06415,.94312-4.71405,1.17847-1.41418,.23608-3.29968-.23535-5.4212-.94287-1.41418-.47095-2.82837,.23584-3.29993,1.41431-.47131,1.41479,.23578,2.82837,1.41418,3.2998Z"/><path class="cls-1" d="M141.63806,69.67809l4.24249,2.12085c.70709,.47144,1.41418,0,1.41418-.94263l-.47131-4.71411c0-.94312-.70709-1.17896-1.41418-.70728l-3.77118,2.59302c-.70734,.47119-.70734,1.17847,0,1.65015Z"/><path class="cls-1" d="M91.48163,87.54357c-.71582-.90991-1.36963-1.88257-2.1756-2.7063-1.7265-1.76392-2.97424-3.83789-4.10785-5.99561-.31635-.60254-.72858-1.15918-.91156-1.83057-.74011-2.71313-1.4472-5.44141-1.62341-8.25488-.13843-2.21094-.68683-4.34814-1.01422-6.52197-.31787-2.11304-.70886-4.20898-.84949-6.34863-.10864-1.65552-.08112-3.30029,.10107-4.94482,.17798-1.604,.38947-3.20386,.82599-4.7627,.79797-2.84741,2.01593-5.521,3.3465-8.1521,1.32806-2.62671,3.00952-5.00854,4.88751-7.26001,1.16718-1.3999,2.41461-2.73193,3.51794-4.18604,.3584-.47266,.65479-.97461,.92957-1.65356-.68054,.21069-1.24146,.375-1.6825,.84204-2.19257,2.32178-4.3421,4.68799-6.61328,6.93018-2.64441,2.61108-4.28009,5.77344-5.43195,9.23706-1.05878,3.18433-1.5213,6.46899-1.5033,9.81299,.0155,2.89087,.45001,5.75073,.81696,8.61182,.23901,1.86255,.51312,3.72876,.67633,5.59106,.17621,2.01392,.43323,3.99731,.86426,5.96509,.79266,3.61841,2.0722,7.06323,3.79022,10.33716,.72339,1.37866,1.70752,2.58105,2.80084,3.70996,.67957,.70142,1.42114,1.31006,2.16858,1.92041,.27429,.22363,.61993,.36279,.94159,.52393,.13916,.06958,.30212,.06616,.4295-.04395,.14441-.12427,.08612-.28027,.02753-.42041-.05829-.13916-.11938-.28345-.21124-.40015Z"/><path class="cls-1" d="M174.05371,75.34264c.21472-.8999,.45691-1.79468,.72858-2.68359,.07227-.23633,.16058-.4668,.23779-.70142-.07721,.23462-.16553,.46509-.23779,.70142-.27167,.88892-.51385,1.78345-.72858,2.68359Z"/><path class="cls-1" d="M177.7218,65.06408c.09399-.22827,.19067-.45557,.28308-.68433,.2384-.59058,.45325-1.18579,.64539-1.78613-.19208,.6001-.40698,1.19556-.64539,1.78613-.09241,.22876-.18909,.45605-.28308,.68433Z"/><path class="cls-1" d="M128.57159,6.48351c.10809,.02759,.22626,.02075,.3399,.01953,.66699-.00537,1.32703,.07666,1.98431,.17432,4.19299,.62573,8.3291,1.53784,12.42175,2.62305,2.84784,.75488,5.34784,2.26025,7.63477,4.09399,1.59363,1.27783,2.82684,2.91382,4.18774,4.42163,.18121,.20068,.33514,.54419,.68079,.36597,.33386-.17188,.23651-.52271,.20325-.82153-.01025-.09204-.05505-.18066-.08612-.27075-.73938-2.15015-1.79114-4.06445-3.5835-5.57422-2.00012-1.68555-4.1687-3.0752-6.59406-3.99316-3.87683-1.46729-7.95343-1.93237-12.07031-2.09351-.39948,0-.8017-.03198-1.19739,.00562-1.31958,.12549-2.6662,.05103-3.94421,.49756-.12714,.04443-.34912,.0376-.33636,.23364,.01147,.18286,.1897,.2749,.35944,.31787Z"/><path class="cls-1" d="M175.26288,38.56017c-2.31274-4.21118-5.53455-7.64819-9.30499-10.5896-.13721-.10718-.26611-.29834-.57568-.20679,.3609,.21729,.55164,.50366,.75885,.77441,1.82294,2.38477,3.64032,4.77368,5.46924,7.15454,2.10577,2.74121,3.86682,5.66064,4.97064,8.96753,.99347,2.9751,1.55188,6.01611,1.72058,9.13794,.02875,.53052,.05176,1.06323,.04553,1.59424-.02051,1.71924,.10663,3.43823-.22424,5.15283-.28009,1.4502-.57623,2.89526-.86102,4.354,.03448-.04248,.08105-.08008,.10162-.12866,1.92426-4.56836,2.55902-9.29053,1.84863-14.21582-.61169-4.24146-1.89221-8.24976-3.94916-11.99463Z"/><path class="cls-1" d="M175.07916,62.91491c.95612-3.17188,1.12408-6.43164,.90656-9.69849-.21875-3.28149-.88477-6.47559-2.64062-9.35718,.74744,3.11768,1.41272,6.24756,1.63947,9.44434,.22675,3.19727-.10736,6.40161,.0946,9.61133Z"/><path class="cls-1" d="M168.18799,45.50817c-.7536-2.33521-1.57538-4.63892-2.70044-6.81787-1.96509-3.80566-4.68555-7.05591-7.71216-10.04102-2.20831-2.17847-4.62744-4.11719-7.3219-5.69263-2.10699-1.23145-4.3559-2.11304-6.63184-2.97852-2.29425-.87256-4.62476-1.61011-6.96429-2.33276-1.43591-.4436-2.90192-.78955-4.38892-.9812-7.16577-.92456-14.00934,.20923-20.5321,3.30493l.49664,.22729c.12109,.22314,.38068,.52905,.23224,.71484-.31964,.40039,.00049,.28931,.17346,.26782,.18597-.02295,.36542-.09912,.54639-.15674,2.22015-.70386,4.41449-1.50928,6.73547-1.83667,1.25928-.17773,2.48596-.55762,3.75897-.63013,1.17438-.06714,2.35577-.02515,3.52795-.11426,3.57043-.27148,7.0423,.37744,10.49316,1.13232,1.55286,.33936,3.04657,.91748,4.53687,1.49976,3.61627,1.41284,7.00427,3.21069,10.12146,5.53052,2.31226,1.7207,4.3822,3.70386,6.41211,5.73633,.1687,.16919,.34119,.2793,.60522,.34888,.50885,.1333,1.10931,.1377,1.48029,.60181,1.50824,1.88428,2.5625,4.03076,3.52441,6.22339,.8385,1.91113,1.54309,3.87646,2.20612,5.85474,1.45093,4.32886,2.38055,8.75903,2.48468,13.33887,.02802,1.23145,.00403,2.46387,.00403,3.69604l.16766-.00171c.1792-1.61133,.41827-3.21875,.5174-4.83447,.07056-1.15137-.05457-2.31592-.10687-3.47168-.13318-2.93848-.76141-5.78638-1.66602-8.58789Z"/><path class="cls-1" d="M166.73987,107.08971c.45239-.61377,.87347-1.25781,1.2619-1.93359l.00208-.00391-.00208,.00391c-.38843,.67578-.80945,1.31958-1.2619,1.93359Z"/><path class="cls-1" d="M131.00372,105.62194c-.92358-.08545-1.84821-.11157-2.77631-.13257-1.4024-.03198-2.80005-.24634-4.20276-.28491-2.7392-.07544-5.44568-.51099-8.16064-.79443-2.14105-.22314-4.31512-.67773-6.23285-1.8291-.12921-.07764-.27484-.13013-.41754-.18164-.37292-.13428-.58691-.00806-.62921,.39453-.05109,.48584,.02728,.95654,.25427,1.38208,.3219,.60205,.63074,1.22339,1.03973,1.76489,.9386,1.24268,2.12628,2.10767,3.771,2.08252,1.13782-.01709,2.2757-.06543,3.41205-.12695,.51031-.02808,1.02191-.07324,1.52155-.21338,1.35486-.37891,2.73895-.61475,4.12836-.82349,.25055-.0376,.49036-.00049,.73615,.0271,1.24396,.13916,2.48895,.27026,3.60724,.39038,1.54938-.03857,2.92773-.23169,4.1369-1.06421,.15271-.10522,.39874-.19189,.34845-.40308-.06311-.2627-.3399-.16968-.53638-.18774Z"/><path class="cls-1" d="M168.92889,84.79528c-1.07526,1.94531-2.04016,3.97437-3.42859,5.71045-2.43311,3.04297-4.5719,6.32324-7.32513,9.11011-1.01672,1.02881-2.09125,1.97729-3.27893,2.80933-.6958,.48779-1.3866,1.0022-1.95703,1.64648-.53589,.60522-.47382,.85498,.27808,1.17383,.10309,.0437,.21924,.08179,.32886,.08057,1.00519-.00781,2.00867,.05615,3.01508-.09302,1.55487-.23071,3.01636-.75488,4.45227-1.34912,1.21747-.50366,2.30377-1.27759,3.29614-2.11304,1.01801-.85693,1.80292-1.95728,2.33606-3.21973,.56189-1.33057,1.00269-2.70117,1.4527-4.06885,.52216-1.58789,.75391-3.24683,1.10181-4.87769,.31738-1.48584,.55615-2.98364,.69983-4.49194,.04083-.42847,.16296-.95068-.23877-1.38013-.35242,.32007-.53162,.69946-.73236,1.06274Z"/><path class="cls-1" d="M99.6593,97.04943c-1.06-.53467-2.01489-1.19702-2.86511-2.03491-.75293-.74243-1.41693-.53223-1.7854,.46997-.21021,.57178-.04877,1.12231,.00781,1.68555,.15741,1.56421,1.02441,2.27563,2.57074,2.01685,1.44171-.24072,2.85889-.61865,4.31665-.77832,.19873-.02148,.41748-.05371,.63873-.25586-.46002-.32397-.90753-.54761-1.42267-.64282-.50385-.09302-.99396-.22485-1.46075-.46045Z"/><path class="cls-1" d="M178.54572,45.02966l-.00043-.00195c-.15234-.57129-.32269-1.13281-.51025-1.6853l-.00098-.00244c.18787,.55322,.35864,1.11548,.51123,1.68774l.00043,.00195Z"/><path class="cls-1" d="M146.26202,96.22546c-.79791,.05005-1.41315,.38892-2.03589,.67676-3.96771,1.83252-8.15515,2.78027-12.49835,3.02051-3.44482,.19043-6.87061-.05859-10.27362-.66382-6.7085-1.19336-12.73712-3.86987-17.97308-8.24414-5.18262-4.32959-8.9939-9.70654-11.79944-15.81372-1.39893-3.04565-2.34106-6.25098-3.20856-9.49976,.07056,1.03833-.0766,2.07593-.01953,3.09204,.05804,1.04443,.44501,2.07007,.6853,3.10425,.28381,1.22095,.73987,2.38135,1.18591,3.55029,.97766,2.56299,2.16907,4.98486,3.86005,7.17847,1.47229,1.90967,2.92175,3.82056,4.59344,5.56958,1.96936,2.0603,4.16748,3.83301,6.4837,5.46436,.79193,.55737,1.46875,1.28052,2.35077,1.69897,1.43671,.68091,2.86542,1.39136,4.34619,1.96436,1.83362,.70947,3.67883,1.3833,5.61115,1.83569,1.68097,.39355,3.38849,.64087,5.06171,1.05786,.2005,.05005,.41528,.07153,.62177,.06299,1.10602-.04639,2.1991,.13135,3.29938,.1748,1.58838,.0625,3.16602,.29883,4.76941-.01367,.87878-.17114,1.79913-.2146,2.7157-.20312,.88757,.01147,1.79218-.05664,2.66266-.22583,3.17426-.6167,6.17535-1.72754,8.9942-3.31885,.18744-.10571,.39771-.1936,.56714-.46802Z"/><path class="cls-1" d="M76.07501,35.97936c-.60999,.55908-1.20264,1.14062-1.77972,1.74268-.28265,.29492-.54773,.59619-.7951,.90381-.22272,.2771-.42633,.56152-.62036,.84937,.40961-.60767,.87836-1.19312,1.41547-1.75317,.57709-.60205,1.16974-1.18359,1.77972-1.74268Z"/><path class="cls-1" d="M90.63013,24.80871c.27509-.30737,.56995-.59448,.85095-.896-.28101,.30151-.57587,.58862-.85095,.896-2.47992,2.77124-5.29553,5.03809-8.55066,6.82153-.72949,.3999-1.43646,.83008-2.12268,1.28809,.68622-.45801,1.39319-.88818,2.12268-1.28809,3.25513-1.78345,6.07074-4.05029,8.55066-6.82153Z"/><path class="cls-1" d="M71.22919,49.63122c.07776,.49512,.16461,.98853,.26807,1.47949,.11548,.54785,.24597,1.09351,.38916,1.63672,.22162,.84131,.47076,1.67383,.73712,2.50049-.26636-.82666-.5155-1.65918-.73712-2.50049-.27142-1.03003-.49274-2.06885-.65723-3.11621Z"/><path class="cls-1" d="M76.34045,66.55749c.0719,.40234,.12958,.80786,.15576,1.22021,.01617,.25488,.02246,.51221,.01721,.77197h0c.01373-.67969-.05658-1.34082-.17297-1.99219Z"/><path class="cls-1" d="M150.35022,117.69469c.59344-.17969,1.17975-.37451,1.75903-.58447,1.15863-.41968,2.28931-.89844,3.39471-1.4314,2.21069-1.06592,4.31989-2.34888,6.34656-3.80981,.63068-.45459,1.23334-.93262,1.80688-1.43604-.57355,.50342-1.17621,.98145-1.80688,1.43604-3.54669,2.55664-7.34595,4.56812-11.50031,5.82568Z"/><path class="cls-1" d="M164.04858,25.38293c.33807,.30347,.67365,.60938,1.01068,.91382-.3371-.30444-.67255-.61035-1.01068-.91382-.42072-.37769-.82184-.77002-1.21368-1.16919,.39185,.39941,.79297,.7915,1.21368,1.16919Z"/><path class="cls-1" d="M124.32764,112.83654c.50232,.21216,.98242,.47778,1.45404,.76416-1.17914-.71558-2.43591-1.24268-3.84698-1.3999,.84668,.09448,1.63947,.31763,2.39294,.63574Z"/><path class="cls-1" d="M171.84784,32.97985c.77704,.88135,1.508,1.78931,2.18634,2.72705-.67834-.93774-1.4093-1.8457-2.18634-2.72705-.60156-.68213-1.22076-1.34644-1.85345-1.99707-.94897-.97583-1.93372-1.91504-2.92938-2.84351,1.65936,1.54736,3.27887,3.13501,4.78284,4.84058Z"/><path class="cls-1" d="M84.25269,96.25085c.12311,.04883,.24304,.10449,.36853,.14893,.25098,.08838,.50488,.1709,.7547,.26123,.10657,.03833,.19653,.08105,.2771,.12573-.08057-.04468-.17047-.0874-.2771-.12573-.37469-.13574-.75385-.26294-1.12323-.41016Z"/><path class="cls-1" d="M120.79108,112.24548c.15033-.02856,.30139-.05444,.45782-.06323-.15674,.00757-.30713,.03638-.45782,.06323Z"/><path class="cls-1" d="M97.86884,112.73791c.02655,.05493,.0531,.11011,.07947,.16528l.0177,.03784-.0177-.03784c-.02637-.05518-.05328-.11011-.07947-.16528Z"/><path class="cls-1" d="M100.84998,118.04675c.2027,.23364,.41205,.44873,.62799,.64575,.20343,.18555,.41382,.35205,.62878,.50586-.44318-.31689-.86316-.69775-1.25677-1.15161Z"/><path class="cls-1" d="M85.71973,96.82995c.05096,.03271,.09662,.06689,.13464,.10278-.03809-.03589-.08368-.07007-.13464-.10278Z"/><path class="cls-1" d="M86.00543,97.15807c.01855,.05957,.02777,.12158,.0202,.18726,.00751-.06567-.00165-.12769-.0202-.18726Z"/><path class="cls-1" d="M91.43701,110.24352c.25208-.09253,.50281-.20215,.75098-.32935,.46741-.23975,.96185-.37329,1.45538-.40942-.49353,.03613-.98798,.16943-1.45538,.40942-.24817,.1272-.4989,.23682-.75098,.32935Z"/><path class="cls-1" d="M123.92572,3.6383c-.69897,.12427-1.39648,.25879-2.09113,.41235l-.00452,.00122,.00452-.00122c.69464-.15356,1.39215-.28809,2.09113-.41235Z"/><path class="cls-1" d="M104.2088,120.1632c-.15027-.03735-.29858-.08008-.44495-.12817,.1463,.0481,.29462,.09082,.44495,.12817Z"/><path class="cls-1" d="M103.47192,119.93224c-.14685-.05664-.29071-.12183-.43329-.19019,.14264,.06836,.28644,.13354,.43329,.19019Z"/><path class="cls-1" d="M102.77148,119.6112c-.15228-.08252-.30029-.17651-.44745-.27295,.14716,.09644,.29517,.19043,.44745,.27295Z"/><path class="cls-1" d="M106.9234,120.30212c-.28046,.03418-.55524,.05322-.82581,.06055,.27057-.00732,.54535-.02637,.82581-.06055Z"/><path class="cls-1" d="M99.96002,116.85168c-.24597-.38159-.46613-.77734-.67725-1.17798,.21118,.40088,.43127,.79639,.67725,1.17798Z"/><path class="cls-1" d="M104.98944,120.30578c-.16028-.01953-.31946-.04248-.47571-.07324,.15625,.03076,.31543,.05371,.47571,.07324Z"/><path class="cls-1" d="M85.54956,109.37316c-.07709-.05835-.15271-.11865-.22705-.18066,.07458,.06226,.14984,.12207,.22705,.18066Z"/><path class="cls-1" d="M88.93738,110.61462c-.09857-.00513-.19678-.0127-.29449-.02271,.09796,.01001,.19568,.01758,.29449,.02271Z"/><path class="cls-1" d="M108.14264,120.0631c.13123-.0354,.25604-.08838,.38531-.12891-.32324,.10156-.6543,.1814-.99017,.24805,.20154-.03979,.40802-.06616,.60486-.11914Z"/><path class="cls-1" d="M88.05597,110.50134c-.08447-.01685-.16998-.03027-.25348-.05078,.08368,.02051,.16876,.03394,.25348,.05078Z"/><path class="cls-1" d="M86.25287,109.83849c-.07471-.04199-.14563-.09009-.21857-.13501,.07306,.04492,.14374,.09302,.21857,.13501Z"/><path class="cls-1" d="M99.08637,115.28967c-.15295-.30396-.30322-.60962-.44812-.91797,.1449,.30835,.29517,.61401,.44812,.91797Z"/><path class="cls-1" d="M96.37,110.38512c-.37817-.31763-.81305-.55566-1.27679-.70557,.46375,.1499,.89868,.38794,1.27679,.70557Z"/><path class="cls-1" d="M89.80792,110.60363c-.09039,.00806-.17993,.00806-.26996,.01196,.09015-.00391,.17944-.00391,.26996-.01196Z"/><path class="cls-1" d="M90.6778,110.47057c.25366-.05908,.50708-.13452,.75922-.22705-.25342,.09302-.50818,.16846-.76312,.22754l.00391-.00049Z"/><path class="cls-1" d="M105.83221,120.35925c-.18219-.00122-.36359-.00464-.54108-.01855,.17749,.01392,.35889,.01733,.54108,.01855Z"/><path class="cls-1" d="M142.69098,118.88854c-.40948,.00171-.8186-.00562-1.22736-.02246,.40875,.01685,.81787,.02417,1.22736,.02246Z"/><path class="cls-1" d="M115.43976,115.93176c.21021-.1604,.41553-.32739,.62402-.48999-.57098,.44556-1.15283,.87622-1.74011,1.29932,.37286-.26855,.75055-.53076,1.11609-.80933Z"/><path class="cls-1" d="M144.8446,118.79821c.41034-.03638,.82159-.09863,1.23267-.15576-.96759,.13428-1.93335,.21997-2.89679,.24243,.55414-.01294,1.10864-.0376,1.66412-.08667Z"/><path class="cls-1" d="M168.87262,103.45983c-.0531,.11426-.10742,.22803-.16248,.3418,.05505-.11377,.10938-.22754,.16248-.3418Z"/><path class="cls-1" d="M135.48633,118.00402c-.54187-.1311-1.08331-.27124-1.62402-.42798,.54071,.15674,1.08215,.29688,1.62402,.42798Z"/><path class="cls-1" d="M139.31177,118.70177c-.54541-.06445-1.08984-.14844-1.63397-.24243,.54413,.09399,1.08868,.17822,1.63397,.24243Z"/><path class="cls-1" d="M137.18768,118.36803c-.40521-.07642-.81012-.16064-1.21466-.25244,.40454,.09204,.80945,.17603,1.21466,.25244Z"/><path class="cls-1" d="M140.97461,118.8446c-.54468-.03223-1.08881-.07568-1.6322-.13916,.54333,.06348,1.08759,.10693,1.6322,.13916Z"/><path class="cls-1" d="M179.72675,57.48327c-.10272,.90161-.25104,1.79004-.44025,2.66772,.18921-.87769,.33746-1.76611,.44025-2.66772Z"/><path class="cls-1" d="M120.62726,112.27258c-.18665,.04248-.36829,.10645-.54694,.18066,.17847-.07593,.3606-.13599,.54694-.18066Z"/><path class="cls-1" d="M119.48975,112.76769c.18274-.1189,.36877-.21899,.55859-.302-.23981,.10254-.47437,.23291-.70276,.396,.04834-.02979,.09613-.06274,.14417-.09399Z"/><path class="cls-1" d="M170.44409,99.18102c-.04205,.14551-.08514,.29077-.12885,.43579,.0437-.14502,.08673-.29028,.12885-.43579Z"/><path class="cls-1" d="M170.04285,100.47668c-.04291,.13013-.08435,.26074-.12885,.39014,.04449-.12964,.08594-.26001,.12885-.39014Z"/><path class="cls-1" d="M170.78949,97.92272c-.03326,.12891-.06891,.25708-.10321,.38574,.0343-.12866,.06989-.25684,.10321-.38574Z"/><path class="cls-1" d="M173.07819,80.80309c.11316-.91968,.24969-1.83472,.41156-2.74487,.16193-.9104,.34924-1.81567,.56396-2.71558-.57263,2.3999-.9353,4.84058-1.15649,7.30786,.0553-.6167,.10553-1.23438,.18097-1.84741Z"/><path class="cls-1" d="M85.86578,97.71813c-.04669,.06689-.10345,.13599-.17023,.20728,.13361-.14282,.22693-.27612,.28021-.40063-.02661,.06226-.06323,.12671-.10999,.19336Z"/><path class="cls-1" d="M85.98047,97.10436c-.0188-.04053-.04272-.07959-.07428-.11719,.03162,.03735,.05554,.07666,.07428,.11719Z"/><path class="cls-1" d="M71.16669,49.19128c-.05176-.36914-.09497-.73975-.13025-1.11157,.03528,.37183,.07849,.74243,.13025,1.11157Z"/><path class="cls-1" d="M76.31165,66.38879c-.07349-.38159-.16431-.75952-.26624-1.13501,.10193,.37549,.19275,.75342,.26624,1.13501Z"/><path class="cls-1" d="M84.95862,98.80651c.16907-.22656,.3446-.45068,.53162-.67114-.18707,.22046-.36249,.44482-.53162,.67114Z"/><polygon class="cls-1" points="75.88037 77.76257 75.88037 77.76501 75.88037 77.76257 75.88037 77.76257"/><path class="cls-1" d="M80.25616,93.55309c-.58557-.58789-1.10291-1.23071-1.55219-1.92896,.44922,.69824,.96661,1.34106,1.55219,1.92896Z"/><path class="cls-1" d="M84.89063,108.79308c-.06146-.06226-.12543-.12134-.18439-.18628,.05908,.06494,.1228,.12402,.18439,.18628Z"/><path class="cls-1" d="M84.46039,99.53136c.11072-.17407,.22681-.34644,.34851-.5166-.1217,.17017-.23779,.34253-.34851,.5166Z"/><path class="cls-1" d="M77.89642,90.15514c-.17889-.38477-.34637-.77881-.49158-1.19116,.1452,.41235,.31268,.8064,.49158,1.19116Z"/><path class="cls-1" d="M78.51257,91.30895c-.15924-.26514-.30914-.5376-.44971-.81812,.14056,.28052,.29041,.55298,.44971,.81812Z"/><path class="cls-1" d="M82.57581,95.38659c-.37146-.229-.72034-.47583-1.05774-.73218,.3374,.25635,.68622,.50317,1.05774,.73218Z"/><path class="cls-1" d="M81.22559,94.42028c-.24335-.19653-.47729-.40063-.70184-.6123,.22455,.21167,.4585,.41577,.70184,.6123Z"/><path class="cls-1" d="M83.33575,102.03698c.05261-.19531,.11206-.38867,.17883-.5791-.06677,.19043-.12628,.38379-.17883,.5791Z"/><path class="cls-1" d="M75.21088,62.62609c-.83386-2.46899-1.78827-4.89819-2.58734-7.37817,.79907,2.47998,1.75348,4.90942,2.58734,7.37817Z"/><path class="cls-1" d="M83.12073,103.0924c.03516-.27759,.08917-.54883,.15228-.81665-.06311,.26807-.11719,.53906-.15228,.81665Z"/><path class="cls-1" d="M83.47681,106.58874c.18066,.48828,.41663,.94141,.69849,1.354-.35236-.51587-.62207-1.10107-.81268-1.7334,.03809,.12646,.06903,.25732,.1142,.37939Z"/><path class="cls-1" d="M83.59583,101.22887c.09729-.25391,.20294-.50513,.3241-.75098-.12115,.24585-.22675,.49707-.3241,.75098Z"/><path class="cls-1" d="M75.98676,65.04089c-.1051-.37109-.2182-.74072-.33838-1.10889,.12012,.36816,.23328,.73779,.33838,1.10889Z"/><path class="cls-1" d="M83.92188,100.47399c.1217-.24658,.25854-.48779,.40259-.72681-.14404,.23901-.28088,.48022-.40259,.72681Z"/><path class="cls-1" d="M75.56866,63.69103c-.11786-.35522-.23792-.70996-.35779-1.06494,.11987,.35498,.23993,.70972,.35779,1.06494Z"/><path class="cls-2" d="M179.90881,53.99035c-.01031-.677-.05286-1.35083-.10889-2.02295-.01398-.16748-.02905-.33521-.04565-.5022-.13281-1.33618-.34692-2.66333-.62598-3.98291-.0351-.16577-.07092-.33154-.10791-.49707-.14606-.65332-.30139-1.30566-.47467-1.95557l-.00043-.00195c-.15259-.57227-.32336-1.13452-.51123-1.68774-.21436-.6311-.45703-1.24683-.71503-1.85425-.0816-.19214-.17133-.37964-.25708-.56958-.18945-.41895-.38672-.83374-.59607-1.24194-.1051-.20459-.2124-.40845-.32239-.6106-.21948-.40356-.44995-.80127-.68823-1.19458-.10632-.17529-.20886-.35303-.31879-.52637-.35126-.5542-.71564-1.10132-1.10229-1.63574-.67834-.93774-1.4093-1.8457-2.18634-2.72705-1.50397-1.70557-3.12347-3.29321-4.78284-4.84058-.66376-.6189-1.3316-1.23389-2.00574-1.84253-.33704-.30444-.67261-.61035-1.01068-.91382-.42072-.37769-.82184-.76978-1.21368-1.16919-.09833-.10034-.19568-.20142-.29211-.30298-.38568-.40649-.76172-.82031-1.11578-1.25049-.41211-.50073-.7948-1.02319-1.16107-1.55786-.81329-1.18799-1.51685-2.45703-2.07825-3.83057-.67505-1.65186-1.48126-3.2478-2.52148-4.71558-.51196-.72192-1.07416-1.37866-1.67853-1.97998-.30219-.30078-.61493-.58765-.93719-.86206-.64447-.54907-1.32721-1.04834-2.03998-1.50806-.71283-.45972-1.45575-.87988-2.22076-1.271-.38251-.19556-.77051-.38403-1.16309-.56616-.32391-.15039-.65277-.2771-.97919-.41553-.94305-.3999-1.89337-.76489-2.85596-1.07129-.20459-.06494-.41138-.12012-.61682-.18115-.42682-.12695-.85425-.25146-1.28448-.36182-.24573-.06323-.49298-.11914-.73981-.177-.39587-.09302-.79254-.18286-1.19104-.26294-.2583-.05225-.5174-.1001-.77673-.14697-.39398-.07129-.789-.13721-1.18524-.19727-.25964-.03906-.51941-.07788-.77997-.1123-.40747-.0542-.81641-.10107-1.22607-.14429-.24731-.02612-.49414-.05444-.74219-.0769-.45105-.04053-.90399-.07227-1.35736-.10132-.20746-.01318-.41412-.03076-.62207-.04175-.66077-.03467-1.32336-.0603-1.9884-.07349-.79877-.01392-1.59454,.00146-2.38739,.04321-.71606,.0376-1.42896,.10352-2.14032,.18164-.21368,.02368-.42664,.052-.63989,.0791-.52277,.06592-1.04443,.14111-1.56476,.22632-.20782,.03394-.41583,.06616-.62323,.10303-.69897,.12427-1.39648,.25879-2.09113,.41235l-.00452,.00122c-.76398,.16895-1.51404,.37329-2.25824,.59229-.18597,.05493-.37152,.11084-.55634,.16846-1.36743,.42676-2.70599,.92627-4.01917,1.48926-.19476,.0835-.3877,.17163-.58142,.25757-.41956,.18604-.83746,.37646-1.25262,.57324-.21191,.10059-.42346,.20215-.63434,.30518-.41644,.20361-.83075,.41211-1.24353,.62451-.1814,.09326-.36353,.18506-.54431,.27979-.58246,.30591-1.16272,.61743-1.7395,.93677-1.36395,.75513-2.64215,1.6272-3.87848,2.55688-.92725,.69727-1.82928,1.4292-2.72809,2.16602-.29962,.24561-.60034,.48975-.89954,.73608l-.01447,.01196c-.83765,.68945-1.66919,1.38623-2.49554,2.08862-.24982,.21216-.49683,.42749-.74512,.64136-.62494,.53857-1.24316,1.08398-1.85632,1.63477-.25391,.22827-.50848,.45557-.75995,.68652-.82318,.75513-1.63678,1.52051-2.42834,2.30859-.5871,.58472-1.14801,1.19629-1.71368,1.80298-.28101,.30151-.57587,.58862-.85095,.896-2.47992,2.77124-5.29553,5.03809-8.55066,6.82153-.72949,.3999-1.43646,.83008-2.12268,1.28809-1.37244,.91602-2.66174,1.94312-3.88177,3.06104-.60999,.55908-1.20264,1.14062-1.77972,1.74268-.53711,.56006-1.00586,1.14551-1.41547,1.75317-.05719,.08472-.11066,.17114-.16541,.25708-.13757,.21582-.26709,.43457-.38885,.65649-.04865,.08862-.09869,.17676-.14484,.2666-.15564,.30249-.3017,.60864-.42841,.92261-.42242,1.0459-.6839,2.15503-.78265,3.33154-.0329,.39209-.04773,.79175-.04437,1.19897,.00415,.50977,.03162,1.01611,.06995,1.52124,.01141,.15015,.02692,.2998,.0412,.44995,.03528,.37183,.07849,.74243,.13025,1.11157,.02051,.14673,.03949,.2937,.0625,.43994,.16449,1.04736,.3858,2.08618,.65723,3.11621,.22162,.84131,.47076,1.67383,.73712,2.50049,.79907,2.47998,1.75348,4.90918,2.58734,7.37817,.11987,.35498,.23993,.70972,.35779,1.06494,.02661,.08032,.05347,.16064,.07971,.24097,.12018,.36816,.23328,.73779,.33838,1.10889,.02002,.0708,.03943,.14185,.05865,.21289,.10193,.37549,.19275,.75342,.26624,1.13501,.0108,.05591,.0188,.11255,.02881,.1687,.11639,.65137,.18671,1.3125,.17297,1.99219h0c-.0401,1.97729-.16473,3.95215-.39899,5.91504-.13177,1.10327-.20886,2.20239-.23407,3.29785v.00244c-.06268,2.73755,.19879,5.45166,.74176,8.14966,.10864,.53979,.22852,1.07886,.35931,1.61743,.12012,.49438,.26135,.97168,.4234,1.43188,.1452,.41235,.31268,.8064,.49158,1.19116,.05298,.11401,.11053,.22412,.16644,.33569,.14056,.28052,.29047,.55298,.44971,.81812,.06335,.10547,.12512,.21216,.19141,.31519,.44928,.69824,.96661,1.34106,1.55219,1.92896,.08667,.08691,.17792,.17017,.26758,.25488,.22455,.21167,.4585,.41577,.70184,.6123,.09705,.07861,.19244,.1582,.29248,.23413,.3374,.25635,.68628,.50317,1.05774,.73218,.41492,.25537,.85089,.4939,1.30835,.71509,.11902,.05737,.24536,.09985,.36853,.14917,.36938,.14722,.74854,.27441,1.12323,.41016,.10663,.03833,.19653,.08105,.2771,.12573,.02472,.01392,.04449,.02881,.06671,.04321,.05096,.03271,.09656,.06689,.13464,.10278,.01886,.01782,.03613,.03589,.05182,.05444,.03156,.0376,.05548,.07666,.07428,.11719,.0083,.01807,.01917,.03516,.02496,.05371,.01855,.05957,.02771,.12158,.0202,.18726-.00659,.05737-.02325,.11743-.04987,.17944-.05328,.12451-.14661,.25781-.28021,.40063-.06488,.06909-.13892,.1311-.20001,.20337l-.00531,.00659c-.18701,.22046-.36255,.44458-.53162,.67114-.05139,.06885-.10004,.13867-.14972,.20825-.1217,.17017-.23779,.34253-.34851,.5166-.04565,.07178-.09222,.14331-.13593,.21582-.14404,.23901-.28088,.48022-.40259,.72681l-.00195,.00391c-.12115,.24585-.22681,.49707-.3241,.75098-.02899,.07568-.0545,.15259-.08124,.229-.06677,.19043-.12622,.38379-.17883,.5791-.0213,.07959-.04382,.15869-.06274,.23877-.06311,.26782-.11713,.53906-.15228,.81665-.03894,.30859-.06018,.62354-.06238,.94531-.0022,.32153,.01453,.64966,.05139,.98511,.04565,.41553,.13849,.80737,.25287,1.18652,.19061,.63232,.46033,1.21753,.81268,1.7334,.16132,.23633,.34131,.45508,.53094,.66406,.05896,.06494,.12292,.12402,.18439,.18628,.13855,.14014,.28143,.27393,.43188,.39941,.07434,.06201,.14996,.12231,.22705,.18066,.15631,.11841,.31824,.22729,.48474,.33032,.07294,.04492,.14386,.09302,.21857,.13501,.48511,.27246,1.00549,.47852,1.54962,.61206,.0835,.02051,.16901,.03394,.25348,.05078,.19373,.03906,.38873,.07031,.58691,.09058,.09772,.01001,.19592,.01758,.29449,.02271,.19897,.01074,.39905,.00977,.60059,.00098,.09003-.00391,.17957-.00391,.26996-.01196,.2879-.02539,.57678-.06543,.86597-.13257,.25494-.05908,.5097-.13452,.76312-.22754,.25208-.09253,.50281-.20215,.75098-.32935,.46741-.23999,.96185-.37329,1.45538-.40942s.98608,.02515,1.44983,.1748c.46375,.1499,.89862,.38794,1.27679,.70557,.18909,.15869,.36395,.3374,.52118,.53491s.29675,.41382,.4151,.64746c.19543,.38599,.37708,.7793,.56256,1.17041,.02618,.05518,.0531,.11011,.07947,.16528l.0177,.03784c.22711,.47534,.44818,.95386,.67224,1.43066,.1449,.30835,.29517,.61401,.44812,.91797,.06464,.12842,.12939,.25684,.19641,.38403,.21112,.40063,.43127,.79639,.67725,1.17798,.26727,.41455,.56024,.81494,.88995,1.19507,.39362,.45386,.8136,.83472,1.25677,1.15161,.07098,.05054,.14508,.09253,.21729,.13989,.14716,.09644,.29517,.19043,.44745,.27295,.08771,.04736,.1778,.08789,.26715,.13086,.14258,.06836,.28644,.13354,.43329,.19019,.09625,.03711,.19391,.07056,.29193,.10278,.14636,.0481,.29468,.09082,.44495,.12817,.10095,.02515,.20221,.04907,.30493,.06934,.15625,.03076,.31543,.05371,.47571,.07324,.10034,.01245,.19983,.02686,.3017,.03491,.17749,.01392,.35889,.01733,.54108,.01855,.08868,.00049,.1756,.00586,.26538,.00342,.27057-.00732,.54535-.02637,.82581-.06055l.00952-.00073c.20673-.02539,.40332-.0791,.60486-.11914,.33588-.06665,.66693-.14648,.99017-.24805,1.03436-.3252,2.01501-.7981,2.96661-1.33936,.98492-.56006,1.91541-1.19531,2.8291-1.85376,.58728-.4231,1.16913-.85376,1.74011-1.29932,1.04248-.81323,2.07031-1.64648,3.10718-2.46655,.05701-.04517,.117-.07251,.17462-.11353,.22839-.16309,.46295-.29346,.70276-.396l.03198-.01245c.17865-.07422,.36029-.13818,.54694-.18066,.05365-.01221,.10938-.01758,.16382-.0271,.1507-.02686,.30109-.05566,.45782-.06323,.22253-.01074,.44952-.00781,.68579,.01855,1.41107,.15723,2.66785,.68433,3.84698,1.3999,.23584,.14307,.47314,.28247,.70294,.44019,1.13684,.78076,2.31592,1.47168,3.54242,2.06348,.61322,.29614,1.23828,.56738,1.87579,.8125s1.28748,.4646,1.9505,.65674l.00897,.00244c.54071,.15674,1.08215,.29688,1.62402,.42798,.16217,.03931,.32446,.07471,.48669,.11157,.40454,.0918,.80945,.17603,1.21466,.25244,.16333,.03101,.32666,.06299,.49011,.09131,.54413,.09399,1.08856,.17798,1.63397,.24243l.03064,.00366c.5434,.06348,1.08752,.10693,1.6322,.13916,.16284,.00952,.32599,.01465,.48901,.02148,.40875,.01685,.81787,.02417,1.22736,.02246,.16315-.00073,.32623,0,.4895-.00366,.96344-.02246,1.9292-.10815,2.89679-.24243,.82214-.11377,1.64526-.25439,2.47046-.45557,.60828-.14819,1.20898-.3125,1.80249-.49219,4.15436-1.25757,7.95361-3.26904,11.50031-5.82568,.63068-.45459,1.23334-.93262,1.80688-1.43604s1.11798-1.03223,1.63208-1.58862c.51416-.5564,.99792-1.14062,1.45038-1.75464s.87347-1.25781,1.2619-1.93359l.00208-.00391c.25476-.44336,.48553-.89526,.7063-1.35059,.05505-.11377,.10938-.22754,.16248-.3418,.39404-.8479,.73889-1.71289,1.04138-2.59302,.04449-.12939,.08594-.26001,.12885-.39014,.09406-.2854,.18555-.57202,.2724-.85986,.0437-.14502,.08679-.29028,.12885-.43579,.08374-.28979,.16431-.58057,.24219-.87256,.0343-.12866,.06995-.25684,.10321-.38574,.10693-.41406,.21021-.82935,.30847-1.24634,1.01471-4.30762,1.38385-8.70483,1.70874-13.10205,.02283-.30933,.06287-.61548,.09052-.92383,.22119-2.46729,.58386-4.90796,1.15649-7.30786,.21472-.90015,.45691-1.79468,.72858-2.68359,.07227-.23633,.16058-.4668,.23779-.70142,.7724-2.34497,1.76172-4.6106,2.70172-6.89355,.09399-.22827,.19067-.45557,.28308-.68433,.2384-.59058,.45331-1.18604,.64539-1.78613,.25714-.80371,.45886-1.62012,.63623-2.44263,.18921-.87769,.33752-1.76611,.44025-2.66772,.01685-.14746,.04364-.29199,.05823-.44043,.10077-1.02393,.13922-2.04102,.12384-3.05225v-.00024ZM128.54852,5.932c1.27802-.44653,2.62463-.37207,3.94421-.49756,.39569-.0376,.79791-.00562,1.19739-.00562,4.11688,.16113,8.19348,.62622,12.07031,2.09351,2.42535,.91797,4.59393,2.30762,6.59406,3.99316,1.79236,1.50977,2.84412,3.42407,3.5835,5.57422,.03107,.09009,.07587,.17871,.08612,.27075,.03326,.29883,.13062,.64966-.20325,.82153-.34564,.17822-.49957-.16528-.68079-.36597-1.3609-1.50781-2.59412-3.1438-4.18774-4.42163-2.28693-1.83374-4.78693-3.33911-7.63477-4.09399-4.09265-1.08521-8.22876-1.99731-12.42175-2.62305-.65729-.09766-1.31732-.17969-1.98431-.17432-.11365,.00122-.23181,.00806-.3399-.01953-.16974-.04297-.34796-.13501-.35944-.31787-.01276-.19604,.20923-.18921,.33636-.23364Zm-24.85895,62.3313c.47156-1.17847,1.88574-1.88525,3.29993-1.41431,2.12152,.70752,4.00702,1.17896,5.4212,.94287,1.6499-.23535,3.06433-.70703,4.71405-1.17847,4.47858-1.17847,9.42816-2.82837,16.02777,.70728,1.17865,.47119,1.6499,2.12109,1.17865,3.2998-.70709,1.41431-2.35706,1.88574-3.53546,1.17847-4.94989-2.59253-8.24976-1.41406-12.25653-.23584-1.88574,.70728-3.53571,1.17847-5.65723,1.41431h-1.41412c-1.8855,0-4.00677-.47119-6.36407-1.41431-1.17841-.47144-1.8855-1.88501-1.41418-3.2998Zm37.47693-6.83521l-1.41418,.94263c-.94287,.70728-2.35706,.47119-3.06415-.47144l-13.67065-18.85596c-.70734-.94312-.47156-2.35718,.47131-3.06445l1.41412-.94287c.94287-.70728,2.35706-.47095,3.06415,.47168l13.67096,18.85645c.70685,.94263,.47131,2.35669-.47156,3.06396Zm4.24274,4.00684c.70709-.47168,1.41418-.23584,1.41418,.70728l.47131,4.71411c0,.94263-.70709,1.41406-1.41418,.94263l-4.24249-2.12085c-.70734-.47168-.70734-1.17896,0-1.65015l3.77118-2.59302Zm-53.7439,22.9292c-.12738,.11011-.29034,.11353-.4295,.04395-.32166-.16113-.6673-.30029-.94159-.52393-.74744-.61035-1.48901-1.21899-2.16858-1.92041-1.09332-1.12891-2.07745-2.3313-2.80084-3.70996-1.71802-3.27393-2.99756-6.71875-3.79022-10.33716-.43103-1.96777-.68805-3.95117-.86426-5.96509-.16321-1.8623-.43732-3.72852-.67633-5.59106-.36694-2.86108-.80145-5.72095-.81696-8.61182-.01801-3.34399,.44452-6.62866,1.5033-9.81299,1.15186-3.46362,2.78754-6.62598,5.43195-9.23706,2.27118-2.24219,4.42072-4.6084,6.61328-6.93018,.44104-.46704,1.00195-.63135,1.6825-.84204-.27478,.67896-.57117,1.18091-.92957,1.65356-1.10333,1.4541-2.35077,2.78613-3.51794,4.18604-1.87799,2.25146-3.55945,4.6333-4.88751,7.26001-1.33057,2.6311-2.54852,5.30469-3.3465,8.1521-.43652,1.55884-.64801,3.15869-.82599,4.7627-.18219,1.64453-.20972,3.28931-.10107,4.94482,.14062,2.13965,.53162,4.2356,.84949,6.34863,.32739,2.17383,.87579,4.31104,1.01422,6.52197,.17621,2.81348,.8833,5.54175,1.62341,8.25488,.18298,.67139,.59521,1.22803,.91156,1.83057,1.13361,2.15771,2.38135,4.23169,4.10785,5.99561,.80597,.82373,1.45978,1.79639,2.1756,2.7063,.09186,.1167,.15295,.26099,.21124,.40015,.05859,.14014,.11688,.29614-.02753,.42041Zm10.23865,10.04443c-1.45776,.15967-2.87494,.5376-4.31665,.77832-1.54633,.25879-2.41333-.45264-2.57074-2.01685-.05658-.56323-.21802-1.11377-.00781-1.68555,.36847-1.0022,1.03247-1.2124,1.7854-.46997,.85022,.83789,1.80511,1.50024,2.86511,2.03491,.4668,.2356,.95691,.36743,1.46075,.46045,.51514,.09521,.96265,.31885,1.42267,.64282-.22125,.20215-.44,.23438-.63873,.25586Zm29.28766,7.8042c-1.20917,.83252-2.58752,1.02563-4.1369,1.06421-1.11829-.12012-2.36328-.25122-3.60724-.39038-.24579-.02759-.4856-.0647-.73615-.0271-1.3894,.20874-2.7735,.44458-4.12836,.82349-.49963,.14014-1.01123,.1853-1.52155,.21338-1.13635,.06152-2.27423,.10986-3.41205,.12695-1.64471,.02515-2.8324-.83984-3.771-2.08252-.409-.5415-.71783-1.16284-1.03973-1.76489-.22699-.42554-.30536-.89624-.25427-1.38208,.0423-.40259,.25629-.52881,.62921-.39453,.1427,.05151,.28833,.104,.41754,.18164,1.91772,1.15137,4.0918,1.60596,6.23285,1.8291,2.71497,.28345,5.42145,.71899,8.16064,.79443,1.40271,.03857,2.80035,.25293,4.20276,.28491,.9281,.021,1.85272,.04712,2.77631,.13257,.19647,.01807,.47327-.07495,.53638,.18774,.05029,.21118-.19574,.29785-.34845,.40308Zm5.50903-6.20044c-.87048,.16919-1.77509,.2373-2.66266,.22583-.91656-.01147-1.83691,.03198-2.7157,.20312-1.60339,.3125-3.18103,.07617-4.76941,.01367-1.10028-.04346-2.19336-.22119-3.29938-.1748-.20648,.00854-.42126-.01294-.62177-.06299-1.67322-.41699-3.38074-.66431-5.06171-1.05786-1.93231-.45239-3.77753-1.12622-5.61115-1.83569-1.48077-.573-2.90948-1.28345-4.34619-1.96436-.88202-.41846-1.55884-1.1416-2.35077-1.69897-2.31622-1.63135-4.51434-3.40405-6.4837-5.46436-1.67169-1.74902-3.12115-3.65991-4.59344-5.56958-1.69098-2.1936-2.88239-4.61548-3.86005-7.17847-.44604-1.16895-.9021-2.32935-1.18591-3.55029-.2403-1.03418-.62726-2.05981-.6853-3.10425-.05707-1.01611,.09009-2.05371,.01953-3.09204,.86749,3.24878,1.80963,6.4541,3.20856,9.49976,2.80554,6.10718,6.61682,11.48413,11.79944,15.81372,5.23596,4.37427,11.26459,7.05078,17.97308,8.24414,3.40302,.60522,6.8288,.85425,10.27362,.66382,4.3432-.24023,8.53064-1.18799,12.49835-3.02051,.62274-.28784,1.23798-.62671,2.03589-.67676-.16943,.27441-.3797,.3623-.56714,.46802-2.81885,1.59131-5.81995,2.70215-8.9942,3.31885Zm33.19934-14.89966c-.14368,1.5083-.38245,3.0061-.69983,4.49194-.3479,1.63086-.57965,3.28979-1.10181,4.87769-.45001,1.36768-.89081,2.73828-1.4527,4.06885-.53314,1.26245-1.31805,2.36279-2.33606,3.21973-.99237,.83545-2.07867,1.60938-3.29614,2.11304-1.43591,.59424-2.8974,1.11841-4.45227,1.34912-1.00641,.14917-2.00989,.08521-3.01508,.09302-.10962,.00122-.22577-.03687-.32886-.08057-.75189-.31885-.81396-.5686-.27808-1.17383,.57043-.64429,1.26123-1.15869,1.95703-1.64648,1.18768-.83203,2.26221-1.78052,3.27893-2.80933,2.75323-2.78687,4.89203-6.06714,7.32513-9.11011,1.38843-1.73608,2.35333-3.76514,3.42859-5.71045,.20074-.36328,.37994-.74268,.73236-1.06274,.40173,.42944,.2796,.95166,.23877,1.38013Zm.06085-27.54492c-.09912,1.61572-.3382,3.22314-.5174,4.83447l-.16766,.00171c0-1.23218,.02399-2.4646-.00403-3.69604-.10413-4.57983-1.03375-9.01001-2.48468-13.33887-.66302-1.97827-1.36761-3.9436-2.20612-5.85474-.96191-2.19263-2.01617-4.33911-3.52441-6.22339-.37097-.46411-.97144-.46851-1.48029-.60181-.26404-.06958-.43652-.17969-.60522-.34888-2.02991-2.03247-4.09985-4.01562-6.41211-5.73633-3.11719-2.31982-6.50519-4.11768-10.12146-5.53052-1.4903-.58228-2.98401-1.1604-4.53687-1.49976-3.45087-.75488-6.92273-1.40381-10.49316-1.13232-1.17218,.08911-2.35358,.04712-3.52795,.11426-1.27301,.07251-2.49969,.45239-3.75897,.63013-2.32098,.32739-4.51532,1.13281-6.73547,1.83667-.18097,.05762-.36041,.13379-.54639,.15674-.17297,.02148-.4931,.13257-.17346-.26782,.14844-.18579-.11115-.4917-.23224-.71484l-.49664-.22729c6.52277-3.0957,13.36633-4.22949,20.5321-3.30493,1.487,.19165,2.953,.5376,4.38892,.9812,2.33954,.72266,4.67004,1.46021,6.96429,2.33276,2.27594,.86548,4.52484,1.74707,6.63184,2.97852,2.69446,1.57544,5.11359,3.51416,7.3219,5.69263,3.02661,2.98511,5.74707,6.23535,7.71216,10.04102,1.12506,2.17896,1.94684,4.48267,2.70044,6.81787,.9046,2.80151,1.53284,5.64941,1.66602,8.58789,.05231,1.15576,.17743,2.32031,.10687,3.47168Zm5.02368-4.26416c-.22675-3.19678-.89203-6.32666-1.63947-9.44434,1.75586,2.88159,2.42188,6.07568,2.64062,9.35718,.21753,3.26685,.04956,6.52661-.90656,9.69849-.20197-3.20972,.13214-6.41406-.0946-9.61133Zm2.37885,11.46704c-.02057,.04858-.06714,.08618-.10162,.12866,.28479-1.45874,.58093-2.90381,.86102-4.354,.33087-1.7146,.20374-3.43359,.22424-5.15283,.00623-.53101-.01678-1.06372-.04553-1.59424-.1687-3.12183-.72711-6.16284-1.72058-9.13794-1.10382-3.30688-2.86487-6.22632-4.97064-8.96753-1.82892-2.38086-3.6463-4.76978-5.46924-7.15454-.20721-.27075-.39795-.55713-.75885-.77441,.30957-.09155,.43848,.09961,.57568,.20679,3.77045,2.94141,6.99225,6.37842,9.30499,10.5896,2.05695,3.74487,3.33746,7.75317,3.94916,11.99463,.71039,4.92529,.07562,9.64746-1.84863,14.21582Z"/></g><g><path class="cls-3" d="M100.2333,155.01566c1.14328,.03503,2.48934-.12083,3.78067,.32903,1.21642,.42377,2.0044,1.2272,2.15747,2.55132,.15682,1.35667-.31018,2.45355-1.42875,3.24457-1.40941,.99668-3.04572,1.22927-4.70696,1.2835-1.883,.06149-3.76737,.04673-5.53905-.75673-2.12251-.96255-2.39592-3.36797-.50814-4.70227,.33549-.23713,.30025-.32872,.06519-.59793-.87408-1.00109-.86339-2.80591,.34902-3.65685,.35106-.24639,.30996-.43418,.05644-.73164-1.77101-2.07797-.91832-5.26485,1.65711-6.26547,2.08251-.80911,4.17402-.81221,6.26864-.07702,.25984,.0912,.41164,.07942,.61402-.09938,.37923-.33504,.77545-.65468,1.1889-.94632,.62363-.4399,1.38737-.40161,1.8016,.05709,.44219,.48966,.45339,1.20773-.1996,1.73183-.8735,.70107-1.00847,1.36156-.71725,2.46793,.49816,1.89251-.78158,3.75957-2.78808,4.46531-1.70556,.59989-3.44718,.61828-5.19533,.21271-.35941-.08339-.67168-.15563-.8122,.28196-.12642,.39367-.07544,.75602,.3138,.99036,.29835,.17963,.63491,.21777,.9766,.21789,.82699,.0003,1.65399,.00009,2.66592,.00009h0Zm-.82117-3.44808c.33453-.03728,.63384-.04415,.92072-.10737,1.02691-.22628,1.69687-.91767,1.77945-1.80718,.08242-.88775-.36676-1.74513-1.16624-2.06664-1.03894-.41781-2.10708-.44987-3.14223,.02132-1.2447,.56658-1.61861,2.16019-.73165,3.12303,.63509,.68942,1.49863,.80523,2.33995,.83685Zm-.22506,5.90805l-.00003-.01994c-.78194,0-1.56472,.02181-2.34555-.00777-.50964-.01931-.77902,.24691-.95926,.65897-.37118,.84861,.09384,1.61228,1.22048,1.83807,1.58802,.31824,3.18538,.311,4.76942-.09256,.29632-.07549,.54587-.23133,.7789-.40102,.61484-.44774,.53069-1.37533-.14608-1.73921-.30075-.1617-.63005-.23556-.9728-.23613-.7817-.0013-1.56339-.00041-2.34509-.00041h0Z"/><path class="cls-3" d="M175.27909,153.2374c-1.39878,.00005-2.79786,.01563-4.19618-.00981-.3999-.00728-.42342,.13222-.36992,.46386,.24991,1.54893,1.67863,2.76432,3.58497,2.972,1.44553,.15748,2.78207-.07059,3.82918-1.22065,.20752-.2279,.49405-.40513,.77576-.53952,.47331-.22581,.97815-.30542,1.4229,.06892,.45989,.38709,.53076,.9099,.34684,1.44465-.38062,1.10667-1.19666,1.86754-2.22538,2.30683-2.94639,1.25816-5.81249,1.14843-8.45328-.81065-1.27798-.94808-1.94353-2.30417-2.24839-3.84571-.43143-2.18151-.21373-4.28292,1.06683-6.13375,1.63911-2.36908,4.03406-3.09062,6.79096-2.7418,2.58032,.32648,4.35949,1.7157,5.20082,4.20653,.25733,.76182,.37334,1.56529,.28855,2.37324-.10787,1.02759-.58124,1.45246-1.61733,1.46247-1.39867,.01351-2.79755,.00336-4.19635,.00341h.00002Zm-.87531-2.46894c1.03749,0,2.07619-.03029,3.11192,.01241,.54155,.02232,.57668-.17283,.46538-.61643-.37236-1.48408-1.54297-2.4261-3.22629-2.5594-1.94079-.15369-3.43515,.75884-3.96951,2.42398-.21289,.66338-.16514,.73665,.50608,.73864,1.03747,.00307,2.07495,.00081,3.11242,.0008Z"/><path class="cls-3" d="M144.46247,159.51082c-4.22488,.01779-7.19207-2.9171-7.23204-7.1533-.03955-4.19253,2.92195-7.224,7.07655-7.24371,4.46078-.02116,7.45708,2.81729,7.47391,7.08021,.01735,4.39306-2.88839,7.29815-7.31841,7.3168Zm-.03144-2.82024c2.4684,.02367,4.17865-1.71178,4.24539-4.30797,.06583-2.55999-1.67555-4.43172-4.15563-4.46672-2.36274-.03335-4.13856,1.79809-4.18607,4.31719-.04801,2.54563,1.68772,4.43441,4.09631,4.4575Z"/><path class="cls-3" d="M115.06808,159.50496c-1.38338-.02913-3.17467-.407-4.5756-1.83595-.44865-.45762-.79438-.99314-.86767-1.65406-.05544-.50007,.09198-.94637,.53152-1.21053,.42014-.25249,.88816-.24941,1.33082-.01805,.39841,.20825,.71628,.52042,1.03258,.83514,1.16117,1.15534,2.57233,1.4806,4.14395,1.19384,.80795-.14741,1.26213-.62299,1.34994-1.31699,.08479-.67006-.27587-1.256-1.01721-1.58345-.85996-.37983-1.80048-.44713-2.70625-.64641-1.03931-.22867-2.063-.49784-2.90022-1.1902-1.8959-1.56786-1.75871-4.56187,.27953-5.95712,1.60381-1.09787,3.40879-1.15184,5.24618-.88224,1.25599,.18429,2.41686,.60861,3.32143,1.56186,.32845,.34614,.5525,.75265,.66999,1.20724,.12963,.50157,.05508,.96602-.3714,1.32373-.42367,.35536-.88019,.33471-1.35975,.13632-.54314-.2247-.9214-.67019-1.36516-1.02441-1.04361-.83303-2.22499-.97803-3.47031-.69857-.73214,.1643-1.12357,.66944-1.13756,1.26931-.01497,.64227,.36113,1.13849,1.07732,1.39024,1.22379,.43018,2.53094,.50262,3.77075,.86986,.7178,.21262,1.39426,.5025,1.94488,1.01558,2.01037,1.87333,1.36932,5.37234-1.19565,6.57755-1.0165,.47762-2.09578,.63629-3.7321,.6373Z"/><path class="cls-3" d="M75.79715,159.47098c-1.99021-.01557-3.87325-.35654-5.30533-1.92569-.33548-.3676-.58311-.78019-.70662-1.25718-.14759-.56998-.08137-1.10075,.44485-1.46296,.4698-.32338,1.18821-.25777,1.65711,.1346,.37307,.31218,.72968,.64394,1.0992,.96048,1.15341,.98803,2.49633,1.16958,3.92654,.86604,.73776-.15658,1.16936-.69664,1.20026-1.36557,.03299-.71414-.34039-1.34047-1.07105-1.54276-1.16089-.32141-2.35434-.52417-3.51845-.83535-1.42128-.37992-2.64541-1.06494-3.15509-2.56124-.74033-2.17343,.49618-4.41015,2.85462-5.053,2.15502-.5874,4.27547-.45317,6.2624,.67976,.72157,.41143,1.26809,.99038,1.50164,1.80236,.16067,.55859,.1189,1.11215-.41108,1.47369-.53219,.36305-1.08397,.27238-1.60139-.06701-.54787-.35937-.97247-.8732-1.55529-1.19773-.9786-.54492-1.9972-.63311-3.05512-.34424-.60004,.16384-1.01003,.54418-1.04283,1.20457-.0318,.6404,.27508,1.0786,.86049,1.34468,.86134,.3915,1.799,.44905,2.70521,.64289,.99475,.21278,2.0002,.41604,2.84258,1.02022,1.53869,1.10359,2.00611,3.19574,1.14455,4.93876-.87097,1.76208-2.4553,2.33314-4.25235,2.54032-.27151,.0313-.54973,.00436-.82486,.00436h0Z"/><path class="cls-3" d="M126.56177,152.1275c-.00017-1.14416-.0136-2.28857,.00762-3.43234,.00678-.36561-.11251-.47294-.4693-.46431-.54892,.01329-1.10318,.00773-1.64783-.05434-.7177-.0818-1.18842-.6449-1.19367-1.34118-.00483-.644,.50888-1.23644,1.20292-1.30877,.5456-.05686,1.09998-.06315,1.64879-.04393,.37283,.01306,.47188-.12159,.45832-.47431-.0244-.63471-.01412-1.27113-.00495-1.90664,.0127-.88151,.58504-1.48862,1.43835-1.54207,.7971-.04993,1.43526,.49464,1.55458,1.34384,.03517,.25032,.02347,.50688,.04217,.75993,.04319,.58433-.2594,1.3505,.1233,1.7057,.37487,.34793,1.13162,.08157,1.72025,.10293,.677,.02456,1.3587-.00653,2.03063,.06209,.57671,.0589,.95195,.42373,1.07874,1.01051,.1253,.57994-.0764,1.04929-.52385,1.40133-.3284,.25839-.74062,.292-1.14793,.29254-.91133,.00121-1.82299,.01424-2.73386-.00609-.38175-.00852-.56433,.05722-.55895,.5099,.02441,2.05496-.00303,4.1105,.01548,6.16559,.0132,1.46614,1.11391,2.10327,2.43208,1.42235,.33477-.17293,.63829-.40576,.95886-.60681,.53755-.33715,1.09819-.37827,1.57957,.05141,.47881,.4274,.52091,1.00158,.26457,1.5736-.39541,.88234-1.12181,1.40544-2.00037,1.73405-1.72885,.64666-3.40347,.66075-4.90071-.57058-.9542-.78475-1.34413-1.86864-1.36969-3.07913-.02326-1.10129-.00492-2.20347-.00511-3.30525h-.00002Z"/><path class="cls-3" d="M158.7104,146.81124c1.01923-1.26382,2.30467-1.81328,3.87177-1.68655,.9632,.07789,1.81556,.38554,2.44459,1.16593,.45035,.55872,.62928,1.19458,.50651,1.89746-.09566,.54751-.34149,.97242-.9357,1.16186-.6751,.21523-1.19776,.00608-1.67081-.44626-.96597-.92366-1.72106-1.11845-2.6683-.62959-.6744,.34805-1.04889,.9611-1.30072,1.65312-.24917,.68468-.3261,1.39805-.32613,2.12213-.00009,1.92868,.00254,3.85736-.00168,5.78602-.00133,.61274-.21179,1.12592-.79221,1.40994-.52985,.25928-1.06271,.25507-1.5655-.08036-.50755-.33859-.67423-.85016-.67472-1.42709-.00314-3.62421-.00541-7.24843,.0011-10.87262,.0017-.94214,.51996-1.56231,1.33325-1.64569,.94369-.09675,1.49058,.34628,1.70032,1.37534,.01051,.05152,.0356,.10007,.07823,.21636h-.00001Z"/><path class="cls-3" d="M88.51297,152.33123c.00024,1.84373,.01734,3.68768-.00626,5.53111-.01385,1.08242-.81865,1.71203-1.8607,1.51658-.65013-.12194-1.15439-.70508-1.1576-1.46852-.01577-3.75099-.01931-7.50215,.00096-11.2531,.00472-.87269,.67108-1.45636,1.51895-1.44871,.89138,.00804,1.48309,.57141,1.49666,1.528,.02647,1.86454,.00776,3.72972,.00799,5.59464h0Z"/><path class="cls-3" d="M88.8951,141.70721c-.0065,1.02523-.83458,1.83215-1.87213,1.82429-1.08714-.00824-1.90107-.80474-1.90831-1.86746-.00714-1.04754,.84486-1.88146,1.91201-1.87144,1.06027,.00995,1.87521,.84504,1.86843,1.91461Z"/></g><g><path class="cls-3" d="M6.31592,204.07061c0-11.4834,8.19775-19.64746,19.34277-19.64746,6.06348,0,10.7041,1.86328,13.48193,4.77637,1.93066,1.99902,3.18408,4.53906,3.18408,6.43652,0,2.06641-1.45654,3.59082-3.48926,3.59082-1.79492,0-2.91309-.74609-4.13232-2.33789-1.76172-2.87891-4.84424-4.81055-8.77344-4.81055-6.43652,0-11.11084,4.87891-11.11084,11.99219,0,7.08008,4.67432,11.99121,11.11084,11.99121,4.33594,0,7.28271-2.30371,9.01025-5.25,1.11816-1.59277,2.10059-2.30371,3.86182-2.30371,1.99854,0,3.65869,1.52441,3.65869,3.6582,0,1.8291-1.2876,4.4043-3.1167,6.33496-2.91309,3.04883-7.79102,5.2168-13.68506,5.2168-11.14502,0-19.34277-8.16406-19.34277-19.64746Z"/><path class="cls-3" d="M50.56494,204.07061c0-11.82227,8.29883-19.64746,19.8501-19.64746,11.58545,0,19.88428,7.8252,19.88428,19.64746,0,11.78809-8.29883,19.64746-19.88428,19.64746-11.55127,0-19.8501-7.85938-19.8501-19.64746Zm19.8501,11.99121c6.63965,0,11.34814-4.84375,11.34814-11.99121s-4.7085-11.99219-11.34814-11.99219c-6.63916,0-11.34766,4.84473-11.34766,11.99219s4.7085,11.99121,11.34766,11.99121Z"/><path class="cls-3" d="M101.30957,219.07647c-1.65967-1.52344-2.81152-3.6582-2.81152-5.38574,0-1.96484,1.3208-3.35352,3.38721-3.35352,1.38916,0,2.37158,.57617,4.03125,2.30371,2.64209,2.8457,5.58936,4.03125,9.24756,4.03125,3.92969,0,6.30078-1.52441,6.30078-4.30273,0-2.4043-1.59229-3.99707-4.84424-4.60645l-5.82617-1.18555c-7.2832-1.45703-11.04297-5.2168-11.04297-10.77246,0-7.08008,5.65674-11.38184,14.53223-11.38184,4.77637,0,9.04443,1.18555,11.82227,3.31934,2.06592,1.55859,3.38721,3.69238,3.38721,5.72559,0,1.89648-1.42285,3.28516-3.28564,3.28516-1.45703,0-2.67627-.87988-4.33594-2.4043-2.16797-2.23633-4.87793-3.11719-7.75732-3.11719-3.55713,0-5.82666,1.49121-5.82666,3.96387,0,2.26953,1.72754,3.72559,5.14893,4.33594l6.13135,1.21875c7.01221,1.42285,10.46729,5.01367,10.46729,10.80664,0,7.62109-5.75879,12.16113-15.17578,12.16113-5.75879,0-10.80615-1.7959-13.5498-4.6416Z"/><path class="cls-3" d="M145.85205,169.95929c2.98047,0,5.11475,2.20117,5.11475,5.08105,0,2.91309-2.13428,5.11426-5.11475,5.11426-2.98145,0-5.18311-2.20117-5.18311-5.11426,0-2.87988,2.20166-5.08105,5.18311-5.08105Zm-4.20068,49.21875v-30.21582c0-2.54004,1.72754-4.30176,4.1665-4.30176,2.40527,0,4.09863,1.76172,4.09863,4.30176v30.21582c0,2.50684-1.69336,4.30273-4.09863,4.30273-2.43896,0-4.1665-1.7959-4.1665-4.30273Z"/><path class="cls-3" d="M161.26318,222.73565c0-3.04883,1.86328-5.35254,4.60693-6.63965-1.69385-1.35547-2.67627-3.28613-2.67627-5.58984,0-2.60742,1.15186-4.64062,3.76025-6.23242-2.26953-1.99902-3.52295-4.74219-3.52295-7.99414,0-7.24902,6.19922-11.85645,15.88721-11.85645,3.62451,0,6.7749,.64355,9.24756,1.8291l3.35352-2.81152c.94873-.7793,2.10059-1.28711,3.18457-1.28711,1.79541,0,3.15039,1.42285,3.15039,2.98145,0,1.18555-.67773,2.37109-1.82959,3.4209l-2.64209,2.30371c.91455,1.55762,1.38867,3.38672,1.38867,5.41992,0,7.2832-6.13086,11.85547-15.85303,11.85547-2.81152,0-5.35205-.37207-7.48633-1.11719-.74512,.54199-1.11768,1.15137-1.11768,1.93066,0,1.52441,1.21924,2.50684,3.31934,2.50684h11.9917c7.75732,0,11.9917,3.25195,11.9917,9.14551,0,7.14746-6.94434,11.14551-19.30859,11.14551-11.28027,0-17.44531-3.08301-17.44531-9.01074Zm17.81787,2.74316c6.84277,0,10.3999-1.49023,10.3999-4.13281,0-2.13379-1.66016-3.21777-5.08154-3.21777h-11.55127c-.50781,0-.98242-.03418-1.45654-.06738-1.25342,.84668-1.89697,1.93066-1.89697,3.31934,0,2.77832,3.08252,4.09863,9.58643,4.09863Zm.33887-23.44043c4.60693,0,7.48633-2.23633,7.48633-5.82715,0-3.62402-2.87939-5.86035-7.48633-5.86035-4.6748,0-7.62158,2.27051-7.62158,5.86035,0,3.59082,2.94678,5.82715,7.62158,5.82715Z"/><path class="cls-3" d="M209.42725,219.17804v-30.21582c0-2.54004,1.72754-4.30176,4.1665-4.30176,2.40527,0,4.09863,1.76172,4.09863,4.30176v.74512c2.30371-3.4209,6.50391-5.28418,11.61914-5.28418,9.18018,0,15.20947,5.72461,15.20947,15.9209v18.83398c0,2.47363-1.72754,4.30273-4.13232,4.30273-2.43896,0-4.13281-1.86328-4.13281-4.30273v-17.37695c0-6.60547-3.35352-9.79004-8.77344-9.79004-6.06348,0-9.79004,4.16699-9.79004,10.36621v16.80078c0,2.50684-1.69336,4.30273-4.09863,4.30273-2.43896,0-4.1665-1.7959-4.1665-4.30273Z"/></g></svg>