<?xml version="1.0" encoding="UTF-8"?>
<svg id="Layer_1" data-name="Layer 1" xmlns="http://www.w3.org/2000/svg" viewBox="0 0 125 120">
  <defs>
    <style>
      .cls-1 {
        fill: #fff;
      }
    </style>
  </defs>
  <path class="cls-1" d="m120.6066375,52.0850457c-2.6206055-5.2871094-6.2944336-9.2304688-10.6643066-12.9775391-7.1008301-6.0888672-7.9072266-9.5507812-10.3548584-19.015625-2.6619873-10.2939453-16.9300537-19.2294922-27.3804932-16.996582-8.0004883,1.7094727-15.8115234,2.1591797-23.7595215.2646484-.8413086-.2001953-1.7321777-.2231445-2.6031494-.2626953-4.2260742-.190918-7.663208,1.347168-10.2867432,4.7001953-1.5771484,2.015625-2.9619141,4.1655273-4.111084,6.434082-3.048584,6.0185547-7.7230225,10.2895508-13.6536865,13.3623047-2.7095947,1.4038086-5.385498,2.9223633-7.8927002,4.65625-3.861084,2.6689453-7.0163574,5.9614258-7.6196289,10.9404297-.4396973,3.6279297.6728516,6.9765625,2.3781738,10.0488281,3.1350098,5.6479492,4.6774902,11.5854492,4.0576172,17.4433594,0,2.4204102-.0651855,4.2441406.0117188,6.0615234.2651367,6.2592773,1.7304688,11.9863281,7.2492676,15.8515625,2.0961914,1.4682617,4.3217773,2.7392578,6.675293,3.6982422,6.8986816,2.8095703,12.4553223,7.1445312,16.2451172,13.6445312.5063477.8686523,1.2446289,1.6142578,1.9368896,2.359375,3.1467285,3.3886719,7.0062256,5.0961914,11.6685791,4.9428711,3.4735107-.1142578,6.7941895-.9423828,9.9240723-2.3574219,9.3666992-4.2353516,18.8435059-7.8881836,29.1242676-9.5375977,7.2750244-1.1669922,12.017334-6.1279297,14.5371094-13.1069336.8238525-2.2817383,1.2299805-4.6474609,1.5773926-7.0170898.6916504-4.7163086,2.9852295-8.2841797,7.1491699-10.6445312.9477539-.5375977,1.3181152-1.159668,2.2011719-1.800293,3.1643066-2.2958984,5.0458984-5.387207,5.6109619-9.2607422.5878906-4.0297852-.229126-7.8164062-2.0206299-11.4311523ZM77.3645721,7.347741c5.8824463-.0361328,10.3514404,2.402832,13.2368164,7.5927734.1092529.1962891.1658936.4262695.22229.6469727.0290527.1137695-.0224609.2260742-.1779785.2729492-.2570801.0395508-.4755859-.0878906-.6544189-.2734375-.3980713-.4121094-.80896-.8168945-1.168335-1.2617188-2.3540039-2.9160156-5.4005127-4.7138672-9.0009766-5.640625-.8442383-.2172852-1.6757812-.4863281-2.5092773-.7431641-.2354736-.0727539-.5780029-.1523438-.5368652-.4399414.0427246-.2963867.3850098-.152832.5887451-.1538086ZM20.3169646,43.9698113c-.3223877.8686523-.6239014,1.7504883-1.020752,2.5859375-2.5992432,5.4716797-3.085083,11.1689453-1.9139404,17.0634766.2746582,1.3818359.4655762,2.78125.6746826,4.1757812.05896.394043.1832275.9487305-.2644043,1.0898438-.4625244.1459961-.4924316-.4536133-.6369629-.7495117-4.1722412-8.5449219-3.7486572-16.7636719,1.7913818-24.6015625.2098389-.296875.505127-.5400391.7871094-.7768555.145752-.1220703.3452148-.1254883.5229492.0678711.2369385.347168.2047119.7543945.0599365,1.1450195Zm1.6051025,40.1728516c7.5847168,9.5517578,17.3510742,15.4208984,29.3483887,17.453125,21.7467041,3.6831055,42.9287109-8.0014648,50.5444336-27.7958984,1.3510742-3.5117188,2.1723633-7.1513672,2.4929199-10.8129883,1.1506348-13.1386719-4.152832-26.5581055-14.6230469-35.3530273-5.840332-4.90625-12.4750977-8.1772461-19.3685303-9.8666992-16.0025635-3.921875-33.4080811.730957-45.5683594,13.6147461-1.4713135,1.559082-2.7244873,3.3237305-4.2210693,5.1679688,6.8378906-13.6572266,25.9819336-27.0078125,49.3034668-22.1425781,20.9396973,4.3671875,36.3383789,23.5405273,36.1751709,45.2524414-.1679688,22.34375-15.9591064,41.0009766-38.2860107,45.0283203-20.375,3.675293-39.0632324-7.8862305-45.7973633-20.5454102Zm15.3356934-39.1005859c.1201172-.5917969.5-1.0976562,1.0341797-1.3789062l21.4819336-11.3125c.0583496-.0307617.1218262-.0429688.1821289-.0678711.0830078-.0336914.1639404-.0708008.25-.0927734.0831299-.0219727.1669922-.0292969.251709-.0400391.0849609-.0107422.1682129-.0249023.2536621-.0249023s.1687012.0141602.253418.0249023c.0849609.0107422.1690674.0180664.2524414.0400391.0856934.0224609.1661377.059082.2487793.0922852.0605469.0249023.1243896.0371094.1828613.0683594l21.4819336,11.3125c.5341797.28125.9140625.7871094,1.0341797,1.3789062.0576172.28125,5.4125977,28.3144531-22.3769531,42.6162109-.2895508.1494141-.6054688.2236328-.9208984.2236328-.0523682,0-.1033936-.0170898-.1557617-.0214844-.0522461.0043945-.1032715.0214844-.1557617.0214844-.3154297,0-.6313477-.0742188-.9208984-.2236328-14.5024414-7.4628906-19.8237305-18.6396484-21.7338867-26.7011719-2.0654297-8.7167969-.7021484-15.6259766-.6430664-15.9150391Zm68.6000977,39.0869141c-2.545166,9.1616211-8.3134766,15.03125-17.6582031,17.2226562-.3540039.0830078-.7363281.0688477-1.1043701.059082-.1901855-.0048828-.3416748-.1347656-.3464355-.3974609.0529785-.4169922.34729-.7001953.7147217-.8964844.8173828-.4365234,1.6279297-.8964844,2.4790039-1.2583008,5.5744629-2.3706055,9.7167969-6.3120117,12.75-11.5.7114258-1.2167969,1.496582-2.390625,2.2651367-3.5727539.217041-.3339844.4919434-.831543.9206543-.6401367.4428711.1972656.067627.6660156-.0205078.9833984Z"/>
  <path class="cls-1" d="m80.3710418,46.7578972l-17.637207-9.2871094.1352539,44.9746094c19.5532227-11.8691406,18.1298828-31.2011719,17.5019531-35.6875Z"/>
  <path class="cls-1" d="m58.553659,82.4453972l.1352539-44.9746094-17.637207,9.2871094c-.6274414,4.4785156-2.0556641,23.8164062,17.5019531,35.6875Z"/>
</svg>