<?xml version="1.0" encoding="utf-8"?>
<!-- Generator: Adobe Illustrator 19.1.0, SVG Export Plug-In . SVG Version: 6.00 Build 0)  -->
<svg version="1.1" id="Layer_1" xmlns="http://www.w3.org/2000/svg" xmlns:xlink="http://www.w3.org/1999/xlink" x="0px" y="0px"
	 viewBox="-237 286.5 120.2 22.8" style="enable-background:new -237 286.5 120.2 22.8;" xml:space="preserve">
<style type="text/css">
	.st0{display:none;}
	.st1{display:inline;fill:#444444;}
	.st2{display:inline;}
	.st3{fill:#444444;}
</style>
<g id="Layer_1_1_" class="st0">
	<path class="st1" d="M-519.1,676.3c2.7,0,4.4-1.3,4.4-3.5c0-1.7-1-2.7-3-3.1l-1.8-0.4c-1-0.2-1.5-0.6-1.5-1.2
		c0-0.7,0.7-1.1,1.7-1.1c0.8,0,1.6,0.3,2.2,0.9c0.5,0.4,0.8,0.7,1.2,0.7c0.5,0,0.9-0.4,0.9-0.9c0-0.6-0.4-1.2-1-1.7
		c-0.8-0.6-2-1-3.4-1c-2.6,0-4.2,1.2-4.2,3.3c0,1.6,1.1,2.7,3.2,3.1l1.7,0.3c0.9,0.2,1.4,0.6,1.4,1.3c0,0.8-0.7,1.2-1.8,1.2
		s-1.9-0.3-2.7-1.2c-0.5-0.5-0.8-0.7-1.2-0.7c-0.6,0-1,0.4-1,1c0,0.5,0.3,1.1,0.8,1.6C-522.2,675.8-520.7,676.3-519.1,676.3z"/>
	<path class="st1" d="M-510.2,676.2c0.7,0,1.2-0.5,1.2-1.2v-8.7c0-0.7-0.5-1.2-1.2-1.2s-1.2,0.5-1.2,1.2v8.7
		C-511.4,675.7-510.9,676.2-510.2,676.2z M-511.7,662.3c0,0.8,0.6,1.5,1.5,1.5s1.5-0.6,1.5-1.5c0-0.8-0.6-1.5-1.5-1.5
		C-511,660.8-511.7,661.4-511.7,662.3z"/>
	<path class="st1" d="M-500.7,678.6c3.6,0,5.6-1.2,5.6-3.2c0-1.7-1.2-2.6-3.5-2.6h-3.4c-0.6,0-1-0.3-1-0.7c0-0.2,0.1-0.4,0.3-0.6
		c0.6,0.2,1.3,0.3,2.2,0.3c2.8,0,4.6-1.3,4.6-3.4c0-0.6-0.1-1.1-0.4-1.6l0.8-0.7c0.3-0.3,0.5-0.6,0.5-1c0-0.4-0.4-0.9-0.9-0.9
		c-0.3,0-0.6,0.1-0.9,0.4l-1,0.8c-0.7-0.3-1.6-0.5-2.7-0.5c-2.8,0-4.6,1.3-4.6,3.4c0,0.9,0.4,1.7,1,2.3c-0.8,0.5-1.1,1-1.1,1.8
		c0,0.7,0.3,1.2,0.8,1.6c-0.8,0.4-1.3,1-1.3,1.9C-505.7,677.7-503.9,678.6-500.7,678.6z M-503.3,675.6c0-0.4,0.2-0.7,0.5-1
		c0.1,0,0.3,0,0.4,0h3.3c1,0,1.5,0.3,1.5,0.9c0,0.8-1,1.2-3,1.2C-502.4,676.8-503.3,676.4-503.3,675.6z M-502.7,668.4
		c0-1,0.8-1.7,2.2-1.7c1.3,0,2.2,0.6,2.2,1.7c0,1-0.8,1.7-2.2,1.7C-501.8,670-502.7,669.4-502.7,668.4z"/>
	<path class="st1" d="M-487.7,676.3c2.7,0,4.4-1.3,4.4-3.5c0-1.7-1-2.7-3-3.1l-1.8-0.4c-1-0.2-1.5-0.6-1.5-1.2
		c0-0.7,0.7-1.1,1.7-1.1c0.8,0,1.6,0.3,2.2,0.9c0.5,0.4,0.8,0.7,1.2,0.7c0.5,0,0.9-0.4,0.9-0.9c0-0.6-0.4-1.2-1-1.7
		c-0.8-0.6-2-1-3.4-1c-2.6,0-4.2,1.2-4.2,3.3c0,1.6,1.1,2.7,3.2,3.1l1.7,0.3c0.9,0.2,1.4,0.6,1.4,1.3c0,0.8-0.7,1.2-1.8,1.2
		c-1.1,0-1.9-0.3-2.7-1.2c-0.5-0.5-0.8-0.7-1.2-0.7c-0.6,0-1,0.4-1,1c0,0.5,0.3,1.1,0.8,1.6C-490.8,675.8-489.4,676.3-487.7,676.3z"
		/>
	<path class="st1" d="M-475.8,676.3c1.1,0,2.1-0.4,2.7-1c0.4-0.4,0.6-0.8,0.6-1.2c0-0.6-0.4-1-0.9-1c-0.4,0-0.6,0.2-0.9,0.4
		c-0.4,0.3-0.8,0.5-1.2,0.5c-0.7,0-1.2-0.5-1.2-1.4v-5.2h2.8c0.6,0,1.1-0.4,1.1-1.1c0-0.6-0.5-1.1-1.1-1.1h-2.8v-1.8
		c0-0.7-0.5-1.2-1.2-1.2c-0.7,0-1.2,0.5-1.2,1.2v1.8h-1.5c-0.7,0-1.1,0.4-1.1,1.1c0,0.6,0.5,1.1,1.1,1.1h1.5v5.5
		C-479.1,675-477.7,676.3-475.8,676.3z"/>
	<path class="st1" d="M-465,676.3c3.3,0,5.7-2.3,5.7-5.7s-2.4-5.7-5.7-5.7s-5.7,2.3-5.7,5.7S-468.3,676.3-465,676.3z M-468.3,670.6
		c0-2.1,1.4-3.5,3.3-3.5s3.3,1.4,3.3,3.5c0,2.1-1.4,3.5-3.3,3.5S-468.3,672.7-468.3,670.6z"/>
	<path class="st1" d="M-453.9,670.3c0-1.9,0.9-3,2-3c0.5,0,1,0.3,1.2,0.6c0.2,0.3,0.6,0.5,1,0.5c0.8,0,1.2-0.5,1.2-1.3
		c0-0.5-0.2-1-0.6-1.4c-0.4-0.4-1.1-0.7-2-0.7c-1.2,0-2.2,0.5-2.8,1.4v-0.1c0-0.7-0.5-1.2-1.2-1.2s-1.2,0.5-1.2,1.2v8.7
		c0,0.7,0.5,1.2,1.2,1.2s1.2-0.5,1.2-1.2C-453.9,675-453.9,670.3-453.9,670.3z"/>
	<path class="st1" d="M-441.1,676.3c1.7,0,3.4-0.6,4.3-1.9c0.2-0.3,0.3-0.6,0.3-0.9c0-0.6-0.3-1-0.9-1c-0.4,0-0.7,0.2-1.1,0.5
		c-0.6,0.8-1.4,1.1-2.5,1.1c-1.9,0-3.3-1.1-3.4-2.7h7c0.8,0,1.3-0.4,1.3-1.3c0-2.9-2-5-5.2-5s-5.4,2.3-5.4,5.6
		C-446.9,674.1-444.6,676.3-441.1,676.3z M-444.5,669.4c0.2-1.6,1.3-2.5,2.9-2.5c1.7,0,2.8,0.9,2.9,2.5H-444.5z"/>
	<path class="st1" d="M-546,670.6c0-1.9,0-3.8,0-5.7c0-0.6,0.1-1.2,0.3-1.8c0.4-1.2,1.2-2.1,2.4-2.5c1.4-0.5,2.9-0.4,4.3,0.3
		c0.4,0.2,0.7,0.4,0.9,0.7c0.3,0.4,0.3,1-0.1,1.4c-0.2,0.2-0.6,0.2-0.9,0.1c-0.5-0.2-0.9-0.5-1.4-0.6c-0.5-0.2-1.1-0.2-1.7,0
		c-0.9,0.3-1.3,1-1.5,1.9c0,0.2,0,0.5,0,0.7c0,3.9,0,7.7,0,11.6c0,0.8-0.1,1.6-0.4,2.3c-0.6,1.2-1.5,1.9-2.8,2.2
		c-1.1,0.2-2.2,0.2-3.2-0.2c-0.5-0.2-1-0.5-1.4-0.9c-0.3-0.4-0.3-0.9,0-1.2c0.2-0.3,0.6-0.4,0.9-0.3c0.3,0.1,0.5,0.3,0.8,0.4
		c0.8,0.4,1.6,0.5,2.5,0.3c0.8-0.2,1.2-0.8,1.4-1.6c0.1-0.3,0.1-0.6,0.1-0.9C-546,674.6-546,672.6-546,670.6z"/>
	<circle class="st1" cx="-537.1" cy="670.5" r="2"/>
	<circle class="st1" cx="-552.5" cy="670.5" r="2"/>
</g>
<g id="Cosign" class="st0">
	<g class="st2">
		<path class="st3" d="M-514.3,671.9c-0.5,0-0.8,0.2-1.1,0.7c-0.5,0.8-1.3,1.5-2.6,1.5c-1.9,0-3.2-1.4-3.2-3.5
			c0-2.1,1.3-3.5,3.2-3.5c1.1,0,2,0.6,2.5,1.4c0.4,0.5,0.7,0.7,1.2,0.7c0.6,0,1-0.4,1-1c0-0.5-0.4-1.3-0.9-1.9
			c-0.8-0.8-2.1-1.4-3.9-1.4c-3.2,0-5.6,2.4-5.6,5.7s2.4,5.7,5.6,5.7c1.7,0,3.1-0.6,3.9-1.5c0.5-0.6,0.9-1.3,0.9-1.8
			C-513.2,672.4-513.7,671.9-514.3,671.9z"/>
		<path class="st3" d="M-504.7,665c-3.3,0-5.7,2.3-5.7,5.7s2.4,5.7,5.7,5.7c3.3,0,5.7-2.3,5.7-5.7C-498.9,667.3-501.3,665-504.7,665
			z M-504.7,674.1c-1.9,0-3.3-1.4-3.3-3.5c0-2.1,1.4-3.5,3.3-3.5s3.3,1.4,3.3,3.5C-501.4,672.7-502.7,674.1-504.7,674.1z"/>
		<path class="st3" d="M-489.8,669.7l-1.8-0.4c-1-0.2-1.5-0.6-1.5-1.2c0-0.7,0.7-1.1,1.7-1.1c0.8,0,1.6,0.3,2.2,0.9
			c0.5,0.4,0.8,0.7,1.2,0.7c0.5,0,0.9-0.4,0.9-0.9c0-0.6-0.4-1.2-1-1.7c-0.8-0.6-2-1-3.4-1c-2.6,0-4.2,1.2-4.2,3.3
			c0,1.6,1.1,2.7,3.2,3.1l1.7,0.3c0.9,0.2,1.4,0.6,1.4,1.3c0,0.8-0.7,1.2-1.8,1.2c-1.1,0-1.9-0.3-2.7-1.2c-0.5-0.5-0.8-0.7-1.2-0.7
			c-0.6,0-1,0.4-1,1c0,0.5,0.3,1.1,0.8,1.6c0.8,0.8,2.2,1.3,3.9,1.3c2.7,0,4.4-1.3,4.4-3.5C-486.8,671.2-487.8,670.1-489.8,669.7z"
			/>
		<path class="st3" d="M-481.5,660.8c-0.9,0-1.5,0.6-1.5,1.5c0,0.8,0.6,1.5,1.5,1.5s1.5-0.6,1.5-1.5
			C-480,661.5-480.6,660.8-481.5,660.8z"/>
		<path class="st3" d="M-481.5,665.1c-0.7,0-1.2,0.5-1.2,1.2v8.7c0,0.7,0.5,1.2,1.2,1.2s1.2-0.5,1.2-1.2v-8.7
			C-480.3,665.6-480.8,665.1-481.5,665.1z"/>
		<path class="st3" d="M-465.5,665.2c0-0.4-0.4-0.9-0.9-0.9c-0.3,0-0.6,0.1-0.9,0.4l-1,0.8c-0.7-0.3-1.6-0.5-2.7-0.5
			c-2.8,0-4.6,1.3-4.6,3.4c0,0.9,0.4,1.7,1,2.3c-0.8,0.5-1.1,1-1.1,1.8c0,0.7,0.3,1.2,0.8,1.6c-0.8,0.4-1.3,1-1.3,1.9
			c0,1.7,1.8,2.6,5,2.6c3.6,0,5.6-1.2,5.6-3.2c0-1.7-1.2-2.6-3.5-2.6h-3.5c-0.6,0-1-0.3-1-0.7c0-0.2,0.1-0.4,0.3-0.6
			c0.6,0.2,1.3,0.3,2.2,0.3c2.8,0,4.6-1.3,4.6-3.4c0-0.6-0.1-1.1-0.4-1.6l0.8-0.7C-465.7,665.9-465.5,665.5-465.5,665.2z
			 M-473.3,674.7c0.1,0,0.3,0,0.4,0h3.3c1,0,1.5,0.3,1.5,0.9c0,0.8-1,1.2-3,1.2c-1.9,0-2.8-0.4-2.8-1.2
			C-473.8,675.3-473.6,674.9-473.3,674.7z M-471,670.1c-1.3,0-2.2-0.6-2.2-1.7c0-1,0.8-1.7,2.2-1.7c1.3,0,2.2,0.6,2.2,1.7
			C-468.8,669.4-469.6,670.1-471,670.1z"/>
		<path class="st3" d="M-455.9,665c-1.5,0-2.7,0.5-3.3,1.5v-0.2c0-0.7-0.5-1.2-1.2-1.2s-1.2,0.5-1.2,1.2v8.7c0,0.7,0.5,1.2,1.2,1.2
			s1.2-0.5,1.2-1.2v-4.8c0-1.8,1.1-3,2.8-3c1.6,0,2.5,0.9,2.5,2.8v5c0,0.7,0.5,1.2,1.2,1.2c0.7,0,1.2-0.5,1.2-1.2v-5.4
			C-451.5,666.7-453.3,665-455.9,665z"/>
		<path class="st3" d="M-541.6,676.1c-2.8-1.5-4.9-0.8-6.8-0.3c-0.7,0.2-1.3,0.4-2,0.5c-0.6,0.1-1.4-0.1-2.3-0.4
			c-0.6-0.2-1.2,0.1-1.4,0.6c-0.2,0.6,0.1,1.2,0.6,1.4c1,0.4,1.9,0.6,2.7,0.6c0.2,0,0.4,0,0.6,0c0.9-0.1,1.6-0.3,2.4-0.6
			c1.7-0.5,3.1-1,5.2,0.1c0.5,0.3,1.2,0.1,1.5-0.5C-540.9,677-541.1,676.3-541.6,676.1z"/>
		<path class="st3" d="M-536.4,675.3l-1.6,1.1c-0.3,0.2-0.3,0.5,0,0.7l1.8,0.9c0.3,0.2,0.6,0,0.6-0.4l-0.2-2
			C-535.8,675.2-536.1,675.1-536.4,675.3z"/>
		<path class="st3" d="M-538,672.3l-5.8-8c-0.3-0.4-0.9-0.5-1.3-0.2l-0.6,0.4c-0.4,0.3-0.5,0.9-0.2,1.3l5.8,8
			c0.3,0.4,0.9,0.5,1.3,0.2l0.6-0.4C-537.8,673.3-537.7,672.7-538,672.3z"/>
	</g>
</g>
<g id="Rekor">
	<g>
		<path class="st3" d="M-202.2,290.6c-1.2,0-2.2,0.5-2.8,1.4v-0.1c0-0.7-0.5-1.2-1.2-1.2s-1.2,0.5-1.2,1.2v8.7
			c0,0.7,0.5,1.2,1.2,1.2s1.2-0.5,1.2-1.2v-4.7c0-1.9,0.9-3,2-3c0.5,0,1,0.3,1.2,0.6c0.2,0.3,0.6,0.5,1,0.5c0.8,0,1.2-0.5,1.2-1.3
			c0-0.5-0.2-1-0.6-1.4C-200.6,290.9-201.3,290.6-202.2,290.6z"/>
		<path class="st3" d="M-186.5,295.7c0-2.9-2-5-5.2-5s-5.4,2.3-5.4,5.6c0,3.5,2.3,5.7,5.8,5.7c1.7,0,3.4-0.6,4.3-1.9
			c0.2-0.3,0.3-0.6,0.3-0.9c0-0.6-0.3-1-0.9-1c-0.4,0-0.7,0.2-1.1,0.5c-0.6,0.8-1.4,1.1-2.5,1.1c-1.9,0-3.3-1.1-3.4-2.7h7
			C-187,297-186.5,296.6-186.5,295.7z M-194.8,295.1c0.2-1.6,1.3-2.5,2.9-2.5c1.7,0,2.8,0.9,2.9,2.5H-194.8z"/>
		<path class="st3" d="M-176.4,295.4l3-2.6c0.5-0.4,0.6-0.8,0.6-1.1c0-0.6-0.5-1-1.1-1c-0.4,0-0.8,0.1-1.4,0.7l-5.2,4.5v-7.3
			c0-0.7-0.5-1.2-1.2-1.2s-1.2,0.5-1.2,1.2v12c0,0.7,0.5,1.2,1.2,1.2s1.2-0.5,1.2-1.2v-1.8l2.1-1.8l3.4,4.3c0.3,0.5,0.8,0.6,1.1,0.6
			c0.7,0,1.2-0.5,1.2-1c0-0.3,0-0.5-0.5-1.1L-176.4,295.4z"/>
		<path class="st3" d="M-164,290.6c-3.3,0-5.7,2.3-5.7,5.7c0,3.4,2.4,5.7,5.7,5.7s5.7-2.3,5.7-5.7S-160.7,290.6-164,290.6z
			 M-164,299.8c-1.9,0-3.3-1.4-3.3-3.5s1.4-3.5,3.3-3.5s3.3,1.4,3.3,3.5C-160.7,298.4-162.1,299.8-164,299.8z"/>
		<path class="st3" d="M-147.2,291.3c-0.4-0.4-1.1-0.7-2-0.7c-1.2,0-2.2,0.5-2.8,1.4v-0.1c0-0.7-0.5-1.2-1.2-1.2s-1.2,0.5-1.2,1.2
			v8.7c0,0.7,0.5,1.2,1.2,1.2s1.2-0.5,1.2-1.2v-4.7c0-1.9,0.9-3,2-3c0.5,0,1,0.3,1.2,0.6c0.2,0.3,0.6,0.5,1,0.5
			c0.8,0,1.2-0.5,1.2-1.3C-146.6,292.2-146.8,291.7-147.2,291.3z"/>
		<path class="st3" d="M-221.3,302.9h-13.3c-0.4,0-0.8-0.3-0.8-0.8v-11c0.2,0.1,0.5,0.1,0.8,0.1h13.3c0.5,0,0.8-0.4,0.8-0.8
			c0-0.5-0.4-0.8-0.8-0.8h-2.6v-2.3c0-0.5-0.4-0.8-0.8-0.8h-9.9c-1.3,0-2.4,1.1-2.4,2.4v13.4c0,1.3,1.1,2.4,2.4,2.4h13.3
			c0.5,0,0.8-0.4,0.8-0.8C-220.5,303.3-220.9,302.9-221.3,302.9z M-234.6,288h9.1v1.5h-9.1c-0.4,0-0.8-0.3-0.8-0.8
			C-235.4,288.4-235,288-234.6,288z"/>
		<circle class="st3" cx="-221.9" cy="294.6" r="1.4"/>
		<circle class="st3" cx="-221.9" cy="299.4" r="1.4"/>
	</g>
</g>
<g id="Fulcio" class="st0">
	<g class="st2">
		<path class="st3" d="M-517.3,663.7c0.5,0,0.8,0.1,1.1,0.3c0.2,0.1,0.3,0.1,0.5,0.1c0.5,0,0.9-0.4,0.9-0.9c0-0.4-0.2-0.7-0.5-0.9
			c-0.5-0.4-1.3-0.6-2.2-0.6c-2.2,0-3.5,1.3-3.5,3.3v0.3h-1.5c-0.7,0-1.1,0.4-1.1,1.1c0,0.6,0.5,1.1,1.1,1.1h1.5v7.6
			c0,0.7,0.5,1.2,1.2,1.2s1.2-0.5,1.2-1.2v-7.6h2.5c0.7,0,1.1-0.4,1.1-1.1c0-0.6-0.5-1.1-1.1-1.1h-2.5v-0.2
			C-518.7,664.2-518.3,663.7-517.3,663.7z"/>
		<path class="st3" d="M-502.7,665.1c-0.7,0-1.2,0.5-1.2,1.2v4.8c0,1.8-1.1,3-2.8,3c-1.6,0-2.5-0.9-2.5-2.8v-5
			c0-0.7-0.5-1.2-1.2-1.2s-1.2,0.5-1.2,1.2v5.4c0,2.9,1.7,4.6,4.4,4.6c1.5,0,2.7-0.5,3.3-1.5v0.2c0,0.7,0.5,1.2,1.2,1.2
			s1.2-0.5,1.2-1.2v-8.7C-501.5,665.6-502,665.1-502.7,665.1z"/>
		<path class="st3" d="M-495.5,661.8c-0.7,0-1.2,0.5-1.2,1.2v12c0,0.7,0.5,1.2,1.2,1.2s1.2-0.5,1.2-1.2v-12
			C-494.3,662.3-494.8,661.8-495.5,661.8z"/>
		<path class="st3" d="M-481.1,672c-0.5,0-0.8,0.2-1.1,0.7c-0.5,0.8-1.3,1.5-2.6,1.5c-1.9,0-3.2-1.4-3.2-3.5c0-2.1,1.3-3.5,3.2-3.5
			c1.1,0,2,0.6,2.5,1.4c0.4,0.5,0.7,0.7,1.2,0.7c0.6,0,1-0.4,1-1c0-0.5-0.4-1.3-0.9-1.9c-0.8-0.8-2.1-1.4-3.9-1.4
			c-3.2,0-5.6,2.4-5.6,5.7c0,3.3,2.4,5.7,5.6,5.7c1.7,0,3.1-0.6,3.9-1.5c0.5-0.6,0.9-1.3,0.9-1.8C-480,672.4-480.5,672-481.1,672z"
			/>
		<path class="st3" d="M-475.1,665.1c-0.7,0-1.2,0.5-1.2,1.2v8.7c0,0.7,0.5,1.2,1.2,1.2s1.2-0.5,1.2-1.2v-8.7
			C-473.9,665.6-474.4,665.1-475.1,665.1z"/>
		<path class="st3" d="M-475.1,660.8c-0.9,0-1.5,0.6-1.5,1.5c0,0.8,0.6,1.5,1.5,1.5s1.5-0.6,1.5-1.5
			C-473.6,661.5-474.2,660.8-475.1,660.8z"/>
		<path class="st3" d="M-464.4,665c-3.3,0-5.7,2.3-5.7,5.7s2.4,5.7,5.7,5.7s5.7-2.3,5.7-5.7S-461,665-464.4,665z M-464.4,674.1
			c-1.9,0-3.3-1.4-3.3-3.5c0-2.1,1.4-3.5,3.3-3.5s3.3,1.4,3.3,3.5C-461.1,672.7-462.5,674.1-464.4,674.1z"/>
		<path class="st3" d="M-550.6,675.6c-0.2,0-0.4,0.1-0.6,0.2l0,0c-1.3,1-2,1.4-2.1,1.4c-0.4,0.3-0.6,0.8-0.4,1.3
			c0,0.1,0,0.1,0.1,0.2c0.1,0.3,0.4,0.4,0.6,0.5c0.1,0,0.2,0,0.2,0c0.2,0,0.4,0,0.5-0.1c0.1-0.1,0.8-0.4,2.1-1.4
			c0.3-0.2,0.5-0.5,0.5-0.9C-549.6,676.1-550,675.6-550.6,675.6z"/>
		<path class="st3" d="M-541.4,671.5c-0.4,0-0.8,0.3-0.8,0.7l-0.1,0.4c-0.3,0.7-0.9,1.6-2.1,2.2c-0.3,0.1-0.6,0.3-0.9,0.4
			c-0.5-0.1-0.9-0.3-1.2-0.5c-0.7-0.4-1.2-1-1.5-1.5c-0.5-0.7-0.6-1.4-0.6-1.4v-0.1v-0.2v-3.1h3.2l0,0l0,0c0.5,0,0.8-0.4,0.8-0.8
			c0-0.4-0.4-0.8-0.8-0.8l0,0h-3.4c-0.8,0-1.5,0.7-1.5,1.5v3.5c0,0,0,0.1,0,0.2c0,0.2,0.1,0.5,0.2,0.9c0.2,0.5,0.4,1,0.8,1.5
			s0.8,1,1.5,1.5c0.4,0.3,1,0.6,1.6,0.8c0.2,0.1,0.5,0.2,0.7,0.2c0.1,0,0.1,0,0.2,0h0.1c0.1,0,0.1,0,0.2,0l0,0
			c2.8-0.7,4.1-2.8,4.5-4.1l0,0c0.1-0.1,0.1-0.2,0.1-0.4C-540.6,671.9-541,671.5-541.4,671.5z"/>
		<path class="st3" d="M-539,661.7c-0.1-0.2-0.3-0.3-0.5-0.4c-0.2-0.1-0.4,0-0.6,0.1l-3.4,1.9c-0.4,0.2-0.5,0.7-0.3,1.1
			c0.2,0.4,0.7,0.5,1.1,0.3l1.4-0.8c-0.1,0.3-0.2,0.5-0.5,1.1c-0.3,0.6-0.6,1.1-0.9,1.6c-0.2,0.3-0.3,0.6-0.5,0.8
			c-0.2,0.3-0.4,0.6-0.6,0.8c-0.4,0.6-0.8,1.1-1.3,1.6c-0.6,0.7-1,1.2-1.6,1.8l0,0l0,0c-0.2,0.2-0.3,0.4-0.3,0.7c0,0.6,0.5,1,1,1
			c0.3,0,0.5-0.1,0.7-0.3c0,0,0,0,0.1,0l0,0c0.5-0.5,1-1,1.5-1.6c0.6-0.7,1.1-1.4,1.7-2.2c0.3-0.4,0.6-0.8,0.8-1.2
			c0.2-0.3,0.4-0.6,0.5-0.9c0.3-0.5,0.5-1,0.8-1.5c0.3-0.6,0.4-0.9,0.5-1.2l0.7,1.3c0.2,0.3,0.4,0.4,0.7,0.4c0.1,0,0.3,0,0.4-0.1
			c0.4-0.2,0.5-0.7,0.3-1.1L-539,661.7z"/>
	</g>
</g>
</svg>
