<?xml version="1.0" encoding="UTF-8"?><svg id="Layer_1" xmlns="http://www.w3.org/2000/svg" viewBox="0 0 115 125"><defs><style>.cls-1{fill:#fff;}</style></defs><path class="cls-1" d="M111.84573,52.77961c-.01379-.16504-.02863-.33008-.04498-.49463-.13281-1.33789-.34717-2.66699-.62671-3.98828-.03497-.16504-.07074-.33057-.10767-.49561-.14563-.65137-.30042-1.30176-.47327-1.9502-.00055-.00244-.0011-.00439-.00165-.00635-.15375-.57666-.32629-1.14307-.51587-1.70068-.21326-.62646-.4541-1.23877-.71039-1.8418-.08167-.19238-.17145-.38037-.25732-.57031-.18958-.41943-.38696-.83447-.5965-1.24268-.10468-.2041-.21155-.40698-.32104-.6084-.22046-.40552-.4519-.80469-.69135-1.19971-.1051-.17358-.20648-.34912-.31519-.52075-.96783-1.52734-2.06934-2.98022-3.28973-4.3645-.08978-.10181-.18604-.19678-.27655-.29785-2.33655-2.60693-4.91882-4.96216-7.52277-7.29883-.42157-.37842-.82343-.77148-1.216-1.17188-.09705-.09888-.19312-.19849-.28833-.29883-.48285-.50879-.9411-1.03613-1.37402-1.58203-.25201-.31812-.49536-.64258-.72937-.97412-.88928-1.25928-1.65179-2.61279-2.2533-4.08447-.14301-.3501-.29553-.6958-.45129-1.04028-.57947-1.28076-1.25043-2.51904-2.07013-3.67554-.86414-1.21851-1.87775-2.24219-2.98932-3.13794-1.52271-1.22681-3.23492-2.20581-5.05017-3.04907-1.26166-.58594-2.5434-1.07593-3.84113-1.48853-.19287-.06128-.38763-.11304-.58118-.1709-.44012-.13135-.88092-.25928-1.32465-.37305-.23425-.0603-.46985-.11328-.70508-.1687-.40826-.09619-.81738-.18848-1.22845-.27124-.24811-.0498-.49695-.09619-.74603-.14136-.40607-.07349-.81329-.14136-1.2218-.20312-.24811-.03711-.49628-.07422-.74524-.10742-.42279-.05615-.84705-.10498-1.27222-.14966-.23242-.02441-.46454-.05103-.69763-.07202-.4704-.04272-.94269-.07593-1.41565-.10596-.18951-.01172-.37823-.02783-.56812-.03809-.66406-.03516-1.33002-.06055-1.99835-.07397-1.52136-.02661-3.03119,.05981-4.53149,.22534-.21051,.02295-.42041,.05127-.63055,.07764-.52521,.06641-1.04932,.14185-1.57208,.22729-.20709,.03394-.41437,.06616-.62103,.10278-.69843,.12402-1.39539,.25854-2.08948,.41211-.00061,0-.00122,0-.00183,.00024-.76587,.16919-1.51776,.37402-2.26373,.59399-.18542,.05444-.37036,.11035-.55463,.16772-.7326,.22876-1.45966,.47119-2.17566,.74146-.00208,.00073-.00415,.00146-.00623,.00244-.61823,.2334-1.22937,.48486-1.83685,.74512-.19586,.08398-.38995,.17261-.58484,.25903-.4187,.18579-.83575,.37573-1.25018,.57202-.21234,.10083-.42444,.20264-.63574,.30591-.41791,.20435-.83368,.41333-1.24786,.62671-.17792,.09155-.35651,.1814-.53381,.27441-.58417,.30664-1.16608,.6189-1.74457,.93921-.7807,.43237-1.52814,.91016-2.26086,1.40796-1.82758,1.2417-3.53674,2.64502-5.24536,4.05151-.84662,.69678-1.68689,1.40088-2.52197,2.1106-.24097,.20483-.47925,.4126-.71881,.6189-.63342,.54565-1.26007,1.09839-1.88135,1.65674-.2486,.22339-.49786,.44629-.74414,.67212-1.73889,1.59521-3.42108,3.25-4.99799,5.0127-2.47992,2.771-5.29572,5.03809-8.5506,6.82129-2.91809,1.59912-5.47614,3.68408-7.7843,6.0918-.53717,.56006-1.00604,1.14551-1.41571,1.75317-.05707,.08472-.11029,.1709-.16492,.25659-.13763,.21582-.26733,.43481-.38916,.65674-.04865,.08887-.09869,.177-.14484,.2666-.15533,.302-.30103,.60742-.42755,.9209-.07074,.1748-.12354,.35693-.18518,.53516-.23322,.67529-.40247,1.37549-.50623,2.10254-.07825,.54834-.12469,1.10938-.12885,1.68848-.00049,.06934-.00818,.13623-.00763,.20654h0c0,.00049,.00006,.00049,.00006,.00098,.00421,.50977,.03174,1.01611,.07001,1.52051,.01141,.1499,.02679,.29883,.04095,.44824,.03534,.37207,.07861,.74316,.13037,1.11279,.02057,.14697,.03955,.29395,.06256,.43994,.07764,.49463,.16443,.9873,.26776,1.47803,.11554,.54834,.24609,1.09424,.3894,1.63818,.26147,.99268,.56702,1.9707,.88818,2.94336,.75922,2.2998,1.63165,4.56299,2.409,6.85742,.00885,.02637,.01855,.05176,.02734,.07812h.00006c.1228,.36328,.24585,.72656,.36639,1.09033,.02313,.06982,.04645,.13965,.06921,.20947,.12183,.37305,.23651,.74756,.34283,1.12354,.01855,.06592,.03656,.13135,.05444,.19727,.10303,.37891,.19458,.76025,.26862,1.14551,.01019,.05273,.01776,.10645,.02728,.15967,.11694,.65283,.18756,1.31543,.17371,1.99707-.04004,1.97754-.16455,3.95264-.3988,5.91553-.39551,3.31006-.29877,6.58203,.21576,9.82861,.00684,.04297,.01624,.08643,.02325,.12939,.16821,1.03906,.37665,2.0752,.62787,3.10938v.00049c.0116,.04736,.02887,.09082,.04083,.13818,.11194,.44238,.23529,.87549,.38129,1.29004,.00006,.00049,.00031,.00049,.00037,.00098,.14545,.41309,.31335,.80811,.49268,1.19385,.05286,.11377,.11017,.22363,.16595,.33496,.14069,.28027,.29071,.55322,.45013,.81836,.06323,.10547,.12488,.21191,.1911,.31494,.44983,.69873,.96777,1.34277,1.5542,1.93066,.08484,.08545,.17413,.1665,.26184,.24951,.22717,.21436,.46399,.4209,.71045,.62012,.09436,.07617,.18713,.15332,.28436,.22754,.71503,.54346,1.50104,1.0293,2.36938,1.44922,.1662,.08057,.341,.14355,.51453,.2085,.19843,.07471,.39594,.15137,.59729,.21973,.12701,.04346,.25427,.08594,.38007,.13135,.10675,.03857,.19672,.08105,.27734,.12598,.02441,.01367,.04395,.02881,.06598,.04297,.05115,.03271,.09692,.06689,.13513,.10303,.0188,.01807,.03607,.03613,.05176,.05469,.03168,.0376,.05566,.07666,.0744,.11719,.00824,.01807,.01904,.03516,.02478,.05322,.0675,.21631-.03296,.47217-.30975,.76807-.06482,.06885-.13898,.13135-.2002,.20312-.19006,.22363-.36816,.45166-.53967,.68164-.04901,.06543-.09534,.13232-.14276,.19824-.12476,.17432-.24365,.35107-.35687,.5293-.04346,.06836-.08783,.13672-.12952,.20557-.28973,.47998-.53558,.9751-.73175,1.48779-.02814,.07373-.05298,.14844-.07904,.22266-.06781,.19336-.12805,.38916-.18127,.5874-.02069,.07715-.04254,.15381-.06097,.23193-.20386,.86328-.27081,1.77539-.16376,2.74951,.12183,1.10791,.50226,2.09521,1.06635,2.9209,.16107,.23584,.34076,.45459,.53009,.66309,.05884,.06445,.12262,.12402,.18396,.18604,.13879,.14014,.28198,.27441,.43274,.3999,.0741,.06201,.14948,.12207,.2262,.18018,.15668,.11865,.31897,.22803,.48584,.33057,.07257,.04492,.14313,.09277,.21747,.13477,.48541,.27246,1.00629,.479,1.55078,.6123,.08276,.02051,.16748,.03369,.25122,.05078,.1944,.03906,.3902,.07031,.58905,.09033,.09735,.01025,.19501,.01758,.29315,.02295,.19965,.01074,.40045,.00977,.60272,.00098,.08929-.00391,.17816-.00439,.26782-.01221,.28882-.0249,.57861-.06543,.86865-.13281,.01373-.00293,.0274-.00879,.04114-.01172,.49426-.11865,.98755-.29688,1.47119-.54492,.46741-.23975,.96185-.37305,1.45532-.40918,1.41534-.104,2.81152,.604,3.55322,1.8916,.03418,.05957,.07843,.10938,.10968,.17139h0c.22284,.44043,.42908,.88965,.64197,1.33496,.03931,.08203,.0769,.16504,.11572,.24756,.19159,.40576,.38196,.81201,.57269,1.21826,.14496,.30859,.29529,.61426,.4483,.91846,.06531,.12988,.13074,.25977,.19849,.38818,.21021,.39893,.4295,.79297,.67426,1.17285,.23108,.3584,.49268,.7002,.76923,1.03369,.04419,.05322,.07739,.1123,.12292,.16504h.00018c.18494,.21338,.37708,.40674,.57312,.58936,.01868,.01758,.03583,.03906,.05463,.05615,.00085,.00098,.00189,.00146,.00275,.00244,.20264,.18457,.41211,.35059,.62616,.50342,.07092,.05078,.1449,.09277,.21704,.14014,.14734,.09619,.29553,.19043,.44794,.27295,.0874,.04736,.17719,.08789,.26624,.13037,.14301,.06836,.28717,.13379,.43439,.19043,.09576,.03711,.19293,.07031,.29047,.10254,.14734,.04834,.29657,.09131,.448,.12891,.09955,.0249,.1994,.04883,.30072,.06836,.15845,.03125,.31976,.05469,.48236,.07422,.09796,.01221,.19513,.02637,.29462,.03418,.18262,.01416,.36926,.01807,.55688,.01904,.08313,0,.16449,.00537,.24854,.00342,.27484-.00781,.55389-.02686,.83893-.06201,.55109-.06738,1.07764-.2041,1.59473-.3667,1.03455-.3252,2.01526-.79785,2.96686-1.33887,2.77393-1.57764,5.18817-3.65137,7.67651-5.62012,.1048-.08252,.21387-.13916,.32074-.2085,.18103-.11768,.36597-.21924,.55426-.29932,.01318-.00586,.02655-.01025,.03973-.01562,.17633-.07324,.35541-.13672,.53949-.17871,.05792-.0127,.11804-.01904,.17682-.0293,.14673-.02539,.29285-.05371,.44531-.06152,.22302-.01074,.45056-.00732,.68738,.01904,1.6933,.18848,3.17139,.89307,4.5498,1.83984,.50446,.34619,1.02051,.66797,1.54199,.97803,1.42877,.84961,2.92828,1.55078,4.4975,2.10693,.43988,.15576,.87738,.31689,1.32922,.44775,.01495,.00439,.02997,.00781,.04492,.01172,.52649,.15234,1.05383,.28906,1.58142,.41699,.16803,.04102,.33612,.07764,.50421,.11572,.39722,.08984,.79486,.17236,1.19269,.24756,.16925,.03223,.33832,.06543,.50769,.09473,.5318,.0918,1.06403,.17334,1.59698,.23682,.02997,.00391,.06,.00732,.08997,.01074,.53235,.06152,1.06537,.10449,1.59894,.13623,.16675,.00977,.33368,.01514,.50055,.02197,.40399,.0166,.80847,.02393,1.2132,.02246,.16687-.00098,.33368,0,.50061-.00391,.55255-.01318,1.10547-.0376,1.65936-.08643,1.09808-.09717,2.19934-.27979,3.30292-.52979,.13385-.03027,.26721-.04932,.40112-.08154,4.86621-1.18701,9.24927-3.39648,13.30261-6.31787,2.52289-1.81885,4.59766-4.00928,6.15137-6.71289,.25653-.44629,.48877-.90137,.71088-1.35986,.05334-.10986,.1059-.22021,.15741-.33105,.396-.85156,.74237-1.7207,1.04602-2.60449,.04218-.12305,.08142-.24658,.12213-.37012,.09662-.29248,.19037-.58643,.27936-.88184,.04199-.13916,.08331-.27881,.12378-.41846,.08551-.2959,.16785-.59277,.24725-.89111,.03333-.125,.06793-.24951,.10028-.375,.10608-.41064,.20856-.82227,.30609-1.23633,.00092-.00391,.00189-.00781,.00281-.01172,.05902-.25,.1087-.50195,.16345-.75293,.88715-4.06641,1.2395-8.20703,1.54553-12.34912,.27405-3.71143,.88892-7.35938,1.9754-10.91504,.86713-2.83643,2.11414-5.5332,3.22266-8.2793,.95374-2.3623,1.53064-4.7998,1.78015-7.3374,.1684-1.71094,.15472-3.40186,.01465-5.07861ZM60.59475,6.74787c1.27795-.44653,2.62415-.37207,3.94403-.4978,.39563-.0376,.79803-.00537,1.19751-.00537,4.11682,.16138,8.19348,.62598,12.07019,2.09326,2.42542,.91846,4.59399,2.30786,6.59399,3.99365,1.7926,1.50977,2.84418,3.42383,3.58356,5.57397,.03113,.09033,.07581,.17847,.08618,.27075,.03326,.29907,.13068,.64966-.20331,.82178-.34564,.17749-.49963-.16528-.68091-.36597-1.3606-1.50757-2.59406-3.14404-4.18762-4.42188-2.28693-1.83374-4.78699-3.33911-7.63477-4.09399-4.09271-1.08521-8.22864-1.9978-12.42175-2.6228-.65723-.0979-1.31738-.18018-1.98456-.17456-.11353,.00122-.23145,.00757-.33972-.02002-.16962-.04272-.34772-.13452-.35962-.31714-.0127-.19653,.20972-.18945,.33679-.23389ZM17.37075,83.06965c-1.71783-3.27393-2.99731-6.71875-3.79004-10.33691-.43103-1.96826-.68811-3.95166-.86432-5.96533-.16309-1.86133-.43713-3.72852-.67627-5.5918-.36707-2.86035-.80145-5.72021-.81689-8.61084-.01825-3.34424,.44434-6.62891,1.5033-9.81348,1.15173-3.46338,2.78748-6.62622,5.4317-9.23682,2.2713-2.24243,4.42102-4.60913,6.61353-6.92993,.44135-.46753,1.00177-.63159,1.6825-.84204-.2749,.67871-.57123,1.18091-.92981,1.65332-1.10303,1.4541-2.35046,2.78638-3.51788,4.18579-1.87781,2.25171-3.55945,4.63354-4.88739,7.26001-1.33051,2.63086-2.54852,5.30518-3.34637,8.15234-.43671,1.55859-.64807,3.15869-.82599,4.7627-.18237,1.64453-.2099,3.28906-.10126,4.94482,.14069,2.13965,.53162,4.23535,.84955,6.34863,.32745,2.17383,.87555,4.31104,1.01428,6.52148,.17621,2.81445,.88318,5.54199,1.62317,8.25537,.18298,.67139,.5954,1.22803,.9118,1.83105,1.13354,2.15723,2.38123,4.23096,4.10773,5.99512,.80609,.82373,1.45972,1.7959,2.1756,2.70654,.09192,.1167,.15289,.26025,.21136,.3999,.05847,.14014,.11688,.2959-.02734,.42041-.12769,.11035-.29059,.11377-.42969,.04443-.32153-.16162-.66742-.30078-.94165-.5249-.74744-.60986-1.48895-1.21826-2.16858-1.91992-1.09332-1.12891-2.07751-2.33105-2.80103-3.70996Zm16.5791,16.15479c-1.45758,.15967-2.87469,.5376-4.31635,.77832-1.54633,.25879-2.41339-.45215-2.57098-2.01709-.05634-.56348-.21771-1.11377-.00763-1.68506,.36853-1.00195,1.03247-1.21289,1.7854-.4707,.85016,.83838,1.80518,1.50098,2.86517,2.03564,.46637,.23486,.95691,.36719,1.46057,.46045,.51508,.09521,.96283,.31885,1.42279,.64258-.22131,.20215-.44006,.23438-.63898,.25586Zm29.28809,7.8042c-1.20935,.83252-2.58771,1.0249-4.13721,1.06445-1.11829-.12061-2.36322-.25146-3.60706-.39062-.24591-.02783-.48566-.06494-.73621-.02783-1.3894,.20947-2.7735,.4458-4.12854,.82471-.49939,.13965-1.01111,.18457-1.52155,.2124-1.13605,.06201-2.27405,.11035-3.41199,.12744-1.64459,.0249-2.83215-.83984-3.77081-2.08252-.40918-.5415-.7182-1.16309-1.03992-1.76465-.22705-.42529-.30518-.89648-.25415-1.38232,.04236-.40332,.25629-.52881,.62927-.39453,.14252,.05127,.28821,.10449,.41742,.18164,1.91779,1.15186,4.09186,1.60596,6.23291,1.82959,2.7146,.2832,5.42133,.71777,8.16064,.79395,1.40253,.03857,2.80035,.25244,4.20288,.28467,.9281,.021,1.8526,.04736,2.77618,.13281,.19659,.01807,.47321-.0752,.53607,.18799,.0506,.21143-.1955,.29785-.34796,.40283Zm2.84607-5.97461c-.91644-.01172-1.83667,.03174-2.71564,.20361-1.60327,.31201-3.18091,.07568-4.76941,.01318-1.10046-.04395-2.1933-.22119-3.29932-.1748-.20648,.00879-.42126-.01318-.62164-.06299-1.67334-.41699-3.38086-.66406-5.06189-1.05811-1.93237-.45264-3.77759-1.12598-5.61127-1.83545-1.48047-.57373-2.90924-1.28369-4.34607-1.96436-.8819-.41846-1.55878-1.14209-2.35071-1.69922-2.31641-1.63037-4.5144-3.40381-6.48364-5.46436-1.67194-1.74854-3.12122-3.65967-4.59344-5.56934-1.69092-2.19434-2.88251-4.61523-3.86017-7.17871-.44604-1.16943-.90204-2.3291-1.18579-3.5498-.24042-1.03467-.62714-2.06055-.68536-3.10449-.05676-1.01611,.08997-2.0542,.01923-3.0918,.86798,3.24902,1.80957,6.45361,3.20868,9.49902,2.80591,6.10742,6.61694,11.48438,11.79956,15.81396,5.23596,4.37354,11.26453,7.05127,17.97308,8.24463,3.40295,.60498,6.82892,.85352,10.27356,.66357,4.34326-.24023,8.5307-1.18799,12.49841-3.02051,.62268-.2876,1.23798-.62695,2.03583-.67725-.16943,.2749-.37958,.36279-.56702,.46875-2.81879,1.59082-5.81989,2.70215-8.99426,3.31885-.87048,.16895-1.77509,.2373-2.66272,.22559Zm11.95331-40.87549c-1.97437,0-3.57471-1.6001-3.57471-3.57471,0-1.97412,1.60034-3.57471,3.57471-3.57471s3.57507,1.60059,3.57507,3.57471c0,1.97461-1.60071,3.57471-3.57507,3.57471Zm3.57507,8.68262c0,1.97412-1.60071,3.57422-3.57507,3.57422s-3.57471-1.6001-3.57471-3.57422c0-1.97461,1.60034-3.57568,3.57471-3.57568s3.57507,1.60107,3.57507,3.57568Zm-2.04272-20.93896H45.60793c-.76611,0-1.53235,0-2.04297-.25537v28.08789c0,1.27686,1.02148,2.04297,2.04297,2.04297h33.96173c1.02106,0,2.04272,1.02148,2.04272,2.5542,0,1.02051-.76624,2.04248-2.04272,2.04248H45.60793c-3.31946,0-6.12854-2.80859-6.12854-6.12891V42.04889c0-3.31958,2.80884-6.12842,6.12854-6.12842h25.2796c1.02148,0,2.04279,.76636,2.04279,2.04248v5.87329h6.63934c1.02106,0,2.04272,.76611,2.04272,2.04297,0,1.021-.76624,2.04297-2.04272,2.04297Zm22.37634,38.00586c-.14362,1.50879-.38232,3.00635-.69977,4.49219-.34778,1.63086-.57947,3.29004-1.10199,4.87842-.44965,1.3667-.89062,2.73779-1.45251,4.06836-.53308,1.2627-1.31799,2.36279-2.33588,3.21973-.99243,.83594-2.07898,1.60938-3.29639,2.11377-1.43597,.59326-2.89734,1.11719-4.45209,1.34863-1.00647,.14893-2.00995,.08447-3.01514,.09277-.1095,.00146-.22601-.03662-.32892-.08008-.75189-.31934-.8139-.56934-.27808-1.17432,.57037-.64453,1.26123-1.15918,1.95715-1.64648,1.18756-.83203,2.26202-1.78076,3.27881-2.80908,2.75311-2.78662,4.89203-6.06689,7.32513-9.11084,1.38831-1.73535,2.35327-3.76465,3.42877-5.70996,.20056-.36328,.37994-.74268,.73236-1.0625,.40161,.42969,.2796,.95117,.23853,1.37939Zm.06097-27.54443c-.09912,1.61572-.33801,3.22314-.5174,4.83496l-.16754,.00098c0-1.23193,.02393-2.46387-.00427-3.6958-.10394-4.57959-1.03351-9.01025-2.48456-13.33887-.66309-1.97803-1.36755-3.94385-2.20624-5.85474-.96179-2.19263-2.01611-4.33936-3.52429-6.22388-.37103-.46387-.97125-.46802-1.48041-.60205-.26434-.06885-.43634-.17944-.6051-.34814-2.02985-2.03223-4.09973-4.01562-6.41211-5.73633-3.11719-2.31934-6.50507-4.11792-10.12128-5.53027-1.4906-.58276-2.98419-1.16064-4.53705-1.5-3.45099-.75488-6.92273-1.40381-10.49316-1.13208-1.17206,.08887-2.35345,.04688-3.52808,.11401-1.27289,.07227-2.49963,.45215-3.75891,.62988-2.32086,.3269-4.51526,1.13281-6.73553,1.83691-.18085,.05762-.36047,.13354-.54645,.15674-.17279,.02148-.49304,.13257-.17322-.26807,.14825-.18555-.11121-.49146-.23236-.7146l-.49664-.22754c6.52289-3.09595,13.36682-4.229,20.53223-3.30493,1.48682,.19238,2.95331,.53809,4.38885,.9812,2.33948,.7229,4.67004,1.46045,6.96423,2.33301,2.27594,.86499,4.52478,1.74658,6.6319,2.97827,2.69427,1.57544,5.11359,3.51465,7.32153,5.69263,3.02698,2.9856,5.74731,6.2356,7.71234,10.04126,1.12524,2.17896,1.94702,4.48291,2.70081,6.81787,.90436,2.80127,1.53253,5.64941,1.66577,8.58789,.05231,1.15576,.17749,2.31982,.10693,3.47168Zm-3.81995-29.02954c-.20709-.27075-.39777-.55713-.75861-.7749,.30963-.09106,.43842,.1001,.57562,.20728,3.77039,2.94141,6.99219,6.37842,9.30499,10.5896,2.05652,3.74487,3.33746,7.75317,3.94916,11.9939,.71033,4.92627,.07556,9.64844-1.84875,14.2168-.02057,.04883-.06714,.08594-.1015,.12842,.28467-1.4585,.58075-2.90381,.86096-4.35449,.33081-1.71387,.20355-3.43311,.2243-5.15283,.00616-.53076-.01697-1.06299-.04578-1.59375-.16858-3.12158-.72687-6.16309-1.7204-9.1377-1.10364-3.30713-2.86493-6.22656-4.97058-8.96802-1.8291-2.38062-3.6463-4.76953-5.46942-7.1543Zm8.84375,24.76538c-.22687-3.19678-.89209-6.32666-1.63953-9.44434,1.7558,2.88135,2.42188,6.07568,2.64044,9.35742,.21771,3.2666,.04956,6.52637-.90649,9.69775-.20203-3.20947,.13214-6.41357-.09442-9.61084Z"/><path class="cls-1" d="M43.56496,41.53815c0,1.27661,1.02148,2.04272,2.04297,2.04272h23.23706v-3.83032h-23.23706c-1.02148,0-2.04297,1.02173-2.04297,1.7876Z"/></svg>