<?xml version="1.0" encoding="UTF-8"?><svg id="Layer_1" xmlns="http://www.w3.org/2000/svg" viewBox="0 0 215.24561 235"><defs><style>.cls-1{fill:#faf7ef;}</style></defs><g><path class="cls-1" d="M82.43764,155.31309c1.14328,.03503,2.48934-.12083,3.78067,.32903,1.21642,.42377,2.0044,1.2272,2.15747,2.55132,.15682,1.35667-.31018,2.45355-1.42875,3.24457-1.40941,.99668-3.04572,1.22927-4.70696,1.2835-1.883,.06149-3.76737,.04673-5.53905-.75673-2.12251-.96255-2.39592-3.36797-.50814-4.70227,.33549-.23713,.30025-.32872,.06519-.59793-.87408-1.00109-.86339-2.80591,.34902-3.65685,.35106-.24639,.30996-.43418,.05644-.73164-1.77101-2.07797-.91832-5.26485,1.65711-6.26547,2.08251-.80911,4.17402-.81221,6.26864-.07702,.25984,.0912,.41164,.07942,.61402-.09938,.37923-.33504,.77545-.65468,1.1889-.94632,.62363-.4399,1.38737-.40161,1.8016,.05709,.44219,.48966,.45339,1.20773-.1996,1.73183-.8735,.70107-1.00847,1.36156-.71725,2.46793,.49816,1.89251-.78158,3.75957-2.78808,4.46531-1.70556,.59989-3.44718,.61828-5.19533,.21271-.35941-.08339-.67168-.15563-.8122,.28196-.12642,.39367-.07544,.75602,.3138,.99036,.29835,.17963,.63491,.21777,.9766,.21789,.82699,.0003,1.65399,.00009,2.66592,.00009h0Zm-.82117-3.44808c.33453-.03728,.63384-.04415,.92072-.10737,1.02691-.22628,1.69687-.91767,1.77945-1.80718,.08242-.88775-.36676-1.74513-1.16624-2.06664-1.03894-.41781-2.10708-.44987-3.14223,.02132-1.2447,.56658-1.61861,2.16019-.73165,3.12303,.63509,.68942,1.49863,.80523,2.33995,.83685Zm-.22506,5.90805l-.00003-.01994c-.78194,0-1.56472,.02181-2.34555-.00777-.50964-.01931-.77902,.24691-.95926,.65897-.37118,.84861,.09384,1.61228,1.22048,1.83807,1.58802,.31824,3.18538,.311,4.76942-.09256,.29632-.07549,.54587-.23133,.7789-.40102,.61484-.44774,.53069-1.37533-.14608-1.73921-.30075-.1617-.63005-.23556-.9728-.23613-.7817-.0013-1.56339-.00041-2.34509-.00041h0Z"/><path class="cls-1" d="M157.48344,153.53483c-1.39878,.00005-2.79786,.01563-4.19618-.00981-.3999-.00728-.42342,.13222-.36992,.46386,.24991,1.54893,1.67863,2.76432,3.58497,2.972,1.44553,.15748,2.78207-.07059,3.82918-1.22065,.20752-.2279,.49405-.40513,.77576-.53952,.47331-.22581,.97815-.30542,1.4229,.06892,.45989,.38709,.53076,.9099,.34684,1.44465-.38062,1.10667-1.19666,1.86754-2.22538,2.30683-2.94639,1.25816-5.81249,1.14843-8.45328-.81065-1.27798-.94808-1.94353-2.30417-2.24839-3.84571-.43143-2.18151-.21373-4.28292,1.06683-6.13375,1.63911-2.36908,4.03406-3.09062,6.79096-2.7418,2.58032,.32648,4.35949,1.7157,5.20082,4.20653,.25733,.76182,.37334,1.56529,.28855,2.37324-.10787,1.02759-.58124,1.45246-1.61733,1.46247-1.39867,.01351-2.79755,.00336-4.19635,.00341h.00002Zm-.87531-2.46894c1.03749,0,2.07619-.03029,3.11192,.01241,.54155,.02232,.57668-.17283,.46538-.61643-.37236-1.48408-1.54297-2.4261-3.22629-2.5594-1.94079-.15369-3.43515,.75884-3.96951,2.42398-.21289,.66338-.16514,.73665,.50608,.73864,1.03747,.00307,2.07495,.00081,3.11242,.0008Z"/><path class="cls-1" d="M126.66681,159.80825c-4.22488,.01779-7.19207-2.9171-7.23204-7.1533-.03955-4.19253,2.92195-7.224,7.07655-7.24371,4.46078-.02116,7.45708,2.81729,7.47391,7.08021,.01735,4.39306-2.88839,7.29815-7.31841,7.3168Zm-.03144-2.82024c2.4684,.02367,4.17865-1.71178,4.24539-4.30797,.06583-2.55999-1.67555-4.43172-4.15563-4.46672-2.36274-.03335-4.13856,1.79809-4.18607,4.31719-.04801,2.54563,1.68772,4.43441,4.09631,4.4575Z"/><path class="cls-1" d="M97.27242,159.80239c-1.38338-.02913-3.17467-.407-4.5756-1.83595-.44865-.45762-.79438-.99314-.86767-1.65406-.05544-.50007,.09198-.94637,.53152-1.21053,.42014-.25249,.88816-.24941,1.33082-.01805,.39841,.20825,.71628,.52042,1.03258,.83514,1.16117,1.15534,2.57233,1.4806,4.14395,1.19384,.80795-.14741,1.26213-.62299,1.34994-1.31699,.08479-.67006-.27587-1.256-1.01721-1.58345-.85996-.37983-1.80048-.44713-2.70625-.64641-1.03931-.22867-2.063-.49784-2.90022-1.1902-1.8959-1.56786-1.75871-4.56187,.27953-5.95712,1.60381-1.09787,3.40879-1.15184,5.24618-.88224,1.25599,.18429,2.41686,.60861,3.32143,1.56186,.32845,.34614,.5525,.75265,.66999,1.20724,.12963,.50157,.05508,.96602-.3714,1.32373-.42367,.35536-.88019,.33471-1.35975,.13632-.54314-.2247-.9214-.67019-1.36516-1.02441-1.04361-.83303-2.22499-.97803-3.47031-.69857-.73214,.1643-1.12357,.66944-1.13756,1.26931-.01497,.64227,.36113,1.13849,1.07732,1.39024,1.22379,.43018,2.53094,.50262,3.77075,.86986,.7178,.21262,1.39426,.5025,1.94488,1.01558,2.01037,1.87333,1.36932,5.37234-1.19565,6.57755-1.0165,.47762-2.09578,.63629-3.7321,.6373Z"/><path class="cls-1" d="M58.00149,159.76841c-1.99021-.01557-3.87325-.35654-5.30533-1.92569-.33548-.3676-.58311-.78019-.70662-1.25718-.14759-.56998-.08137-1.10075,.44485-1.46296,.4698-.32338,1.18821-.25777,1.65711,.1346,.37307,.31218,.72968,.64394,1.0992,.96048,1.15341,.98803,2.49633,1.16958,3.92654,.86604,.73776-.15658,1.16936-.69664,1.20026-1.36557,.03299-.71414-.34039-1.34047-1.07105-1.54276-1.16089-.32141-2.35434-.52417-3.51845-.83535-1.42128-.37992-2.64541-1.06494-3.15509-2.56124-.74033-2.17343,.49618-4.41015,2.85462-5.053,2.15502-.5874,4.27547-.45317,6.2624,.67976,.72157,.41143,1.26809,.99038,1.50164,1.80236,.16067,.55859,.1189,1.11215-.41108,1.47369-.53219,.36305-1.08397,.27238-1.60139-.06701-.54787-.35937-.97247-.8732-1.55529-1.19773-.9786-.54492-1.9972-.63311-3.05512-.34424-.60004,.16384-1.01003,.54418-1.04283,1.20457-.0318,.6404,.27508,1.0786,.86049,1.34468,.86134,.3915,1.799,.44905,2.70521,.64289,.99475,.21278,2.0002,.41604,2.84258,1.02022,1.53869,1.10359,2.00611,3.19574,1.14455,4.93876-.87097,1.76208-2.4553,2.33314-4.25235,2.54032-.27151,.0313-.54973,.00436-.82486,.00436h0Z"/><path class="cls-1" d="M108.76612,152.42493c-.00017-1.14416-.0136-2.28857,.00762-3.43234,.00678-.36561-.11251-.47294-.4693-.46431-.54892,.01329-1.10318,.00773-1.64783-.05434-.7177-.0818-1.18842-.6449-1.19367-1.34118-.00483-.644,.50888-1.23644,1.20292-1.30877,.5456-.05686,1.09998-.06315,1.64879-.04393,.37283,.01306,.47188-.12159,.45832-.47431-.0244-.63471-.01412-1.27113-.00495-1.90664,.0127-.88151,.58504-1.48862,1.43835-1.54207,.7971-.04993,1.43526,.49464,1.55458,1.34384,.03517,.25032,.02347,.50688,.04217,.75993,.04319,.58433-.2594,1.3505,.1233,1.7057,.37487,.34793,1.13162,.08157,1.72025,.10293,.677,.02456,1.3587-.00653,2.03063,.06209,.57671,.0589,.95195,.42373,1.07874,1.01051,.1253,.57994-.0764,1.04929-.52385,1.40133-.3284,.25839-.74062,.292-1.14793,.29254-.91133,.00121-1.82299,.01424-2.73386-.00609-.38175-.00852-.56433,.05722-.55895,.5099,.02441,2.05496-.00303,4.1105,.01548,6.16559,.0132,1.46614,1.11391,2.10327,2.43208,1.42235,.33477-.17293,.63829-.40576,.95886-.60681,.53755-.33715,1.09819-.37827,1.57957,.05141,.47881,.4274,.52091,1.00158,.26457,1.5736-.39541,.88234-1.12181,1.40544-2.00037,1.73405-1.72885,.64666-3.40347,.66075-4.90071-.57058-.9542-.78475-1.34413-1.86864-1.36969-3.07913-.02326-1.10129-.00492-2.20347-.00511-3.30525h-.00002Z"/><path class="cls-1" d="M140.91474,147.10867c1.01923-1.26382,2.30467-1.81328,3.87177-1.68655,.9632,.07789,1.81556,.38554,2.44459,1.16593,.45035,.55872,.62928,1.19458,.50651,1.89746-.09566,.54751-.34149,.97242-.9357,1.16186-.6751,.21523-1.19776,.00608-1.67081-.44626-.96597-.92366-1.72106-1.11845-2.6683-.62959-.6744,.34805-1.04889,.9611-1.30072,1.65312-.24917,.68468-.3261,1.39805-.32613,2.12213-.00009,1.92868,.00254,3.85736-.00168,5.78602-.00133,.61274-.21179,1.12592-.79221,1.40994-.52985,.25928-1.06271,.25507-1.5655-.08036-.50755-.33859-.67423-.85016-.67472-1.42709-.00314-3.62421-.00541-7.24843,.0011-10.87262,.0017-.94214,.51996-1.56231,1.33325-1.64569,.94369-.09675,1.49058,.34628,1.70032,1.37534,.01051,.05152,.0356,.10007,.07823,.21636h-.00001Z"/><path class="cls-1" d="M70.71731,152.62867c.00024,1.84373,.01734,3.68768-.00626,5.53111-.01385,1.08242-.81865,1.71203-1.8607,1.51658-.65013-.12194-1.15439-.70508-1.1576-1.46852-.01577-3.75099-.01931-7.50215,.00096-11.2531,.00472-.87269,.67108-1.45636,1.51895-1.44871,.89138,.00804,1.48309,.57141,1.49666,1.528,.02647,1.86454,.00776,3.72972,.00799,5.59464h0Z"/><path class="cls-1" d="M71.09944,142.00464c-.0065,1.02523-.83458,1.83215-1.87213,1.82429-1.08714-.00824-1.90107-.80474-1.90831-1.86746-.00714-1.04754,.84486-1.88146,1.91201-1.87144,1.06027,.00995,1.87521,.84504,1.86843,1.91461Z"/></g><g><path class="cls-1" d="M14.47876,219.4748c0,2.50684-1.69336,4.30273-4.09863,4.30273-2.43896,0-4.1665-1.7959-4.1665-4.30273v-30.21582c0-2.54004,1.72754-4.30176,4.1665-4.30176,2.40527,0,4.09863,1.76172,4.09863,4.30176v.47461c2.10059-3.21777,5.62354-5.01367,9.75586-5.01367,3.01514,0,5.41992,.98242,6.94434,2.40527,1.45654,1.38867,2.23584,3.08203,2.23584,4.91211,0,2.67578-1.52441,4.53906-4.2002,4.53906-1.42285,0-2.6084-.94922-3.354-1.8291-1.01611-1.15234-2.43896-2.06641-4.33594-2.06641-3.89551,0-7.0459,3.89551-7.0459,10.43262v16.36133Z"/><path class="cls-1" d="M40.36401,204.26581c0-11.65332,7.72363-19.5459,18.83447-19.5459,11.07666,0,18.12256,7.2832,18.12256,17.47949,0,3.18359-1.49023,4.6748-4.40332,4.6748h-24.18652c.60938,5.82617,5.2168,9.51855,11.92383,9.51855,3.86133,0,6.67334-1.15137,8.84131-3.79395,1.11768-1.0166,2.23535-1.66016,3.6582-1.66016,2.20166,0,3.18408,1.32129,3.18408,3.35352,0,1.11816-.50781,2.26953-1.18555,3.28613-2.87939,4.33594-8.90869,6.43652-14.80322,6.43652-12.09326,0-19.98584-7.68945-19.98584-19.74902Zm28.72559-4.06543c-.60986-5.52148-4.47119-8.73926-10.19629-8.73926-5.62305,0-9.58643,3.35352-10.16211,8.73926h20.3584Z"/><path class="cls-1" d="M115.90552,221.7453l-11.7207-14.97266-7.38477,6.36816v6.33398c0,2.50684-1.69336,4.30273-4.09863,4.30273-2.43896,0-4.1665-1.7959-4.1665-4.30273v-41.7666c0-2.50684,1.72754-4.26855,4.1665-4.26855,2.40527,0,4.09863,1.76172,4.09863,4.26855v25.16895l17.98779-15.61621c2.20166-1.93066,3.28564-2.40527,4.84375-2.40527,2.13428,0,3.72607,1.35449,3.72607,3.52246,0,1.15234-.47412,2.33789-2.20166,3.79395l-10.56885,9.0791,11.65283,15.00586c1.42285,1.89746,1.59229,2.64258,1.59229,3.79395,0,1.7959-1.69385,3.625-4.06494,3.625-1.25342,0-2.67627-.33887-3.86182-1.93066Z"/><path class="cls-1" d="M131.12476,204.36737c0-11.82227,8.29932-19.64746,19.85059-19.64746,11.58496,0,19.88428,7.8252,19.88428,19.64746,0,11.78809-8.29932,19.64746-19.88428,19.64746-11.55127,0-19.85059-7.85938-19.85059-19.64746Zm19.85059,11.99121c6.63965,0,11.34814-4.84375,11.34814-11.99121s-4.7085-11.99219-11.34814-11.99219c-6.63916,0-11.34766,4.84473-11.34766,11.99219s4.7085,11.99121,11.34766,11.99121Z"/><path class="cls-1" d="M190.09595,219.4748c0,2.50684-1.69336,4.30273-4.09863,4.30273-2.43896,0-4.1665-1.7959-4.1665-4.30273v-30.21582c0-2.54004,1.72754-4.30176,4.1665-4.30176,2.40527,0,4.09863,1.76172,4.09863,4.30176v.47461c2.10059-3.21777,5.62354-5.01367,9.75586-5.01367,3.01514,0,5.41992,.98242,6.94434,2.40527,1.45654,1.38867,2.23584,3.08203,2.23584,4.91211,0,2.67578-1.52441,4.53906-4.2002,4.53906-1.42285,0-2.6084-.94922-3.354-1.8291-1.01611-1.15234-2.43896-2.06641-4.33594-2.06641-3.89551,0-7.0459,3.89551-7.0459,10.43262v16.36133Z"/></g><g><path class="cls-1" d="M162.00587,52.26165c-.01379-.16504-.02863-.33008-.04498-.49463-.13281-1.33789-.34717-2.66699-.62671-3.98828-.03497-.16504-.07074-.33057-.10767-.49561-.14563-.65137-.30042-1.30176-.47327-1.9502l-.00165-.00635c-.15375-.57666-.32629-1.14307-.51587-1.70068-.21326-.62646-.4541-1.23877-.71039-1.8418-.08167-.19238-.17145-.38037-.25732-.57031-.18958-.41943-.38696-.83447-.5965-1.24268-.10468-.2041-.21155-.40698-.32104-.6084-.22046-.40552-.4519-.80469-.69135-1.19971-.1051-.17358-.20648-.34912-.31519-.52075-.96783-1.52734-2.06934-2.98022-3.28973-4.3645-.08978-.10181-.18604-.19678-.27655-.29785-2.33655-2.60693-4.91882-4.96216-7.52277-7.29883-.42157-.37842-.82343-.77148-1.216-1.17188-.09705-.09888-.19312-.19849-.28833-.29883-.48285-.50879-.9411-1.03613-1.37402-1.58203-.25201-.31812-.49536-.64258-.72937-.97412-.88928-1.25928-1.65179-2.61279-2.2533-4.08447-.14301-.3501-.29553-.6958-.45129-1.04028-.57947-1.28076-1.25043-2.51904-2.07013-3.67554-.86414-1.21851-1.87775-2.24219-2.98932-3.13794-1.52271-1.22681-3.23492-2.20581-5.05017-3.04907-1.26166-.58594-2.5434-1.07593-3.84113-1.48853-.19287-.06128-.38763-.11304-.58118-.1709-.44012-.13135-.88092-.25928-1.32465-.37305-.23425-.0603-.46985-.11328-.70508-.1687-.40826-.09619-.81738-.18848-1.22845-.27124-.24811-.0498-.49695-.09619-.74603-.14136-.40607-.07349-.81329-.14136-1.2218-.20312-.24811-.03711-.49628-.07422-.74524-.10742-.42279-.05615-.84705-.10498-1.27222-.14966-.23242-.02441-.46454-.05103-.69763-.07202-.4704-.04272-.94269-.07593-1.41565-.10596-.18951-.01172-.37823-.02783-.56812-.03809-.66406-.03516-1.33002-.06055-1.99835-.07397-1.52136-.02661-3.03119,.05981-4.53149,.22534-.21051,.02295-.42041,.05127-.63055,.07764-.52521,.06641-1.04932,.14185-1.57208,.22729-.20709,.03394-.41437,.06616-.62103,.10278-.69843,.12402-1.39539,.25854-2.08948,.41211l-.00183,.00024c-.76587,.16919-1.51776,.37402-2.26373,.59399-.18542,.05444-.37036,.11035-.55463,.16772-.7326,.22876-1.45966,.47119-2.17566,.74146l-.00623,.00244c-.61823,.2334-1.22937,.48486-1.83685,.74512-.19586,.08398-.38995,.17261-.58484,.25903-.4187,.18579-.83575,.37573-1.25018,.57202-.21234,.10083-.42444,.20264-.63574,.30591-.41791,.20435-.83368,.41333-1.24786,.62671-.17792,.09155-.35651,.1814-.53381,.27441-.58417,.30664-1.16608,.6189-1.74457,.93921-.7807,.43237-1.52814,.91016-2.26086,1.40796-1.82758,1.2417-3.53674,2.64502-5.24536,4.05151-.84662,.69678-1.68689,1.40088-2.52197,2.1106-.24097,.20483-.47925,.4126-.71881,.6189-.63342,.54565-1.26007,1.09839-1.88135,1.65674-.2486,.22339-.49786,.44629-.74414,.67212-1.73889,1.59521-3.42108,3.25-4.99799,5.0127-2.47992,2.771-5.29572,5.03809-8.5506,6.82129-2.91809,1.59912-5.47614,3.68408-7.7843,6.0918-.53717,.56006-1.00604,1.14551-1.41571,1.75317-.05707,.08472-.11029,.1709-.16492,.25659-.13763,.21582-.26733,.43481-.38916,.65674-.04865,.08887-.09869,.177-.14484,.2666-.15533,.302-.30103,.60742-.42755,.9209-.07074,.1748-.12354,.35693-.18518,.53516-.23322,.67529-.40247,1.37549-.50623,2.10254-.07825,.54834-.12469,1.10938-.12885,1.68848-.00049,.06934-.00818,.13623-.00763,.20654h0l.00006,.00098c.00421,.50977,.03174,1.01611,.07001,1.52051,.01141,.1499,.02679,.29883,.04095,.44824,.03534,.37207,.07861,.74316,.13037,1.11279,.02057,.14697,.03955,.29395,.06256,.43994,.07764,.49463,.16443,.9873,.26776,1.47803,.11554,.54834,.24609,1.09424,.3894,1.63818,.26147,.99268,.56702,1.9707,.88818,2.94336,.75922,2.2998,1.63165,4.56299,2.409,6.85742,.00885,.02637,.01855,.05176,.02734,.07812h.00006c.1228,.36328,.24585,.72656,.36639,1.09033,.02313,.06982,.04645,.13965,.06921,.20947,.12183,.37305,.23651,.74756,.34283,1.12354,.01855,.06592,.03656,.13135,.05444,.19727,.10303,.37891,.19458,.76025,.26862,1.14551,.01019,.05273,.01776,.10645,.02728,.15967,.11694,.65283,.18756,1.31543,.17371,1.99707-.04004,1.97754-.16455,3.95264-.3988,5.91553-.39551,3.31006-.29877,6.58203,.21576,9.82861,.00684,.04297,.01624,.08643,.02325,.12939,.16821,1.03906,.37665,2.0752,.62787,3.10938v.00049c.0116,.04736,.02887,.09082,.04083,.13818,.11194,.44238,.23529,.87549,.38129,1.29004l.00037,.00098c.14545,.41309,.31335,.80811,.49268,1.19385,.05286,.11377,.11017,.22363,.16595,.33496,.14069,.28027,.29071,.55322,.45013,.81836,.06323,.10547,.12488,.21191,.1911,.31494,.44983,.69873,.96777,1.34277,1.5542,1.93066,.08484,.08545,.17413,.1665,.26184,.24951,.22717,.21436,.46399,.4209,.71045,.62012,.09436,.07617,.18713,.15332,.28436,.22754,.71503,.54346,1.50104,1.0293,2.36938,1.44922,.1662,.08057,.341,.14355,.51453,.2085,.19843,.07471,.39594,.15137,.59729,.21973,.12701,.04346,.25427,.08594,.38007,.13135,.10675,.03857,.19672,.08105,.27734,.12598,.02441,.01367,.04395,.02881,.06598,.04297,.05115,.03271,.09692,.06689,.13513,.10303,.0188,.01807,.03607,.03613,.05176,.05469,.03168,.0376,.05566,.07666,.0744,.11719,.00824,.01807,.01904,.03516,.02478,.05322,.0675,.21631-.03296,.47217-.30975,.76807-.06482,.06885-.13898,.13135-.2002,.20312-.19006,.22363-.36816,.45166-.53967,.68164-.04901,.06543-.09534,.13232-.14276,.19824-.12476,.17432-.24365,.35107-.35687,.5293-.04346,.06836-.08783,.13672-.12952,.20557-.28973,.47998-.53558,.9751-.73175,1.48779-.02814,.07373-.05298,.14844-.07904,.22266-.06781,.19336-.12805,.38916-.18127,.5874-.02069,.07715-.04254,.15381-.06097,.23193-.20386,.86328-.27081,1.77539-.16376,2.74951,.12183,1.10791,.50226,2.09521,1.06635,2.9209,.16107,.23584,.34076,.45459,.53009,.66309,.05884,.06445,.12262,.12402,.18396,.18604,.13879,.14014,.28198,.27441,.43274,.3999,.0741,.06201,.14948,.12207,.2262,.18018,.15668,.11865,.31897,.22803,.48584,.33057,.07257,.04492,.14313,.09277,.21747,.13477,.48541,.27246,1.00629,.479,1.55078,.6123,.08276,.02051,.16748,.03369,.25122,.05078,.1944,.03906,.3902,.07031,.58905,.09033,.09735,.01025,.19501,.01758,.29315,.02295,.19965,.01074,.40045,.00977,.60272,.00098,.08929-.00391,.17816-.00439,.26782-.01221,.28882-.0249,.57861-.06543,.86865-.13281,.01373-.00293,.0274-.00879,.04114-.01172,.49426-.11865,.98755-.29688,1.47119-.54492,.46741-.23975,.96185-.37305,1.45532-.40918,1.41534-.104,2.81152,.604,3.55322,1.8916,.03418,.05957,.07843,.10938,.10968,.17139h0c.22284,.44043,.42908,.88965,.64197,1.33496,.03931,.08203,.0769,.16504,.11572,.24756,.19159,.40576,.38196,.81201,.57269,1.21826,.14496,.30859,.29529,.61426,.4483,.91846,.06531,.12988,.13074,.25977,.19849,.38818,.21021,.39893,.4295,.79297,.67426,1.17285,.23108,.3584,.49268,.7002,.76923,1.03369,.04419,.05322,.07739,.1123,.12292,.16504h.00018c.18494,.21338,.37708,.40674,.57312,.58936,.01868,.01758,.03583,.03906,.05463,.05615l.00275,.00244c.20264,.18457,.41211,.35059,.62616,.50342,.07092,.05078,.1449,.09277,.21704,.14014,.14734,.09619,.29553,.19043,.44794,.27295,.0874,.04736,.17719,.08789,.26624,.13037,.14301,.06836,.28717,.13379,.43439,.19043,.09576,.03711,.19293,.07031,.29047,.10254,.14734,.04834,.29657,.09131,.448,.12891,.09955,.0249,.1994,.04883,.30072,.06836,.15845,.03125,.31976,.05469,.48236,.07422,.09796,.01221,.19513,.02637,.29462,.03418,.18262,.01416,.36926,.01807,.55688,.01904,.08313,0,.16449,.00537,.24854,.00342,.27484-.00781,.55389-.02686,.83893-.06201,.55109-.06738,1.07764-.2041,1.59473-.3667,1.03455-.3252,2.01526-.79785,2.96686-1.33887,2.77393-1.57764,5.18817-3.65137,7.67651-5.62012,.1048-.08252,.21387-.13916,.32074-.2085,.18103-.11768,.36597-.21924,.55426-.29932,.01318-.00586,.02655-.01025,.03973-.01562,.17633-.07324,.35541-.13672,.53949-.17871,.05792-.0127,.11804-.01904,.17682-.0293,.14673-.02539,.29285-.05371,.44531-.06152,.22302-.01074,.45056-.00732,.68738,.01904,1.6933,.18848,3.17139,.89307,4.5498,1.83984,.50446,.34619,1.02051,.66797,1.54199,.97803,1.42877,.84961,2.92828,1.55078,4.4975,2.10693,.43988,.15576,.87738,.31689,1.32922,.44775,.01495,.00439,.02997,.00781,.04492,.01172,.52649,.15234,1.05383,.28906,1.58142,.41699,.16803,.04102,.33612,.07764,.50421,.11572,.39722,.08984,.79486,.17236,1.19269,.24756,.16925,.03223,.33832,.06543,.50769,.09473,.5318,.0918,1.06403,.17334,1.59698,.23682,.02997,.00391,.06,.00732,.08997,.01074,.53235,.06152,1.06537,.10449,1.59894,.13623,.16675,.00977,.33368,.01514,.50055,.02197,.40399,.0166,.80847,.02393,1.2132,.02246,.16687-.00098,.33368,0,.50061-.00391,.55255-.01318,1.10547-.0376,1.65936-.08643,1.09808-.09717,2.19934-.27979,3.30292-.52979,.13385-.03027,.26721-.04932,.40112-.08154,4.86621-1.18701,9.24927-3.39648,13.30261-6.31787,2.52289-1.81885,4.59766-4.00928,6.15137-6.71289,.25653-.44629,.48877-.90137,.71088-1.35986,.05334-.10986,.1059-.22021,.15741-.33105,.396-.85156,.74237-1.7207,1.04602-2.60449,.04218-.12305,.08142-.24658,.12213-.37012,.09662-.29248,.19037-.58643,.27936-.88184,.04199-.13916,.08331-.27881,.12378-.41846,.08551-.2959,.16785-.59277,.24725-.89111,.03333-.125,.06793-.24951,.10028-.375,.10608-.41064,.20856-.82227,.30609-1.23633l.00281-.01172c.05902-.25,.1087-.50195,.16345-.75293,.88715-4.06641,1.2395-8.20703,1.54553-12.34912,.27405-3.71143,.88892-7.35938,1.9754-10.91504,.86713-2.83643,2.11414-5.5332,3.22266-8.2793,.95374-2.3623,1.53064-4.7998,1.78015-7.3374,.1684-1.71094,.15472-3.40186,.01465-5.07861ZM110.75489,6.22991c1.27795-.44653,2.62415-.37207,3.94403-.4978,.39563-.0376,.79803-.00537,1.19751-.00537,4.11682,.16138,8.19348,.62598,12.07019,2.09326,2.42542,.91846,4.59399,2.30786,6.59399,3.99365,1.7926,1.50977,2.84418,3.42383,3.58356,5.57397,.03113,.09033,.07581,.17847,.08618,.27075,.03326,.29907,.13068,.64966-.20331,.82178-.34564,.17749-.49963-.16528-.68091-.36597-1.3606-1.50757-2.59406-3.14404-4.18762-4.42188-2.28693-1.83374-4.78699-3.33911-7.63477-4.09399-4.09271-1.08521-8.22864-1.9978-12.42175-2.6228-.65723-.0979-1.31738-.18018-1.98456-.17456-.11353,.00122-.23145,.00757-.33972-.02002-.16962-.04272-.34772-.13452-.35962-.31714-.0127-.19653,.20972-.18945,.33679-.23389Zm-43.224,76.32178c-1.71783-3.27393-2.99731-6.71875-3.79004-10.33691-.43103-1.96826-.68811-3.95166-.86432-5.96533-.16309-1.86133-.43713-3.72852-.67627-5.5918-.36707-2.86035-.80145-5.72021-.81689-8.61084-.01825-3.34424,.44434-6.62891,1.5033-9.81348,1.15173-3.46338,2.78748-6.62622,5.4317-9.23682,2.2713-2.24243,4.42102-4.60913,6.61353-6.92993,.44135-.46753,1.00177-.63159,1.6825-.84204-.2749,.67871-.57123,1.18091-.92981,1.65332-1.10303,1.4541-2.35046,2.78638-3.51788,4.18579-1.87781,2.25171-3.55945,4.63354-4.88739,7.26001-1.33051,2.63086-2.54852,5.30518-3.34637,8.15234-.43671,1.55859-.64807,3.15869-.82599,4.7627-.18237,1.64453-.2099,3.28906-.10126,4.94482,.14069,2.13965,.53162,4.23535,.84955,6.34863,.32745,2.17383,.87555,4.31104,1.01428,6.52148,.17621,2.81445,.88318,5.54199,1.62317,8.25537,.18298,.67139,.5954,1.22803,.9118,1.83105,1.13354,2.15723,2.38123,4.23096,4.10773,5.99512,.80609,.82373,1.45972,1.7959,2.1756,2.70654,.09192,.1167,.15289,.26025,.21136,.3999,.05847,.14014,.11688,.2959-.02734,.42041-.12769,.11035-.29059,.11377-.42969,.04443-.32153-.16162-.66742-.30078-.94165-.5249-.74744-.60986-1.48895-1.21826-2.16858-1.91992-1.09332-1.12891-2.07751-2.33105-2.80103-3.70996Zm16.5791,16.15479c-1.45758,.15967-2.87469,.5376-4.31635,.77832-1.54633,.25879-2.41339-.45215-2.57098-2.01709-.05634-.56348-.21771-1.11377-.00763-1.68506,.36853-1.00195,1.03247-1.21289,1.7854-.4707,.85016,.83838,1.80518,1.50098,2.86517,2.03564,.46637,.23486,.95691,.36719,1.46057,.46045,.51508,.09521,.96283,.31885,1.42279,.64258-.22131,.20215-.44006,.23438-.63898,.25586Zm29.28809,7.8042c-1.20935,.83252-2.58771,1.0249-4.13721,1.06445-1.11829-.12061-2.36322-.25146-3.60706-.39062-.24591-.02783-.48566-.06494-.73621-.02783-1.3894,.20947-2.7735,.4458-4.12854,.82471-.49939,.13965-1.01111,.18457-1.52155,.2124-1.13605,.06201-2.27405,.11035-3.41199,.12744-1.64459,.0249-2.83215-.83984-3.77081-2.08252-.40918-.5415-.7182-1.16309-1.03992-1.76465-.22705-.42529-.30518-.89648-.25415-1.38232,.04236-.40332,.25629-.52881,.62927-.39453,.14252,.05127,.28821,.10449,.41742,.18164,1.91779,1.15186,4.09186,1.60596,6.23291,1.82959,2.7146,.2832,5.42133,.71777,8.16064,.79395,1.40253,.03857,2.80035,.25244,4.20288,.28467,.9281,.021,1.8526,.04736,2.77618,.13281,.19659,.01807,.47321-.0752,.53607,.18799,.0506,.21143-.1955,.29785-.34796,.40283Zm2.84607-5.97461c-.91644-.01172-1.83667,.03174-2.71564,.20361-1.60327,.31201-3.18091,.07568-4.76941,.01318-1.10046-.04395-2.1933-.22119-3.29932-.1748-.20648,.00879-.42126-.01318-.62164-.06299-1.67334-.41699-3.38086-.66406-5.06189-1.05811-1.93237-.45264-3.77759-1.12598-5.61127-1.83545-1.48047-.57373-2.90924-1.28369-4.34607-1.96436-.8819-.41846-1.55878-1.14209-2.35071-1.69922-2.31641-1.63037-4.5144-3.40381-6.48364-5.46436-1.67194-1.74854-3.12122-3.65967-4.59344-5.56934-1.69092-2.19434-2.88251-4.61523-3.86017-7.17871-.44604-1.16943-.90204-2.3291-1.18579-3.5498-.24042-1.03467-.62714-2.06055-.68536-3.10449-.05676-1.01611,.08997-2.0542,.01923-3.0918,.86798,3.24902,1.80957,6.45361,3.20868,9.49902,2.80591,6.10742,6.61694,11.48438,11.79956,15.81396,5.23596,4.37354,11.26453,7.05127,17.97308,8.24463,3.40295,.60498,6.82892,.85352,10.27356,.66357,4.34326-.24023,8.5307-1.18799,12.49841-3.02051,.62268-.2876,1.23798-.62695,2.03583-.67725-.16943,.2749-.37958,.36279-.56702,.46875-2.81879,1.59082-5.81989,2.70215-8.99426,3.31885-.87048,.16895-1.77509,.2373-2.66272,.22559Zm11.95331-40.87549c-1.97437,0-3.57471-1.6001-3.57471-3.57471,0-1.97412,1.60034-3.57471,3.57471-3.57471s3.57507,1.60059,3.57507,3.57471c0,1.97461-1.60071,3.57471-3.57507,3.57471Zm3.57507,8.68262c0,1.97412-1.60071,3.57422-3.57507,3.57422s-3.57471-1.6001-3.57471-3.57422c0-1.97461,1.60034-3.57568,3.57471-3.57568s3.57507,1.60107,3.57507,3.57568Zm-2.04272-20.93896h-33.96173c-.76611,0-1.53235,0-2.04297-.25537v28.08789c0,1.27686,1.02148,2.04297,2.04297,2.04297h33.96173c1.02106,0,2.04272,1.02148,2.04272,2.5542,0,1.02051-.76624,2.04248-2.04272,2.04248h-33.96173c-3.31946,0-6.12854-2.80859-6.12854-6.12891V41.53093c0-3.31958,2.80884-6.12842,6.12854-6.12842h25.2796c1.02148,0,2.04279,.76636,2.04279,2.04248v5.87329h6.63934c1.02106,0,2.04272,.76611,2.04272,2.04297,0,1.021-.76624,2.04297-2.04272,2.04297Zm22.37634,38.00586c-.14362,1.50879-.38232,3.00635-.69977,4.49219-.34778,1.63086-.57947,3.29004-1.10199,4.87842-.44965,1.3667-.89062,2.73779-1.45251,4.06836-.53308,1.2627-1.31799,2.36279-2.33588,3.21973-.99243,.83594-2.07898,1.60938-3.29639,2.11377-1.43597,.59326-2.89734,1.11719-4.45209,1.34863-1.00647,.14893-2.00995,.08447-3.01514,.09277-.1095,.00146-.22601-.03662-.32892-.08008-.75189-.31934-.8139-.56934-.27808-1.17432,.57037-.64453,1.26123-1.15918,1.95715-1.64648,1.18756-.83203,2.26202-1.78076,3.27881-2.80908,2.75311-2.78662,4.89203-6.06689,7.32513-9.11084,1.38831-1.73535,2.35327-3.76465,3.42877-5.70996,.20056-.36328,.37994-.74268,.73236-1.0625,.40161,.42969,.2796,.95117,.23853,1.37939Zm.06097-27.54443c-.09912,1.61572-.33801,3.22314-.5174,4.83496l-.16754,.00098c0-1.23193,.02393-2.46387-.00427-3.6958-.10394-4.57959-1.03351-9.01025-2.48456-13.33887-.66309-1.97803-1.36755-3.94385-2.20624-5.85474-.96179-2.19263-2.01611-4.33936-3.52429-6.22388-.37103-.46387-.97125-.46802-1.48041-.60205-.26434-.06885-.43634-.17944-.6051-.34814-2.02985-2.03223-4.09973-4.01562-6.41211-5.73633-3.11719-2.31934-6.50507-4.11792-10.12128-5.53027-1.4906-.58276-2.98419-1.16064-4.53705-1.5-3.45099-.75488-6.92273-1.40381-10.49316-1.13208-1.17206,.08887-2.35345,.04688-3.52808,.11401-1.27289,.07227-2.49963,.45215-3.75891,.62988-2.32086,.3269-4.51526,1.13281-6.73553,1.83691-.18085,.05762-.36047,.13354-.54645,.15674-.17279,.02148-.49304,.13257-.17322-.26807,.14825-.18555-.11121-.49146-.23236-.7146l-.49664-.22754c6.52289-3.09595,13.36682-4.229,20.53223-3.30493,1.48682,.19238,2.95331,.53809,4.38885,.9812,2.33948,.7229,4.67004,1.46045,6.96423,2.33301,2.27594,.86499,4.52478,1.74658,6.6319,2.97827,2.69427,1.57544,5.11359,3.51465,7.32153,5.69263,3.02698,2.9856,5.74731,6.2356,7.71234,10.04126,1.12524,2.17896,1.94702,4.48291,2.70081,6.81787,.90436,2.80127,1.53253,5.64941,1.66577,8.58789,.05231,1.15576,.17749,2.31982,.10693,3.47168Zm-3.81995-29.02954c-.20709-.27075-.39777-.55713-.75861-.7749,.30963-.09106,.43842,.1001,.57562,.20728,3.77039,2.94141,6.99219,6.37842,9.30499,10.5896,2.05652,3.74487,3.33746,7.75317,3.94916,11.9939,.71033,4.92627,.07556,9.64844-1.84875,14.2168-.02057,.04883-.06714,.08594-.1015,.12842,.28467-1.4585,.58075-2.90381,.86096-4.35449,.33081-1.71387,.20355-3.43311,.2243-5.15283,.00616-.53076-.01697-1.06299-.04578-1.59375-.16858-3.12158-.72687-6.16309-1.7204-9.1377-1.10364-3.30713-2.86493-6.22656-4.97058-8.96802-1.8291-2.38062-3.6463-4.76953-5.46942-7.1543Zm8.84375,24.76538c-.22687-3.19678-.89209-6.32666-1.63953-9.44434,1.7558,2.88135,2.42188,6.07568,2.64044,9.35742,.21771,3.2666,.04956,6.52637-.90649,9.69775-.20203-3.20947,.13214-6.41357-.09442-9.61084Z"/><path class="cls-1" d="M93.7251,41.02019c0,1.27661,1.02148,2.04272,2.04297,2.04272h23.23706v-3.83032h-23.23706c-1.02148,0-2.04297,1.02173-2.04297,1.7876Z"/></g></svg>