<?xml version="1.0" encoding="UTF-8"?>
<svg id="Layer_1" data-name="Layer 1" xmlns="http://www.w3.org/2000/svg" viewBox="0 0 485 150">
  <defs>
    <style>
      .cls-1 {
        fill: #fff;
      }
    </style>
  </defs>
  <path class="cls-1" d="m186.1303744,22.1737905c-.1707764-1.4790039-1.0507202-2.3759766-2.4091797-2.8496094-1.4423218-.5019531-2.9456177-.3276367-4.2224731-.3671875h-2.977356c-.3817749-.0004883-.7575684-.0429688-1.0907593-.2436523-.4346924-.2612305-.4915771-.6660156-.3503418-1.105957.1566772-.4887695.5057373-.4082031.9069214-.3144531,1.9525757.4526367,3.8973389.4321289,5.8023071-.237793,2.2409668-.7885742,3.6702271-2.8735352,3.1138916-4.9873047-.3253784-1.2353516-.1745605-1.9726562.8008423-2.7558594.7293701-.5854492.7167969-1.387207.2231445-1.9345703-.4628906-.512207-1.3156738-.5546875-2.0122681-.0639648-.4616089.3261719-.9041138.6831055-1.3277588,1.0576172-.2261353.1992188-.3953857.2124023-.6854858.1108398-2.3396606-.8212891-4.675293-.8178711-7.0011597.0859375-2.8763428,1.1171875-3.8287964,4.6762695-1.8508301,6.9975586.2830811.3320312.3291626.5419922-.0629272.8168945-1.3539429.9501953-1.3660278,2.9663086-.3898926,4.0839844.2624512.3007812.302002.402832-.0727539.6679688-2.1082153,1.4902344-1.8029785,4.1762695.5673828,5.2514648,1.9788208.8974609,4.0834961.9135742,6.1864014.8452148,1.8551025-.0605469,3.6825562-.3203125,5.2568359-1.4335938,1.2491455-.8833008,1.770752-2.1083984,1.595459-3.6235352Zm-9.3450928-11.4902344c1.1560059-.5258789,2.3492432-.4902344,3.5092773-.0239258.8930664.359375,1.3947144,1.3168945,1.3025513,2.3085938-.0921631.9931641-.8403931,1.7651367-1.9870605,2.0175781-.3206177.0708008-.6548462.0786133-1.0285645.1201172-.9393921-.0356445-1.9039917-.1645508-2.6131592-.9345703-.9907837-1.0751953-.5732422-2.8554688.8169556-3.487793Zm5.4137573,13.2275391c-.260437.1894531-.5389404.3632812-.8701782.4477539-1.7689209.4506836-3.5530396.4584961-5.3265381.1030273-1.2582397-.2519531-1.7775269-1.1044922-1.3630371-2.0527344.2012329-.4599609.5019531-.7573242,1.071106-.7358398.8724365.0327148,1.7463379.0087891,2.619751.0087891v.0219727c.8729248,0,1.7460327-.0009766,2.6192017.0004883.3828125.0004883.7504883.0834961,1.0864868.2641602.7555542.40625.8497314,1.4418945.163208,1.9423828Z"/>
  <path class="cls-1" d="m269.3353304,20.5214468c.2055054-.5966797.1264038-1.1806641-.3873291-1.612793-.4966431-.4179688-1.0603027-.3295898-1.5891724-.0776367-.31427.1503906-.6343994.3486328-.866333.6030273-1.1693726,1.284668-2.6620483,1.5385742-4.2763672,1.3637695-2.1291504-.2324219-3.7248535-1.5898438-4.0039062-3.3193359-.0596924-.3710938-.0332642-.5263672.4130249-.5185547,1.5619507.0288086,3.1244507.0112305,4.6866455.0112305h-.0002441.0002441c1.5621948,0,3.1244507.0107422,4.6866455-.003418,1.1569824-.0117188,1.6858521-.4863281,1.8062134-1.6337891.0947266-.9023438-.0349731-1.7998047-.3223267-2.6508789-.9396362-2.78125-2.9264526-4.3330078-5.8083496-4.6977539-3.0788574-.3896484-5.7537231.4165039-7.5844116,3.0620117-1.4299927,2.0673828-1.6732788,4.4140625-1.1915283,6.8505859.3405151,1.7216797,1.0837402,3.2363281,2.5112305,4.2949219,2.9490967,2.1879883,6.1500854,2.3105469,9.4407349.9057617,1.1489258-.4907227,2.0603638-1.3408203,2.4852295-2.5771484Zm-11.0422363-7.1337891c.5966187-1.859375,2.2658691-2.878418,4.4332275-2.7075195,1.8798218.1494141,3.187439,1.2016602,3.6032104,2.8588867.1241455.4956055.0848999.7133789-.5198364.6884766-1.1567383-.0473633-2.3167114-.0136719-3.4754639-.0136719s-2.3172607.0024414-3.4760132-.0009766c-.7497559-.0024414-.8029175-.0839844-.5651245-.8251953Z"/>
  <path class="cls-1" d="m237.0683626,15.8061147c-.0189209-4.7612305-3.3649292-7.9311523-8.3469849-7.9077148-4.6400757.0214844-7.9473267,3.4077148-7.9032593,8.0898438.0445557,4.7314453,3.3583984,8.0087891,8.0770264,7.9892578,4.9472656-.0205078,8.1925659-3.265625,8.1732178-8.1713867Zm-12.7833252.0429688c.0531616-2.8134766,2.0361938-4.8583984,4.6750488-4.8212891,2.7698364.0390625,4.7145996,2.1298828,4.6410522,4.9887695-.0745239,2.8994141-1.9845581,4.8374023-4.741272,4.8110352-2.6900024-.0258789-4.628479-2.1352539-4.5748291-4.9785156Z"/>
  <path class="cls-1" d="m190.9563021,21.9203726c1.5646973,1.5957031,3.5651245,2.0175781,5.1102295,2.050293,1.8276367-.0009766,3.03302-.1782227,4.1680908-.7114258,2.8647461-1.3466797,3.5805054-5.2543945,1.3355103-7.3466797-.6149902-.5727539-1.3705444-.8964844-2.1724243-1.1337891-1.3846436-.4106445-2.8443604-.4907227-4.2111206-.9716797-.7998657-.2807617-1.2197266-.8349609-1.203125-1.5522461.015625-.6699219.4528198-1.234375,1.2703247-1.4179688,1.3909912-.3115234,2.7103882-.1499023,3.8759766.7802734.4956055.3959961.9179688.8930664,1.5246582,1.1445312.5354614.2211914,1.045166.2441406,1.5186768-.152832.4759521-.3994141.5593262-.9179688.4144897-1.4780273-.1311646-.5078125-.3812866-.9619141-.74823-1.3486328-1.0101318-1.0644531-2.3066406-1.5380859-3.7094727-1.7441406-2.052063-.3012695-4.0678101-.2407227-5.8589478.9853516-2.2764893,1.5581055-2.4295654,4.9018555-.3123169,6.6533203.9351196.7729492,2.0782471,1.0737305,3.2392578,1.3291016,1.0114136.2226562,2.0618896.2978516,3.0222168.7216797.828064.3657227,1.2307739,1.0200195,1.1360474,1.7685547-.0979614.7753906-.6051636,1.3061523-1.5075684,1.4707031-1.755127.3203125-3.3311768-.0429688-4.6281738-1.3330078-.3530884-.3515625-.7081909-.7001953-1.1529541-.9326172-.4946289-.2587891-1.0172119-.2617188-1.4864502.0200195-.4910889.2949219-.6555176.793457-.593811,1.3520508.0820923.737793.4681396,1.3359375.9691162,1.847168Z"/>
  <path class="cls-1" d="m146.282535,21.782189c1.5994263,1.7524414,3.7026367,2.1333008,5.9251709,2.1503906.307251,0,.6177979.0302734.9210205-.0043945,2.0072632-.2314453,3.7767334-.8696289,4.7493286-2.8374023.9620972-1.9462891.4402466-4.2836914-1.2783813-5.515625-.9406128-.6748047-2.0635986-.9018555-3.1744995-1.1391602-1.012207-.2167969-2.0593872-.28125-3.0214233-.7182617-.6538086-.2973633-.9963379-.7871094-.9610596-1.5019531.0367432-.737793.4946289-1.1621094,1.1647949-1.3452148,1.1813965-.3227539,2.3192749-.2241211,3.4120483.3842773.651001.3623047,1.125.9365234,1.7369995,1.3378906.5776978.3789062,1.1942749.4799805,1.7886353.074707.5917969-.4033203.6384277-1.0219727.4588623-1.6455078-.2606812-.9072266-.8711548-1.5532227-1.6768188-2.0126953-2.2192993-1.265625-4.5874023-1.4155273-6.9943237-.7597656-2.6338501.7182617-4.0149536,3.2163086-3.1878662,5.6435547.5691528,1.6713867,1.9361572,2.4355469,3.5235596,2.8603516,1.300293.3476562,2.6330566.5737305,3.9296265.9331055.815979.2260742,1.2330322.9248047,1.196228,1.7226562-.034729.7470703-.5167847,1.3500977-1.3408203,1.5253906-1.597229.3388672-3.0969849.1362305-4.3851929-.9667969-.4124756-.3540039-.8109131-.7246094-1.227478-1.0732422-.5238647-.4379883-1.3259888-.5117188-1.8505859-.1499023-.5878296.4038086-.6618652.996582-.4971313,1.6333008.1380005.5332031.4145508.9941406.7893066,1.4042969Z"/>
  <path class="cls-1" d="m206.5471834,11.3188101c.6082153.0693359,1.2272339.0756836,1.84021.0605469.3984375-.0092773.5316772.1103516.5241089.519043-.0236816,1.2773438-.0085449,2.5551758-.0085449,3.8330078.0002441,1.2304688-.0201416,2.4614258.0057983,3.690918.0284424,1.3520508.4641113,2.5629883,1.5297241,3.4394531,1.6719971,1.375,3.5422363,1.359375,5.4733887.637207.9812012-.3671875,1.7921753-.9516602,2.2338867-1.9370117.2861328-.6386719.2392578-1.2797852-.2956543-1.7573242-.5374756-.4799805-1.1635742-.4335938-1.7639771-.0571289-.3580933.2246094-.6970825.484375-1.0708008.6772461-1.4723511.7607422-2.701355.0493164-2.7161865-1.5878906-.0206909-2.2954102.0098267-4.5913086-.017395-6.8862305-.0060425-.5058594.197937-.5791016.6243286-.5693359,1.0172119.0224609,2.0354614.0083008,3.0531616.0068359.454834-.0004883.9152222-.0385742,1.2821655-.3271484.4996338-.3925781.7250366-.9169922.585022-1.5649414-.1415405-.6552734-.5606079-1.0625-1.204834-1.1279297-.7504883-.0771484-1.5115967-.0419922-2.2678833-.0698242-.6573486-.0234375-1.5025635.2734375-1.9213867-.1147461-.427124-.3969727-.0891113-1.2529297-.1374512-1.9052734-.0209351-.2822266-.0078125-.5688477-.0471191-.8486328-.1332397-.9482422-.8459473-1.5561523-1.7362671-1.5009766-.9529419.0600586-1.5921631.7382812-1.6065063,1.722168-.0100708.7099609-.0216675,1.4208984.0055542,2.1298828.0153198.3935547-.0952148.5444336-.5117798.5292969-.6129761-.0209961-1.2320557-.0141602-1.8414917.0493164-.7749634.0805664-1.3486328.7421875-1.3433838,1.4619141.0060425.7773438.5316772,1.40625,1.333313,1.4975586Z"/>
  <path class="cls-1" d="m242.0844149,23.591271c.5615845.3745117,1.1567383.3789062,1.748291.0893555.6482544-.3173828.8834839-.890625.8850098-1.5742188.0045166-2.1542969.0015259-4.3085938.00177-6.4619141,0-.809082.0858765-1.6054688.3644409-2.3706055.2810669-.7729492.6990967-1.4570312,1.4526367-1.8461914,1.0577393-.5458984,1.9009399-.328125,2.9798584.703125.5283813.5053711,1.1121826.7387695,1.8662109.4990234.6633301-.2124023.9378662-.6865234,1.0446777-1.2983398.137207-.784668-.0625-1.4946289-.5656738-2.1191406-.7023926-.8710938-1.6541138-1.2148438-2.7300415-1.3017578-1.7503052-.1416016-3.1858521.4716797-4.3242188,1.8833008-.0473633-.1298828-.0755615-.184082-.0871582-.2412109-.2341919-1.1494141-.8451538-1.644043-1.8989258-1.5361328-.9083862.0927734-1.4874268.7856445-1.4891357,1.8378906-.0073242,4.0473633-.0048218,8.0952148-.0012817,12.1430664.0004883.644043.1868896,1.215332.75354,1.59375Z"/>
  <path class="cls-1" d="m166.4000887,9.7108999c-.0150757-1.0683594-.6759644-1.6977539-1.6715088-1.706543-.9469604-.0087891-1.6911621.6430664-1.696167,1.6176758-.0227051,4.1894531-.0189209,8.378418-.0012817,12.5678711.0037842.8525391.5668945,1.5039062,1.2927246,1.6401367,1.1640625.2182617,2.0626221-.4848633,2.0782471-1.6938477.0261841-2.059082.0070801-4.1181641.0070801-6.1772461-.0004883-2.0825195.0206299-4.1660156-.0090942-6.2480469Z"/>
  <path class="cls-1" d="m164.7449374,6.1308218c1.1587524.0092773,2.0838013-.8925781,2.0908813-2.0366211.0075684-1.1948242-.9026489-2.1279297-2.086853-2.1386719-1.1917114-.0112305-2.1431885.9199219-2.1351318,2.090332.0080566,1.1865234.9169922,2.0761719,2.1311035,2.0849609Z"/>
  <path class="cls-1" d="m162.2815584,51.9984976c-4.5380859,0-8.2753906,1.6904297-10.7669067,4.8642578v-.8901367c0-2.2241211-1.4830322-3.7666016-3.5889893-3.7666016-2.1355591,0-3.6483154,1.5424805-3.6483154,3.7666016v33.6655273c0,2.1948242,1.5127563,3.7373047,3.6483154,3.7373047,2.105957,0,3.5889893-1.5424805,3.5889893-3.7373047v-7.8007812c2.5805054,3.144043,6.1398315,4.5678711,10.7669067,4.5678711,9.1356201,0,15.9873047-6.940918,15.9873047-17.2036133,0-10.2924805-6.8516846-17.203125-15.9873047-17.203125Zm-1.2160645,27.703125c-5.8432007,0-9.6991577-4.6567383-9.6991577-10.5297852,0-5.8427734,3.855957-10.4702148,9.6991577-10.4702148,5.4872437,0,9.7287598,4.0043945,9.7287598,10.5,0,6.4663086-4.2415161,10.5-9.7287598,10.5Z"/>
  <path class="cls-1" d="m203.8005404,51.9984976c-10.1143799,0-17.3812866,6.8515625-17.3812866,17.203125,0,10.3222656,7.2669067,17.2036133,17.3812866,17.2036133,10.144104,0,17.4110107-6.8813477,17.4110107-17.2036133,0-10.3515625-7.2669067-17.203125-17.4110107-17.203125Zm0,27.703125c-5.8135376,0-9.9364014-4.2416992-9.9364014-10.5s4.1228638-10.5,9.9364014-10.5c5.8135986,0,9.9364624,4.2416992,9.9364624,10.5s-4.1228638,10.5-9.9364624,10.5Z"/>
  <path class="cls-1" d="m231.6871981,45.8583608v36.5722656c0,2.1948242,1.5126953,3.7666016,3.6482544,3.7666016,2.105957,0,3.5889893-1.5717773,3.5889893-3.7666016v-36.5722656c0-2.1948242-1.4830322-3.7373047-3.5889893-3.7373047-2.1355591,0-3.6482544,1.5424805-3.6482544,3.7373047Z"/>
  <path class="cls-1" d="m255.4413485,39.3329702c-2.6101685,0-4.5380859,1.9282227-4.5380859,4.4492188,0,2.5507812,1.9279175,4.4790039,4.5380859,4.4790039s4.4788208-1.9282227,4.4788208-4.4790039c0-2.5209961-1.8686523-4.4492188-4.4788208-4.4492188Z"/>
  <path class="cls-1" d="m255.4116854,52.2060171c-2.1355591,0-3.6482544,1.5424805-3.6482544,3.7666016v26.4580078c0,2.1948242,1.5126953,3.7666016,3.6482544,3.7666016,2.105957,0,3.5889893-1.5717773,3.5889893-3.7666016v-26.4580078c0-2.2241211-1.4830322-3.7666016-3.5889893-3.7666016Z"/>
  <path class="cls-1" d="m297.7273592,73.0873647c-1.5424805,0-2.4025879.6225586-3.3813477,2.0170898-1.5126953,2.5800781-4.0932617,4.597168-7.8898315,4.597168-5.6356201,0-9.7288208-4.3007812-9.7288208-10.5,0-6.2290039,4.0932007-10.5,9.7288208-10.5,3.4406128,0,6.1398315,1.690918,7.6821899,4.2119141,1.067749,1.394043,2.0465088,2.0463867,3.6185303,2.0463867,1.7797852,0,3.0551758-1.3344727,3.0551758-3.144043,0-1.6606445-1.0974121-3.8852539-2.7880859-5.6352539-2.432251-2.5507812-6.4958496-4.1821289-11.8051147-4.1821289-9.7584839,0-16.9364014,7.1479492-16.9364014,17.203125s7.1779175,17.2036133,16.9364014,17.2036133c5.1610718,0,9.4321899-1.8984375,11.9830933-4.5678711,1.6015625-1.690918,2.7287598-3.9448242,2.7287598-5.546875,0-1.8686523-1.4533691-3.203125-3.2033691-3.203125Z"/>
  <path class="cls-1" d="m340.5015292,55.2016226c0-1.75-1.5422363-3.144043-3.529541-3.144043s-2.9958496.9492188-4.0932617,3.5595703l-8.1270752,18.3896484-8.75-18.5976562c-.9490967-2.2539062-1.9279785-3.3515625-4.0042725-3.3515625-2.105957,0-3.529541,1.3642578-3.529541,3.3222656,0,.8300781.3261719,1.9277344,1.0084229,3.4106445l11.4490967,23.9067383c-1.3050537,2.6699219-2.7880859,3.9155273-4.8347168,3.9155273-1.3051758,0-2.5805664-.6230469-3.5889893-1.8686523-.5635986-.5341797-1.2160645-.7714844-1.7796631-.7714844-1.7203369,0-3.0253906,1.5722656-3.0253906,3.4707031,0,1.394043.8601074,2.9658203,2.105957,3.9448242,1.8388672,1.453125,3.9152832,2.0761719,6.5253906,2.0761719,5.279541,0,8.5720215-2.6694336,11.1525879-8.3344727l12.1015625-26.4873047c.6229248-1.3349609.9194336-2.4916992.9194336-3.440918Z"/>
  <path class="cls-1" d="m369.2526278,63.1806265h-17.3813477c-2.2244873,0-3.8856201,1.5419922-3.8856201,3.7373047,0,2.1948242,1.6611328,3.7373047,3.8856201,3.7373047h17.3813477c2.2542725,0,3.8856201-1.5424805,3.8856201-3.7373047,0-2.1953125-1.6313477-3.7373047-3.8856201-3.7373047Z"/>
  <path class="cls-1" d="m169.845096,134.7270132c-1.5423584,0-2.4025269.6230469-3.3813477,2.0170898-1.5126953,2.5800781-4.0932007,4.597168-7.8897705,4.597168-5.6356201,0-9.7288208-4.3007812-9.7288208-10.5,0-6.2285156,4.0932007-10.5,9.7288208-10.5,3.4406738,0,6.1397705,1.690918,7.6821899,4.2119141,1.067749,1.394043,2.0465698,2.046875,3.6185913,2.046875,1.7796631,0,3.0551147-1.3349609,3.0551147-3.144043,0-1.6611328-1.0974731-3.8857422-2.788147-5.6357422-2.4321899-2.5507812-6.4957275-4.1821289-11.8050537-4.1821289-9.7584839,0-16.9364014,7.1479492-16.9364014,17.203125s7.1779175,17.2036133,16.9364014,17.2036133c5.1610107,0,9.4321899-1.8984375,11.9830322-4.5678711,1.6016846-1.690918,2.7288208-3.9448242,2.7288208-5.5463867,0-1.8691406-1.4534302-3.2036133-3.2034302-3.2036133Z"/>
  <path class="cls-1" d="m198.358829,113.638146c-10.1143799,0-17.3812866,6.8515625-17.3812866,17.203125,0,10.3222656,7.2669067,17.2036133,17.3812866,17.2036133,10.144043,0,17.4110107-6.8813477,17.4110107-17.2036133,0-10.3515625-7.2669678-17.203125-17.4110107-17.203125Zm0,27.703125c-5.8135376,0-9.9364014-4.2412109-9.9364014-10.5,0-6.2583008,4.1228638-10.5,9.9364014-10.5s9.9364624,4.2416992,9.9364624,10.5c0,6.2587891-4.1229248,10.5-9.9364624,10.5Z"/>
  <path class="cls-1" d="m243.6564364,113.638146c-4.4788208,0-8.1567383,1.6313477-10.1737061,4.6269531v-.6523438c0-2.2246094-1.4830322-3.7670898-3.5889893-3.7670898-2.1355591,0-3.6483154,1.5424805-3.6483154,3.7670898v26.4575195c0,2.1948242,1.5127563,3.7666016,3.6483154,3.7666016,2.105957,0,3.5889893-1.5717773,3.5889893-3.7666016v-14.7119141c0-5.4277344,3.2626953-9.0761719,8.5720215-9.0761719,4.7457275,0,7.6821899,2.7880859,7.6821899,8.5717773v15.2163086c0,2.1357422,1.4830322,3.7666016,3.6186523,3.7666016,2.105896,0,3.6185913-1.6015625,3.6185913-3.7666016v-16.4916992c0-8.9277344-5.2796021-13.9404297-13.317749-13.9404297Z"/>
  <path class="cls-1" d="m289.5059237,138.3754507c-1.0974121,0-1.9279785.5336914-2.6101685,1.0678711-1.1567383.9194336-2.2838745,1.6606445-3.7669067,1.6606445-2.2246094,0-3.6779785-1.4233398-3.6779785-4.2412109v-15.7797852h8.6016846c1.9576416,0,3.3813477-1.3642578,3.3813477-3.2924805,0-1.8984375-1.4237061-3.2626953-3.3813477-3.2626953h-8.6016846v-5.605957c0-2.1948242-1.4830322-3.7373047-3.5889893-3.7373047-2.1355591,0-3.6483154,1.5424805-3.6483154,3.7373047v5.605957h-4.4490967c-1.9873047,0-3.4110107,1.3642578-3.4110107,3.2626953,0,1.9282227,1.4237061,3.2924805,3.4110107,3.2924805h4.4490967v16.7880859c0,6.2880859,4.2711792,10.1738281,10.0254517,10.1738281,3.2033691,0,6.317688-1.2163086,8.1863403-2.9365234,1.2755127-1.1567383,1.9279785-2.4619141,1.9279785-3.796875,0-1.7202148-1.1864014-2.9360352-2.8474121-2.9360352Z"/>
  <path class="cls-1" d="m317.7854647,113.638146c-3.6185303,0-6.7033691,1.5717773-8.5422363,4.3896484v-.4150391c0-2.2246094-1.4831543-3.7670898-3.5889893-3.7670898-2.1356201,0-3.6483154,1.5424805-3.6483154,3.7670898v26.4575195c0,2.1948242,1.5126953,3.7666016,3.6483154,3.7666016,2.105835,0,3.5889893-1.5717773,3.5889893-3.7666016v-14.3261719c0-5.7246094,2.7584229-9.1357422,6.1694336-9.1357422,1.6610107,0,2.9067383.8007812,3.7966309,1.8095703.6525879.7709961,1.6906738,1.6015625,2.9364014,1.6015625,2.3431396,0,3.6779785-1.6313477,3.6779785-3.9746094,0-1.6015625-.682251-3.0849609-1.9576416-4.3007812-1.3347168-1.2460938-3.4406738-2.105957-6.0805664-2.105957Z"/>
  <path class="cls-1" d="m350.1287264,113.638146c-10.1143799,0-17.3813477,6.8515625-17.3813477,17.203125,0,10.3222656,7.2669678,17.2036133,17.3813477,17.2036133,10.144043,0,17.4108887-6.8813477,17.4108887-17.2036133,0-10.3515625-7.2668457-17.203125-17.4108887-17.203125Zm0,27.703125c-5.8134766,0-9.9365234-4.2412109-9.9365234-10.5,0-6.2583008,4.1230469-10.5,9.9365234-10.5s9.9364014,4.2416992,9.9364014,10.5c0,6.2587891-4.1229248,10.5-9.9364014,10.5Z"/>
  <path class="cls-1" d="m381.6636385,103.7607046c-2.1356201,0-3.6483154,1.5424805-3.6483154,3.7373047v36.5722656c0,2.1948242,1.5126953,3.7666016,3.6483154,3.7666016,2.105957,0,3.5888672-1.5717773,3.5888672-3.7666016v-36.5722656c0-2.1948242-1.4829102-3.7373047-3.5888672-3.7373047Z"/>
  <path class="cls-1" d="m401.8023104,103.7607046c-2.135498,0-3.6481934,1.5424805-3.6481934,3.7373047v36.5722656c0,2.1948242,1.5126953,3.7666016,3.6481934,3.7666016,2.105957,0,3.5889893-1.5717773,3.5889893-3.7666016v-36.5722656c0-2.1948242-1.4830322-3.7373047-3.5889893-3.7373047Z"/>
  <path class="cls-1" d="m448.3425936,128.9433218c0-8.9282227-6.1695557-15.3051758-15.8686523-15.3051758-9.7287598,0-16.4914551,6.9106445-16.4914551,17.1142578,0,10.559082,6.9108887,17.2924805,17.4998779,17.2924805,5.1610107,0,10.4406738-1.8388672,12.961792-5.6357422.5932617-.8896484,1.038208-1.8984375,1.038208-2.8769531,0-1.7797852-.8602295-2.9365234-2.788208-2.9365234-1.2456055,0-2.2244873.5634766-3.2033691,1.453125-1.8981934,2.3139648-4.3601074,3.3222656-7.7414551,3.3222656-5.8728027,0-9.9067383-3.2329102-10.4406738-8.3349609h21.1779785c2.5507812,0,3.855957-1.3046875,3.855957-4.0927734Zm-25.0339355-1.75c.5042725-4.7163086,3.9746094-7.652832,8.8983154-7.652832,5.0126953,0,8.394043,2.8178711,8.9278564,7.652832h-17.8261719Z"/>
  <path class="cls-1" d="m480.8721346,115.744103c-1.3347168-1.2460938-3.4406738-2.105957-6.0805664-2.105957-3.6186523,0-6.7033691,1.5717773-8.5422363,4.3896484v-.4150391c0-2.2246094-1.4831543-3.7670898-3.5891113-3.7670898-2.135498,0-3.6481934,1.5424805-3.6481934,3.7670898v26.4575195c0,2.1948242,1.5126953,3.7666016,3.6481934,3.7666016,2.105957,0,3.5891113-1.5717773,3.5891113-3.7666016v-14.3261719c0-5.7246094,2.7584229-9.1357422,6.1694336-9.1357422,1.6610107,0,2.9067383.8007812,3.7966309,1.8095703.6525879.7709961,1.6906738,1.6015625,2.9364014,1.6015625,2.3431396,0,3.6779785-1.6313477,3.6779785-3.9746094,0-1.6015625-.682251-3.0849609-1.9576416-4.3007812Z"/>
  <path class="cls-1" d="m109.9284701,62.3710562c-7.100769-6.0888672-7.9071655-9.5507812-10.3548584-19.015625-2.6619263-10.2939453-16.9299927-19.2294922-27.3804321-16.9960938-8.0006104,1.7089844-15.8115234,2.1591797-23.7595215.2646484-.8413086-.2001953-1.7322998-.2236328-2.6032104-.2626953-4.2260742-.1914062-7.663208,1.3466797-10.2867432,4.7001953-1.5772095,2.015625-2.961853,4.1650391-4.1110229,6.4335938-3.048645,6.0185547-7.7230835,10.2900391-13.6537476,13.3623047-2.7096558,1.4042969-5.385498,2.9228516-7.8926392,4.65625-3.8612061,2.6689453-7.0163574,5.9619141-7.6196899,10.9404297-.4396973,3.6279297.6728516,6.9765625,2.3781128,10.0488281,3.1351318,5.6484375,4.6774902,11.5859375,4.0576172,17.4433594,0,2.4208984-.0651855,4.2441406.0117798,6.0615234.2650757,6.2597656,1.7304688,11.9863281,7.2492676,15.8515625,2.0961914,1.46875,4.3218384,2.7392578,6.675293,3.6982422,6.8986206,2.8095703,12.4552612,7.1445312,16.2451172,13.6445312.5064087.8691406,1.2446289,1.6142578,1.9368896,2.359375,3.1467285,3.3886719,7.0062256,5.0966797,11.6685181,4.9433594,3.4735718-.1142578,6.7943115-.9423828,9.9241333-2.3574219,9.3667603-4.2353516,18.8435669-7.8886719,29.1243286-9.5380859,7.2749634-1.1669922,12.0172119-6.1279297,14.5369873-13.1064453.8239136-2.2822266,1.2300415-4.6474609,1.5775146-7.0175781.6915283-4.7158203,2.9851685-8.2841797,7.1491089-10.6445312.9477539-.5371094,1.3181763-1.1591797,2.2012329-1.7998047,3.1641846-2.2958984,5.0458374-5.3876953,5.6109009-9.2607422.5878906-4.0302734-.2290649-7.8164062-2.0206909-11.4316406-2.6206055-5.2871094-6.2943115-9.2304688-10.6642456-12.9775391Zm-32.5777588-31.7597656c5.8825073-.0361328,10.3515015,2.4033203,13.2368164,7.5927734.109314.1962891.1658325.4267578.222229.6474609.0291138.1132812-.0224609.2255859-.1779785.2724609-.257019.0400391-.4755249-.0878906-.6543579-.2734375-.3981323-.4121094-.80896-.8164062-1.168335-1.2617188-2.3540649-2.9160156-5.4005127-4.7138672-9.0009766-5.640625-.8442993-.2167969-1.6757202-.4863281-2.5092773-.7431641-.2354736-.0722656-.5780029-.1523438-.5368042-.4394531.0426025-.296875.3848877-.1533203.5886841-.1542969Zm-57.0476074,36.6220703c-.3224487.8691406-.6239014,1.7509766-1.020752,2.5859375-2.5993042,5.4716797-3.085022,11.1689453-1.9140015,17.0634766.2746582,1.3818359.4656372,2.78125.6747437,4.1757812.059021.3945312.1831665.9492188-.2644043,1.0898438-.4624634.1464844-.4924316-.453125-.6369629-.7490234-4.1721802-8.5449219-3.7487183-16.7636719,1.7913208-24.6015625.2098999-.296875.505127-.5400391.7871094-.7773438.145813-.1220703.3452148-.125.5230103.0683594.2369385.3466797.2047119.7539062.0599365,1.1445312Zm1.6051025,40.1728516c7.5846558,9.5517578,17.3511353,15.4208984,29.3483276,17.453125,21.7467651,3.6835938,42.928833-8.0009766,50.5445557-27.7958984,1.3510742-3.5117188,2.1722412-7.1513672,2.4928589-10.8125,1.1505737-13.1386719-4.1528931-26.5585938-14.6230469-35.3535156-5.840332-4.90625-12.4750977-8.1767578-19.3685303-9.8662109-16.0026245-3.921875-33.4080811.7304688-45.5683594,13.6142578-1.4712524,1.5595703-2.7245483,3.3242188-4.2210693,5.1679688,6.8379517-13.6572266,25.9818726-27.0078125,49.3034668-22.1425781,20.9396362,4.3671875,36.3383179,23.5410156,36.1751709,45.2529297-.1679688,22.34375-15.9590454,41.0009766-38.2860107,45.0283203-20.375,3.6748047-39.0632935-7.8867188-45.7973633-20.5458984Zm15.3357544-39.1005859c.1201172-.5917969.5-1.0976562,1.0341797-1.3789062l21.4819336-11.3125c.0582886-.0302734.1218262-.0429688.1820679-.0673828.0830688-.0341797.1639404-.0708008.249939-.0927734.0831909-.0219727.1670532-.0292969.25177-.0400391.0848999-.0107422.1682739-.0253906.2537231-.0253906.0853882,0,.1685791.0146484.253418.0253906.0849609.0107422.1690063.0180664.2524414.0400391.0855713.0224609.1660767.0585938.2487183.0922852.0605469.0249023.1243896.0371094.1829224.0678711l21.4819336,11.3125c.5341797.28125.9140625.7871094,1.0341797,1.3789062.0576172.28125,5.4125977,28.3144531-22.3769531,42.6162109-.2895508.1494141-.6054688.2236328-.9208984.2236328-.0524292,0-.1034546-.0166016-.1557617-.0209961-.0523071.0043945-.1033325.0209961-.1557617.0209961-.3154297,0-.6313477-.0742188-.9208984-.2236328-14.5024414-7.4628906-19.8237305-18.6396484-21.7338867-26.7011719-2.0654297-8.7167969-.7021484-15.6259766-.6430664-15.9150391Zm68.5999756,39.0869141c-2.545166,9.1621094-8.3133545,15.03125-17.6580811,17.2226562-.3540649.0830078-.7363892.0693359-1.1044312.0595703-.1901855-.0048828-.3416138-.1347656-.3464355-.3974609.0529785-.4169922.34729-.7001953.7146606-.8964844.8175049-.4365234,1.6280518-.8964844,2.4790039-1.2587891,5.5744629-2.3701172,9.7168579-6.3115234,12.7501221-11.5.7113037-1.2167969,1.49646-2.390625,2.2650146-3.5722656.217041-.3339844.4920654-.8320312.9206543-.640625.4428711.1972656.067688.6660156-.0205078.9833984Z"/>
  <path class="cls-1" d="m80.357242,70.0214468l-17.637207-9.2871094.1352539,44.9746094c19.5532227-11.8691406,18.1298828-31.2011719,17.5019531-35.6875Z"/>
  <path class="cls-1" d="m58.5398592,105.7089468l.1352539-44.9746094-17.637207,9.2871094c-.6274414,4.4785156-2.0556641,23.8164062,17.5019531,35.6875Z"/>
</svg>