<?xml version="1.0" encoding="UTF-8"?><svg id="Layer_1" xmlns="http://www.w3.org/2000/svg" viewBox="0 0 115 125"><defs><style>.cls-1{fill:#2e2f71;}</style></defs><path class="cls-1" d="M111.9548,54.80626c-.01031-.677-.05286-1.35083-.10889-2.02295-.01398-.16748-.02905-.33521-.04565-.5022-.13281-1.33618-.34692-2.66333-.62598-3.98291-.0351-.16577-.07092-.33154-.10791-.49707-.14606-.65332-.30139-1.30566-.47467-1.95557-.00018-.00073-.00024-.00122-.00043-.00195-.15259-.57227-.32336-1.13452-.51123-1.68774-.21436-.6311-.45703-1.24683-.71503-1.85425-.0816-.19214-.17133-.37964-.25708-.56958-.18945-.41895-.38672-.83374-.59607-1.24194-.1051-.20459-.2124-.40845-.32239-.6106-.21948-.40356-.44995-.80127-.68823-1.19458-.10632-.17529-.20886-.35303-.31879-.52637-.35126-.5542-.71564-1.10132-1.10229-1.63574-.67834-.93774-1.4093-1.8457-2.18634-2.72705-1.50397-1.70557-3.12347-3.29321-4.78284-4.84058-.66376-.6189-1.3316-1.23389-2.00574-1.84253-.33704-.30444-.67261-.61035-1.01068-.91382-.42072-.37769-.82184-.76978-1.21368-1.16919-.09833-.10034-.19568-.20142-.29211-.30298-.38568-.40649-.76172-.82031-1.11578-1.25049-.41211-.50073-.7948-1.02319-1.16107-1.55786-.81329-1.18799-1.51685-2.45703-2.07825-3.83057-.67505-1.65186-1.48126-3.2478-2.52148-4.71558-.51196-.72192-1.07416-1.37866-1.67853-1.97998-.30219-.30078-.61493-.58765-.93719-.86206-.64447-.54907-1.32721-1.04834-2.03998-1.50806-.71283-.45972-1.45575-.87988-2.22076-1.271-.38251-.19556-.77051-.38403-1.16309-.56616-.32391-.15039-.65277-.2771-.97919-.41553-.94305-.3999-1.89337-.76489-2.85596-1.07129-.20459-.06494-.41138-.12012-.61682-.18115-.42682-.12695-.85425-.25146-1.28448-.36182-.24573-.06323-.49298-.11914-.73981-.177-.39587-.09302-.79254-.18286-1.19104-.26294-.2583-.05225-.5174-.1001-.77673-.14697-.39398-.07129-.789-.13721-1.18524-.19727-.25964-.03906-.51941-.07788-.77997-.1123-.40747-.0542-.81641-.10107-1.22607-.14429-.24731-.02612-.49414-.05444-.74219-.0769-.45105-.04053-.90399-.07227-1.35736-.10132-.20746-.01318-.41412-.03076-.62207-.04175-.66077-.03467-1.32336-.0603-1.9884-.07349-.79877-.01392-1.59454,.00146-2.38739,.04321-.71606,.0376-1.42896,.10352-2.14032,.18164-.21368,.02368-.42664,.052-.63989,.0791-.52277,.06592-1.04443,.14111-1.56476,.22632-.20782,.03394-.41583,.06616-.62323,.10303-.69897,.12427-1.39648,.25879-2.09113,.41235-.00153,.00049-.00299,.00073-.00452,.00122-.76398,.16895-1.51404,.37329-2.25824,.59229-.18597,.05493-.37152,.11084-.55634,.16846-1.36743,.42676-2.70599,.92627-4.01917,1.48926-.19476,.0835-.3877,.17163-.58142,.25757-.41956,.18604-.83746,.37646-1.25262,.57324-.21191,.10059-.42346,.20215-.63434,.30518-.41644,.20361-.83075,.41211-1.24353,.62451-.1814,.09326-.36353,.18506-.54431,.27979-.58246,.30591-1.16272,.61743-1.7395,.93677-1.36395,.75513-2.64215,1.6272-3.87848,2.55688-.92725,.69727-1.82928,1.4292-2.72809,2.16602-.29962,.24561-.60034,.48975-.89954,.73608-.00488,.00391-.00958,.00806-.01447,.01196-.83765,.68945-1.66919,1.38623-2.49554,2.08862-.24982,.21216-.49683,.42749-.74512,.64136-.62494,.53857-1.24316,1.08398-1.85632,1.63477-.25391,.22827-.50848,.45557-.75995,.68652-.82318,.75513-1.63678,1.52051-2.42834,2.30859-.5871,.58472-1.14801,1.19629-1.71368,1.80298-.28101,.30151-.57587,.58862-.85095,.896-2.47992,2.77124-5.29553,5.03809-8.55066,6.82153-.72949,.3999-1.43646,.83008-2.12268,1.28809-1.37244,.91602-2.66174,1.94312-3.88177,3.06104-.60999,.55908-1.20264,1.14062-1.77972,1.74268-.53711,.56006-1.00586,1.14551-1.41547,1.75317-.05719,.08472-.11066,.17114-.16541,.25708-.13757,.21582-.26709,.43457-.38885,.65649-.04865,.08862-.09869,.17676-.14484,.2666-.15564,.30249-.3017,.60864-.42841,.92261-.42242,1.0459-.6839,2.15503-.78265,3.33154-.0329,.39209-.04773,.79175-.04437,1.19897,.00415,.50977,.03162,1.01611,.06995,1.52124,.01141,.15015,.02692,.2998,.0412,.44995,.03528,.37183,.07849,.74243,.13025,1.11157,.02051,.14673,.03949,.2937,.0625,.43994,.16449,1.04736,.3858,2.08618,.65723,3.11621,.22162,.84131,.47076,1.67383,.73712,2.50049,.79907,2.47998,1.75348,4.90918,2.58734,7.37817,.11987,.35498,.23993,.70972,.35779,1.06494,.02661,.08032,.05347,.16064,.07971,.24097,.12018,.36816,.23328,.73779,.33838,1.10889,.02002,.0708,.03943,.14185,.05865,.21289,.10193,.37549,.19275,.75342,.26624,1.13501,.0108,.05591,.0188,.11255,.02881,.1687,.11639,.65137,.18671,1.3125,.17297,1.99219h0c-.0401,1.97729-.16473,3.95215-.39899,5.91504-.13177,1.10327-.20886,2.20239-.23407,3.29785,0,.00073,.00006,.00146,0,.00244-.06268,2.73755,.19879,5.45166,.74176,8.14966,.10864,.53979,.22852,1.07886,.35931,1.61743,.12012,.49438,.26135,.97168,.4234,1.43188,.1452,.41235,.31268,.8064,.49158,1.19116,.05298,.11401,.11053,.22412,.16644,.33569,.14056,.28052,.29047,.55298,.44971,.81812,.06335,.10547,.12512,.21216,.19141,.31519,.44928,.69824,.96661,1.34106,1.55219,1.92896,.08667,.08691,.17792,.17017,.26758,.25488,.22455,.21167,.4585,.41577,.70184,.6123,.09705,.07861,.19244,.1582,.29248,.23413,.3374,.25635,.68628,.50317,1.05774,.73218,.41492,.25537,.85089,.4939,1.30835,.71509,.11902,.05737,.24536,.09985,.36853,.14917,.36938,.14722,.74854,.27441,1.12323,.41016,.10663,.03833,.19653,.08105,.2771,.12573,.02472,.01392,.04449,.02881,.06671,.04321,.05096,.03271,.09656,.06689,.13464,.10278,.01886,.01782,.03613,.03589,.05182,.05444,.03156,.0376,.05548,.07666,.07428,.11719,.0083,.01807,.01917,.03516,.02496,.05371,.01855,.05957,.02771,.12158,.0202,.18726-.00659,.05737-.02325,.11743-.04987,.17944-.05328,.12451-.14661,.25781-.28021,.40063-.06488,.06909-.13892,.1311-.20001,.20337-.00189,.00195-.00342,.00439-.00531,.00659-.18701,.22046-.36255,.44458-.53162,.67114-.05139,.06885-.10004,.13867-.14972,.20825-.1217,.17017-.23779,.34253-.34851,.5166-.04565,.07178-.09222,.14331-.13593,.21582-.14404,.23901-.28088,.48022-.40259,.72681-.00067,.00146-.00128,.00269-.00195,.00391-.12115,.24585-.22681,.49707-.3241,.75098-.02899,.07568-.0545,.15259-.08124,.229-.06677,.19043-.12622,.38379-.17883,.5791-.0213,.07959-.04382,.15869-.06274,.23877-.06311,.26782-.11713,.53906-.15228,.81665-.03894,.30859-.06018,.62354-.06238,.94531-.0022,.32153,.01453,.64966,.05139,.98511,.04565,.41553,.13849,.80737,.25287,1.18652,.19061,.63232,.46033,1.21753,.81268,1.7334,.16132,.23633,.34131,.45508,.53094,.66406,.05896,.06494,.12292,.12402,.18439,.18628,.13855,.14014,.28143,.27393,.43188,.39941,.07434,.06201,.14996,.12231,.22705,.18066,.15631,.11841,.31824,.22729,.48474,.33032,.07294,.04492,.14386,.09302,.21857,.13501,.48511,.27246,1.00549,.47852,1.54962,.61206,.0835,.02051,.16901,.03394,.25348,.05078,.19373,.03906,.38873,.07031,.58691,.09058,.09772,.01001,.19592,.01758,.29449,.02271,.19897,.01074,.39905,.00977,.60059,.00098,.09003-.00391,.17957-.00391,.26996-.01196,.2879-.02539,.57678-.06543,.86597-.13257,.25494-.05908,.5097-.13452,.76312-.22754,.25208-.09253,.50281-.20215,.75098-.32935,.46741-.23999,.96185-.37329,1.45538-.40942s.98608,.02515,1.44983,.1748c.46375,.1499,.89862,.38794,1.27679,.70557,.18909,.15869,.36395,.3374,.52118,.53491s.29675,.41382,.4151,.64746c.19543,.38599,.37708,.7793,.56256,1.17041,.02618,.05518,.0531,.11011,.07947,.16528,.00604,.01245,.01172,.02515,.0177,.03784,.22711,.47534,.44818,.95386,.67224,1.43066,.1449,.30835,.29517,.61401,.44812,.91797,.06464,.12842,.12939,.25684,.19641,.38403,.21112,.40063,.43127,.79639,.67725,1.17798,.26727,.41455,.56024,.81494,.88995,1.19507,.39362,.45386,.8136,.83472,1.25677,1.15161,.07098,.05054,.14508,.09253,.21729,.13989,.14716,.09644,.29517,.19043,.44745,.27295,.08771,.04736,.1778,.08789,.26715,.13086,.14258,.06836,.28644,.13354,.43329,.19019,.09625,.03711,.19391,.07056,.29193,.10278,.14636,.0481,.29468,.09082,.44495,.12817,.10095,.02515,.20221,.04907,.30493,.06934,.15625,.03076,.31543,.05371,.47571,.07324,.10034,.01245,.19983,.02686,.3017,.03491,.17749,.01392,.35889,.01733,.54108,.01855,.08868,.00049,.1756,.00586,.26538,.00342,.27057-.00732,.54535-.02637,.82581-.06055,.00323-.00049,.00629-.00024,.00952-.00073,.20673-.02539,.40332-.0791,.60486-.11914,.33588-.06665,.66693-.14648,.99017-.24805,1.03436-.3252,2.01501-.7981,2.96661-1.33936,.98492-.56006,1.91541-1.19531,2.8291-1.85376,.58728-.4231,1.16913-.85376,1.74011-1.29932,1.04248-.81323,2.07031-1.64648,3.10718-2.46655,.05701-.04517,.117-.07251,.17462-.11353,.22839-.16309,.46295-.29346,.70276-.396,.01056-.00439,.02136-.00806,.03198-.01245,.17865-.07422,.36029-.13818,.54694-.18066,.05365-.01221,.10938-.01758,.16382-.0271,.1507-.02686,.30109-.05566,.45782-.06323,.22253-.01074,.44952-.00781,.68579,.01855,1.41107,.15723,2.66785,.68433,3.84698,1.3999,.23584,.14307,.47314,.28247,.70294,.44019,1.13684,.78076,2.31592,1.47168,3.54242,2.06348,.61322,.29614,1.23828,.56738,1.87579,.8125s1.28748,.4646,1.9505,.65674c.00299,.00098,.00598,.00146,.00897,.00244,.54071,.15674,1.08215,.29688,1.62402,.42798,.16217,.03931,.32446,.07471,.48669,.11157,.40454,.0918,.80945,.17603,1.21466,.25244,.16333,.03101,.32666,.06299,.49011,.09131,.54413,.09399,1.08856,.17798,1.63397,.24243,.01019,.00122,.02045,.00244,.03064,.00366,.5434,.06348,1.08752,.10693,1.6322,.13916,.16284,.00952,.32599,.01465,.48901,.02148,.40875,.01685,.81787,.02417,1.22736,.02246,.16315-.00073,.32623,0,.4895-.00366,.96344-.02246,1.9292-.10815,2.89679-.24243,.82214-.11377,1.64526-.25439,2.47046-.45557,.60828-.14819,1.20898-.3125,1.80249-.49219,4.15436-1.25757,7.95361-3.26904,11.50031-5.82568,.63068-.45459,1.23334-.93262,1.80688-1.43604s1.11798-1.03223,1.63208-1.58862c.51416-.5564,.99792-1.14062,1.45038-1.75464s.87347-1.25781,1.2619-1.93359c.00073-.00146,.00134-.00269,.00208-.00391,.25476-.44336,.48553-.89526,.7063-1.35059,.05505-.11377,.10938-.22754,.16248-.3418,.39404-.8479,.73889-1.71289,1.04138-2.59302,.04449-.12939,.08594-.26001,.12885-.39014,.09406-.2854,.18555-.57202,.2724-.85986,.0437-.14502,.08679-.29028,.12885-.43579,.08374-.28979,.16431-.58057,.24219-.87256,.0343-.12866,.06995-.25684,.10321-.38574,.10693-.41406,.21021-.82935,.30847-1.24634,1.01471-4.30762,1.38385-8.70483,1.70874-13.10205,.02283-.30933,.06287-.61548,.09052-.92383,.22119-2.46729,.58386-4.90796,1.15649-7.30786,.21472-.90015,.45691-1.79468,.72858-2.68359,.07227-.23633,.16058-.4668,.23779-.70142,.7724-2.34497,1.76172-4.6106,2.70172-6.89355,.09399-.22827,.19067-.45557,.28308-.68433,.2384-.59058,.45331-1.18604,.64539-1.78613,.25714-.80371,.45886-1.62012,.63623-2.44263,.18921-.87769,.33752-1.76611,.44025-2.66772,.01685-.14746,.04364-.29199,.05823-.44043,.10077-1.02393,.13922-2.04102,.12384-3.05225v-.00024ZM60.5945,6.74791c1.27802-.44653,2.62463-.37207,3.94421-.49756,.39569-.0376,.79791-.00562,1.19739-.00562,4.11688,.16113,8.19348,.62622,12.07031,2.09351,2.42535,.91797,4.59393,2.30762,6.59406,3.99316,1.79236,1.50977,2.84412,3.42407,3.5835,5.57422,.03107,.09009,.07587,.17871,.08612,.27075,.03326,.29883,.13062,.64966-.20325,.82153-.34564,.17822-.49957-.16528-.68079-.36597-1.3609-1.50781-2.59412-3.1438-4.18774-4.42163-2.28693-1.83374-4.78693-3.33911-7.63477-4.09399-4.09265-1.08521-8.22876-1.99731-12.42175-2.62305-.65729-.09766-1.31732-.17969-1.98431-.17432-.11365,.00122-.23181,.00806-.3399-.01953-.16974-.04297-.34796-.13501-.35944-.31787-.01276-.19604,.20923-.18921,.33636-.23364Zm-24.85895,62.3313c.47156-1.17847,1.88574-1.88525,3.29993-1.41431,2.12152,.70752,4.00702,1.17896,5.4212,.94287,1.6499-.23535,3.06433-.70703,4.71405-1.17847,4.47858-1.17847,9.42816-2.82837,16.02777,.70728,1.17865,.47119,1.6499,2.12109,1.17865,3.2998-.70709,1.41431-2.35706,1.88574-3.53546,1.17847-4.94989-2.59253-8.24976-1.41406-12.25653-.23584-1.88574,.70728-3.53571,1.17847-5.65723,1.41431h-1.41412c-1.8855,0-4.00677-.47119-6.36407-1.41431-1.17841-.47144-1.8855-1.88501-1.41418-3.2998Zm37.47693-6.83521l-1.41418,.94263c-.94287,.70728-2.35706,.47119-3.06415-.47144l-13.67065-18.85596c-.70734-.94312-.47156-2.35718,.47131-3.06445l1.41412-.94287c.94287-.70728,2.35706-.47095,3.06415,.47168l13.67096,18.85645c.70685,.94263,.47131,2.35669-.47156,3.06396Zm4.24274,4.00684c.70709-.47168,1.41418-.23584,1.41418,.70728l.47131,4.71411c0,.94263-.70709,1.41406-1.41418,.94263l-4.24249-2.12085c-.70734-.47168-.70734-1.17896,0-1.65015l3.77118-2.59302Zm-53.7439,22.9292c-.12738,.11011-.29034,.11353-.4295,.04395-.32166-.16113-.6673-.30029-.94159-.52393-.74744-.61035-1.48901-1.21899-2.16858-1.92041-1.09332-1.12891-2.07745-2.3313-2.80084-3.70996-1.71802-3.27393-2.99756-6.71875-3.79022-10.33716-.43103-1.96777-.68805-3.95117-.86426-5.96509-.16321-1.8623-.43732-3.72852-.67633-5.59106-.36694-2.86108-.80145-5.72095-.81696-8.61182-.01801-3.34399,.44452-6.62866,1.5033-9.81299,1.15186-3.46362,2.78754-6.62598,5.43195-9.23706,2.27118-2.24219,4.42072-4.6084,6.61328-6.93018,.44104-.46704,1.00195-.63135,1.6825-.84204-.27478,.67896-.57117,1.18091-.92957,1.65356-1.10333,1.4541-2.35077,2.78613-3.51794,4.18604-1.87799,2.25146-3.55945,4.6333-4.88751,7.26001-1.33057,2.6311-2.54852,5.30469-3.3465,8.1521-.43652,1.55884-.64801,3.15869-.82599,4.7627-.18219,1.64453-.20972,3.28931-.10107,4.94482,.14062,2.13965,.53162,4.2356,.84949,6.34863,.32739,2.17383,.87579,4.31104,1.01422,6.52197,.17621,2.81348,.8833,5.54175,1.62341,8.25488,.18298,.67139,.59521,1.22803,.91156,1.83057,1.13361,2.15771,2.38135,4.23169,4.10785,5.99561,.80597,.82373,1.45978,1.79639,2.1756,2.7063,.09186,.1167,.15295,.26099,.21124,.40015,.05859,.14014,.11688,.29614-.02753,.42041Zm10.23865,10.04443c-1.45776,.15967-2.87494,.5376-4.31665,.77832-1.54633,.25879-2.41333-.45264-2.57074-2.01685-.05658-.56323-.21802-1.11377-.00781-1.68555,.36847-1.0022,1.03247-1.2124,1.7854-.46997,.85022,.83789,1.80511,1.50024,2.86511,2.03491,.4668,.2356,.95691,.36743,1.46075,.46045,.51514,.09521,.96265,.31885,1.42267,.64282-.22125,.20215-.44,.23438-.63873,.25586Zm29.28766,7.8042c-1.20917,.83252-2.58752,1.02563-4.1369,1.06421-1.11829-.12012-2.36328-.25122-3.60724-.39038-.24579-.02759-.4856-.0647-.73615-.0271-1.3894,.20874-2.7735,.44458-4.12836,.82349-.49963,.14014-1.01123,.1853-1.52155,.21338-1.13635,.06152-2.27423,.10986-3.41205,.12695-1.64471,.02515-2.8324-.83984-3.771-2.08252-.409-.5415-.71783-1.16284-1.03973-1.76489-.22699-.42554-.30536-.89624-.25427-1.38208,.0423-.40259,.25629-.52881,.62921-.39453,.1427,.05151,.28833,.104,.41754,.18164,1.91772,1.15137,4.0918,1.60596,6.23285,1.8291,2.71497,.28345,5.42145,.71899,8.16064,.79443,1.40271,.03857,2.80035,.25293,4.20276,.28491,.9281,.021,1.85272,.04712,2.77631,.13257,.19647,.01807,.47327-.07495,.53638,.18774,.05029,.21118-.19574,.29785-.34845,.40308Zm5.50903-6.20044c-.87048,.16919-1.77509,.2373-2.66266,.22583-.91656-.01147-1.83691,.03198-2.7157,.20312-1.60339,.3125-3.18103,.07617-4.76941,.01367-1.10028-.04346-2.19336-.22119-3.29938-.1748-.20648,.00854-.42126-.01294-.62177-.06299-1.67322-.41699-3.38074-.66431-5.06171-1.05786-1.93231-.45239-3.77753-1.12622-5.61115-1.83569-1.48077-.573-2.90948-1.28345-4.34619-1.96436-.88202-.41846-1.55884-1.1416-2.35077-1.69897-2.31622-1.63135-4.51434-3.40405-6.4837-5.46436-1.67169-1.74902-3.12115-3.65991-4.59344-5.56958-1.69098-2.1936-2.88239-4.61548-3.86005-7.17847-.44604-1.16895-.9021-2.32935-1.18591-3.55029-.2403-1.03418-.62726-2.05981-.6853-3.10425-.05707-1.01611,.09009-2.05371,.01953-3.09204,.86749,3.24878,1.80963,6.4541,3.20856,9.49976,2.80554,6.10718,6.61682,11.48413,11.79944,15.81372,5.23596,4.37427,11.26459,7.05078,17.97308,8.24414,3.40302,.60522,6.8288,.85425,10.27362,.66382,4.3432-.24023,8.53064-1.18799,12.49835-3.02051,.62274-.28784,1.23798-.62671,2.03589-.67676-.16943,.27441-.3797,.3623-.56714,.46802-2.81885,1.59131-5.81995,2.70215-8.9942,3.31885Zm33.19934-14.89966c-.14368,1.5083-.38245,3.0061-.69983,4.49194-.3479,1.63086-.57965,3.28979-1.10181,4.87769-.45001,1.36768-.89081,2.73828-1.4527,4.06885-.53314,1.26245-1.31805,2.36279-2.33606,3.21973-.99237,.83545-2.07867,1.60938-3.29614,2.11304-1.43591,.59424-2.8974,1.11841-4.45227,1.34912-1.00641,.14917-2.00989,.08521-3.01508,.09302-.10962,.00122-.22577-.03687-.32886-.08057-.75189-.31885-.81396-.5686-.27808-1.17383,.57043-.64429,1.26123-1.15869,1.95703-1.64648,1.18768-.83203,2.26221-1.78052,3.27893-2.80933,2.75323-2.78687,4.89203-6.06714,7.32513-9.11011,1.38843-1.73608,2.35333-3.76514,3.42859-5.71045,.20074-.36328,.37994-.74268,.73236-1.06274,.40173,.42944,.2796,.95166,.23877,1.38013Zm.06085-27.54492c-.09912,1.61572-.3382,3.22314-.5174,4.83447l-.16766,.00171c0-1.23218,.02399-2.4646-.00403-3.69604-.10413-4.57983-1.03375-9.01001-2.48468-13.33887-.66302-1.97827-1.36761-3.9436-2.20612-5.85474-.96191-2.19263-2.01617-4.33911-3.52441-6.22339-.37097-.46411-.97144-.46851-1.48029-.60181-.26404-.06958-.43652-.17969-.60522-.34888-2.02991-2.03247-4.09985-4.01562-6.41211-5.73633-3.11719-2.31982-6.50519-4.11768-10.12146-5.53052-1.4903-.58228-2.98401-1.1604-4.53687-1.49976-3.45087-.75488-6.92273-1.40381-10.49316-1.13232-1.17218,.08911-2.35358,.04712-3.52795,.11426-1.27301,.07251-2.49969,.45239-3.75897,.63013-2.32098,.32739-4.51532,1.13281-6.73547,1.83667-.18097,.05762-.36041,.13379-.54639,.15674-.17297,.02148-.4931,.13257-.17346-.26782,.14844-.18579-.11115-.4917-.23224-.71484l-.49664-.22729c6.52277-3.0957,13.36633-4.22949,20.5321-3.30493,1.487,.19165,2.953,.5376,4.38892,.9812,2.33954,.72266,4.67004,1.46021,6.96429,2.33276,2.27594,.86548,4.52484,1.74707,6.63184,2.97852,2.69446,1.57544,5.11359,3.51416,7.3219,5.69263,3.02661,2.98511,5.74707,6.23535,7.71216,10.04102,1.12506,2.17896,1.94684,4.48267,2.70044,6.81787,.9046,2.80151,1.53284,5.64941,1.66602,8.58789,.05231,1.15576,.17743,2.32031,.10687,3.47168Zm5.02368-4.26416c-.22675-3.19678-.89203-6.32666-1.63947-9.44434,1.75586,2.88159,2.42188,6.07568,2.64062,9.35718,.21753,3.26685,.04956,6.52661-.90656,9.69849-.20197-3.20972,.13214-6.41406-.0946-9.61133Zm2.37885,11.46704c-.02057,.04858-.06714,.08618-.10162,.12866,.28479-1.45874,.58093-2.90381,.86102-4.354,.33087-1.7146,.20374-3.43359,.22424-5.15283,.00623-.53101-.01678-1.06372-.04553-1.59424-.1687-3.12183-.72711-6.16284-1.72058-9.13794-1.10382-3.30688-2.86487-6.22632-4.97064-8.96753-1.82892-2.38086-3.6463-4.76978-5.46924-7.15454-.20721-.27075-.39795-.55713-.75885-.77441,.30957-.09155,.43848,.09961,.57568,.20679,3.77045,2.94141,6.99225,6.37842,9.30499,10.5896,2.05695,3.74487,3.33746,7.75317,3.94916,11.99463,.71039,4.92529,.07562,9.64746-1.84863,14.21582Z"/></svg>