<?xml version="1.0" encoding="UTF-8"?><svg id="Layer_1" xmlns="http://www.w3.org/2000/svg" viewBox="0 0 115 125"><defs><style>.cls-1{fill:#2e2f71;}</style></defs><path class="cls-1" d="M110.74075,45.81999c-1.22083-4.57715-3.59418-8.53369-6.70691-12.06494-2.40906-2.73193-5.10126-5.17627-7.80975-7.60693-2.53528-2.27539-4.56525-4.93213-5.86896-8.12207-.67603-1.65479-1.48389-3.25293-2.52521-4.72217-2.05066-2.89209-4.90546-4.73535-8.05084-6.19629-5.18976-2.41016-10.70593-3.25586-16.36774-3.36816-3.19934-.05615-6.35101,.35938-9.45996,1.04639-4.57593,1.01123-8.77582,2.97852-12.85144,5.23584-2.73236,1.5127-5.12012,3.49365-7.51727,5.46631-3.82513,3.14795-7.57373,6.39062-10.87921,10.08545-2.48315,2.7749-5.30273,5.04492-8.56238,6.83105-2.92188,1.60107-5.48352,3.68896-7.79529,6.1001-.71198,.74268-1.29926,1.53076-1.78723,2.35742-.00385,.00684-.00775,.01318-.0116,.02002-1.05603,1.79688-1.59412,3.79199-1.57568,6.02051,0,.00293,.00043,.00635,.00043,.00977,.00464,.52197,.03156,1.04102,.07184,1.55859,.00848,.1084,.01984,.2168,.02979,.3252,.04016,.43896,.0907,.87695,.15369,1.3125,.01184,.08154,.02234,.16357,.03491,.24561,.16565,1.07471,.39337,2.14014,.67163,3.19629,.88818,3.37061,2.21576,6.59619,3.32928,9.89307,.65216,1.93115,1.34637,3.8501,1.30432,5.93066-.04016,1.98047-.1651,3.95801-.39984,5.92383-.52612,4.41016-.18048,8.75244,.86243,13.05762,.00226,.00977,.00403,.01904,.00629,.02832,.1546,.63672,.35681,1.23438,.58093,1.81445,.09076,.23486,.18402,.46777,.28619,.69336,.09863,.21777,.20654,.42822,.3158,.63721,.06854,.13135,.1402,.25977,.21295,.38721,1.23584,2.1709,3.06268,3.8623,5.5163,5.04883,.47644,.23047,.99304,.37939,1.49396,.55957,.27338,.09863,.45935,.21924,.56128,.35938,.00616,.00879,.01099,.01758,.01654,.02588,.01422,.02246,.02191,.0459,.03198,.06934,.09796,.2251,.00671,.49561-.28967,.81201-.06531,.06982-.1394,.13135-.20087,.20361-1.69104,1.99072-2.68402,4.2168-2.38904,6.90381,.03009,.27344,.07648,.53906,.13678,.79688,.91943,3.93066,5.22253,6.01562,8.9541,4.10107,1.86438-.95605,4.1554-.22217,5.11145,1.63379,.00415,.00781,.01025,.01416,.01434,.02197,.22284,.44141,.42932,.8916,.64337,1.33691,.38953,.81445,.75836,1.63965,1.16522,2.44385,.05286,.10449,.10535,.20898,.15973,.3125,.15833,.30127,.33221,.59375,.50885,.88525,.31824,.52441,.66034,1.03564,1.07117,1.50977,1.62384,1.87207,3.67639,2.55518,6.0918,2.2583,1.65582-.20459,3.13843-.89648,4.56769-1.70947,2.77759-1.57959,5.19543-3.65625,7.68677-5.62695,.83484-.66016,1.72992-.8916,2.76813-.77588,1.69543,.18945,3.17554,.89453,4.55585,1.84277,2.27722,1.56299,4.72339,2.76758,7.37915,3.5376,4.85461,1.40869,9.7569,1.82275,14.71503,.61377,4.8728-1.1875,9.26227-3.40088,13.32092-6.32617,2.52649-1.82129,4.60419-4.01562,6.16022-6.72266,1.52716-2.65723,2.40533-5.54053,3.10016-8.4917,1.01624-4.3125,1.38599-8.71582,1.71112-13.12012,.2749-3.71631,.89008-7.36963,1.97852-10.92969,.86871-2.84033,2.11658-5.5415,3.22693-8.2915,.95477-2.36572,1.53284-4.80615,1.78265-7.34717,.40363-4.10107-.1908-8.09229-1.24158-12.03174Zm-1.28485,19.89941c.28497-1.46045,.58124-2.9082,.86182-4.35986,.33142-1.71777,.20398-3.43848,.22467-5.16016,.00629-.53174-.01691-1.06543-.04578-1.59668-.16888-3.12598-.72815-6.17139-1.72241-9.15039-1.10602-3.31152-2.8692-6.23535-4.9776-8.98047-1.8316-2.3833-3.65192-4.77588-5.47729-7.16357-.20709-.27148-.39795-.55811-.75952-.77588,.31012-.0918,.43878,.09961,.57623,.20703,3.77557,2.9458,7.00195,6.38721,9.3175,10.60449,2.06012,3.74951,3.34247,7.76367,3.95514,12.01123,.71118,4.93213,.07593,9.66064-1.85107,14.23535-.02075,.04834-.0672,.08643-.10168,.12891Zm-2.28046-11.61182c-.22723-3.20166-.89319-6.33545-1.64203-9.45752,1.75818,2.88574,2.42542,6.08447,2.64447,9.37012,.21783,3.27197,.04962,6.53564-.90765,9.71191-.20276-3.21387,.13245-6.42236-.09479-9.62451Zm-6.89648,41.23633c-.45001,1.36914-.8913,2.7417-1.45374,4.07373-.53412,1.26514-1.32068,2.3667-2.34003,3.22461-.99298,.83643-2.08142,1.61133-3.30042,2.11572-1.43805,.59521-2.90118,1.12012-4.4585,1.35107-1.00745,.1499-2.01239,.08545-3.01923,.09326-.10986,.00098-.22662-.03662-.32953-.08057-.75262-.31885-.81476-.56934-.27808-1.17529,.57056-.64502,1.26227-1.16113,1.95966-1.64893,1.18945-.83301,2.26532-1.7832,3.28345-2.81348,2.75684-2.79004,4.89856-6.0752,7.33527-9.12207,1.39032-1.73926,2.35699-3.771,3.43347-5.71924,.20087-.36328,.38037-.74365,.73315-1.06348,.40234,.42969,.27997,.95264,.23914,1.38135-.14374,1.51025-.38287,3.01025-.7005,4.49854-.349,1.63281-.58063,3.29443-1.10413,4.88477Zm-34.10699,5.76367c-.91772-.01123-1.83978,.03125-2.71979,.20312-1.60565,.31299-3.18494,.07617-4.77551,.01318-1.10223-.04297-2.19696-.2207-3.3042-.1748-.20715,.00879-.42181-.0127-.62268-.06299-1.67596-.41748-3.3858-.66504-5.0686-1.05957-1.93518-.45312-3.78314-1.12744-5.61914-1.83789-1.4826-.57373-2.91315-1.28516-4.35242-1.96729-.88318-.41846-1.5611-1.14307-2.35388-1.70068-2.31934-1.6333-4.52063-3.40918-6.49286-5.47266-1.67407-1.75098-3.12531-3.66406-4.59973-5.57666-1.69354-2.19727-2.88678-4.62207-3.86536-7.18896-.44629-1.17041-.90326-2.33252-1.18762-3.55566-.24036-1.03564-.6283-2.0625-.68604-3.10791-.05713-1.01709,.09039-2.05713,.0188-3.09668,.86938,3.25342,1.81281,6.46338,3.21381,9.5127,2.80957,6.11621,6.62598,11.50049,11.81573,15.83643,5.2431,4.38037,11.27966,7.06055,17.99786,8.25586,3.40778,.60547,6.83875,.85498,10.2879,.66406,4.3493-.23975,8.5423-1.18945,12.51562-3.02441,.6239-.28809,1.23969-.62744,2.03876-.67773-.16949,.2749-.38037,.36279-.56744,.46875-2.82275,1.59375-5.8288,2.70605-9.00677,3.32373-.87189,.16943-1.77765,.2373-2.66644,.22607Zm-2.8504,5.98242c-1.21082,.83447-2.59106,1.02686-4.14276,1.06592-1.11981-.12061-2.36639-.25146-3.61237-.39111-.24609-.02734-.48645-.06445-.73694-.02686-1.3916,.20898-2.77753,.44482-4.13397,.82471-.50031,.14014-1.01312,.18506-1.52344,.21338-1.13861,.06152-2.27789,.11035-3.41718,.12744-1.64703,.0249-2.83655-.84131-3.77618-2.08496-.40991-.54297-.71936-1.16504-1.04132-1.76758-.22723-.42627-.30573-.89795-.25427-1.38477,.04205-.40332,.2561-.5293,.63025-.39502,.14246,.05127,.28809,.10498,.41742,.18262,1.92072,1.15234,4.0976,1.6084,6.24176,1.83154,2.71857,.28369,5.42896,.71973,8.172,.79492,1.40472,.03906,2.8045,.25342,4.20868,.28564,.92963,.021,1.8548,.04688,2.78003,.13281,.19647,.01807,.47394-.0752,.53729,.18799,.05023,.21143-.1958,.29883-.349,.40332Zm-14.99561-48.9707c-.32892-1.02197,.13055-2.13184,1.08466-2.61865l3.22131-1.64453,1.64459-3.22168c.48706-.9541,1.59436-1.40576,2.61871-1.08447l3.44232,1.11475,3.43976-1.11475c1.01184-.32129,2.13165,.13037,2.61871,1.08447l1.64709,3.22168,3.22131,1.64453c.9541,.48682,1.41357,1.59912,1.08466,2.61865l-1.11481,3.44238,1.11481,3.44189c.32892,1.01953-.13055,2.13184-1.08466,2.61914l-3.22131,1.64453-.33142,.64844v16.35449c0,.7832-.41931,1.50391-1.09723,1.89307-.33643,.1958-.71057,.29102-1.08716,.29102-.38165,0-.76074-.09766-1.09973-.2959l-4.09003-2.3877-4.09009,2.3877c-.67285,.39404-1.50897,.39893-2.18689,.00488-.67792-.38916-1.09723-1.10986-1.09723-1.89307v-16.354l-.33142-.64893-3.22131-1.64453c-.9541-.4873-1.41357-1.59717-1.08466-2.61914l1.11481-3.44189-1.11481-3.44238Zm27.23193,20.48779c-1.2077,0-2.18439-.97656-2.18439-2.18408,0-1.20801,.97668-2.18457,2.18439-2.18457h3.9444c.95911,0,1.73999-.78076,1.73999-1.74023v-25.73779c0-.95898-.78088-1.73975-1.73999-1.73975H41.17276c-.95911,0-1.73999,.78076-1.73999,1.73975v25.73779c0,.95947,.78088,1.74023,1.73999,1.74023h3.77625c1.20764,0,2.18433,.97656,2.18433,2.18457,0,1.20752-.97668,2.18408-2.18433,2.18408h-3.77625c-3.36945,0-6.1087-2.73926-6.1087-6.10889v-25.73779c0-3.36963,2.73926-6.10889,6.1087-6.10889h38.32953c3.36945,0,6.1087,2.73926,6.1087,6.10889v25.73779c0,3.36963-2.73926,6.10889-6.1087,6.10889h-3.9444Zm26.58661-20.22998c-.09918,1.61914-.33832,3.22852-.51788,4.84131l-.16754,.00195c0-1.23389,.02319-2.46777-.00439-3.70117-.10486-4.58594-1.0351-9.02295-2.48822-13.35742-.66406-1.98047-1.36963-3.94873-2.20947-5.86279-.96289-2.1958-2.01868-4.34473-3.52887-6.23242-.37164-.46387-.97296-.46875-1.48267-.60254-.26422-.06982-.43683-.17969-.60571-.34912-2.03247-2.03467-4.10571-4.02148-6.42133-5.74365-3.12152-2.32324-6.51416-4.12402-10.13538-5.53857-1.49261-.58301-2.9884-1.16211-4.54321-1.50195-3.45551-.75586-6.93225-1.40576-10.50763-1.13428-1.17377,.08936-2.35699,.04785-3.53326,.11475-1.27423,.07227-2.5033,.45264-3.76367,.63037-2.32434,.32812-4.52191,1.13477-6.74524,1.84033-.18073,.05713-.3609,.1333-.5473,.15625-.17261,.02197-.49341,.13232-.17328-.26807,.14813-.18555-.11169-.49219-.23285-.71582l-.49713-.22754c6.5318-3.1001,13.38495-4.23535,20.56073-3.30957,1.48889,.19189,2.95709,.53857,4.39514,.98291,2.34253,.72314,4.67633,1.46191,6.97369,2.33545,2.27911,.86719,4.53131,1.74951,6.64099,2.98291,2.69849,1.57764,5.12073,3.51904,7.33209,5.7002,3.03052,2.98975,5.7547,6.24414,7.72314,10.05566,1.1261,2.18164,1.94965,4.48877,2.7041,6.82666,.90576,2.80566,1.53473,5.65723,1.66846,8.6001,.05206,1.15771,.17761,2.32324,.10669,3.47607ZM65.82358,6.16618c4.12268,.16113,8.20459,.62695,12.08691,2.09668,2.42914,.91895,4.60034,2.31104,6.60333,3.99805,1.79517,1.51221,2.84845,3.4292,3.5885,5.58301,.03076,.08887,.07599,.17822,.086,.27051,.03326,.29932,.13055,.65088-.20337,.82275-.3465,.17822-.50024-.16553-.68164-.3667-1.36273-1.50928-2.59741-3.14844-4.19366-4.42773-2.29047-1.83643-4.7937-3.34375-7.64532-4.09961-4.09821-1.08691-8.24036-2-12.43903-2.62646-.65845-.09814-1.3194-.18018-1.98724-.17432-.11365,.00098-.23224,.00732-.34021-.02051-.1701-.04248-.34839-.13477-.36029-.31787-.01257-.19678,.20966-.18896,.33771-.23389,1.27924-.44727,2.6275-.37256,3.9494-.49805,.39612-.03809,.79846-.00586,1.19891-.00586ZM17.39066,83.09782c-1.72046-3.27783-3.00159-6.72852-3.79504-10.35156-.43182-1.97021-.68921-3.95703-.86621-5.97314-.16321-1.86475-.4375-3.73389-.67664-5.59912-.36786-2.86523-.8028-5.72852-.81854-8.62305-.01752-3.34961,.44568-6.63867,1.50586-9.82715,1.15308-3.46875,2.79138-6.63525,5.43896-9.24951,2.27478-2.24609,4.42712-4.61572,6.6228-6.94043,.44189-.46777,1.00372-.63184,1.68475-.84277-.27496,.6792-.57184,1.18213-.93085,1.65527-1.1048,1.45654-2.35388,2.79053-3.52264,4.19189-1.88055,2.25537-3.56403,4.64062-4.89417,7.27051-1.33258,2.63477-2.55219,5.3125-3.35126,8.16309-.4375,1.56104-.64899,3.16357-.82727,4.77002-.18268,1.646-.20966,3.29346-.10107,4.95117,.14062,2.14258,.53229,4.24121,.85052,6.35742,.32764,2.17725,.87689,4.31738,1.01562,6.53125,.17639,2.81738,.8844,5.54932,1.62573,8.26611,.18329,.67285,.59631,1.22998,.91266,1.8335,1.1355,2.16064,2.38525,4.2373,4.11389,6.00391,.80658,.82471,1.4613,1.79883,2.1781,2.71045,.09229,.1167,.1532,.26074,.21216,.40039,.05841,.13965,.11676,.2959-.02759,.4209-.12805,.10986-.29065,.11377-.4306,.04395-.32141-.16113-.66785-.30078-.94281-.52539-.74823-.61035-1.49078-1.22021-2.1712-1.92236-1.09534-1.13037-2.08081-2.33447-2.80518-3.71533Zm12.28021,16.95703c-1.54913,.25928-2.41724-.45312-2.57477-2.02002-.05652-.56396-.21844-1.11523-.00757-1.68799,.36908-1.00342,1.03381-1.21387,1.78772-.4707,.85114,.83936,1.80774,1.50293,2.86914,2.03809,.46765,.23535,.9585,.36719,1.4632,.46094,.51532,.09619,.9635,.31934,1.42426,.64355-.22162,.20264-.44067,.23438-.63965,.25684-1.46002,.15918-2.87921,.5376-4.32233,.7793Z"/><path class="cls-1" d="M57.33212,73.43131v9.03467l1.9057-1.11182c.33893-.19873,.72058-.29639,1.09973-.29639,.37909,0,.76074,.09766,1.09967,.29639l1.9057,1.11182v-9.03369l-3.00537-.97412-3.00543,.97314Z"/><path class="cls-1" d="M53.0563,64.57682l2.1944,1.12012c.40924,.20801,.74316,.54199,.9516,.95166l1.11981,2.19434,2.34253-.7583c.21844-.07031,.4469-.10547,.67291-.10547,.22595,0,.45441,.03516,.67285,.10547l2.34259,.7583,1.11981-2.19434c.21088-.40967,.5423-.74365,.95154-.95166l2.19446-1.12012-.7608-2.34229c-.14056-.43701-.14056-.90918,0-1.3457l.7608-2.34277-2.19446-1.11963c-.40924-.2085-.74066-.54248-.95154-.95166l-1.11981-2.19434-2.34259,.76074c-.43689,.14062-.90887,.14062-1.34576,0l-2.34253-.76074-1.11981,2.19434c-.20844,.40918-.54236,.74316-.9516,.95166l-2.1944,1.11963,.75824,2.34277c.14056,.43652,.14056,.90869,0,1.3457l-.75824,2.34229Z"/></svg>